<svg width="128" height="26" viewBox="0 0 128 26" fill="none" xmlns="http://www.w3.org/2000/svg">
<path d="M2.95496 8.06763L11.4183 12.9548L11.4183 22.6539L2.95496 17.9171L2.95496 8.06763Z" fill="white"/>
<path d="M2.95489 8.0539L10.7743 3.48102L14.0074 5.36069L6.11276 9.93358L2.95489 8.0539Z" fill="white"/>
<path d="M8.29316 11.1501L16.0374 6.56369L19.2705 8.44337L11.451 12.9546L8.29316 11.1501Z" fill="white"/>
<path d="M1 7.01497L11.3758 1V3.10524L2.95486 7.9924V17.8269L6.11272 19.5712V9.94726L16.3382 4.08267V6.41347L8.21796 11.1503V20.7742L11.451 22.6539V12.9829L21.7516 7.01497V18.9196L11.3758 24.9847L1 19.1869V7.01497Z" fill="#00B3EF" stroke="#00B3EF" stroke-width="0.5"/>
<path d="M38.7909 7.71733C38.9667 7.82933 39.0546 7.98489 39.0546 8.184C39.0546 8.296 39.0136 8.42045 38.9316 8.55733C38.8261 8.69422 38.6913 8.76267 38.5273 8.76267C38.4335 8.76267 38.3397 8.73155 38.246 8.66933C37.3085 8.00978 36.2831 7.68 35.1699 7.68C34.2207 7.68 33.3593 7.91645 32.5859 8.38933C31.8242 8.86222 31.2207 9.528 30.7754 10.3867C30.3418 11.2329 30.125 12.1973 30.125 13.28C30.125 14.3875 30.3476 15.3707 30.793 16.2293C31.2383 17.0755 31.8418 17.7351 32.6035 18.208C33.3769 18.6685 34.2324 18.8987 35.1699 18.8987C36.2831 18.8987 37.3026 18.5751 38.2284 17.928C38.3222 17.8658 38.4218 17.8347 38.5273 17.8347C38.6913 17.8347 38.8261 17.9093 38.9316 18.0587C39.0136 18.1582 39.0546 18.2765 39.0546 18.4133C39.0546 18.6125 38.9726 18.7618 38.8085 18.8613C38.3515 19.1849 37.789 19.4587 37.121 19.6827C36.4531 19.8942 35.8027 20 35.1699 20C34.0566 20 33.0254 19.72 32.0761 19.16C31.1387 18.5875 30.3887 17.7911 29.8262 16.7707C29.2754 15.7502 29 14.5867 29 13.28C29 12.0231 29.2754 10.8845 29.8262 9.864C30.3769 8.83111 31.1211 8.02844 32.0586 7.456C32.996 6.87111 34.0331 6.57867 35.1699 6.57867C35.8261 6.57867 36.4648 6.67822 37.0859 6.87733C37.7187 7.07645 38.287 7.35645 38.7909 7.71733ZM49.3258 15.0347C49.3258 15.968 49.1324 16.8142 48.7457 17.5733C48.359 18.3325 47.8258 18.9298 47.1461 19.3653C46.4664 19.7885 45.7105 20 44.8785 20C44.0465 20 43.2907 19.7885 42.611 19.3653C41.9313 18.9298 41.3981 18.3325 41.0114 17.5733C40.6247 16.8142 40.4313 15.968 40.4313 15.0347C40.4313 14.1013 40.6247 13.2551 41.0114 12.496C41.3981 11.7369 41.9313 11.1395 42.611 10.704C43.2907 10.2684 44.0465 10.0507 44.8785 10.0507C45.7105 10.0507 46.4664 10.2684 47.1461 10.704C47.8258 11.1395 48.359 11.7369 48.7457 12.496C49.1324 13.2551 49.3258 14.1013 49.3258 15.0347ZM48.2711 15.0347C48.2711 14.288 48.1246 13.616 47.8316 13.0187C47.5386 12.4213 47.1285 11.9547 46.6012 11.6187C46.0856 11.2702 45.5113 11.096 44.8785 11.096C44.2457 11.096 43.6715 11.2702 43.1559 11.6187C42.6403 11.9547 42.2301 12.4213 41.9254 13.0187C41.6325 13.616 41.486 14.288 41.486 15.0347C41.486 15.7689 41.6325 16.4347 41.9254 17.032C42.2301 17.6293 42.6403 18.1022 43.1559 18.4507C43.6715 18.7867 44.2457 18.9547 44.8785 18.9547C45.5113 18.9547 46.0856 18.7867 46.6012 18.4507C47.1285 18.1147 47.5386 17.648 47.8316 17.0507C48.1246 16.4533 48.2711 15.7813 48.2711 15.0347ZM55.7193 10.0507C56.8092 10.0507 57.606 10.3929 58.11 11.0773C58.6256 11.7493 58.8834 12.6453 58.8834 13.7653V19.2533C58.8834 19.4151 58.8306 19.552 58.7252 19.664C58.6197 19.7635 58.4967 19.8133 58.356 19.8133C58.2037 19.8133 58.0748 19.7635 57.9693 19.664C57.8756 19.552 57.8287 19.4151 57.8287 19.2533V13.8213C57.8287 13.0125 57.6353 12.3591 57.2486 11.8613C56.8736 11.3511 56.2877 11.096 55.4908 11.096C54.9869 11.096 54.5065 11.2205 54.0494 11.4693C53.6041 11.7182 53.2409 12.0542 52.9596 12.4773C52.6784 12.888 52.5377 13.336 52.5377 13.8213V19.2533C52.5377 19.4151 52.485 19.552 52.3795 19.664C52.2858 19.7635 52.1627 19.8133 52.0104 19.8133C51.858 19.8133 51.7292 19.7635 51.6237 19.664C51.5299 19.552 51.4831 19.4151 51.4831 19.2533V10.8907C51.4831 10.7289 51.5299 10.5982 51.6237 10.4987C51.7292 10.3867 51.858 10.3307 52.0104 10.3307C52.1627 10.3307 52.2858 10.3867 52.3795 10.4987C52.485 10.5982 52.5377 10.7289 52.5377 10.8907V11.9173C52.8541 11.3822 53.3053 10.9405 53.8912 10.592C54.4889 10.2311 55.0982 10.0507 55.7193 10.0507ZM65.8816 10.0507C66.9714 10.0507 67.7683 10.3929 68.2722 11.0773C68.7878 11.7493 69.0456 12.6453 69.0456 13.7653V19.2533C69.0456 19.4151 68.9929 19.552 68.8874 19.664C68.782 19.7635 68.6589 19.8133 68.5183 19.8133C68.3659 19.8133 68.2371 19.7635 68.1316 19.664C68.0378 19.552 67.991 19.4151 67.991 19.2533V13.8213C67.991 13.0125 67.7976 12.3591 67.4109 11.8613C67.0359 11.3511 66.45 11.096 65.6531 11.096C65.1492 11.096 64.6687 11.2205 64.2117 11.4693C63.7664 11.7182 63.4031 12.0542 63.1219 12.4773C62.8406 12.888 62.7 13.336 62.7 13.8213V19.2533C62.7 19.4151 62.6473 19.552 62.5418 19.664C62.448 19.7635 62.325 19.8133 62.1727 19.8133C62.0203 19.8133 61.8914 19.7635 61.7859 19.664C61.6922 19.552 61.6453 19.4151 61.6453 19.2533V10.8907C61.6453 10.7289 61.6922 10.5982 61.7859 10.4987C61.8914 10.3867 62.0203 10.3307 62.1727 10.3307C62.325 10.3307 62.448 10.3867 62.5418 10.4987C62.6473 10.5982 62.7 10.7289 62.7 10.8907V11.9173C63.0164 11.3822 63.4675 10.9405 64.0535 10.592C64.6512 10.2311 65.2605 10.0507 65.8816 10.0507ZM79.4013 14.4933C79.4013 14.6427 79.3486 14.7733 79.2431 14.8853C79.1376 14.9849 79.0146 15.0347 78.874 15.0347H72.2295C72.2295 15.7813 72.3701 16.4533 72.6514 17.0507C72.9445 17.6355 73.3545 18.1022 73.8818 18.4507C74.421 18.7867 75.0538 18.9547 75.7803 18.9547C76.3427 18.9547 76.8468 18.8302 77.292 18.5813C77.7371 18.3325 78.0948 18.0151 78.3642 17.6293C78.493 17.5173 78.616 17.4613 78.7334 17.4613C78.8507 17.4613 78.9561 17.5111 79.0498 17.6107C79.1434 17.7102 79.1904 17.8222 79.1904 17.9467C79.1904 18.0835 79.1319 18.2142 79.0146 18.3387C78.6397 18.824 78.1651 19.2222 77.5908 19.5333C77.0283 19.8445 76.4306 20 75.7978 20C74.8956 20 74.0985 19.7947 73.4072 19.384C72.716 18.9733 72.1767 18.4009 71.79 17.6667C71.4033 16.92 71.2099 16.0613 71.2099 15.0907C71.2099 14.0702 71.3974 13.1805 71.7724 12.4213C72.1591 11.6498 72.669 11.0649 73.3018 10.6667C73.9346 10.256 74.6082 10.0507 75.3232 10.0507C76.0263 10.0507 76.6824 10.2249 77.292 10.5733C77.9129 10.9218 78.4169 11.432 78.8037 12.104C79.1904 12.776 79.3894 13.5725 79.4013 14.4933ZM75.3232 11.1333C74.6434 11.1333 74.0106 11.3822 73.4248 11.88C72.8504 12.3778 72.4814 13.0933 72.3173 14.0267H78.3115V13.8773C78.253 13.3173 78.0773 12.832 77.7841 12.4213C77.491 11.9982 77.1219 11.6809 76.6767 11.4693C76.243 11.2453 75.7921 11.1333 75.3232 11.1333ZM88.6939 18.824C88.7994 18.9485 88.8521 19.0915 88.8521 19.2533C88.8521 19.4151 88.7879 19.552 88.6587 19.664C88.5419 19.7635 88.4302 19.8133 88.3248 19.8133C88.1727 19.8133 88.0435 19.7449 87.938 19.608L84.0533 15.24L82.735 16.4347V19.2533C82.735 19.4151 82.6822 19.552 82.5768 19.664C82.4832 19.7635 82.3601 19.8133 82.2076 19.8133C82.0556 19.8133 81.9264 19.7635 81.8209 19.664C81.7273 19.552 81.6803 19.4151 81.6803 19.2533V6.56C81.6803 6.39822 81.7273 6.26755 81.8209 6.168C81.9264 6.056 82.0556 6 82.2076 6C82.3601 6 82.4832 6.056 82.5768 6.168C82.6822 6.26755 82.735 6.39822 82.735 6.56V15.072L87.815 10.424C87.9205 10.2996 88.0435 10.2373 88.1841 10.2373C88.3133 10.2373 88.4302 10.2996 88.5357 10.424C88.6412 10.536 88.6939 10.6605 88.6939 10.7973C88.6939 10.9467 88.6297 11.0898 88.5005 11.2267L84.8795 14.4933L88.6939 18.824ZM92.7399 11.3573V17.6107C92.7399 18.0835 92.8216 18.4071 92.986 18.5813C93.1499 18.7431 93.3666 18.824 93.6364 18.824C93.7067 18.824 93.7946 18.8115 93.9001 18.7867C94.0055 18.7493 94.0873 18.7307 94.1461 18.7307C94.2516 18.7307 94.3395 18.7805 94.4098 18.88C94.4916 18.9671 94.5329 19.0729 94.5329 19.1973C94.5329 19.3715 94.4388 19.5209 94.2516 19.6453C94.064 19.7573 93.8412 19.8133 93.5837 19.8133C93.2673 19.8133 92.986 19.7822 92.7399 19.72C92.4938 19.6578 92.2534 19.4711 92.0192 19.16C91.7964 18.8489 91.6852 18.3511 91.6852 17.6667V11.3573H90.402C90.2614 11.3573 90.1384 11.3075 90.0329 11.208C89.9389 11.1085 89.8923 10.984 89.8923 10.8347C89.8923 10.6853 89.9389 10.5609 90.0329 10.4613C90.1384 10.3618 90.2614 10.312 90.402 10.312H91.6852V8.24C91.6852 8.07822 91.7318 7.94755 91.8259 7.848C91.9313 7.736 92.0601 7.68 92.2126 7.68C92.3646 7.68 92.4877 7.736 92.5817 7.848C92.6872 7.94755 92.7399 8.07822 92.7399 8.24V10.312H94.4977C94.6265 10.312 94.7377 10.368 94.8317 10.48C94.9372 10.592 94.9899 10.7165 94.9899 10.8533C94.9899 11.0027 94.9429 11.1271 94.8493 11.2267C94.7552 11.3138 94.6383 11.3573 94.4977 11.3573H92.7399ZM106.009 6.74667C106.173 6.74667 106.302 6.80267 106.395 6.91467C106.501 7.01422 106.554 7.15111 106.554 7.32533V19.2347C106.542 19.4089 106.483 19.552 106.378 19.664C106.272 19.7635 106.144 19.8133 105.991 19.8133C105.839 19.8133 105.71 19.7573 105.604 19.6453C105.499 19.5333 105.446 19.3965 105.446 19.2347V13.672H98.3095V19.2347C98.2981 19.3965 98.2392 19.5333 98.1337 19.6453C98.0282 19.7573 97.8995 19.8133 97.747 19.8133C97.5831 19.8133 97.4482 19.7635 97.3427 19.664C97.2491 19.552 97.2021 19.4089 97.2021 19.2347V7.32533C97.2021 7.15111 97.2548 7.01422 97.3603 6.91467C97.4658 6.80267 97.6007 6.74667 97.7646 6.74667C97.9171 6.74667 98.0458 6.80267 98.1513 6.91467C98.2568 7.02667 98.3095 7.16355 98.3095 7.32533V12.5893H105.446V7.32533C105.446 7.16355 105.499 7.02667 105.604 6.91467C105.722 6.80267 105.857 6.74667 106.009 6.74667ZM116.305 10.3307C116.457 10.3307 116.58 10.3867 116.674 10.4987C116.779 10.5982 116.832 10.7289 116.832 10.8907V16.1547C116.832 17.3742 116.51 18.3138 115.865 18.9733C115.221 19.6205 114.33 19.944 113.193 19.944C112.068 19.944 111.184 19.6205 110.539 18.9733C109.906 18.3138 109.59 17.3742 109.59 16.1547V10.8907C109.59 10.7289 109.637 10.5982 109.73 10.4987C109.836 10.3867 109.965 10.3307 110.117 10.3307C110.27 10.3307 110.393 10.3867 110.486 10.4987C110.592 10.5982 110.644 10.7289 110.644 10.8907V16.1547C110.644 17.0507 110.867 17.7351 111.312 18.208C111.758 18.6685 112.385 18.8987 113.193 18.8987C114.014 18.8987 114.646 18.6685 115.092 18.208C115.549 17.7351 115.777 17.0507 115.777 16.1547V10.8907C115.777 10.7289 115.824 10.5982 115.918 10.4987C116.023 10.3867 116.152 10.3307 116.305 10.3307ZM123.869 10.0507C124.643 10.0507 125.346 10.2622 125.979 10.6853C126.611 11.1085 127.104 11.6995 127.455 12.4587C127.819 13.2053 128 14.0515 128 14.9973C128 15.9307 127.819 16.7831 127.455 17.5547C127.104 18.3138 126.611 18.9111 125.979 19.3467C125.358 19.7822 124.66 20 123.887 20C123.219 20 122.598 19.8258 122.023 19.4773C121.461 19.1165 121.004 18.6435 120.652 18.0587V19.2907C120.652 19.4525 120.6 19.5893 120.494 19.7013C120.401 19.8133 120.278 19.8693 120.125 19.8693C119.973 19.8693 119.844 19.8133 119.738 19.7013C119.645 19.5893 119.598 19.4525 119.598 19.2907V6.57867C119.598 6.41689 119.645 6.28622 119.738 6.18667C119.844 6.07467 119.973 6.01867 120.125 6.01867C120.278 6.01867 120.401 6.07467 120.494 6.18667C120.6 6.28622 120.652 6.41689 120.652 6.57867V12.0853C120.969 11.4755 121.414 10.984 121.988 10.6107C122.563 10.2373 123.189 10.0507 123.869 10.0507ZM123.781 18.9547C124.391 18.9547 124.936 18.7805 125.416 18.432C125.908 18.0835 126.289 17.6107 126.559 17.0133C126.84 16.4035 126.98 15.7315 126.98 14.9973C126.98 14.2507 126.84 13.5849 126.559 13C126.289 12.4027 125.908 11.936 125.416 11.6C124.936 11.264 124.391 11.096 123.781 11.096C123.16 11.096 122.604 11.264 122.111 11.6C121.619 11.9235 121.238 12.384 120.969 12.9813C120.699 13.5787 120.565 14.2507 120.565 14.9973C120.565 15.744 120.699 16.4222 120.969 17.032C121.25 17.6293 121.631 18.1022 122.111 18.4507C122.604 18.7867 123.16 18.9547 123.781 18.9547Z" fill="white"/>
</svg>
