<svg width="307" height="60" viewBox="0 0 307 60" fill="none" xmlns="http://www.w3.org/2000/svg">
<path d="M5.71014 18.0289L26.1022 29.8043L26.1022 53.1738L5.71014 41.7608L5.71014 18.0289Z" fill="white"/>
<path d="M5.71012 17.9965L24.5507 6.97836L32.3405 11.5073L13.3189 22.5255L5.71012 17.9965Z" fill="white"/>
<path d="M18.5724 25.4566L37.2318 14.4059L45.0217 18.9349L26.1812 29.8044L18.5724 25.4566Z" fill="white"/>
<path d="M1 15.4928L26 1V6.07246L5.71014 17.8478V41.5435L13.3188 45.7464V22.558L37.9565 8.42754V14.0435L18.3913 25.4565V48.6449L26.1812 53.1739V29.8723L51 15.4928V44.1763L26 58.7899L1 44.8204V15.4928Z" fill="#00B3EF" stroke="#00B3EF" stroke-width="0.5"/>
<path d="M90.7356 17.9253C91.1617 18.1813 91.3748 18.5369 91.3748 18.992C91.3748 19.248 91.2754 19.5324 91.0765 19.8453C90.8208 20.1582 90.4941 20.3147 90.0964 20.3147C89.8692 20.3147 89.6418 20.2436 89.4146 20.1013C87.1419 18.5938 84.6561 17.84 81.9573 17.84C79.6561 17.84 77.5681 18.3804 75.6931 19.4613C73.8465 20.5422 72.3835 22.064 71.3039 24.0267C70.2528 25.9609 69.7272 28.1653 69.7272 30.64C69.7272 33.1715 70.267 35.4187 71.3466 37.3813C72.4261 39.3155 73.8891 40.8231 75.7357 41.904C77.6107 42.9565 79.6846 43.4827 81.9573 43.4827C84.6561 43.4827 87.1276 42.7431 89.372 41.264C89.5992 41.1218 89.8407 41.0507 90.0964 41.0507C90.4941 41.0507 90.8208 41.2213 91.0765 41.5627C91.2754 41.7902 91.3748 42.0605 91.3748 42.3733C91.3748 42.8285 91.1759 43.1698 90.7782 43.3973C89.6703 44.1369 88.3066 44.7627 86.6873 45.2747C85.068 45.7582 83.4913 46 81.9573 46C79.2584 46 76.7584 45.36 74.4573 44.08C72.1846 42.7715 70.3664 40.9511 69.0028 38.6187C67.6676 36.2862 67 33.6267 67 30.64C67 27.7671 67.6676 25.1645 69.0028 22.832C70.338 20.4711 72.142 18.6364 74.4147 17.328C76.6874 15.9911 79.2016 15.3227 81.9573 15.3227C83.5481 15.3227 85.0965 15.5502 86.6021 16.0053C88.1362 16.4604 89.514 17.1004 90.7356 17.9253ZM116.275 34.6507C116.275 36.784 115.806 38.7182 114.868 40.4533C113.931 42.1885 112.638 43.5538 110.991 44.5493C109.343 45.5165 107.51 46 105.493 46C103.476 46 101.644 45.5165 99.9963 44.5493C98.3485 43.5538 97.056 42.1885 96.1185 40.4533C95.181 38.7182 94.7123 36.784 94.7123 34.6507C94.7123 32.5173 95.181 30.5831 96.1185 28.848C97.056 27.1129 98.3485 25.7475 99.9963 24.752C101.644 23.7564 103.476 23.2587 105.493 23.2587C107.51 23.2587 109.343 23.7564 110.991 24.752C112.638 25.7475 113.931 27.1129 114.868 28.848C115.806 30.5831 116.275 32.5173 116.275 34.6507ZM113.718 34.6507C113.718 32.944 113.363 31.408 112.652 30.0427C111.942 28.6773 110.948 27.6107 109.67 26.8427C108.42 26.0462 107.027 25.648 105.493 25.648C103.959 25.648 102.567 26.0462 101.317 26.8427C100.067 27.6107 99.073 28.6773 98.3344 30.0427C97.6241 31.408 97.2691 32.944 97.2691 34.6507C97.2691 36.3289 97.6241 37.8507 98.3344 39.216C99.073 40.5813 100.067 41.6622 101.317 42.4587C102.567 43.2267 103.959 43.6107 105.493 43.6107C107.027 43.6107 108.42 43.2267 109.67 42.4587C110.948 41.6907 111.942 40.624 112.652 39.2587C113.363 37.8933 113.718 36.3573 113.718 34.6507ZM131.774 23.2587C134.416 23.2587 136.348 24.0409 137.57 25.6053C138.82 27.1413 139.445 29.1893 139.445 31.7493V44.2933C139.445 44.6631 139.317 44.976 139.061 45.232C138.805 45.4595 138.507 45.5733 138.166 45.5733C137.797 45.5733 137.484 45.4595 137.229 45.232C137.001 44.976 136.888 44.6631 136.888 44.2933V31.8773C136.888 30.0285 136.419 28.5351 135.482 27.3973C134.572 26.2311 133.152 25.648 131.22 25.648C129.999 25.648 128.834 25.9325 127.726 26.5013C126.646 27.0702 125.766 27.8382 125.084 28.8053C124.402 29.744 124.061 30.768 124.061 31.8773V44.2933C124.061 44.6631 123.933 44.976 123.678 45.232C123.45 45.4595 123.152 45.5733 122.783 45.5733C122.413 45.5733 122.101 45.4595 121.845 45.232C121.618 44.976 121.504 44.6631 121.504 44.2933V25.1787C121.504 24.8089 121.618 24.5102 121.845 24.2827C122.101 24.0267 122.413 23.8987 122.783 23.8987C123.152 23.8987 123.45 24.0267 123.678 24.2827C123.933 24.5102 124.061 24.8089 124.061 25.1787V27.5253C124.828 26.3022 125.922 25.2925 127.342 24.496C128.791 23.6711 130.268 23.2587 131.774 23.2587ZM156.41 23.2587C159.052 23.2587 160.984 24.0409 162.205 25.6053C163.455 27.1413 164.08 29.1893 164.08 31.7493V44.2933C164.08 44.6631 163.953 44.976 163.697 45.232C163.441 45.4595 163.143 45.5733 162.802 45.5733C162.433 45.5733 162.12 45.4595 161.864 45.232C161.637 44.976 161.524 44.6631 161.524 44.2933V31.8773C161.524 30.0285 161.055 28.5351 160.117 27.3973C159.208 26.2311 157.788 25.648 155.856 25.648C154.634 25.648 153.47 25.9325 152.362 26.5013C151.282 27.0702 150.402 27.8382 149.72 28.8053C149.038 29.744 148.697 30.768 148.697 31.8773V44.2933C148.697 44.6631 148.569 44.976 148.313 45.232C148.086 45.4595 147.788 45.5733 147.419 45.5733C147.049 45.5733 146.737 45.4595 146.481 45.232C146.254 44.976 146.14 44.6631 146.14 44.2933V25.1787C146.14 24.8089 146.254 24.5102 146.481 24.2827C146.737 24.0267 147.049 23.8987 147.419 23.8987C147.788 23.8987 148.086 24.0267 148.313 24.2827C148.569 24.5102 148.697 24.8089 148.697 25.1787V27.5253C149.464 26.3022 150.558 25.2925 151.978 24.496C153.427 23.6711 154.904 23.2587 156.41 23.2587ZM189.185 33.4133C189.185 33.7547 189.057 34.0533 188.801 34.3093C188.546 34.5369 188.248 34.6507 187.907 34.6507H171.799C171.799 36.3573 172.14 37.8933 172.822 39.2587C173.532 40.5955 174.526 41.6622 175.804 42.4587C177.112 43.2267 178.646 43.6107 180.407 43.6107C181.77 43.6107 182.992 43.3262 184.071 42.7573C185.151 42.1885 186.018 41.4631 186.671 40.5813C186.983 40.3253 187.281 40.1973 187.566 40.1973C187.85 40.1973 188.106 40.3111 188.333 40.5387C188.56 40.7662 188.674 41.0222 188.674 41.3067C188.674 41.6195 188.532 41.9182 188.248 42.2027C187.339 43.312 186.188 44.2222 184.796 44.9333C183.432 45.6445 181.983 46 180.449 46C178.262 46 176.33 45.5307 174.654 44.592C172.978 43.6533 171.671 42.3449 170.733 40.6667C169.796 38.96 169.327 36.9973 169.327 34.7787C169.327 32.4462 169.782 30.4125 170.691 28.6773C171.628 26.9138 172.864 25.5769 174.398 24.6667C175.932 23.728 177.565 23.2587 179.299 23.2587C181.003 23.2587 182.594 23.6569 184.071 24.4533C185.577 25.2498 186.799 26.416 187.736 27.952C188.674 29.488 189.156 31.3085 189.185 33.4133ZM179.299 25.7333C177.651 25.7333 176.117 26.3022 174.696 27.44C173.304 28.5778 172.409 30.2133 172.012 32.3467H186.543V32.0053C186.401 30.7253 185.975 29.616 185.265 28.6773C184.554 27.7102 183.659 26.9849 182.58 26.5013C181.528 25.9893 180.435 25.7333 179.299 25.7333ZM211.712 43.312C211.968 43.5965 212.096 43.9235 212.096 44.2933C212.096 44.6631 211.94 44.976 211.627 45.232C211.344 45.4595 211.073 45.5733 210.818 45.5733C210.449 45.5733 210.136 45.4169 209.88 45.104L200.463 35.12L197.267 37.8507V44.2933C197.267 44.6631 197.139 44.976 196.883 45.232C196.656 45.4595 196.358 45.5733 195.988 45.5733C195.62 45.5733 195.306 45.4595 195.051 45.232C194.824 44.976 194.71 44.6631 194.71 44.2933V15.28C194.71 14.9102 194.824 14.6116 195.051 14.384C195.306 14.128 195.62 14 195.988 14C196.358 14 196.656 14.128 196.883 14.384C197.139 14.6116 197.267 14.9102 197.267 15.28V34.736L209.582 24.112C209.838 23.8276 210.136 23.6853 210.477 23.6853C210.79 23.6853 211.073 23.8276 211.329 24.112C211.585 24.368 211.712 24.6525 211.712 24.9653C211.712 25.3067 211.557 25.6338 211.244 25.9467L202.465 33.4133L211.712 43.312ZM221.521 26.2453V40.5387C221.521 41.6195 221.719 42.3591 222.118 42.7573C222.515 43.1271 223.04 43.312 223.694 43.312C223.865 43.312 224.078 43.2835 224.333 43.2267C224.589 43.1413 224.787 43.0987 224.93 43.0987C225.186 43.0987 225.399 43.2125 225.569 43.44C225.767 43.6391 225.868 43.8809 225.868 44.1653C225.868 44.5635 225.64 44.9049 225.186 45.1893C224.731 45.4453 224.191 45.5733 223.566 45.5733C222.799 45.5733 222.118 45.5022 221.521 45.36C220.924 45.2178 220.342 44.7911 219.774 44.08C219.234 43.3689 218.964 42.2311 218.964 40.6667V26.2453H215.853C215.513 26.2453 215.214 26.1315 214.959 25.904C214.731 25.6765 214.618 25.392 214.618 25.0507C214.618 24.7093 214.731 24.4249 214.959 24.1973C215.214 23.9698 215.513 23.856 215.853 23.856H218.964V19.12C218.964 18.7502 219.077 18.4516 219.305 18.224C219.561 17.968 219.873 17.84 220.243 17.84C220.611 17.84 220.91 17.968 221.137 18.224C221.393 18.4516 221.521 18.7502 221.521 19.12V23.856H225.782C226.094 23.856 226.364 23.984 226.592 24.24C226.848 24.496 226.976 24.7805 226.976 25.0933C226.976 25.4347 226.862 25.7191 226.635 25.9467C226.407 26.1458 226.123 26.2453 225.782 26.2453H221.521ZM253.688 15.7067C254.086 15.7067 254.398 15.8347 254.625 16.0907C254.881 16.3182 255.009 16.6311 255.009 17.0293V44.2507C254.981 44.6489 254.838 44.976 254.583 45.232C254.327 45.4595 254.015 45.5733 253.645 45.5733C253.276 45.5733 252.963 45.4453 252.708 45.1893C252.452 44.9333 252.324 44.6205 252.324 44.2507V31.536H235.023V44.2507C234.995 44.6205 234.853 44.9333 234.597 45.1893C234.341 45.4453 234.029 45.5733 233.659 45.5733C233.262 45.5733 232.935 45.4595 232.679 45.232C232.452 44.976 232.338 44.6489 232.338 44.2507V17.0293C232.338 16.6311 232.466 16.3182 232.722 16.0907C232.978 15.8347 233.305 15.7067 233.702 15.7067C234.072 15.7067 234.384 15.8347 234.64 16.0907C234.895 16.3467 235.023 16.6596 235.023 17.0293V29.0613H252.324V17.0293C252.324 16.6596 252.452 16.3467 252.708 16.0907C252.992 15.8347 253.319 15.7067 253.688 15.7067ZM278.647 23.8987C279.017 23.8987 279.315 24.0267 279.542 24.2827C279.798 24.5102 279.926 24.8089 279.926 25.1787V37.2107C279.926 39.9982 279.145 42.1458 277.582 43.6533C276.02 45.1325 273.861 45.872 271.105 45.872C268.377 45.872 266.233 45.1325 264.67 43.6533C263.136 42.1458 262.369 39.9982 262.369 37.2107V25.1787C262.369 24.8089 262.483 24.5102 262.71 24.2827C262.966 24.0267 263.279 23.8987 263.647 23.8987C264.017 23.8987 264.315 24.0267 264.542 24.2827C264.798 24.5102 264.926 24.8089 264.926 25.1787V37.2107C264.926 39.2587 265.466 40.8231 266.545 41.904C267.625 42.9565 269.145 43.4827 271.105 43.4827C273.094 43.4827 274.628 42.9565 275.707 41.904C276.815 40.8231 277.369 39.2587 277.369 37.2107V25.1787C277.369 24.8089 277.483 24.5102 277.71 24.2827C277.965 24.0267 278.279 23.8987 278.647 23.8987ZM296.986 23.2587C298.861 23.2587 300.565 23.7422 302.099 24.7093C303.634 25.6765 304.827 27.0275 305.679 28.7627C306.56 30.4693 307 32.4035 307 34.5653C307 36.6987 306.56 38.6471 305.679 40.4107C304.827 42.1458 303.634 43.5111 302.099 44.5067C300.594 45.5022 298.903 46 297.029 46C295.409 46 293.904 45.6018 292.512 44.8053C291.148 43.9805 290.04 42.8995 289.188 41.5627V44.3787C289.188 44.7485 289.06 45.0613 288.804 45.3173C288.577 45.5733 288.279 45.7013 287.909 45.7013C287.54 45.7013 287.227 45.5733 286.972 45.3173C286.745 45.0613 286.631 44.7485 286.631 44.3787V15.3227C286.631 14.9529 286.745 14.6542 286.972 14.4267C287.227 14.1707 287.54 14.0427 287.909 14.0427C288.279 14.0427 288.577 14.1707 288.804 14.4267C289.06 14.6542 289.188 14.9529 289.188 15.3227V27.9093C289.955 26.5155 291.034 25.392 292.426 24.5387C293.819 23.6853 295.338 23.2587 296.986 23.2587ZM296.773 43.6107C298.25 43.6107 299.571 43.2125 300.736 42.416C301.929 41.6195 302.853 40.5387 303.506 39.1733C304.188 37.7795 304.528 36.2435 304.528 34.5653C304.528 32.8587 304.188 31.3369 303.506 30C302.853 28.6347 301.929 27.568 300.736 26.8C299.571 26.032 298.25 25.648 296.773 25.648C295.268 25.648 293.918 26.032 292.725 26.8C291.531 27.5395 290.608 28.592 289.955 29.9573C289.302 31.3227 288.975 32.8587 288.975 34.5653C288.975 36.272 289.302 37.8222 289.955 39.216C290.637 40.5813 291.56 41.6622 292.725 42.4587C293.918 43.2267 295.268 43.6107 296.773 43.6107Z" fill="#363636"/>
</svg>
