<svg width="23" height="26" viewBox="0 0 23 26" fill="none" xmlns="http://www.w3.org/2000/svg">
<path d="M2.95618 8.07227L11.4249 12.9625L11.4249 22.6679L2.95618 17.9281L2.95618 8.07227Z" fill="white"/>
<path d="M2.95605 8.05854L10.7805 3.48274L14.0156 5.36361L6.11594 9.93942L2.95605 8.05854Z" fill="white"/>
<path d="M8.29774 11.1567L16.047 6.56737L19.2821 8.44825L11.4576 12.9624L8.29774 11.1567Z" fill="white"/>
<path d="M1 7.01881L11.3824 1V3.10658L2.95611 7.99686V17.8376L6.11599 19.5831V9.95298L16.348 4.08464V6.41693L8.22257 11.1567V20.7868L11.4577 22.6677V12.9906L21.7649 7.01881V18.931L11.3824 25L1 19.1985V7.01881Z" fill="#00B3EF" stroke="#00B3EF" stroke-width="0.5"/>
</svg>
