<svg width="107" height="89" viewBox="0 0 107 89" fill="none" xmlns="http://www.w3.org/2000/svg">
<g filter="url(#filter0_d_8207_2247)">
<path d="M44.1429 85.2857C66.8654 85.2857 85.2857 66.8654 85.2857 44.1429C85.2857 21.4203 66.8654 3 44.1429 3C21.4203 3 3 21.4203 3 44.1429C3 66.8654 21.4203 85.2857 44.1429 85.2857Z" fill="url(#paint0_linear_8207_2247)"/>
<path d="M44.1428 73.857C27.7322 73.857 14.4285 60.5533 14.4285 44.1428C14.4285 27.732 27.7322 14.4285 44.1428 14.4285C60.5535 14.4285 73.857 27.732 73.857 44.1428C73.857 49.5549 72.4099 54.6292 69.8817 58.9999L72.3713 72.3713L58.9999 69.8819C54.6294 72.4099 49.5549 73.857 44.1428 73.857Z" fill="#2D4056"/>
<g filter="url(#filter1_d_8207_2247)">
<path d="M30.4555 42.885H31.2155C31.4905 42.885 31.7113 42.8525 31.8777 42.7874C32.0514 42.7149 32.2071 42.5956 32.3447 42.429L37.3063 36.664C37.4656 36.4685 37.6283 36.3346 37.7949 36.2621C37.9613 36.1826 38.1675 36.1428 38.4137 36.1428H40.3897L34.6137 42.7874C34.469 42.9755 34.3241 43.1275 34.1794 43.2434C34.0418 43.3593 33.8971 43.4569 33.7451 43.5364C34.1433 43.674 34.4907 43.9526 34.7874 44.3725L40.7915 51.7337H38.7828C38.6381 51.7337 38.5115 51.7227 38.4029 51.701C38.3015 51.6793 38.2109 51.6505 38.1314 51.6141C38.0589 51.5707 37.9904 51.5202 37.9252 51.4621C37.8672 51.4043 37.813 51.3355 37.7623 51.256L32.6269 45.176C32.5545 45.0818 32.482 45.0023 32.4098 44.9371C32.3373 44.872 32.2541 44.8212 32.16 44.7851C32.0658 44.7417 31.9572 44.7127 31.8343 44.6983C31.7113 44.6765 31.5664 44.6656 31.4 44.6656H30.4555V51.7337H28.1428V36.1428H30.4555V42.885ZM50.9524 45.925L48.64 39.8777C48.4736 39.4651 48.3069 38.944 48.1405 38.3142C48.061 38.6256 47.9776 38.9149 47.8907 39.1828C47.8112 39.4507 47.7316 39.6896 47.6518 39.8994L45.3501 45.925H50.9524ZM55.5234 51.7337H53.7428C53.5401 51.7337 53.3737 51.6829 53.2434 51.5817C53.1131 51.4804 53.0189 51.3501 52.9611 51.1908L51.5821 47.5753H44.7097L43.3307 51.1908C43.2802 51.3284 43.186 51.455 43.0484 51.5707C42.9111 51.6793 42.7444 51.7337 42.549 51.7337H40.7684L46.9787 36.1428H49.3131L55.5234 51.7337ZM59.7933 51.7337H57.4699V36.1428H59.7933V51.7337Z" fill="white"/>
</g>
</g>
<g filter="url(#filter2_d_8207_2247)">
<rect x="53.1428" y="9.14282" width="51" height="23" rx="11.5" fill="white"/>
<path d="M64.7636 24.9108C65.2063 24.9108 65.5876 24.8602 65.9076 24.7588C66.2276 24.6575 66.489 24.5162 66.6916 24.3348C66.8996 24.1482 67.0516 23.9295 67.1476 23.6788C67.2436 23.4228 67.2916 23.1428 67.2916 22.8388C67.2916 22.2468 67.081 21.7802 66.6596 21.4388C66.2383 21.0922 65.6063 20.9188 64.7636 20.9188H62.2836V24.9108H64.7636ZM62.2836 15.9028V19.8148H64.3316C64.769 19.8148 65.1476 19.7668 65.4676 19.6708C65.793 19.5748 66.0596 19.4415 66.2676 19.2708C66.481 19.1002 66.6383 18.8948 66.7396 18.6548C66.841 18.4095 66.8916 18.1428 66.8916 17.8548C66.8916 17.1775 66.689 16.6842 66.2836 16.3748C65.8783 16.0602 65.249 15.9028 64.3956 15.9028H62.2836ZM64.3956 14.6788C65.0996 14.6788 65.705 14.7482 66.2116 14.8868C66.7236 15.0255 67.1423 15.2228 67.4676 15.4788C67.7983 15.7348 68.041 16.0495 68.1956 16.4228C68.3503 16.7908 68.4276 17.2068 68.4276 17.6708C68.4276 17.9535 68.3823 18.2255 68.2916 18.4868C68.2063 18.7428 68.0756 18.9828 67.8996 19.2068C67.7236 19.4308 67.4996 19.6335 67.2276 19.8148C66.961 19.9908 66.6463 20.1348 66.2836 20.2468C67.1263 20.4068 67.7583 20.7082 68.1796 21.1508C68.6063 21.5882 68.8196 22.1642 68.8196 22.8788C68.8196 23.3642 68.729 23.8068 68.5476 24.2068C68.3716 24.6068 68.1103 24.9508 67.7636 25.2388C67.4223 25.5268 67.001 25.7508 66.4996 25.9108C65.9983 26.0655 65.4276 26.1428 64.7876 26.1428H60.7396V14.6788H64.3956ZM78.1554 24.8788L78.1474 26.1428H71.0834V14.6788H78.1474V15.9428H72.6354V19.7508H77.0994V20.9668H72.6354V24.8788H78.1554ZM88.0698 15.9828H84.3578V26.1428H82.8138V15.9828H79.0938V14.6788H88.0698V15.9828ZM94.7339 21.8868L92.9339 17.2228C92.8806 17.0842 92.8246 16.9242 92.7659 16.7428C92.7072 16.5562 92.6512 16.3588 92.5979 16.1508C92.4859 16.5828 92.3712 16.9428 92.2539 17.2308L90.4539 21.8868H94.7339ZM97.9659 26.1428H96.7659C96.6272 26.1428 96.5152 26.1082 96.4299 26.0388C96.3446 25.9695 96.2806 25.8815 96.2379 25.7748L95.1659 23.0068H90.0219L88.9499 25.7748C88.9179 25.8708 88.8566 25.9562 88.7659 26.0308C88.6752 26.1055 88.5632 26.1428 88.4299 26.1428H87.2299L91.8139 14.6788H93.3819L97.9659 26.1428Z" fill="black"/>
</g>
<defs>
<filter id="filter0_d_8207_2247" x="0" y="0" width="88.2856" height="88.2856" filterUnits="userSpaceOnUse" color-interpolation-filters="sRGB">
<feFlood flood-opacity="0" result="BackgroundImageFix"/>
<feColorMatrix in="SourceAlpha" type="matrix" values="0 0 0 0 0 0 0 0 0 0 0 0 0 0 0 0 0 0 127 0" result="hardAlpha"/>
<feOffset/>
<feGaussianBlur stdDeviation="1.5"/>
<feColorMatrix type="matrix" values="0 0 0 0 0.423529 0 0 0 0 0.486275 0 0 0 0 0.545098 0 0 0 0.5 0"/>
<feBlend mode="normal" in2="BackgroundImageFix" result="effect1_dropShadow_8207_2247"/>
<feBlend mode="normal" in="SourceGraphic" in2="effect1_dropShadow_8207_2247" result="shape"/>
</filter>
<filter id="filter1_d_8207_2247" x="25.1428" y="33.1428" width="37.6506" height="21.5908" filterUnits="userSpaceOnUse" color-interpolation-filters="sRGB">
<feFlood flood-opacity="0" result="BackgroundImageFix"/>
<feColorMatrix in="SourceAlpha" type="matrix" values="0 0 0 0 0 0 0 0 0 0 0 0 0 0 0 0 0 0 127 0" result="hardAlpha"/>
<feOffset/>
<feGaussianBlur stdDeviation="1.5"/>
<feColorMatrix type="matrix" values="0 0 0 0 0.423529 0 0 0 0 0.486275 0 0 0 0 0.545098 0 0 0 0.5 0"/>
<feBlend mode="normal" in2="BackgroundImageFix" result="effect1_dropShadow_8207_2247"/>
<feBlend mode="normal" in="SourceGraphic" in2="effect1_dropShadow_8207_2247" result="shape"/>
</filter>
<filter id="filter2_d_8207_2247" x="51.1428" y="7.14282" width="55" height="27" filterUnits="userSpaceOnUse" color-interpolation-filters="sRGB">
<feFlood flood-opacity="0" result="BackgroundImageFix"/>
<feColorMatrix in="SourceAlpha" type="matrix" values="0 0 0 0 0 0 0 0 0 0 0 0 0 0 0 0 0 0 127 0" result="hardAlpha"/>
<feOffset/>
<feGaussianBlur stdDeviation="1"/>
<feComposite in2="hardAlpha" operator="out"/>
<feColorMatrix type="matrix" values="0 0 0 0 0.184314 0 0 0 0 0.247059 0 0 0 0 0.337255 0 0 0 0.5 0"/>
<feBlend mode="normal" in2="BackgroundImageFix" result="effect1_dropShadow_8207_2247"/>
<feBlend mode="normal" in="SourceGraphic" in2="effect1_dropShadow_8207_2247" result="shape"/>
</filter>
<linearGradient id="paint0_linear_8207_2247" x1="44.1429" y1="3" x2="44.1429" y2="85.2857" gradientUnits="userSpaceOnUse">
<stop stop-color="#09F890"/>
<stop offset="1" stop-color="#00A3FF"/>
</linearGradient>
</defs>
</svg>
