<svg width="42" height="42" viewBox="0 0 42 42" fill="none" xmlns="http://www.w3.org/2000/svg">
<g filter="url(#filter0_d_38_449)">
<circle cx="21" cy="21" r="18" fill="url(#paint0_linear_38_449)"/>
<path d="M21 34C13.8204 34 8 28.1796 8 21C8 13.8203 13.8204 8 21 8C28.1797 8 34 13.8203 34 21C34 23.3678 33.3669 25.5878 32.2608 27.5L33.35 33.35L27.5 32.2609C25.5879 33.3669 23.3678 34 21 34Z" fill="#2D4056"/>
<g filter="url(#filter1_d_38_449)">
<path d="M14.5874 20.6287H14.9199C15.0402 20.6287 15.1368 20.6145 15.2096 20.586C15.2856 20.5543 15.3537 20.5021 15.4139 20.4292L17.5846 17.907C17.6543 17.8215 17.7255 17.7629 17.7984 17.7312C17.8712 17.6964 17.9614 17.679 18.0691 17.679H18.9336L16.4066 20.586C16.3433 20.6683 16.2799 20.7348 16.2166 20.7855C16.1564 20.8362 16.0931 20.8789 16.0266 20.9137C16.2008 20.9739 16.3528 21.0958 16.4826 21.2795L19.1094 24.5H18.2306C18.1673 24.5 18.1119 24.4952 18.0644 24.4857C18.02 24.4762 17.9804 24.4636 17.9456 24.4477C17.9139 24.4287 17.8839 24.4066 17.8554 24.3812C17.83 24.3559 17.8063 24.3258 17.7841 24.291L15.5374 21.631C15.5057 21.5898 15.474 21.555 15.4424 21.5265C15.4107 21.498 15.3743 21.4758 15.3331 21.46C15.2919 21.441 15.2444 21.4283 15.1906 21.422C15.1368 21.4125 15.0734 21.4077 15.0006 21.4077H14.5874V24.5H13.5756V17.679H14.5874V20.6287ZM23.5548 21.9587L22.5431 19.313C22.4703 19.1325 22.3974 18.9045 22.3246 18.629C22.2898 18.7652 22.2533 18.8918 22.2153 19.009C22.1805 19.1262 22.1457 19.2307 22.1108 19.3225L21.1038 21.9587H23.5548ZM25.5546 24.5H24.7756C24.6869 24.5 24.6141 24.4778 24.5571 24.4335C24.5001 24.3892 24.4589 24.3322 24.4336 24.2625L23.8303 22.6807H20.8236L20.2203 24.2625C20.1982 24.3227 20.157 24.3781 20.0968 24.4287C20.0367 24.4762 19.9638 24.5 19.8783 24.5H19.0993L21.8163 17.679H22.8376L25.5546 24.5ZM27.4227 24.5H26.4062V17.679H27.4227V24.5Z" fill="white"/>
</g>
</g>
<defs>
<filter id="filter0_d_38_449" x="0" y="0" width="42" height="42" filterUnits="userSpaceOnUse" color-interpolation-filters="sRGB">
<feFlood flood-opacity="0" result="BackgroundImageFix"/>
<feColorMatrix in="SourceAlpha" type="matrix" values="0 0 0 0 0 0 0 0 0 0 0 0 0 0 0 0 0 0 127 0" result="hardAlpha"/>
<feOffset/>
<feGaussianBlur stdDeviation="1.5"/>
<feColorMatrix type="matrix" values="0 0 0 0 0.423529 0 0 0 0 0.486275 0 0 0 0 0.545098 0 0 0 0.5 0"/>
<feBlend mode="normal" in2="BackgroundImageFix" result="effect1_dropShadow_38_449"/>
<feBlend mode="normal" in="SourceGraphic" in2="effect1_dropShadow_38_449" result="shape"/>
</filter>
<filter id="filter1_d_38_449" x="10.5757" y="14.679" width="19.8472" height="12.821" filterUnits="userSpaceOnUse" color-interpolation-filters="sRGB">
<feFlood flood-opacity="0" result="BackgroundImageFix"/>
<feColorMatrix in="SourceAlpha" type="matrix" values="0 0 0 0 0 0 0 0 0 0 0 0 0 0 0 0 0 0 127 0" result="hardAlpha"/>
<feOffset/>
<feGaussianBlur stdDeviation="1.5"/>
<feColorMatrix type="matrix" values="0 0 0 0 0.423529 0 0 0 0 0.486275 0 0 0 0 0.545098 0 0 0 0.5 0"/>
<feBlend mode="normal" in2="BackgroundImageFix" result="effect1_dropShadow_38_449"/>
<feBlend mode="normal" in="SourceGraphic" in2="effect1_dropShadow_38_449" result="shape"/>
</filter>
<linearGradient id="paint0_linear_38_449" x1="21" y1="3" x2="21" y2="39" gradientUnits="userSpaceOnUse">
<stop stop-color="#09F890"/>
<stop offset="1" stop-color="#00A3FF"/>
</linearGradient>
</defs>
</svg>
