<svg width="608" height="597" viewBox="0 0 608 597" fill="none" xmlns="http://www.w3.org/2000/svg">
<g clip-path="url(#clip0_150_20)">
<path d="M468.947 138.519H138.893C95.8721 138.519 61.0134 173.388 61.0134 216.399V437.399C61.0134 480.415 95.8734 515.279 138.893 515.279H198.325V596.32C198.325 596.83 198.904 597.127 199.315 596.83L320.992 516.169L351.508 515.601H437.128L468.951 515.278C511.967 515.278 546.831 480.409 546.831 437.398L546.836 216.398C546.836 173.382 511.967 138.518 468.951 138.518L468.947 138.519ZM187.013 255.592C187.013 234.065 204.461 216.613 225.992 216.613C247.519 216.613 264.965 234.072 264.965 255.592C264.965 277.123 247.517 294.571 225.992 294.571C204.461 294.571 187.013 277.123 187.013 255.592ZM302.123 450.379C252.707 450.379 211.888 415.748 205.649 370.9H398.609C392.359 415.749 351.547 450.379 302.125 450.379H302.123ZM382.331 294.565C360.804 294.565 343.352 277.117 343.352 255.587C343.352 234.06 360.811 216.608 382.331 216.608C403.861 216.608 421.309 234.067 421.309 255.587C421.309 277.117 403.861 294.565 382.331 294.565Z" fill="#324358"/>
<path d="M562.92 398.692V259.185H582.227C596.367 259.185 607.825 270.649 607.825 284.784V373.091C607.825 387.231 596.362 398.689 582.227 398.689L562.92 398.695V398.692Z" fill="#324358"/>
<path d="M0 373.105V284.799C0 270.659 11.4636 259.2 25.5987 259.2H44.9053V398.707H25.5987C11.4627 398.696 0 387.233 0 373.103V373.105Z" fill="#324358"/>
<path d="M340 37.864C340 54.9467 328.63 69.4213 313.063 74.124V106.859H291.188V74.124C275.62 69.4209 264.251 54.9467 264.251 37.864C264.251 16.9893 281.24 1.19338e-06 302.125 1.19338e-06C323.011 -0.00519881 340 16.984 340 37.864Z" fill="#324358"/>
</g>
<defs>
<clipPath id="clip0_150_20">
<rect width="607.825" height="596.949" fill="white"/>
</clipPath>
</defs>
</svg>
