<svg width="52" height="60" viewBox="0 0 52 60" fill="none" xmlns="http://www.w3.org/2000/svg">
<path d="M5.71014 18.0289L26.1022 29.8043L26.1022 53.1738L5.71014 41.7608L5.71014 18.0289Z" fill="white"/>
<path d="M5.7101 17.9965L24.5507 6.97836L32.3405 11.5073L13.3188 22.5255L5.7101 17.9965Z" fill="white"/>
<path d="M18.5724 25.4566L37.2318 14.4059L45.0217 18.9349L26.1812 29.8044L18.5724 25.4566Z" fill="white"/>
<path d="M1 15.4928L26 1V6.07246L5.71014 17.8478V41.5435L13.3188 45.7464V22.558L37.9565 8.42754V14.0435L18.3913 25.4565V48.6449L26.1812 53.1739V29.8723L51 15.4928V44.1763L26 58.7899L1 44.8204V15.4928Z" fill="#00B3EF" stroke="#00B3EF" stroke-width="0.5"/>
</svg>
