<svg width="840" height="249" viewBox="0 0 840 249" fill="none" xmlns="http://www.w3.org/2000/svg">
<rect width="840" height="249" rx="124.5" fill="white"/>
<path d="M588.527 181.201C577.237 181.192 566.412 176.706 558.426 168.726C550.44 160.746 545.945 149.925 545.927 138.635C545.915 130.966 547.975 123.436 551.889 116.84C555.803 110.245 561.426 104.829 568.164 101.166C574.901 97.5022 582.504 95.7266 590.167 96.0267C597.83 96.3267 605.271 98.6913 611.701 102.871C618.53 107.269 623.935 113.556 627.259 120.967H604.291C600.892 117.905 596.676 115.897 592.157 115.186C587.638 114.476 583.009 115.094 578.835 116.966C574.661 118.838 571.12 121.883 568.644 125.73C566.169 129.577 564.864 134.06 564.89 138.635C564.908 143.45 566.395 148.145 569.151 152.093C571.907 156.041 575.801 159.055 580.314 160.732C584.828 162.409 589.745 162.671 594.41 161.481C599.076 160.291 603.268 157.707 606.426 154.073H628.194C625.102 162.046 619.669 168.896 612.61 173.722C605.555 178.678 597.123 181.294 588.501 181.201" fill="#324358" fill-opacity="0.5"/>
<path d="M658.272 75.0393V95.1773H666.849V109.337H658.272V152.872C658.244 154.125 658.473 155.371 658.945 156.532C659.417 157.693 660.122 158.744 661.017 159.622C661.873 160.505 662.9 161.203 664.036 161.674C665.172 162.144 666.392 162.377 667.621 162.358H672.432V181.321H667.621C663.886 181.377 660.18 180.662 656.734 179.22C653.288 177.778 650.177 175.641 647.594 172.942C644.92 170.33 642.805 167.2 641.381 163.743C639.956 160.287 639.252 156.576 639.309 152.838V109.337H630.733V95.1773H639.309V75.0393H658.272Z" fill="#324358" fill-opacity="0.5"/>
<path d="M733.67 121.773C730.353 118.479 726.135 116.242 721.548 115.344C716.96 114.446 712.21 114.927 707.896 116.728C703.583 118.529 699.899 121.568 697.312 125.461C694.725 129.354 693.349 133.926 693.359 138.601C693.368 142.491 694.336 146.318 696.178 149.744C698.019 153.17 700.677 156.089 703.917 158.242C707.156 160.395 710.877 161.716 714.749 162.087C718.621 162.458 722.525 161.868 726.114 160.37C729.704 158.871 732.868 156.511 735.327 153.497C737.786 150.483 739.463 146.909 740.211 143.092C740.958 139.274 740.752 135.332 739.611 131.613C738.47 127.894 736.429 124.515 733.67 121.773ZM759.58 138.635V181.235H740.617V174.031C733.642 178.762 725.399 181.273 716.971 181.235C705.674 181.229 694.842 176.738 686.853 168.751C678.864 160.764 674.371 149.932 674.362 138.635C674.521 127.44 679.08 116.758 687.052 108.898C695.025 101.037 705.771 96.6308 716.967 96.6308C728.163 96.6308 738.909 101.037 746.881 108.898C754.854 116.758 759.412 127.44 759.571 138.635" fill="#324358" fill-opacity="0.5"/>
<path opacity="0.5" d="M164.42 138.584C164.426 132.996 165.533 127.465 167.678 122.305C169.823 117.146 172.964 112.46 176.921 108.516C180.878 104.571 185.574 101.445 190.74 99.3171C195.907 97.1888 201.442 96.0997 207.029 96.1121V115.075C203.926 115.026 200.845 115.609 197.974 116.789C195.103 117.968 192.503 119.72 190.33 121.936C188.094 124.083 186.323 126.668 185.13 129.529C183.936 132.39 183.344 135.467 183.392 138.567V181.304H164.42V138.584Z" fill="#324358"/>
<path opacity="0.5" d="M235.744 155.411C239.052 158.698 243.259 160.933 247.834 161.835C252.409 162.737 257.149 162.266 261.458 160.481C265.766 158.696 269.451 155.677 272.048 151.804C274.645 147.931 276.039 143.376 276.054 138.712C276.067 134.817 275.117 130.979 273.289 127.54C271.461 124.1 268.812 121.165 265.577 118.996C262.341 116.827 258.62 115.49 254.744 115.105C250.868 114.721 246.957 115.299 243.359 116.79C239.76 118.281 236.585 120.637 234.117 123.65C231.648 126.664 229.963 130.24 229.209 134.061C228.456 137.883 228.658 141.831 229.798 145.556C230.938 149.281 232.98 152.666 235.744 155.411ZM282.555 168.834C278.602 172.793 273.908 175.934 268.74 178.077C263.572 180.22 258.033 181.323 252.438 181.323C246.844 181.323 241.304 180.22 236.136 178.077C230.968 175.934 226.274 172.793 222.321 168.834C218.292 164.932 215.105 160.247 212.957 155.066C210.81 149.886 209.747 144.32 209.834 138.712C209.838 127.414 214.329 116.58 222.319 108.591C230.309 100.603 241.144 96.1144 252.442 96.1121C263.739 96.1167 274.572 100.606 282.56 108.594C290.548 116.583 295.038 127.415 295.043 138.712C295.13 144.32 294.067 149.886 291.919 155.066C289.771 160.247 286.584 164.932 282.555 168.834Z" fill="#324358"/>
<path opacity="0.5" d="M300.557 154.21H319.52C319.52 156.371 320.379 158.444 321.907 159.972C323.435 161.5 325.507 162.358 327.668 162.358C329.829 162.358 331.902 161.5 333.43 159.972C334.958 158.444 335.816 156.371 335.816 154.21C335.816 151.632 334.57 149.316 332.077 147.263C330.38 146.156 328.593 145.195 326.733 144.39C324.155 143.189 321.662 141.943 319.255 140.651C316.732 139.283 314.32 137.721 312.042 135.976C309.618 134.132 307.615 131.793 306.167 129.115C304.635 126.286 303.853 123.112 303.894 119.895C303.894 113.59 306.399 107.543 310.857 103.084C315.316 98.6255 321.363 96.1207 327.668 96.1207C333.974 96.1207 340.021 98.6255 344.479 103.084C348.938 107.543 351.443 113.59 351.443 119.895H332.617C332.591 118.592 332.06 117.349 331.138 116.428C330.215 115.507 328.972 114.979 327.668 114.955C327.024 114.942 326.385 115.067 325.793 115.322C325.202 115.576 324.671 115.954 324.238 116.43C323.336 117.343 322.833 118.577 322.84 119.861C322.792 120.745 323.006 121.624 323.456 122.387C323.907 123.15 324.572 123.763 325.37 124.149C326.885 124.944 329.092 126.033 331.991 127.417C334.89 128.801 337.203 129.913 338.929 130.753C341.024 131.821 343.031 133.051 344.933 134.433C346.93 135.777 348.709 137.42 350.208 139.304C351.6 141.24 352.682 143.381 353.415 145.651C354.969 150.431 355.174 155.547 354.008 160.437C352.841 165.326 350.348 169.799 346.803 173.362C343.012 177.16 338.18 179.748 332.917 180.799C327.655 181.849 322.2 181.315 317.241 179.264C312.282 177.212 308.044 173.736 305.062 169.275C302.08 164.813 300.488 159.568 300.489 154.202" fill="#324358"/>
<path d="M473.231 130.299H517.409C515.755 125.813 512.76 121.944 508.833 119.218C504.908 116.386 500.181 114.884 495.342 114.929C490.524 114.936 485.822 116.41 481.862 119.154C477.902 121.898 474.871 125.782 473.171 130.29M465.281 108.617C471.237 102.664 478.824 98.6107 487.084 96.9681C495.343 95.3255 503.904 96.1676 511.685 99.3881C519.466 102.609 526.118 108.063 530.8 115.062C535.483 122.061 537.986 130.291 537.993 138.712C537.998 140.635 537.866 142.555 537.599 144.459H472.416C473.391 148.354 475.342 151.937 478.086 154.868C480.831 157.8 484.277 159.983 488.099 161.213C491.922 162.442 495.995 162.676 499.933 161.894C503.872 161.111 507.546 159.338 510.608 156.74H533.851C530.459 164.038 525.064 170.222 518.293 174.571C511.859 178.687 504.437 180.996 496.804 181.257C489.172 181.518 481.609 179.721 474.91 176.054C468.21 172.387 462.62 166.986 458.726 160.416C454.832 153.846 452.777 146.35 452.776 138.712C452.694 133.108 453.761 127.546 455.911 122.37C458.062 117.193 461.251 112.513 465.281 108.617Z" fill="#324358" fill-opacity="0.5"/>
<path d="M156.847 98.7966C152.753 89.1678 145.086 81.5007 135.457 77.4064C130.577 75.3266 125.324 74.2643 120.019 74.2845C114.676 74.2464 109.382 75.3122 104.469 77.415C94.8678 81.5272 87.2237 89.1867 83.1308 98.7966C81.0453 103.687 79.9801 108.952 80.0003 114.269V182.565H100.035V114.269C100.019 111.6 100.547 108.956 101.588 106.498C103.614 101.708 107.425 97.8938 112.214 95.8634C114.675 94.8388 117.315 94.3114 119.98 94.3114C122.646 94.3114 125.285 94.8388 127.746 95.8634C130.123 96.8715 132.284 98.3274 134.11 100.152C135.929 101.98 137.384 104.136 138.399 106.507C140.457 111.48 140.457 117.066 138.399 122.039C136.368 126.823 132.549 130.624 127.755 132.631C125.109 133.737 122.256 134.26 119.39 134.167C116.524 134.074 113.711 133.366 111.142 132.091L102.454 150.248C105.146 151.539 107.97 152.534 110.876 153.215C119.096 155.132 127.711 154.403 135.491 151.131C140.247 149.101 144.577 146.191 148.253 142.555C152.001 138.859 154.971 134.451 156.989 129.591C159.007 124.73 160.032 119.515 160.003 114.252C160.013 108.939 158.939 103.68 156.847 98.7966Z" fill="#324358" fill-opacity="0.5"/>
<path d="M441.849 120.152C437.767 110.53 430.111 102.865 420.493 98.7709C415.583 96.7048 410.31 95.6405 404.982 95.6405C399.655 95.6405 394.382 96.7048 389.472 98.7709C379.883 102.893 372.25 110.55 368.159 120.152C366.085 125.034 365.023 130.286 365.037 135.59V214.11H385.072V135.633C385.056 132.965 385.581 130.322 386.616 127.863C388.626 123.06 392.433 119.231 397.225 117.194C399.688 116.165 402.331 115.636 405 115.636C407.669 115.636 410.311 116.165 412.774 117.194C417.573 119.216 421.392 123.032 423.418 127.829C424.443 130.29 424.97 132.929 424.97 135.595C424.97 138.26 424.443 140.9 423.418 143.361C421.406 148.185 417.586 152.03 412.774 154.073C410.128 155.178 407.275 155.702 404.409 155.609C401.543 155.516 398.73 154.808 396.161 153.533L387.473 171.647C390.154 172.936 392.966 173.931 395.861 174.614C398.858 175.318 401.926 175.67 405.004 175.661C410.309 175.678 415.562 174.613 420.442 172.53C425.193 170.51 429.522 167.615 433.204 163.996C436.951 160.301 439.921 155.893 441.939 151.032C443.957 146.172 444.982 140.956 444.954 135.693C444.992 130.355 443.935 125.066 441.849 120.152Z" fill="#324358" fill-opacity="0.5"/>
<path d="M657.612 50.9989L639.781 68.8212V51.8223L657.612 34V50.9989Z" fill="#324358" fill-opacity="0.5"/>
</svg>
