<svg width="793" height="210" viewBox="0 0 793 210" fill="none" xmlns="http://www.w3.org/2000/svg">
<g clip-path="url(#clip0_1_23)">
<path d="M592.92 171.63C579.757 171.619 567.135 166.388 557.824 157.084C548.512 147.78 543.271 135.163 543.25 122C543.236 113.058 545.638 104.278 550.201 96.5882C554.765 88.8983 561.321 82.584 569.177 78.3124C577.033 74.0408 585.897 71.9705 594.832 72.3204C603.767 72.6702 612.442 75.4272 619.94 80.3C627.902 85.4282 634.204 92.7584 638.08 101.4H611.3C607.337 97.8296 602.422 95.4879 597.153 94.6597C591.883 93.8315 586.487 94.5525 581.62 96.735C576.752 98.9175 572.624 102.467 569.738 106.953C566.851 111.438 565.33 116.666 565.36 122C565.382 127.614 567.115 133.088 570.328 137.691C573.541 142.294 578.082 145.808 583.344 147.764C588.607 149.72 594.34 150.024 599.78 148.637C605.22 147.25 610.107 144.237 613.79 140H639.17C635.565 149.296 629.231 157.283 621 162.91C612.774 168.688 602.942 171.739 592.89 171.63" fill="white" fill-opacity="0.3"/>
<path d="M674.24 47.85V71.33H684.24V87.84H674.24V138.6C674.207 140.061 674.474 141.513 675.025 142.867C675.575 144.22 676.397 145.447 677.44 146.47C678.438 147.499 679.636 148.313 680.96 148.862C682.284 149.41 683.707 149.682 685.14 149.66H690.75V171.77H685.14C680.785 171.835 676.464 171.001 672.446 169.32C668.428 167.639 664.801 165.147 661.79 162C658.671 158.955 656.206 155.305 654.545 151.275C652.885 147.245 652.063 142.918 652.13 138.56V87.84H642.13V71.33H652.13V47.85H674.24Z" fill="white" fill-opacity="0.3"/>
<path d="M762.15 102.34C758.283 98.499 753.365 95.8901 748.016 94.8431C742.668 93.7961 737.129 94.3578 732.099 96.4574C727.07 98.557 722.775 102.1 719.758 106.639C716.742 111.178 715.138 116.51 715.15 121.96C715.16 126.495 716.289 130.958 718.436 134.953C720.583 138.947 723.682 142.351 727.46 144.861C731.237 147.371 735.575 148.911 740.089 149.344C744.604 149.777 749.155 149.089 753.341 147.342C757.526 145.595 761.215 142.842 764.082 139.328C766.949 135.814 768.905 131.647 769.776 127.196C770.648 122.745 770.408 118.148 769.077 113.813C767.747 109.477 765.368 105.536 762.15 102.34ZM792.36 122V171.67H770.25V163.27C762.117 168.786 752.507 171.714 742.68 171.67C729.508 171.662 716.878 166.427 707.563 157.114C698.248 147.801 693.011 135.172 693 122C693.185 108.947 698.5 96.4922 707.796 87.3274C717.092 78.1627 729.621 73.0248 742.675 73.0248C755.729 73.0248 768.258 78.1627 777.554 87.3274C786.85 96.4922 792.165 108.947 792.35 122" fill="white" fill-opacity="0.3"/>
<path d="M98.43 121.94C98.4366 115.425 99.7272 108.976 102.228 102.96C104.729 96.9448 108.391 91.4812 113.005 86.8821C117.619 82.283 123.095 78.6384 129.118 76.1569C135.142 73.6754 141.595 72.4055 148.11 72.42V94.53C144.492 94.4728 140.9 95.1526 137.552 96.5279C134.205 97.9032 131.173 99.9454 128.64 102.53C126.032 105.033 123.968 108.047 122.576 111.383C121.185 114.719 120.495 118.306 120.55 121.92V171.75H98.43V121.94Z" fill="white" fill-opacity="0.3"/>
<path d="M181.59 141.56C185.448 145.392 190.352 147.998 195.687 149.05C201.022 150.102 206.548 149.552 211.572 147.471C216.595 145.39 220.891 141.871 223.919 137.354C226.947 132.838 228.572 127.527 228.59 122.09C228.605 117.548 227.497 113.074 225.366 109.063C223.235 105.053 220.146 101.631 216.374 99.1015C212.602 96.5723 208.263 95.0141 203.744 94.5654C199.225 94.1167 194.664 94.7914 190.469 96.5295C186.273 98.2676 182.571 101.015 179.693 104.529C176.815 108.042 174.849 112.211 173.971 116.667C173.092 121.123 173.328 125.727 174.657 130.07C175.987 134.412 178.368 138.359 181.59 141.56ZM236.17 157.21C231.561 161.826 226.088 165.488 220.062 167.987C214.037 170.486 207.578 171.772 201.055 171.772C194.532 171.772 188.073 170.486 182.048 167.987C176.022 165.488 170.549 161.826 165.94 157.21C161.242 152.662 157.527 147.199 155.022 141.158C152.518 135.118 151.279 128.628 151.38 122.09C151.385 108.917 156.621 96.2844 165.937 86.9703C175.253 77.6563 187.887 72.4226 201.06 72.42C214.232 72.4253 226.862 77.6601 236.176 86.9739C245.49 96.2876 250.725 108.918 250.73 122.09C250.832 128.628 249.592 135.118 247.088 141.158C244.584 147.199 240.868 152.662 236.17 157.21Z" fill="white" fill-opacity="0.3"/>
<path d="M257.16 140.16H279.27C279.27 142.68 280.271 145.096 282.053 146.878C283.834 148.659 286.25 149.66 288.77 149.66C291.29 149.66 293.706 148.659 295.488 146.878C297.269 145.096 298.27 142.68 298.27 140.16C298.27 137.153 296.817 134.453 293.91 132.06C291.932 130.769 289.848 129.648 287.68 128.71C284.673 127.31 281.767 125.857 278.96 124.35C276.019 122.756 273.207 120.934 270.55 118.9C267.725 116.75 265.389 114.023 263.7 110.9C261.915 107.601 261.002 103.901 261.05 100.15C261.05 92.7982 263.971 85.7475 269.169 80.549C274.368 75.3505 281.418 72.43 288.77 72.43C296.122 72.43 303.173 75.3505 308.371 80.549C313.57 85.7475 316.49 92.7982 316.49 100.15H294.54C294.509 98.6303 293.891 97.1815 292.815 96.1076C291.74 95.0337 290.29 94.4181 288.77 94.39C288.019 94.3752 287.274 94.5209 286.584 94.8176C285.894 95.1142 285.276 95.5549 284.77 96.11C283.718 97.1748 283.132 98.6134 283.14 100.11C283.084 101.141 283.334 102.166 283.859 103.056C284.384 103.945 285.16 104.66 286.09 105.11C287.857 106.037 290.43 107.307 293.81 108.92C297.19 110.533 299.887 111.83 301.9 112.81C304.342 114.055 306.683 115.489 308.9 117.1C311.228 118.668 313.302 120.583 315.05 122.78C316.674 125.037 317.936 127.534 318.79 130.18C320.602 135.754 320.841 141.719 319.481 147.42C318.12 153.12 315.213 158.335 311.08 162.49C306.66 166.918 301.026 169.936 294.89 171.161C288.755 172.386 282.394 171.763 276.612 169.371C270.831 166.979 265.889 162.926 262.412 157.724C258.935 152.523 257.08 146.407 257.08 140.15" fill="white" fill-opacity="0.3"/>
<path d="M458.49 112.28H510C508.071 107.05 504.579 102.539 500 99.36C495.424 96.0588 489.912 94.3068 484.27 94.36C478.653 94.3684 473.171 96.0864 468.553 99.2856C463.936 102.485 460.401 107.014 458.42 112.27M449.22 87C456.165 80.0596 465.012 75.3332 474.642 73.418C484.272 71.5028 494.253 72.4847 503.325 76.2397C512.398 79.9946 520.154 86.3542 525.613 94.5149C531.073 102.676 533.991 112.271 534 122.09C534.005 124.331 533.851 126.57 533.54 128.79H457.54C458.676 133.332 460.952 137.509 464.151 140.927C467.351 144.345 471.369 146.891 475.826 148.324C480.283 149.758 485.032 150.031 489.624 149.119C494.216 148.206 498.499 146.138 502.07 143.11H529.17C525.216 151.619 518.925 158.829 511.03 163.9C503.529 168.699 494.875 171.391 485.975 171.695C477.076 171.999 468.258 169.904 460.447 165.629C452.636 161.353 446.118 155.056 441.578 147.395C437.037 139.735 434.641 130.995 434.64 122.09C434.544 115.555 435.788 109.07 438.296 103.035C440.804 96.9998 444.521 91.5425 449.22 87Z" fill="white" fill-opacity="0.3"/>
<path d="M89.6 75.55C84.8262 64.3232 75.8868 55.3838 64.66 50.61C58.97 48.185 52.8451 46.9465 46.66 46.97C40.4299 46.9256 34.2576 48.1682 28.53 50.62C17.3349 55.4147 8.4222 64.3452 3.65002 75.55C1.21846 81.2523 -0.0235564 87.3909 2.44059e-05 93.59V173.22H23.36V93.59C23.3407 90.4783 23.9566 87.3954 25.17 84.53C27.533 78.9445 31.9764 74.4974 37.56 72.13C40.4294 70.9354 43.5069 70.3204 46.615 70.3204C49.7232 70.3204 52.8006 70.9354 55.67 72.13C58.4411 73.3054 60.9602 75.0029 63.09 77.13C65.2103 79.2616 66.907 81.776 68.09 84.54C70.4896 90.3382 70.4896 96.8518 68.09 102.65C65.7224 108.228 61.2691 112.659 55.68 115C52.5946 116.289 49.2684 116.899 45.9265 116.79C42.5847 116.682 39.3051 115.856 36.31 114.37L26.18 135.54C29.3187 137.045 32.6113 138.205 36 139C45.5837 141.235 55.6285 140.384 64.7 136.57C70.2452 134.203 75.2936 130.81 79.58 126.57C83.9492 122.261 87.4122 117.122 89.765 111.455C92.1179 105.787 93.313 99.7063 93.28 93.57C93.2917 87.3756 92.0395 81.2439 89.6 75.55Z" fill="white" fill-opacity="0.3"/>
<path d="M421.9 100.45C417.14 89.2303 408.214 80.2938 397 75.52C391.275 73.111 385.126 71.8701 378.915 71.8701C372.704 71.8701 366.555 73.111 360.83 75.52C349.65 80.3262 340.75 89.2543 335.98 100.45C333.562 106.142 332.324 112.266 332.34 118.45V210H355.7V118.5C355.681 115.389 356.294 112.307 357.5 109.44C359.844 103.84 364.283 99.3758 369.87 97C372.742 95.8011 375.823 95.1838 378.935 95.1838C382.047 95.1838 385.128 95.8011 388 97C393.595 99.3578 398.048 103.807 400.41 109.4C401.605 112.269 402.22 115.347 402.22 118.455C402.22 121.563 401.605 124.641 400.41 127.51C398.064 133.135 393.61 137.618 388 140C384.915 141.289 381.588 141.899 378.247 141.791C374.905 141.682 371.625 140.856 368.63 139.37L358.5 160.49C361.625 161.993 364.905 163.153 368.28 163.95C371.774 164.771 375.351 165.181 378.94 165.17C385.126 165.19 391.251 163.948 396.94 161.52C402.479 159.164 407.527 155.789 411.82 151.57C416.189 147.261 419.652 142.122 422.005 136.455C424.358 130.787 425.553 124.706 425.52 118.57C425.564 112.346 424.332 106.179 421.9 100.45Z" fill="white" fill-opacity="0.3"/>
<path d="M673.47 19.82L652.68 40.6V20.78L673.47 0V19.82Z" fill="white" fill-opacity="0.3"/>
</g>
<defs>
<clipPath id="clip0_1_23">
<rect width="792.85" height="210" fill="white"/>
</clipPath>
</defs>
</svg>
