<?xml version="1.0" encoding="UTF-8" standalone="no"?>
<!-- Created with Inkscape (http://www.inkscape.org/) -->

<svg
   width="14.404861mm"
   height="13.965655mm"
   viewBox="0 0 14.404861 13.965655"
   version="1.1"
   id="svg23997"
   inkscape:version="1.2 (dc2aeda, 2022-05-15)"
   sodipodi:docname="dataset-chk.svg"
   xmlns:inkscape="http://www.inkscape.org/namespaces/inkscape"
   xmlns:sodipodi="http://sodipodi.sourceforge.net/DTD/sodipodi-0.dtd"
   xmlns="http://www.w3.org/2000/svg"
   xmlns:svg="http://www.w3.org/2000/svg">
  <sodipodi:namedview
     id="namedview23999"
     pagecolor="#ffffff"
     bordercolor="#666666"
     borderopacity="1.0"
     inkscape:showpageshadow="2"
     inkscape:pageopacity="0.0"
     inkscape:pagecheckerboard="0"
     inkscape:deskcolor="#d1d1d1"
     inkscape:document-units="mm"
     showgrid="false"
     inkscape:zoom="0.62092452"
     inkscape:cx="181.98669"
     inkscape:cy="455.77198"
     inkscape:window-width="1390"
     inkscape:window-height="942"
     inkscape:window-x="0"
     inkscape:window-y="25"
     inkscape:window-maximized="0"
     inkscape:current-layer="layer1" />
  <defs
     id="defs23994" />
  <g
     inkscape:label="Layer 1"
     inkscape:groupmode="layer"
     id="layer1"
     transform="translate(-56.714353,-27.958346)">
    <path
       d="m 62.207402,40.534463 v 0.493889 c 0,0.1905 -0.125942,0.352778 -0.306917,0.402167 v 0 c -1.537405,0.409222 -3.155244,0.409222 -4.692297,0 v 0 c -0.181328,-0.04939 -0.30727,-0.211667 -0.30727,-0.402167 v -0.493889"
       style="fill:none;stroke:#707A83;stroke-width:0.37313;stroke-linecap:round;stroke-linejoin:round;stroke-miterlimit:10;stroke-dasharray:none;stroke-opacity:1"
       id="path2382" />
    <path
       d="m 62.207402,39.017519 v 0.493889 c 0,0.186972 -0.125942,0.352778 -0.306917,0.402167 v 0 c -1.537405,0.409222 -3.155244,0.409222 -4.692297,0 v 0 c -0.181328,-0.04939 -0.30727,-0.215195 -0.30727,-0.402167 v -0.493889"
       style="fill:none;stroke:#707A83;stroke-width:0.37313;stroke-linecap:round;stroke-linejoin:round;stroke-miterlimit:10;stroke-dasharray:none;stroke-opacity:1"
       id="path2384" />
    <path
       d="m 62.207402,37.500574 v 0.493889 c 0,0.186973 -0.125942,0.352778 -0.306917,0.398639 v 0 c -1.537405,0.409222 -3.155244,0.409222 -4.692297,0 v 0 c -0.181328,-0.04586 -0.30727,-0.211666 -0.30727,-0.398639 v -0.493889"
       style="fill:none;stroke:#707A83;stroke-width:0.37313;stroke-linecap:round;stroke-linejoin:round;stroke-miterlimit:10;stroke-dasharray:none;stroke-opacity:1"
       id="path2386" />
    <path
       d="m 62.207402,36.600991 c 0,0.416278 -1.187803,0.751417 -2.653242,0.751417 -1.465086,0 -2.653242,-0.335139 -2.653242,-0.751417 0,-0.41275 1.188156,-0.751417 2.653242,-0.751417 1.465439,0 2.653242,0.338667 2.653242,0.751417 z"
       style="fill:none;stroke:#707A83;stroke-width:0.37313;stroke-linecap:round;stroke-linejoin:round;stroke-miterlimit:10;stroke-dasharray:none;stroke-opacity:1"
       id="path2388" />
    <path
       d="m 64.500811,35.465047 -0.322439,0.324555 3.028244,3.026834 2.030942,-2.032001 -3.028245,-3.026833 -0.64523,0.645583"
       style="fill:none;stroke:#707A83;stroke-width:0.37313;stroke-linecap:round;stroke-linejoin:round;stroke-miterlimit:10;stroke-dasharray:none;stroke-opacity:1"
       id="path2390" />
    <path
       d="M 58.313441,35.235741 V 32.134824"
       style="fill:none;stroke:#707A83;stroke-width:0.37313;stroke-linecap:round;stroke-linejoin:round;stroke-miterlimit:10;stroke-dasharray:none;stroke-opacity:1"
       id="path2392" />
    <path
       d="m 58.313441,32.134824 4.282369,1.474611"
       style="fill:none;stroke:#707A83;stroke-width:0.37313;stroke-linecap:round;stroke-linejoin:round;stroke-miterlimit:10;stroke-dasharray:none;stroke-opacity:1"
       id="path2394" />
    <path
       d="m 64.178372,37.087824 v 4.649612 l 5.864931,-2.060223 v -7.542389"
       style="fill:none;stroke:#707A83;stroke-width:0.37313;stroke-linecap:round;stroke-linejoin:round;stroke-miterlimit:10;stroke-dasharray:none;stroke-opacity:1"
       id="path2396" />
    <path
       d="m 65.153802,33.79288 -0.97543,0.328083"
       style="fill:none;stroke:#707A83;stroke-width:0.37313;stroke-linecap:round;stroke-linejoin:round;stroke-miterlimit:10;stroke-dasharray:none;stroke-opacity:1"
       id="path2398" />
    <path
       d="m 70.043303,32.134824 -3.244145,1.100667"
       style="fill:none;stroke:#707A83;stroke-width:0.37313;stroke-linecap:round;stroke-linejoin:round;stroke-miterlimit:10;stroke-dasharray:none;stroke-opacity:1"
       id="path2400" />
    <path
       d="m 58.313441,32.134824 4.604103,-1.178278 1.260828,-0.321028 5.864931,1.499306"
       style="fill:none;stroke:#707A83;stroke-width:0.37313;stroke-linecap:round;stroke-linejoin:round;stroke-miterlimit:10;stroke-dasharray:none;stroke-opacity:1"
       id="path2402" />
    <path
       d="m 58.313441,32.134824 -0.889,-2.490611 5.864931,-1.499306 0.889,2.490611"
       style="fill:none;stroke:#707A83;stroke-width:0.37313;stroke-linecap:round;stroke-linejoin:round;stroke-miterlimit:10;stroke-dasharray:none;stroke-opacity:1"
       id="path2404" />
    <path
       d="m 70.043303,32.134824 0.889352,-2.490611 -5.86493,-1.499306 -0.465314,1.30175"
       style="fill:none;stroke:#707A83;stroke-width:0.37313;stroke-linecap:round;stroke-linejoin:round;stroke-miterlimit:10;stroke-dasharray:none;stroke-opacity:1"
       id="path2406" />
    <path
       d="m 65.4392,34.837102 c -0.300567,0.07761 -0.616656,0.109361 -0.92322,0.05997 -0.306211,-0.05292 -0.602897,-0.1905 -0.816681,-0.416278 -0.213783,-0.22225 -0.337608,-0.53975 -0.303036,-0.850194 3.53e-4,0 7.06e-4,-0.0035 0.0011,-0.0071 0.05292,-0.426861 0.470605,-0.716139 0.894644,-0.642055 0.137936,0.02469 0.272697,0.05997 0.393347,0.127 0.226837,0.130528 0.421217,0.338666 0.472017,0.592667"
       style="fill:none;stroke:#707A83;stroke-width:0.37313;stroke-linecap:round;stroke-linejoin:round;stroke-miterlimit:10;stroke-dasharray:none;stroke-opacity:1"
       id="path2408" />
    <path
       d="m 64.178372,41.737436 -1.29787,-0.47625"
       style="fill:none;stroke:#707A83;stroke-width:0.37313;stroke-linecap:round;stroke-linejoin:round;stroke-miterlimit:10;stroke-dasharray:none;stroke-opacity:1"
       id="path2410" />
    <path
       d="m 68.254366,36.784435 -1.559277,-1.559277 c -7.06e-4,0.292805 -0.01587,0.585611 -0.05574,0.874889 -0.04339,0.3175 -0.119239,0.635 -0.230364,0.934861 l 0.79763,0.797278 1.04775,-1.047751"
       style="fill:#35b4cf;fill-opacity:1;fill-rule:nonzero;stroke:none;stroke-width:0.0352778"
       id="path2412" />
  </g>
</svg>
