<svg width="236" height="262" viewBox="0 0 236 262" fill="none" xmlns="http://www.w3.org/2000/svg">
<rect width="236" height="262" fill="white"/>
<path d="M197.563 27.6977V88.4124C122.681 112.66 79.7898 115.035 2.18298 88.4124V27.6977C90.6254 0.670923 131.169 10.2043 197.563 27.6977Z" fill="white"/>
<path d="M2.28003 27.6977C90.9261 0.670923 131.563 10.2043 198.11 27.6977M2.28003 27.6977C72.0738 56.6792 113.039 64.9675 198.11 27.6977H2.28003ZM2.28003 27.6977V88.4124C80.0656 115.035 123.056 112.66 198.11 88.4124V27.6977H2.28003Z" stroke="#797979" stroke-width="3"/>
<path d="M2.28003 87.3209V152.675C77.9366 177.957 123.823 172.064 198.11 152.675V84.0464" stroke="#797979" stroke-width="3"/>
<path d="M2.28002 151.5C2.28002 151.5 1.71562 198.81 2.72766 217.074C3.7397 235.338 125.064 257.002 198.108 220.485V148.445" stroke="#797979" stroke-width="3"/>
<path d="M198.11 27.8335C198.11 30.638 196.049 33.7763 191.159 36.9975C186.348 40.166 179.254 43.0965 170.309 45.5882C152.448 50.5639 127.658 53.667 100.195 53.667C72.7324 53.667 47.9425 50.5639 30.0811 45.5882C21.1363 43.0965 14.0428 40.166 9.23194 36.9975C4.34104 33.7763 2.28003 30.638 2.28003 27.8335C2.28003 25.029 4.34104 21.8907 9.23194 18.6695C14.0428 15.5011 21.1363 12.5706 30.0811 10.0788C47.9425 5.10317 72.7324 2 100.195 2C127.658 2 152.448 5.10317 170.309 10.0788C179.254 12.5706 186.348 15.5011 191.159 18.6695C196.049 21.8907 198.11 25.029 198.11 27.8335Z" fill="white" stroke="#797979" stroke-width="3"/>
<path d="M147.363 190.087L142.363 200.968L149.408 207.088C152.692 210.805 152.382 212.891 149.408 216.609L141 220.689L145.545 233.157H155.089C158.613 233.557 160.02 234.638 161.225 238.598L157.816 249.026L169.179 255.373L177.132 248.119C179.809 247.05 181.244 247.191 183.495 250.839L187.586 259L200.766 257.186L202.584 248.119C204.293 244.77 205.877 244.29 209.174 244.492L217.355 248.119L225.536 238.598L220.082 228.624C219.357 224.184 219.622 222.067 224.496 220.689H233.035V207.088L225.536 204.595C221.837 201.516 221.852 199.494 222.809 195.754L228.036 190.087L220.082 179.432L212.636 183.094C209.592 183.261 206.307 181.883 203.266 177.165L202.584 169.005L189.858 166.964L185.768 174.445C182.947 176.999 180.935 176.851 177.132 175.805L171.678 169.005L159.18 175.805L161.225 183.966C160.38 188.145 159.014 189.398 155.089 190.087H147.363Z" fill="#D0EBFF" stroke="#797979" stroke-width="3"/>
<path d="M187.492 230.432C196.868 230.432 204.468 222.832 204.468 213.456C204.468 204.08 196.868 196.48 187.492 196.48C178.116 196.48 170.516 204.08 170.516 213.456C170.516 222.832 178.116 230.432 187.492 230.432Z" fill="white" stroke="#797979" stroke-width="3"/>
<path d="M21.1111 71.46C31.2004 77.3912 37.3366 78.9401 49.0146 78.9367" stroke="#797979" stroke-width="4"/>
<path d="M21.1111 130.46C31.2004 136.391 37.3366 137.94 49.0146 137.937" stroke="#797979" stroke-width="4"/>
<path d="M21.1111 196.46C31.2004 202.391 37.3366 203.94 49.0146 203.937" stroke="#797979" stroke-width="4"/>
<path d="M25 64C33.4435 69.0486 38.5884 70.3636 48.409 70.2724" stroke="#FFE8CC" stroke-width="10"/>
<path d="M25 123C33.4435 128.049 38.5884 129.364 48.409 129.272" stroke="#FFE8CC" stroke-width="10"/>
<path d="M25 189C33.4435 194.049 38.5884 195.364 48.409 195.272" stroke="#FFE8CC" stroke-width="10"/>
</svg>
