<?xml version="1.0" encoding="iso-8859-1"?>
<!-- Generator: Adobe Illustrator 19.0.0, SVG Export Plug-In . SVG Version: 6.00 Build 0)  -->
<svg version="1.1" id="Layer_1" xmlns="http://www.w3.org/2000/svg" xmlns:xlink="http://www.w3.org/1999/xlink" x="0px" y="0px"
	 viewBox="0 0 512 512" style="enable-background:new 0 0 512 512;fill:#272D37;" xml:space="preserve">
<g>
	<g>
		<g>
			<path d="M469.333,282.898V106.667c0-23.531-19.146-42.667-42.667-42.667h-198.25l-39.542-39.542c-2-2-4.708-3.125-7.542-3.125
				H42.667C19.146,21.333,0,40.469,0,64v298.667c0,23.531,19.146,42.667,42.667,42.667h239.216
				c13.979,49.173,59.199,85.333,112.784,85.333c64.688,0,117.333-52.635,117.333-117.333
				C512,336.979,495.374,304.436,469.333,282.898z M277.874,384H42.667c-11.771,0-21.333-9.573-21.333-21.333V64
				c0-11.76,9.563-21.333,21.333-21.333h134.25l39.542,39.542c2,2,4.708,3.125,7.542,3.125h202.667
				c11.771,0,21.333,9.573,21.333,21.333v162.288C431.977,260.732,413.879,256,394.667,256
				c-64.688,0-117.333,52.635-117.333,117.333C277.333,376.934,277.555,380.482,277.874,384z M394.667,469.333
				c-52.938,0-96-43.063-96-96c0-52.938,43.063-96,96-96s96,43.063,96,96C490.667,426.271,447.604,469.333,394.667,469.333z"/>
			<path d="M440.458,333.792l-67.125,67.125l-24.458-24.458c-4.167-4.167-10.917-4.167-15.083,0c-4.167,4.167-4.167,10.917,0,15.083
				l32,32c2.083,2.083,4.813,3.125,7.542,3.125c2.729,0,5.458-1.042,7.542-3.125l74.667-74.667c4.167-4.167,4.167-10.917,0-15.083
				C451.375,329.625,444.625,329.625,440.458,333.792z"/>
		</g>
	</g>
</g>
<g>
</g>
<g>
</g>
<g>
</g>
<g>
</g>
<g>
</g>
<g>
</g>
<g>
</g>
<g>
</g>
<g>
</g>
<g>
</g>
<g>
</g>
<g>
</g>
<g>
</g>
<g>
</g>
<g>
</g>
</svg>
