<?xml version="1.0" encoding="UTF-8" standalone="no"?>
<!-- Created with Inkscape (http://www.inkscape.org/) -->

<svg
   width="14.734714mm"
   height="14.365171mm"
   viewBox="0 0 14.734713 14.365171"
   version="1.1"
   id="svg23997"
   inkscape:version="1.2 (dc2aeda, 2022-05-15)"
   sodipodi:docname="dataset-connect.svg"
   xmlns:inkscape="http://www.inkscape.org/namespaces/inkscape"
   xmlns:sodipodi="http://sodipodi.sourceforge.net/DTD/sodipodi-0.dtd"
   xmlns="http://www.w3.org/2000/svg"
   xmlns:svg="http://www.w3.org/2000/svg">
  <sodipodi:namedview
     id="namedview23999"
     pagecolor="#ffffff"
     bordercolor="#666666"
     borderopacity="1.0"
     inkscape:showpageshadow="2"
     inkscape:pageopacity="0.0"
     inkscape:pagecheckerboard="0"
     inkscape:deskcolor="#d1d1d1"
     inkscape:document-units="mm"
     showgrid="false"
     inkscape:zoom="7.024959"
     inkscape:cx="3.772264"
     inkscape:cy="34.875648"
     inkscape:window-width="1390"
     inkscape:window-height="942"
     inkscape:window-x="0"
     inkscape:window-y="25"
     inkscape:window-maximized="0"
     inkscape:current-layer="layer1" />
  <defs
     id="defs23994" />
  <g
     inkscape:label="Layer 1"
     inkscape:groupmode="layer"
     id="layer1"
     transform="translate(-55.738683,13.313193)">
    <path
       d="m 70.286832,-0.44779368 v 0.53975004 c 0,0.20461112 -0.137583,0.3845278 -0.335139,0.43744447 v 0 c -1.679222,0.44802781 -3.446639,0.44802781 -5.129389,0 v 0 C 64.624749,0.47648416 64.487165,0.29656748 64.487165,0.09195636 v -0.53975004"
       style="fill:none;stroke:#707A83;stroke-width:0.37313;stroke-linecap:round;stroke-linejoin:round;stroke-miterlimit:10;stroke-dasharray:none;stroke-opacity:1"
       id="path28436" />
    <path
       d="m 70.286832,-2.1058493 v 0.53975 c 0,0.2046111 -0.137583,0.3845278 -0.335139,0.4374445 v 0 c -1.679222,0.44802778 -3.446639,0.44802778 -5.129389,0 v 0 c -0.197555,-0.052917 -0.335139,-0.2328334 -0.335139,-0.4374445 v -0.53975"
       style="fill:none;stroke:#707A83;stroke-width:0.37313;stroke-linecap:round;stroke-linejoin:round;stroke-miterlimit:10;stroke-dasharray:none;stroke-opacity:1"
       id="path28438" />
    <path
       d="m 70.286832,-3.7674328 v 0.5432778 c 0,0.2046112 -0.137583,0.3810001 -0.335139,0.4339167 v 0 c -1.679222,0.4480278 -3.446639,0.4480278 -5.129389,0 v 0 c -0.197555,-0.052917 -0.335139,-0.2293055 -0.335139,-0.4339167 v -0.5432778"
       style="fill:none;stroke:#707A83;stroke-width:0.37313;stroke-linecap:round;stroke-linejoin:round;stroke-miterlimit:10;stroke-dasharray:none;stroke-opacity:1"
       id="path28440" />
    <path
       d="m 70.286832,-4.7481551 c 0,0.4550834 -1.298222,0.8219723 -2.899833,0.8219723 -1.601611,0 -2.899834,-0.3668889 -2.899834,-0.8219723 0,-0.4515555 1.298223,-0.8219722 2.899834,-0.8219722 1.601611,0 2.899833,0.3704167 2.899833,0.8219722 z"
       style="fill:none;stroke:#707A83;stroke-width:0.37313;stroke-linecap:round;stroke-linejoin:round;stroke-miterlimit:10;stroke-dasharray:none;stroke-opacity:1"
       id="path28442" />
    <path
       d="m 63.767499,-3.8838494 h -6.914445 c -0.511528,0 -0.927806,-0.4162779 -0.927806,-0.9278057 v -7.3871669 c 0,-0.511528 0.416278,-0.927806 0.927806,-0.927806 0.352778,0 10.914945,0 10.590389,0 0.511528,0 0.927806,0.416278 0.927806,0.927806 v 5.9654724"
       style="fill:none;stroke:#707A83;stroke-width:0.37313;stroke-linecap:round;stroke-linejoin:round;stroke-miterlimit:10;stroke-dasharray:none;stroke-opacity:1"
       id="path28444" />
    <path
       d="m 58.973248,-3.8838494 -0.564444,1.42875 h 5.729111"
       style="fill:none;stroke:#707A83;stroke-width:0.37313;stroke-linecap:round;stroke-linejoin:round;stroke-miterlimit:10;stroke-dasharray:none;stroke-opacity:1"
       id="path28446" />
    <path
       d="m 67.443443,-12.463406 h -3.326694 l 3.591278,3.5948062 v -3.3302222 c 0,-0.144639 -0.119945,-0.264584 -0.264584,-0.264584"
       style="fill:#35b4cf;fill-opacity:1;fill-rule:nonzero;stroke:none;stroke-width:0.0352778"
       id="path28454" />
    <path
       d="m 62.216776,-9.4698009 v 2.370667"
       style="fill:none;stroke:#707a83;stroke-width:0.37313;stroke-linecap:round;stroke-linejoin:round;stroke-miterlimit:10;stroke-dasharray:none;stroke-opacity:1"
       id="path23100" />
    <path
       d="M 63.401756,-8.2844669 H 61.031795"
       style="fill:none;stroke:#707a83;stroke-width:0.37313;stroke-linecap:round;stroke-linejoin:round;stroke-miterlimit:10;stroke-dasharray:none;stroke-opacity:1"
       id="path23102" />
  </g>
</svg>
