<?xml version="1.0" encoding="UTF-8" standalone="no"?>
<svg
   xmlns:dc="http://purl.org/dc/elements/1.1/"
   xmlns:cc="http://creativecommons.org/ns#"
   xmlns:rdf="http://www.w3.org/1999/02/22-rdf-syntax-ns#"
   xmlns:svg="http://www.w3.org/2000/svg"
   xmlns="http://www.w3.org/2000/svg"
   xmlns:sodipodi="http://sodipodi.sourceforge.net/DTD/sodipodi-0.dtd"
   xmlns:inkscape="http://www.inkscape.org/namespaces/inkscape"
   width="20.10552mm"
   height="22.595415mm"
   viewBox="0 0 20.10552 22.595416"
   version="1.1"
   id="svg546"
   inkscape:version="1.0.2 (e86c8708, 2021-01-15)"
   sodipodi:docname="drawing22.svg">
  <defs
     id="defs540" />
  <sodipodi:namedview
     id="base"
     pagecolor="#ffffff"
     bordercolor="#666666"
     borderopacity="1.0"
     inkscape:pageopacity="0.0"
     inkscape:pageshadow="2"
     inkscape:zoom="2.8616351"
     inkscape:cx="37.52574"
     inkscape:cy="42.680551"
     inkscape:document-units="mm"
     inkscape:current-layer="layer1"
     inkscape:document-rotation="0"
     showgrid="false"
     inkscape:window-width="1252"
     inkscape:window-height="847"
     inkscape:window-x="0"
     inkscape:window-y="25"
     inkscape:window-maximized="0" />
  <metadata
     id="metadata543">
    <rdf:RDF>
      <cc:Work
         rdf:about="">
        <dc:format>image/svg+xml</dc:format>
        <dc:type
           rdf:resource="http://purl.org/dc/dcmitype/StillImage" />
        <dc:title />
      </cc:Work>
    </rdf:RDF>
  </metadata>
  <g
     inkscape:label="Layer 1"
     inkscape:groupmode="layer"
     id="layer1"
     transform="translate(-95.904648,-136.8741)">
    <path
       d="m 102.33262,145.20389 c 0,-1.05022 2.98309,-1.90147 6.66256,-1.90147 3.67947,0 6.66221,0.85125 6.66221,1.90147"
       style="fill:none;stroke:#646F79;stroke-width:0.55;stroke-linecap:round;stroke-linejoin:round;stroke-miterlimit:10;stroke-dasharray:none;stroke-opacity:1"
       id="path34" />
    <path
       d="m 115.65739,149.20756 c 0,1.05022 -2.98274,1.90148 -6.66221,1.90148 -3.67947,0 -6.66256,-0.85126 -6.66256,-1.90148"
       style="fill:none;stroke:#646F79;stroke-width:0.55;stroke-linecap:round;stroke-linejoin:round;stroke-miterlimit:10;stroke-dasharray:none;stroke-opacity:1"
       id="path36" />
    <path
       d="m 115.65739,153.21159 c 0,1.05022 -2.98274,1.90147 -6.66221,1.90147 -3.67947,0 -6.66256,-0.85125 -6.66256,-1.90147"
       style="fill:none;stroke:#646F79;stroke-width:0.55;stroke-linecap:round;stroke-linejoin:round;stroke-miterlimit:10;stroke-dasharray:none;stroke-opacity:1"
       id="path38" />
    <path
       d="m 115.65739,157.21527 c 0,1.05022 -2.98274,1.90147 -6.66221,1.90147 -3.67947,0 -6.66256,-0.85125 -6.66256,-1.90147 v -12.01138 c 0,1.05022 2.98309,1.90147 6.66256,1.90147 3.67947,0 6.66221,-0.85125 6.66221,-1.90147 z"
       style="fill:none;stroke:#646F79;stroke-width:0.55;stroke-linecap:round;stroke-linejoin:round;stroke-miterlimit:10;stroke-dasharray:none;stroke-opacity:1"
       id="path44" />
    <path
       d="m 96.257426,139.12835 c 0,-1.05022 2.98274,-1.90147 6.662214,-1.90147 3.67947,0 6.66256,0.85125 6.66256,1.90147"
       style="fill:none;stroke:#646F79;stroke-width:0.55;stroke-linecap:round;stroke-linejoin:round;stroke-miterlimit:10;stroke-dasharray:none;stroke-opacity:1"
       id="path46" />
    <path
       d="m 100.74335,144.93013 c -2.610914,-0.25753 -4.485924,-0.9652 -4.485924,-1.79775"
       style="fill:none;stroke:#646F79;stroke-width:0.55;stroke-linecap:round;stroke-linejoin:round;stroke-miterlimit:10;stroke-dasharray:none;stroke-opacity:1"
       id="path48" />
    <path
       d="m 100.75323,148.93487 c -2.615854,-0.25647 -4.495804,-0.9652 -4.495804,-1.79882"
       style="fill:none;stroke:#646F79;stroke-width:0.55;stroke-linecap:round;stroke-linejoin:round;stroke-miterlimit:10;stroke-dasharray:none;stroke-opacity:1"
       id="path50" />
    <path
       d="m 100.743,152.93748 c -2.610564,-0.25717 -4.485574,-0.96484 -4.485574,-1.7974 v -12.01173 c 0,1.05022 2.98274,1.90147 6.662214,1.90147 3.67947,0 6.66256,-0.85125 6.66256,-1.90147 v 2.18369"
       style="fill:none;stroke:#646F79;stroke-width:0.55;stroke-linecap:round;stroke-linejoin:round;stroke-miterlimit:10;stroke-dasharray:none;stroke-opacity:1"
       id="path52" />
  </g>
</svg>
