<?xml version="1.0" encoding="UTF-8" standalone="no"?>
<svg
   xmlns:dc="http://purl.org/dc/elements/1.1/"
   xmlns:cc="http://creativecommons.org/ns#"
   xmlns:rdf="http://www.w3.org/1999/02/22-rdf-syntax-ns#"
   xmlns:svg="http://www.w3.org/2000/svg"
   xmlns="http://www.w3.org/2000/svg"
   xmlns:sodipodi="http://sodipodi.sourceforge.net/DTD/sodipodi-0.dtd"
   xmlns:inkscape="http://www.inkscape.org/namespaces/inkscape"
   width="58.749447mm"
   height="51.851532mm"
   viewBox="0 0 58.749447 51.851532"
   version="1.1"
   id="svg669"
   inkscape:version="1.0.2 (e86c8708, 2021-01-15)"
   sodipodi:docname="drawing4.svg">
  <defs
     id="defs663" />
  <sodipodi:namedview
     id="base"
     pagecolor="#ffffff"
     bordercolor="#666666"
     borderopacity="1.0"
     inkscape:pageopacity="0.0"
     inkscape:pageshadow="2"
     inkscape:zoom="0.35"
     inkscape:cx="108.16546"
     inkscape:cy="109.41571"
     inkscape:document-units="mm"
     inkscape:current-layer="layer1"
     inkscape:document-rotation="0"
     showgrid="false"
     inkscape:window-width="1252"
     inkscape:window-height="847"
     inkscape:window-x="0"
     inkscape:window-y="25"
     inkscape:window-maximized="0" />
  <metadata
     id="metadata666">
    <rdf:RDF>
      <cc:Work
         rdf:about="">
        <dc:format>image/svg+xml</dc:format>
        <dc:type
           rdf:resource="http://purl.org/dc/dcmitype/StillImage" />
        <dc:title></dc:title>
      </cc:Work>
    </rdf:RDF>
  </metadata>
  <g
     inkscape:label="Layer 1"
     inkscape:groupmode="layer"
     id="layer1"
     transform="translate(-77.214555,-119.21709)">
    <path
       d="m 132.57326,144.3298 c -0.13229,-8.98243 -5.18019,-18.04212 -14.69601,-22.18726 -2.23379,-2.86208 -6.27098,-3.6957 -10.62249,-2.18298 -5.721,0.0406 -11.047595,2.03658 -15.009045,5.63103 -4.00498,3.63362 -8.78029,10.62144 -8.78029,23.27099 0,0.3041 0.001,0.66499 0.0183,1.06327 0.0349,1.62172 0.0116,2.92982 -1.46498,4.05765 -2.02985,1.5487 -5.34278,4.64679 -4.72969,7.99289 0.50271,2.74391 3.5221,4.95688 8.9699,6.57825 8.51465,2.53471 19.044575,4.3053 26.525235,-0.54857 1.00259,-0.65017 3.00637,-2.08598 4.55506,-2.87232 8.51429,-4.32223 12.75009,-4.86833 15.32431,-7.38963 4.17795,-4.09258 4.64926,-9.1881 -0.0903,-13.41332 z m -10.29053,-17.94404 c -5.97217,4.44464 -9.59484,13.03619 -10.47502,24.97278 -0.0296,0.39088 0.26458,0.73061 0.65616,0.75989 0.0176,0.002 0.0353,0.002 0.0522,0.002 0.36935,0 0.68015,-0.28505 0.70767,-0.65793 0.60501,-8.20244 2.87267,-18.96498 10.17552,-24.15646 6.24381,5.51779 8.80745,13.94319 7.36952,21.58047 -1.85208,9.83933 -18.66864,11.15907 -28.95987,10.9534 -0.20814,-9.90741 1.01882,-32.00118 15.58431,-36.35834 1.80305,0.79305 3.43287,1.77377 4.88949,2.90372 z m -14.66884,-5.04896 c 2.93863,-1.0541 6.34118,-1.07632 8.57003,1.03681 -10.59569,3.74721 -16.332915,17.50378 -15.78364,38.01746 0.012,0.45226 -0.37535,0.79727 -0.824085,0.76799 -3.18781,-0.21942 -5.92544,-0.71049 -8.13718,-1.46014 -0.62371,-0.21273 -1.04179,-0.81527 -1.04041,-1.50178 0.0276,-14.17708 4.5514,-32.33738 17.215285,-36.86034 z m -14.414155,5.30507 c 2.83986,-2.57739 6.44031,-4.26896 10.386485,-4.93783 -10.351355,6.37681 -14.344055,22.26134 -14.593895,35.31235 -3.15972,-1.98472 -4.10682,-4.49509 -4.10682,-8.15481 0,-12.12991 4.52187,-18.77871 8.31423,-22.21971 z m 38.470415,30.08701 c -2.26695,2.22038 -6.63787,2.90724 -14.97329,7.13846 -1.64324,0.83397 -3.68124,2.29588 -4.68454,2.94605 -5.63386,3.65442 -13.925905,3.77966 -25.348325,0.37994 -4.82604,-1.43651 -7.58515,-3.32881 -7.97789,-5.47335 -0.49432,-2.69875 2.76821,-5.51956 4.19322,-6.60823 0.61711,-0.47202 1.04457,-0.97191 1.34719,-1.48943 0.52144,1.29857 1.39911,2.63454 2.89524,3.80824 0.58156,0.45578 1.22234,0.8643 1.89192,1.23542 0.16742,1.09573 0.91627,2.01966 1.96934,2.37737 2.32862,0.78917 5.18569,1.30387 8.49475,1.53212 0.993785,0.0617 1.821045,-0.51153 2.166765,-1.31833 11.14214,0.24906 28.48539,-1.29858 30.52092,-12.10769 0.17639,-0.94403 0.29598,-1.90147 0.35842,-2.86209 1.27741,1.39912 1.96462,2.87408 2.01719,4.40196 0.0942,2.71569 -1.75825,4.94948 -2.87091,6.03956"
       style="fill:#646F79;fill-opacity:1;fill-rule:nonzero;stroke:none;"
       id="path650" />
  </g>
</svg>
