<?xml version="1.0" encoding="UTF-8" standalone="no"?>
<svg
   xmlns:dc="http://purl.org/dc/elements/1.1/"
   xmlns:cc="http://creativecommons.org/ns#"
   xmlns:rdf="http://www.w3.org/1999/02/22-rdf-syntax-ns#"
   xmlns:svg="http://www.w3.org/2000/svg"
   xmlns="http://www.w3.org/2000/svg"
   xmlns:sodipodi="http://sodipodi.sourceforge.net/DTD/sodipodi-0.dtd"
   xmlns:inkscape="http://www.inkscape.org/namespaces/inkscape"
   width="36.796051mm"
   height="26.83087mm"
   viewBox="0 0 36.796052 26.830871"
   version="1.1"
   id="svg603"
   inkscape:version="1.0.2 (e86c8708, 2021-01-15)"
   sodipodi:docname="drawing11.svg">
  <defs
     id="defs597" />
  <sodipodi:namedview
     id="base"
     pagecolor="#ffffff"
     bordercolor="#666666"
     borderopacity="1.0"
     inkscape:pageopacity="0.0"
     inkscape:pageshadow="2"
     inkscape:zoom="10.07"
     inkscape:cx="73.686573"
     inkscape:cy="48.902725"
     inkscape:document-units="mm"
     inkscape:current-layer="layer1"
     inkscape:document-rotation="0"
     showgrid="false"
     inkscape:window-width="1252"
     inkscape:window-height="762"
     inkscape:window-x="157"
     inkscape:window-y="25"
     inkscape:window-maximized="0" />
  <metadata
     id="metadata600">
    <rdf:RDF>
      <cc:Work
         rdf:about="">
        <dc:format>image/svg+xml</dc:format>
        <dc:type
           rdf:resource="http://purl.org/dc/dcmitype/StillImage" />
        <dc:title></dc:title>
      </cc:Work>
    </rdf:RDF>
  </metadata>
  <g
     inkscape:label="Layer 1"
     inkscape:groupmode="layer"
     id="layer1"
     transform="translate(62.515827,-275.78026)">
    <path
       d="m -50.25228,279.25519 c -0.0056,0 -0.01129,-0.002 -0.0157,-0.007 l -0.210432,-0.21026 c -0.0087,-0.009 -0.0087,-0.0229 0,-0.0314 0.0087,-0.009 0.02272,-0.009 0.0314,0 l 0.194733,0.19474 0.496923,-0.49707 c 0.0087,-0.008 0.02272,-0.008 0.0314,0 0.0087,0.009 0.0087,0.0229 0,0.0314 l -0.512621,0.51259 c -0.0043,0.005 -0.0099,0.007 -0.0157,0.007"
       style="fill:#646f79;fill-opacity:1;fill-rule:nonzero;stroke:none;stroke-width:0.0005"
       id="path154292" />
    <path
       d="m -50.244307,279.59633 c -0.301766,0 -0.547194,-0.24554 -0.547194,-0.54716 0,-0.30163 0.245428,-0.54716 0.547194,-0.54716 0.103505,0 0.204223,0.0289 0.291324,0.084 0.01048,0.006 0.01365,0.0201 0.007,0.0307 -0.0065,0.0102 -0.02025,0.0134 -0.03059,0.007 -0.08004,-0.0508 -0.172649,-0.0773 -0.267758,-0.0773 -0.277248,0 -0.502814,0.22542 -0.502814,0.50271 0,0.27728 0.225566,0.50271 0.502814,0.50271 0.210573,0 0.400332,-0.133 0.472404,-0.33056 0.0043,-0.0116 0.01707,-0.0176 0.02854,-0.0134 0.01157,0.004 0.0175,0.0169 0.01323,0.0286 -0.07828,0.2152 -0.284974,0.35984 -0.514173,0.35984"
       style="fill:#646f79;fill-opacity:1;fill-rule:nonzero;stroke:none;stroke-width:0.0152778"
       id="path154294" />
    <path
       d="m -46.185059,296.1687 c -0.180269,0 -0.360891,-0.0691 -0.498828,-0.20672 l -3.792361,-3.79166 0.997656,-0.99836 3.293533,3.29318 9.126009,-9.1253 0.998009,0.99765 -9.62519,9.62449 c -0.137583,0.13758 -0.318206,0.20672 -0.498828,0.20672"
       style="fill:#646f79;fill-opacity:1;fill-rule:nonzero;stroke:none;stroke-width:0.0152778"
       id="path177408" />
    <path
       d="m -59.047337,301.20002 h 29.08159 l 2.735439,-20.65338 h -29.08159 z m 29.70001,1.41111 h -30.505049 c -0.2032,0 -0.396523,-0.0878 -0.530578,-0.24024 -0.134056,-0.15311 -0.195792,-0.35631 -0.168628,-0.55774 l 2.922059,-22.06484 c 0.04657,-0.35066 0.345369,-0.61278 0.699205,-0.61278 h 30.505049 c 0.2032,0 0.396523,0.0875 0.530578,0.2406 0.134056,0.1531 0.195792,0.3563 0.168628,0.55774 l -2.922059,22.06449 c -0.04657,0.35066 -0.345369,0.61277 -0.699205,0.61277"
       style="fill:#646f79;fill-opacity:1;fill-rule:nonzero;stroke:none;stroke-width:0.0152778"
       id="path177410" />
    <path
       d="m -60.555815,301.9599 -1.957917,-25.42011 c -0.01517,-0.19614 0.05256,-0.38911 0.185914,-0.53375 0.13335,-0.14393 0.32138,-0.22578 0.517525,-0.22578 h 29.920496 c 0.379236,0 0.690739,0.29986 0.705203,0.6791 l 0.126295,3.38243 -1.410406,0.0526 -0.100895,-2.70299 h -28.478693 l 1.899356,24.65988 -1.406878,0.10865"
       style="fill:#646f79;fill-opacity:1;fill-rule:nonzero;stroke:none;stroke-width:0.0152778"
       id="path177412" />
  </g>
</svg>
