<?xml version="1.0" encoding="UTF-8" standalone="no"?>
<svg
   xmlns:dc="http://purl.org/dc/elements/1.1/"
   xmlns:cc="http://creativecommons.org/ns#"
   xmlns:rdf="http://www.w3.org/1999/02/22-rdf-syntax-ns#"
   xmlns:svg="http://www.w3.org/2000/svg"
   xmlns="http://www.w3.org/2000/svg"
   xmlns:sodipodi="http://sodipodi.sourceforge.net/DTD/sodipodi-0.dtd"
   xmlns:inkscape="http://www.inkscape.org/namespaces/inkscape"
   width="21.072121mm"
   height="22.341415mm"
   viewBox="0 0 21.072121 22.341415"
   version="1.1"
   id="svg423"
   inkscape:version="1.0.2 (e86c8708, 2021-01-15)"
   sodipodi:docname="drawing.svg">
  <defs
     id="defs417" />
  <sodipodi:namedview
     id="base"
     pagecolor="#ffffff"
     bordercolor="#666666"
     borderopacity="1.0"
     inkscape:pageopacity="0.0"
     inkscape:pageshadow="2"
     inkscape:zoom="0.35"
     inkscape:cx="-370.17873"
     inkscape:cy="-103.4943"
     inkscape:document-units="mm"
     inkscape:current-layer="layer1"
     inkscape:document-rotation="0"
     showgrid="false"
     inkscape:window-width="1252"
     inkscape:window-height="847"
     inkscape:window-x="1776"
     inkscape:window-y="99"
     inkscape:window-maximized="0" />
  <metadata
     id="metadata420">
    <rdf:RDF>
      <cc:Work
         rdf:about="">
        <dc:format>image/svg+xml</dc:format>
        <dc:type
           rdf:resource="http://purl.org/dc/dcmitype/StillImage" />
        <dc:title></dc:title>
      </cc:Work>
    </rdf:RDF>
  </metadata>
  <g
     inkscape:label="Layer 1"
     inkscape:groupmode="layer"
     id="layer1"
     transform="translate(-94.541337,-115.07334)">
    <path
       d="m 94.894115,117.73646 c 0,-1.276 3.624086,-2.31034 8.094485,-2.31034 4.4704,0 8.09449,1.03434 8.09449,2.31034"
       style="fill:none;stroke:#646F79;stroke-width:0.55;stroke-linecap:round;stroke-linejoin:round;stroke-miterlimit:10;stroke-dasharray:none;stroke-opacity:1"
       id="path316" />
    <path
       d="m 111.08309,122.60091 c 0,1.276 -3.62409,2.31034 -8.09449,2.31034 -4.470399,0 -8.094485,-1.03434 -8.094485,-2.31034"
       style="fill:none;stroke:#646F79;stroke-width:0.55;stroke-linecap:round;stroke-linejoin:round;stroke-miterlimit:10;stroke-dasharray:none;stroke-opacity:1"
       id="path318" />
    <path
       d="m 106.3541,129.56722 c -1.02482,0.13405 -2.16464,0.20849 -3.3655,0.20849 -4.470399,0 -8.094485,-1.03435 -8.094485,-2.31034"
       style="fill:none;stroke:#646F79;stroke-width:0.55;stroke-linecap:round;stroke-linejoin:round;stroke-miterlimit:10;stroke-dasharray:none;stroke-opacity:1"
       id="path320" />
    <path
       d="m 105.66583,134.51104 c -0.8382,0.0836 -1.73919,0.12912 -2.67723,0.12912 -4.470399,0 -8.094485,-1.03434 -8.094485,-2.30999 v -14.59371 c 0,1.276 3.624086,2.31034 8.094485,2.31034 4.4704,0 8.09449,-1.03434 8.09449,-2.31034 v 9.10802"
       style="fill:none;stroke:#646F79;stroke-width:0.55;stroke-linecap:round;stroke-linejoin:round;stroke-miterlimit:10;stroke-dasharray:none;stroke-opacity:1"
       id="path322" />
    <path
       d="m 115.26068,132.86251 c 0,2.31952 -1.87995,4.19947 -4.19946,4.19947 -2.31917,0 -4.19947,-1.87995 -4.19947,-4.19947 0,-2.31916 1.8803,-4.19946 4.19947,-4.19946 2.31951,0 4.19946,1.8803 4.19946,4.19946 z"
       style="fill:none;stroke:#646F79;stroke-width:0.55;stroke-linecap:round;stroke-linejoin:round;stroke-miterlimit:10;stroke-dasharray:none;stroke-opacity:1"
       id="path324" />
    <path
       d="m 111.06122,134.83772 v -3.95006"
       style="fill:none;stroke:#646F79;stroke-width:0.55;stroke-linecap:round;stroke-linejoin:round;stroke-miterlimit:10;stroke-dasharray:none;stroke-opacity:1"
       id="path326" />
    <path
       d="m 109.08637,132.86251 h 3.9497"
       style="fill:none;stroke:#646F79;stroke-width:0.55;stroke-linecap:round;stroke-linejoin:round;stroke-miterlimit:10;stroke-dasharray:none;stroke-opacity:1"
       id="path328" />
  </g>
</svg>


