<?xml version="1.0" encoding="UTF-8" standalone="no"?>
<svg
   xmlns:dc="http://purl.org/dc/elements/1.1/"
   xmlns:cc="http://creativecommons.org/ns#"
   xmlns:rdf="http://www.w3.org/1999/02/22-rdf-syntax-ns#"
   xmlns:svg="http://www.w3.org/2000/svg"
   xmlns="http://www.w3.org/2000/svg"
   xmlns:sodipodi="http://sodipodi.sourceforge.net/DTD/sodipodi-0.dtd"
   xmlns:inkscape="http://www.inkscape.org/namespaces/inkscape"
   width="21.202295mm"
   height="22.364737mm"
   viewBox="0 0 21.202295 22.364737"
   version="1.1"
   id="svg546"
   inkscape:version="1.0.2 (e86c8708, 2021-01-15)"
   sodipodi:docname="drawing2.svg">
  <defs
     id="defs540" />
  <sodipodi:namedview
     id="base"
     pagecolor="#ffffff"
     bordercolor="#666666"
     borderopacity="1.0"
     inkscape:pageopacity="0.0"
     inkscape:pageshadow="2"
     inkscape:zoom="0.35"
     inkscape:cx="40.067268"
     inkscape:cy="42.264055"
     inkscape:document-units="mm"
     inkscape:current-layer="layer1"
     inkscape:document-rotation="0"
     showgrid="false"
     inkscape:window-width="1252"
     inkscape:window-height="847"
     inkscape:window-x="0"
     inkscape:window-y="25"
     inkscape:window-maximized="0" />
  <metadata
     id="metadata543">
    <rdf:RDF>
      <cc:Work
         rdf:about="">
        <dc:format>image/svg+xml</dc:format>
        <dc:type
           rdf:resource="http://purl.org/dc/dcmitype/StillImage" />
        <dc:title></dc:title>
      </cc:Work>
    </rdf:RDF>
  </metadata>
  <g
     inkscape:label="Layer 1"
     inkscape:groupmode="layer"
     id="layer1"
     transform="translate(-95.232202,-136.9843)">
    <path
       d="m 95.58498,139.64735 c 0,-1.27593 3.624086,-2.31027 8.09449,-2.31027 4.4704,0 8.09448,1.03434 8.09448,2.31027"
       style="fill:none;stroke:#646F79;stroke-width:0.55;stroke-linecap:round;stroke-linejoin:round;stroke-miterlimit:10;stroke-dasharray:none;stroke-opacity:1"
       id="path356" />
    <path
       d="m 111.77395,144.51184 c 0,1.27606 -3.62408,2.31041 -8.09448,2.31041 -4.470404,0 -8.09449,-1.03435 -8.09449,-2.31041"
       style="fill:none;stroke:#646F79;stroke-width:0.55;stroke-linecap:round;stroke-linejoin:round;stroke-miterlimit:10;stroke-dasharray:none;stroke-opacity:1"
       id="path358" />
    <path
       d="m 107.04497,151.47824 c -1.02482,0.13367 -2.16465,0.2085 -3.3655,0.2085 -4.470404,0 -8.09449,-1.03438 -8.09449,-2.31042"
       style="fill:none;stroke:#646F79;stroke-width:0.55;stroke-linecap:round;stroke-linejoin:round;stroke-miterlimit:10;stroke-dasharray:none;stroke-opacity:1"
       id="path360" />
    <path
       d="m 106.3567,156.42193 c -0.8382,0.0837 -1.7392,0.12912 -2.67723,0.12912 -4.470404,0 -8.09449,-1.03435 -8.09449,-2.31027 v -14.59343 c 0,1.27607 3.624086,2.31041 8.09449,2.31041 4.4704,0 8.09448,-1.03434 8.09448,-2.31041 v 9.10773"
       style="fill:none;stroke:#646F79;stroke-width:0.55;stroke-linecap:round;stroke-linejoin:round;stroke-miterlimit:10;stroke-dasharray:none;stroke-opacity:1"
       id="path362" />
    <path
       d="m 116.08172,154.79668 c 0,2.31924 -1.8803,4.19958 -4.19946,4.19958 -2.31952,0 -4.19947,-1.88034 -4.19947,-4.19958 0,-2.31951 1.87995,-4.19943 4.19947,-4.19943 2.31916,0 4.19946,1.87992 4.19946,4.19943 z"
       style="fill:none;stroke:#646F79;stroke-width:0.55;stroke-linecap:round;stroke-linejoin:round;stroke-miterlimit:10;stroke-dasharray:none;stroke-opacity:1"
       id="path364" />
    <path
       d="m 109.63436,154.76045 1.66722,1.66713 2.82858,-2.82854"
       style="fill:none;stroke:#646F79;stroke-width:0.58;stroke-linecap:round;stroke-linejoin:round;stroke-miterlimit:10;stroke-dasharray:none;stroke-opacity:1"
       id="path366" />
  </g>
</svg>
