<svg width="250" height="200" viewBox="0 0 250 200" fill="none" xmlns="http://www.w3.org/2000/svg">
<path fill-rule="evenodd" clip-rule="evenodd" d="M93 135H176C179.866 135 183 131.866 183 128C183 124.134 179.866 121 176 121C176 121 170 117.866 170 114C170 110.134 173.952 107 178.826 107H189C192.866 107 196 103.866 196 100C196 96.134 192.866 93 189 93H167C170.866 93 174 89.866 174 86C174 82.134 170.866 79 167 79H207C210.866 79 214 75.866 214 72C214 68.134 210.866 65 207 65H109C105.134 65 102 68.134 102 72C102 75.866 105.134 79 109 79H69C65.134 79 62 82.134 62 86C62 89.866 65.134 93 69 93H94C97.866 93 101 96.134 101 100C101 103.866 97.866 107 94 107H54C50.134 107 47 110.134 47 114C47 117.866 50.134 121 54 121H93C89.134 121 86 124.134 86 128C86 131.866 89.134 135 93 135ZM200 100C200 103.866 203.134 107 207 107C210.866 107 214 103.866 214 100C214 96.134 210.866 93 207 93C203.134 93 200 96.134 200 100Z" fill="#E6ECF1"/>
<path fill-rule="evenodd" clip-rule="evenodd" d="M135.455 140.114C158.903 140.114 177.911 121.06 177.911 97.5568C177.911 74.0533 158.903 55 135.455 55C112.008 55 93 74.0533 93 97.5568C93 121.06 112.008 140.114 135.455 140.114Z" fill="#F6F9FB" stroke="#9AAABD" stroke-width="2.5"/>
<path fill-rule="evenodd" clip-rule="evenodd" d="M128.652 130.578C131.996 131.197 135.455 131.221 135.455 131.221C154.003 131.221 169.039 116.149 169.039 97.5568C169.039 78.9645 154.003 63.8925 135.455 63.8925C130.691 63.8925 126.158 64.8871 122.052 66.6805C114.917 69.7969 109.072 75.3256 105.541 82.2388C103.195 86.8337 101.871 92.0403 101.871 97.5568C101.871 102.562 102.961 107.312 104.916 111.582C106.311 114.63 108.147 117.433 110.343 119.909" fill="white"/>
<path d="M128.652 130.578C131.996 131.197 135.455 131.221 135.455 131.221C154.003 131.221 169.039 116.149 169.039 97.5568C169.039 78.9645 154.003 63.8925 135.455 63.8925C130.691 63.8925 126.158 64.8871 122.052 66.6805C114.917 69.7969 109.072 75.3256 105.541 82.2388C103.195 86.8337 101.871 92.0403 101.871 97.5568C101.871 102.562 102.961 107.312 104.916 111.582C106.311 114.63 108.147 117.433 110.343 119.909" stroke="#9AAABD" stroke-width="2.5" stroke-linecap="round"/>
<path d="M114.287 123.694C117.01 125.912 120.085 127.711 123.416 128.994" stroke="#9AAABD" stroke-width="2.5" stroke-linecap="round"/>
<path d="M136.089 74.0552C133.906 74.0552 131.791 74.3465 129.78 74.8923C119.541 77.6714 112.01 87.05 112.01 98.1919" stroke="#9AAABD" stroke-opacity="0.7" stroke-width="2.5" stroke-linecap="round"/>
<path d="M170.307 131.221L177.911 138.843" stroke="#9AAABD" stroke-width="2.5"/>
<path d="M176.433 146.545C173.908 144.014 173.908 139.916 176.433 137.384C178.967 134.844 183.082 134.844 185.616 137.384L199.665 151.467C202.19 153.998 202.19 158.096 199.665 160.628C197.131 163.168 193.016 163.168 190.482 160.628L176.433 146.545Z" fill="#F6F9FB" stroke="#9AAABD" stroke-width="2.5"/>
<path d="M182.98 140.114L196.921 154.087" stroke="white" stroke-width="2.5" stroke-linecap="round"/>
<path d="M72.0664 39.7617C72.0664 38.668 72.1992 37.7969 72.4648 37.1484C72.7305 36.5 73.2148 35.8633 73.918 35.2383C74.6289 34.6055 75.1016 34.0938 75.3359 33.7031C75.5703 33.3047 75.6875 32.8867 75.6875 32.4492C75.6875 31.1289 75.0781 30.4688 73.8594 30.4688C73.2812 30.4688 72.8164 30.6484 72.4648 31.0078C72.1211 31.3594 71.9414 31.8477 71.9258 32.4727H68.5273C68.543 30.9805 69.0234 29.8125 69.9688 28.9688C70.9219 28.125 72.2188 27.7031 73.8594 27.7031C75.5156 27.7031 76.8008 28.1055 77.7148 28.9102C78.6289 29.707 79.0859 30.8359 79.0859 32.2969C79.0859 32.9609 78.9375 33.5898 78.6406 34.1836C78.3438 34.7695 77.8242 35.4219 77.082 36.1406L76.1328 37.043C75.5391 37.6133 75.1992 38.2812 75.1133 39.0469L75.0664 39.7617H72.0664ZM71.7266 43.3594C71.7266 42.8359 71.9023 42.4062 72.2539 42.0703C72.6133 41.7266 73.0703 41.5547 73.625 41.5547C74.1797 41.5547 74.6328 41.7266 74.9844 42.0703C75.3438 42.4062 75.5234 42.8359 75.5234 43.3594C75.5234 43.875 75.3477 44.3008 74.9961 44.6367C74.6523 44.9727 74.1953 45.1406 73.625 45.1406C73.0547 45.1406 72.5938 44.9727 72.2422 44.6367C71.8984 44.3008 71.7266 43.875 71.7266 43.3594Z" fill="#9AAABD"/>
<path d="M88.3721 46.9443C88.3721 46.3063 88.4495 45.7982 88.6045 45.4199C88.7594 45.0417 89.042 44.6702 89.4521 44.3057C89.8669 43.9365 90.1426 43.638 90.2793 43.4102C90.416 43.1777 90.4844 42.9339 90.4844 42.6787C90.4844 41.9085 90.1289 41.5234 89.418 41.5234C89.0807 41.5234 88.8096 41.6283 88.6045 41.8379C88.404 42.043 88.2992 42.3278 88.29 42.6924H86.3076C86.3167 41.8219 86.597 41.1406 87.1484 40.6484C87.7044 40.1562 88.4609 39.9102 89.418 39.9102C90.3841 39.9102 91.1338 40.1449 91.667 40.6143C92.2002 41.0791 92.4668 41.7376 92.4668 42.5898C92.4668 42.9772 92.3802 43.3441 92.207 43.6904C92.0339 44.0322 91.7308 44.4128 91.2979 44.832L90.7441 45.3584C90.3978 45.6911 90.1995 46.0807 90.1494 46.5273L90.1221 46.9443H88.3721ZM88.1738 49.043C88.1738 48.7376 88.2764 48.487 88.4814 48.291C88.6911 48.0905 88.9577 47.9902 89.2812 47.9902C89.6048 47.9902 89.8691 48.0905 90.0742 48.291C90.2839 48.487 90.3887 48.7376 90.3887 49.043C90.3887 49.3438 90.2861 49.5921 90.0811 49.7881C89.8805 49.984 89.6139 50.082 89.2812 50.082C88.9486 50.082 88.6797 49.984 88.4746 49.7881C88.2741 49.5921 88.1738 49.3438 88.1738 49.043Z" fill="#9AAABD"/>
</svg>
