<svg width="250" height="200" viewBox="0 0 250 200" fill="none" xmlns="http://www.w3.org/2000/svg">
<path fill-rule="evenodd" clip-rule="evenodd" d="M88 135H171C174.866 135 178 131.866 178 128C178 124.134 174.866 121 171 121C171 121 165 117.866 165 114C165 110.134 168.952 107 173.826 107H184C187.866 107 191 103.866 191 100C191 96.134 187.866 93 184 93H162C165.866 93 169 89.866 169 86C169 82.134 165.866 79 162 79H202C205.866 79 209 75.866 209 72C209 68.134 205.866 65 202 65H104C100.134 65 97 68.134 97 72C97 75.866 100.134 79 104 79H64C60.134 79 57 82.134 57 86C57 89.866 60.134 93 64 93H89C92.866 93 96 96.134 96 100C96 103.866 92.866 107 89 107H49C45.134 107 42 110.134 42 114C42 117.866 45.134 121 49 121H88C84.134 121 81 124.134 81 128C81 131.866 84.134 135 88 135ZM195 100C195 103.866 198.134 107 202 107C205.866 107 209 103.866 209 100C209 96.134 205.866 93 202 93C198.134 93 195 96.134 195 100Z" fill="#E6ECF1"/>
<rect x="86" y="57" width="86" height="86" fill="white"/>
<path d="M170.567 57H87.4333C86.6421 57 86 57.6421 86 58.4333V141.567C86 142.358 86.6421 143 87.4333 143H170.567C171.358 143 172 142.358 172 141.567V58.4333C172 57.6421 171.358 57 170.567 57ZM113.233 140.133H88.8667V121.5H113.233V140.133H113.233ZM113.233 118.633H88.8667V100H113.233V118.633H113.233ZM113.233 97.1333H88.8667V78.5H113.233V97.1333H113.233ZM141.9 140.133H116.1V121.5H141.9V140.133V140.133ZM141.9 118.633H116.1V100H141.9V118.633V118.633ZM141.9 97.1333H116.1V78.5H141.9V97.1333V97.1333ZM169.133 140.133H144.767V121.5H169.134V140.133H169.133ZM169.133 118.633H144.767V100H169.134V118.633H169.133ZM169.133 97.1333H144.767V78.5H169.134V97.1333H169.133ZM169.133 75.6333H88.8667V59.8667H169.134V75.6333H169.133Z" fill="#9AAABD"/>
<path d="M57 25V34.5854" stroke="#9AAABD" stroke-width="2.5" stroke-linecap="round" stroke-linejoin="round"/>
<path d="M57 47.3659V56.9513" stroke="#9AAABD" stroke-width="2.5" stroke-linecap="round" stroke-linejoin="round"/>
<path d="M42 40.9756H51" stroke="#9AAABD" stroke-width="2.5" stroke-linecap="round" stroke-linejoin="round"/>
<path d="M63 40.9756H72" stroke="#9AAABD" stroke-width="2.5" stroke-linecap="round" stroke-linejoin="round"/>
<path d="M195 135V139.5" stroke="#9AAABD" stroke-width="2.5" stroke-linecap="round" stroke-linejoin="round"/>
<path d="M195 148.5V153" stroke="#9AAABD" stroke-width="2.5" stroke-linecap="round" stroke-linejoin="round"/>
<path d="M186 144H190.5" stroke="#9AAABD" stroke-width="2.5" stroke-linecap="round" stroke-linejoin="round"/>
<path d="M199.5 144H204" stroke="#9AAABD" stroke-width="2.5" stroke-linecap="round" stroke-linejoin="round"/>
<rect x="89" y="60" width="80" height="15" fill="#F6F9FB"/>
</svg>
