<svg width="250" height="200" viewBox="0 0 250 200" fill="none" xmlns="http://www.w3.org/2000/svg">
<path fill-rule="evenodd" clip-rule="evenodd" d="M88 135H171C174.866 135 178 131.866 178 128C178 124.134 174.866 121 171 121C171 121 165 117.866 165 114C165 110.134 168.952 107 173.826 107H184C187.866 107 191 103.866 191 100C191 96.134 187.866 93 184 93H162C165.866 93 169 89.866 169 86C169 82.134 165.866 79 162 79H202C205.866 79 209 75.866 209 72C209 68.134 205.866 65 202 65H104C100.134 65 97 68.134 97 72C97 75.866 100.134 79 104 79H64C60.134 79 57 82.134 57 86C57 89.866 60.134 93 64 93H89C92.866 93 96 96.134 96 100C96 103.866 92.866 107 89 107H49C45.134 107 42 110.134 42 114C42 117.866 45.134 121 49 121H88C84.134 121 81 124.134 81 128C81 131.866 84.134 135 88 135ZM195 100C195 103.866 198.134 107 202 107C205.866 107 209 103.866 209 100C209 96.134 205.866 93 202 93C198.134 93 195 96.134 195 100Z" fill="#E6ECF1"/>
<path fill-rule="evenodd" clip-rule="evenodd" d="M63.65 25H51.704V27.376H60.152L51 38.464V40.708H63.87V38.332H54.498L63.65 27.09V25ZM77.062 40.284H68.374V42.012H74.518L67.862 50.076V51.708H77.222V49.98H70.406L77.062 41.804V40.284Z" fill="#9AAABD"/>
<circle cx="131.5" cy="97.5" r="50.5" fill="#F6F9FB"/>
<path d="M131.5 47C103.654 47 81 69.654 81 97.5C81 109.695 85.3464 120.895 92.5696 129.632C92.5868 129.657 92.5902 129.689 92.6099 129.713C97.8259 136.003 104.378 140.826 111.676 143.941C111.76 143.978 111.844 144.016 111.93 144.052C112.52 144.301 113.116 144.533 113.715 144.758C113.953 144.848 114.189 144.937 114.428 145.024C114.944 145.209 115.463 145.384 115.986 145.552C116.322 145.661 116.658 145.766 116.996 145.867C117.459 146.006 117.923 146.138 118.391 146.264C118.801 146.375 119.214 146.477 119.628 146.577C120.048 146.678 120.468 146.779 120.891 146.869C121.363 146.971 121.841 147.06 122.318 147.148C122.701 147.219 123.083 147.292 123.468 147.354C123.999 147.439 124.536 147.508 125.074 147.576C125.417 147.62 125.759 147.67 126.104 147.707C126.712 147.772 127.325 147.817 127.938 147.86C128.222 147.879 128.503 147.909 128.787 147.925C129.685 147.973 130.589 148 131.5 148C132.411 148 133.315 147.973 134.213 147.926C134.497 147.91 134.778 147.881 135.062 147.86C135.675 147.818 136.288 147.773 136.896 147.708C137.241 147.671 137.583 147.621 137.926 147.577C138.463 147.509 139 147.439 139.532 147.355C139.917 147.293 140.299 147.219 140.682 147.149C141.159 147.061 141.636 146.972 142.108 146.87C142.531 146.779 142.952 146.679 143.372 146.578C143.786 146.478 144.199 146.375 144.609 146.265C145.077 146.14 145.541 146.007 146.004 145.868C146.342 145.766 146.678 145.661 147.014 145.553C147.537 145.384 148.056 145.21 148.572 145.025C148.811 144.938 149.047 144.848 149.285 144.759C149.884 144.533 150.48 144.302 151.07 144.053C151.156 144.017 151.24 143.979 151.324 143.942C158.622 140.826 165.174 136.004 170.39 129.714C170.41 129.69 170.413 129.658 170.43 129.633C177.654 120.895 182 109.695 182 97.5C182 69.654 159.346 47 131.5 47ZM150.7 142.347C150.583 142.397 150.467 142.45 150.35 142.499C149.784 142.737 149.212 142.959 148.636 143.176C148.406 143.262 148.175 143.349 147.943 143.432C147.439 143.612 146.931 143.784 146.42 143.948C146.103 144.05 145.786 144.147 145.467 144.242C145.013 144.379 144.558 144.509 144.099 144.632C143.71 144.735 143.319 144.831 142.927 144.925C142.517 145.024 142.107 145.122 141.693 145.211C141.241 145.306 140.787 145.39 140.332 145.474C139.961 145.543 139.591 145.614 139.217 145.674C138.707 145.755 138.193 145.82 137.68 145.885C137.348 145.927 137.017 145.977 136.684 146.012C136.099 146.073 135.511 146.115 134.923 146.156C134.651 146.175 134.381 146.204 134.108 146.219C133.241 146.262 132.372 146.288 131.5 146.288C130.628 146.288 129.759 146.262 128.894 146.217C128.621 146.203 128.351 146.174 128.079 146.155C127.491 146.114 126.902 146.072 126.318 146.01C125.984 145.975 125.654 145.925 125.322 145.883C124.808 145.818 124.295 145.753 123.785 145.672C123.411 145.612 123.042 145.54 122.67 145.472C122.215 145.389 121.76 145.306 121.308 145.209C120.895 145.121 120.485 145.022 120.075 144.924C119.683 144.83 119.292 144.734 118.902 144.63C118.444 144.508 117.987 144.377 117.535 144.241C117.216 144.146 116.899 144.048 116.582 143.946C116.071 143.782 115.563 143.611 115.058 143.43C114.826 143.347 114.597 143.261 114.366 143.174C113.79 142.958 113.216 142.735 112.652 142.497C112.534 142.448 112.418 142.395 112.301 142.346C105.268 139.323 99.0884 134.692 94.2164 128.919C97.5255 116.123 107.35 105.809 120.005 101.848C120.064 101.887 120.127 101.919 120.187 101.957C120.531 102.172 120.88 102.381 121.237 102.576C121.302 102.611 121.367 102.645 121.431 102.679C121.782 102.868 122.14 103.044 122.502 103.212C122.623 103.268 122.746 103.324 122.869 103.378C123.218 103.532 123.571 103.678 123.929 103.814C123.991 103.837 124.052 103.864 124.113 103.887C124.527 104.039 124.947 104.176 125.372 104.303C125.485 104.337 125.6 104.368 125.714 104.401C126.065 104.499 126.42 104.59 126.779 104.67C126.871 104.691 126.963 104.715 127.056 104.734C127.493 104.827 127.936 104.906 128.383 104.972C128.476 104.986 128.57 104.995 128.663 105.008C129.026 105.057 129.392 105.096 129.761 105.125C129.885 105.136 130.008 105.146 130.132 105.154C130.584 105.184 131.04 105.203 131.5 105.203C131.96 105.203 132.416 105.184 132.869 105.155C132.993 105.147 133.116 105.137 133.24 105.126C133.608 105.096 133.974 105.058 134.337 105.009C134.431 104.996 134.525 104.987 134.618 104.973C135.065 104.907 135.507 104.828 135.945 104.735C136.037 104.716 136.13 104.692 136.222 104.671C136.581 104.59 136.935 104.5 137.287 104.401C137.402 104.369 137.515 104.338 137.629 104.304C138.054 104.176 138.474 104.04 138.888 103.888C138.949 103.865 139.01 103.839 139.072 103.815C139.43 103.679 139.783 103.533 140.132 103.379C140.255 103.325 140.377 103.269 140.499 103.212C140.861 103.044 141.219 102.868 141.57 102.68C141.634 102.646 141.699 102.612 141.763 102.577C142.12 102.381 142.47 102.173 142.814 101.958C142.874 101.92 142.937 101.888 142.997 101.85C155.652 105.809 165.476 116.124 168.785 128.92C163.913 134.693 157.733 139.324 150.7 142.347ZM111.814 83.8051C111.814 72.9502 120.645 64.1186 131.5 64.1186C142.355 64.1186 151.186 72.9502 151.186 83.8051C151.186 90.7167 147.604 96.8033 142.2 100.317C141.918 100.501 141.631 100.676 141.341 100.845C141.237 100.905 141.134 100.966 141.03 101.024C140.673 101.222 140.311 101.411 139.944 101.585C139.859 101.626 139.773 101.662 139.687 101.702C139.372 101.846 139.054 101.982 138.733 102.109C138.632 102.149 138.534 102.19 138.433 102.227C138.044 102.375 137.65 102.511 137.252 102.632C137.177 102.655 137.102 102.674 137.028 102.696C136.681 102.798 136.332 102.889 135.98 102.971C135.881 102.994 135.781 103.018 135.68 103.04C135.264 103.13 134.847 103.21 134.425 103.273C134.37 103.282 134.314 103.287 134.26 103.295C133.885 103.348 133.509 103.388 133.131 103.419C133.02 103.428 132.909 103.437 132.798 103.444C132.367 103.473 131.935 103.492 131.5 103.492C131.065 103.492 130.633 103.473 130.202 103.444C130.091 103.437 129.98 103.428 129.869 103.419C129.49 103.388 129.115 103.347 128.74 103.295C128.686 103.287 128.63 103.282 128.575 103.273C128.153 103.21 127.736 103.13 127.32 103.04C127.219 103.019 127.12 102.994 127.02 102.971C126.668 102.889 126.319 102.797 125.972 102.696C125.898 102.674 125.823 102.655 125.748 102.632C125.35 102.511 124.956 102.375 124.567 102.227C124.466 102.19 124.368 102.149 124.267 102.109C123.946 101.982 123.628 101.846 123.313 101.702C123.227 101.662 123.141 101.626 123.056 101.585C122.689 101.411 122.328 101.222 121.97 101.024C121.866 100.966 121.763 100.905 121.659 100.845C121.369 100.676 121.082 100.501 120.8 100.317C115.396 96.8033 111.814 90.7167 111.814 83.8051ZM170.093 127.295C166.463 114.89 156.942 104.89 144.698 100.629C149.686 96.7091 152.898 90.6269 152.898 83.8051C152.898 72.0061 143.299 62.4068 131.5 62.4068C119.701 62.4068 110.102 72.0061 110.102 83.8051C110.102 90.6269 113.314 96.7091 118.302 100.63C106.058 104.891 96.5369 114.89 92.9069 127.295C86.5242 119.046 82.7119 108.713 82.7119 97.5C82.7119 70.598 104.598 48.7119 131.5 48.7119C158.402 48.7119 180.288 70.598 180.288 97.5C180.288 108.713 176.476 119.046 170.093 127.295Z" fill="#9AAABD"/>
<circle cx="131.5" cy="83.8" r="19.5" fill="white"/>
</svg>
