<svg width="250" height="200" viewBox="0 0 250 200" fill="none" xmlns="http://www.w3.org/2000/svg">
<path fill-rule="evenodd" clip-rule="evenodd" d="M93 135H176C179.866 135 183 131.866 183 128C183 124.134 179.866 121 176 121C176 121 170 117.866 170 114C170 110.134 173.952 107 178.826 107H189C192.866 107 196 103.866 196 100C196 96.134 192.866 93 189 93H167C170.866 93 174 89.866 174 86C174 82.134 170.866 79 167 79H207C210.866 79 214 75.866 214 72C214 68.134 210.866 65 207 65H109C105.134 65 102 68.134 102 72C102 75.866 105.134 79 109 79H69C65.134 79 62 82.134 62 86C62 89.866 65.134 93 69 93H94C97.866 93 101 96.134 101 100C101 103.866 97.866 107 94 107H54C50.134 107 47 110.134 47 114C47 117.866 50.134 121 54 121H93C89.134 121 86 124.134 86 128C86 131.866 89.134 135 93 135ZM200 100C200 103.866 203.134 107 207 107C210.866 107 214 103.866 214 100C214 96.134 210.866 93 207 93C203.134 93 200 96.134 200 100Z" fill="#E6ECF1"/>
<path fill-rule="evenodd" clip-rule="evenodd" d="M171.875 129.481C169.486 131.451 166.879 133.236 164.087 134.808L164.248 148.966C164.261 150.076 163.392 150.987 162.308 151C161.867 151.005 161.437 150.858 161.088 150.583L148.655 140.789C143.995 141.887 139.079 142.475 134 142.475C104.177 142.475 80 122.221 80 97.2374C80 72.2535 104.177 52 134 52C163.823 52 188 72.2535 188 97.2374C188 104.152 186.148 110.705 182.837 116.566C182.226 117.647 181.566 118.705 180.858 119.737M178.371 123.027C177.474 124.108 176.522 125.155 175.518 126.165Z" fill="white"/>
<path d="M172.67 130.446C173.203 130.007 173.279 129.219 172.84 128.686C172.401 128.154 171.613 128.078 171.08 128.517L172.67 130.446ZM164.087 134.808L163.474 133.719L162.829 134.082L162.837 134.823L164.087 134.808ZM164.248 148.966L162.999 148.98L162.999 148.98L164.248 148.966ZM162.308 151L162.293 149.75L162.308 151ZM161.088 150.583L161.861 149.601L161.861 149.601L161.088 150.583ZM148.655 140.789L149.429 139.807L148.955 139.434L148.368 139.572L148.655 140.789ZM182.837 116.566L183.925 117.181L183.925 117.181L182.837 116.566ZM179.827 119.03C179.437 119.599 179.582 120.377 180.151 120.767C180.721 121.158 181.499 121.013 181.889 120.443L179.827 119.03ZM179.333 123.825C179.774 123.294 179.701 122.506 179.169 122.065C178.638 121.624 177.85 121.697 177.409 122.229L179.333 123.825ZM174.632 125.284C174.145 125.773 174.147 126.565 174.637 127.052C175.127 127.538 175.918 127.536 176.405 127.046L174.632 125.284ZM171.08 128.517C168.749 130.439 166.203 132.182 163.474 133.719L164.7 135.897C167.555 134.29 170.223 132.464 172.67 130.446L171.08 128.517ZM162.837 134.823L162.999 148.98L165.498 148.952L165.337 134.794L162.837 134.823ZM162.999 148.98C163.004 149.428 162.66 149.746 162.293 149.75L162.323 152.25C164.125 152.228 165.519 150.724 165.498 148.952L162.999 148.98ZM162.293 149.75C162.141 149.752 161.988 149.701 161.861 149.601L160.314 151.565C160.886 152.015 161.593 152.258 162.323 152.25L162.293 149.75ZM161.861 149.601L149.429 139.807L147.882 141.771L160.314 151.565L161.861 149.601ZM148.368 139.572C143.802 140.649 138.983 141.225 134 141.225V143.725C139.176 143.725 144.187 143.126 148.942 142.006L148.368 139.572ZM134 141.225C104.651 141.225 81.25 121.333 81.25 97.2374H78.75C78.75 123.11 103.703 143.725 134 143.725V141.225ZM81.25 97.2374C81.25 73.142 104.651 53.25 134 53.25V50.75C103.703 50.75 78.75 71.365 78.75 97.2374H81.25ZM134 53.25C163.349 53.25 186.75 73.142 186.75 97.2374H189.25C189.25 71.365 164.297 50.75 134 50.75V53.25ZM186.75 97.2374C186.75 103.924 184.96 110.266 181.748 115.951L183.925 117.181C187.336 111.144 189.25 104.381 189.25 97.2374H186.75ZM181.748 115.951C181.156 117 180.515 118.027 179.827 119.03L181.889 120.443C182.617 119.382 183.296 118.294 183.925 117.181L181.748 115.951ZM177.409 122.229C176.536 123.281 175.609 124.3 174.632 125.284L176.405 127.046C177.434 126.01 178.412 124.936 179.333 123.825L177.409 122.229Z" fill="#9AAABD"/>
<path fill-rule="evenodd" clip-rule="evenodd" d="M133.545 104.063C136.799 104.063 139.436 101.363 139.436 98.0317C139.436 94.7005 136.799 92 133.545 92C130.292 92 127.654 94.7005 127.654 98.0317C127.654 101.363 130.292 104.063 133.545 104.063ZM114.891 104.063C118.144 104.063 120.782 101.363 120.782 98.0317C120.782 94.7005 118.144 92 114.891 92C111.637 92 109 94.7005 109 98.0317C109 101.363 111.637 104.063 114.891 104.063ZM158.091 98.0317C158.091 101.363 155.453 104.063 152.2 104.063C148.946 104.063 146.309 101.363 146.309 98.0317C146.309 94.7005 148.946 92 152.2 92C155.453 92 158.091 94.7005 158.091 98.0317Z" fill="#F6F9FB"/>
<path d="M138.186 98.0317C138.186 100.7 136.081 102.813 133.545 102.813V105.313C137.517 105.313 140.686 102.025 140.686 98.0317H138.186ZM133.545 93.25C136.081 93.25 138.186 95.3628 138.186 98.0317H140.686C140.686 94.0381 137.517 90.75 133.545 90.75V93.25ZM128.904 98.0317C128.904 95.3628 131.01 93.25 133.545 93.25V90.75C129.574 90.75 126.404 94.0381 126.404 98.0317H128.904ZM133.545 102.813C131.01 102.813 128.904 100.7 128.904 98.0317H126.404C126.404 102.025 129.574 105.313 133.545 105.313V102.813ZM119.532 98.0317C119.532 100.7 117.426 102.813 114.891 102.813V105.313C118.862 105.313 122.032 102.025 122.032 98.0317H119.532ZM114.891 93.25C117.426 93.25 119.532 95.3628 119.532 98.0317H122.032C122.032 94.0381 118.862 90.75 114.891 90.75V93.25ZM110.25 98.0317C110.25 95.3628 112.355 93.25 114.891 93.25V90.75C110.919 90.75 107.75 94.0381 107.75 98.0317H110.25ZM114.891 102.813C112.355 102.813 110.25 100.7 110.25 98.0317H107.75C107.75 102.025 110.919 105.313 114.891 105.313V102.813ZM152.2 105.313C156.171 105.313 159.341 102.025 159.341 98.0317H156.841C156.841 100.7 154.735 102.813 152.2 102.813V105.313ZM145.059 98.0317C145.059 102.025 148.228 105.313 152.2 105.313V102.813C149.664 102.813 147.559 100.7 147.559 98.0317H145.059ZM152.2 90.75C148.228 90.75 145.059 94.0381 145.059 98.0317H147.559C147.559 95.3628 149.664 93.25 152.2 93.25V90.75ZM159.341 98.0317C159.341 94.0381 156.171 90.75 152.2 90.75V93.25C154.735 93.25 156.841 95.3628 156.841 98.0317H159.341Z" fill="#9AAABD"/>
<path d="M96.053 84.408C95.1615 85.948 94.3889 87.5463 93.7454 89.1941" stroke="#9AAABD" stroke-opacity="0.7" stroke-width="2.5" stroke-linecap="round"/>
<path d="M114.079 68.0844C107.646 71.2282 102.214 75.6754 98.2888 80.9992" stroke="#9AAABD" stroke-opacity="0.7" stroke-width="2.5" stroke-linecap="round"/>
<path fill-rule="evenodd" clip-rule="evenodd" d="M67.65 25H55.704V27.376H64.152L55 38.464V40.708H67.87V38.332H58.498L67.65 27.09V25ZM81.062 40.284H72.374V42.012H78.518L71.862 50.076V51.708H81.222V49.98H74.406L81.062 41.804V40.284Z" fill="#9AAABD"/>
</svg>
