<svg width="445" height="376" viewBox="0 0 445 376" fill="none" xmlns="http://www.w3.org/2000/svg">
<path fill-rule="evenodd" clip-rule="evenodd" d="M99.68 238.76C99.68 246.028 105.259 251.92 112.14 251.92H372.02C378.901 251.92 384.48 246.028 384.48 238.76C384.48 231.492 378.901 225.6 372.02 225.6H361.34C354.459 225.6 348.88 219.708 348.88 212.44C348.88 205.172 354.459 199.28 361.34 199.28H395.16C402.041 199.28 407.62 193.388 407.62 186.12C407.62 178.852 402.041 172.96 395.16 172.96H356C362.881 172.96 368.46 167.068 368.46 159.8C368.46 152.532 362.881 146.64 356 146.64H242.08C248.961 146.64 254.54 140.748 254.54 133.48C254.54 126.212 248.961 120.32 242.08 120.32H140.62C133.739 120.32 128.16 126.212 128.16 133.48C128.16 140.748 133.739 146.64 140.62 146.64H69.42C62.5385 146.64 56.96 152.532 56.96 159.8C56.96 167.068 62.5385 172.96 69.42 172.96H113.92C120.801 172.96 126.38 178.852 126.38 186.12C126.38 193.388 120.801 199.28 113.92 199.28H42.72C35.8385 199.28 30.26 205.172 30.26 212.44C30.26 219.708 35.8385 225.6 42.72 225.6H112.14C105.259 225.6 99.68 231.492 99.68 238.76ZM414.74 238.76C414.74 246.028 409.161 251.92 402.28 251.92C395.399 251.92 389.82 246.028 389.82 238.76C389.82 231.492 395.399 225.6 402.28 225.6C409.161 225.6 414.74 231.492 414.74 238.76Z" fill="#E6ECF1"/>
<path fill-rule="evenodd" clip-rule="evenodd" d="M163.76 263.2C142.133 263.2 124.6 245.103 124.6 222.78C124.6 200.457 142.133 182.36 163.76 182.36C164.68 182.36 165.592 182.393 166.496 182.457C165.868 178.765 165.54 174.963 165.54 171.08C165.54 135.778 192.636 107.16 226.06 107.16C252.744 107.16 275.395 125.4 283.445 150.719C285.352 150.508 287.289 150.4 289.25 150.4C319.234 150.4 343.54 175.651 343.54 206.8C343.54 236.392 321.602 260.807 293.7 263.159V263.2H193.144M185.113 263.2H172.716Z" fill="white"/>
<path d="M163.76 264.45C164.45 264.45 165.01 263.89 165.01 263.2C165.01 262.51 164.45 261.95 163.76 261.95V264.45ZM166.496 182.457L166.407 183.704L167.995 183.817L167.728 182.247L166.496 182.457ZM283.445 150.719L282.254 151.097L282.564 152.074L283.582 151.961L283.445 150.719ZM293.7 263.159L293.595 261.913L292.45 262.01V263.159H293.7ZM293.7 263.2V264.45H294.95V263.2H293.7ZM193.144 261.95C192.454 261.95 191.894 262.51 191.894 263.2C191.894 263.89 192.454 264.45 193.144 264.45V261.95ZM185.113 264.45C185.803 264.45 186.363 263.89 186.363 263.2C186.363 262.51 185.803 261.95 185.113 261.95V264.45ZM172.716 261.95C172.025 261.95 171.466 262.51 171.466 263.2C171.466 263.89 172.025 264.45 172.716 264.45V261.95ZM163.76 261.95C142.86 261.95 125.85 244.451 125.85 222.78H123.35C123.35 245.756 141.405 264.45 163.76 264.45V261.95ZM125.85 222.78C125.85 201.109 142.86 183.61 163.76 183.61V181.11C141.405 181.11 123.35 199.804 123.35 222.78H125.85ZM163.76 183.61C164.65 183.61 165.533 183.642 166.407 183.704L166.585 181.21C165.651 181.144 164.709 181.11 163.76 181.11V183.61ZM167.728 182.247C167.112 178.624 166.79 174.892 166.79 171.08H164.29C164.29 175.033 164.624 178.906 165.264 182.667L167.728 182.247ZM166.79 171.08C166.79 136.403 193.39 108.41 226.06 108.41V105.91C191.882 105.91 164.29 135.153 164.29 171.08H166.79ZM226.06 108.41C252.147 108.41 274.352 126.245 282.254 151.097L284.636 150.34C276.438 124.554 253.341 105.91 226.06 105.91V108.41ZM283.582 151.961C285.444 151.755 287.335 151.65 289.25 151.65V149.15C287.243 149.15 285.26 149.261 283.308 149.476L283.582 151.961ZM289.25 151.65C318.499 151.65 342.29 176.296 342.29 206.8H344.79C344.79 175.006 319.968 149.15 289.25 149.15V151.65ZM342.29 206.8C342.29 235.781 320.812 259.62 293.595 261.913L293.805 264.405C322.392 261.995 344.79 237.003 344.79 206.8H342.29ZM292.45 263.159V263.2H294.95V263.159H292.45ZM293.7 261.95H193.144V264.45H293.7V261.95ZM185.113 261.95H172.716V264.45H185.113V261.95Z" fill="#9AAABD"/>
<path fill-rule="evenodd" clip-rule="evenodd" d="M226.95 236.88C232.357 236.88 236.74 232.251 236.74 226.54C236.74 220.829 232.357 216.2 226.95 216.2C221.543 216.2 217.16 220.829 217.16 226.54C217.16 232.251 221.543 236.88 226.95 236.88Z" stroke="#9AAABD" stroke-width="2.5"/>
<path d="M199.36 204.92L211.82 194.593L199.36 184.762" stroke="#9AAABD" stroke-width="2.5" stroke-linecap="round" stroke-linejoin="round"/>
<path d="M254.54 204.92L242.08 194.593L254.54 184.762" stroke="#9AAABD" stroke-width="2.5" stroke-linecap="round" stroke-linejoin="round"/>
<path d="M243.86 125.96C255.446 129.198 264.594 138.768 267.784 150.951" stroke="#9AAABD" stroke-width="2.5" stroke-linecap="round"/>
<path fill-rule="evenodd" clip-rule="evenodd" d="M281.24 94C284.189 94 286.58 91.4749 286.58 88.36C286.58 85.2451 284.189 82.72 281.24 82.72C278.291 82.72 275.9 85.2451 275.9 88.36C275.9 91.4749 278.291 94 281.24 94Z" stroke="#9AAABD" stroke-width="2"/>
<path fill-rule="evenodd" clip-rule="evenodd" d="M336.42 124.08C339.369 124.08 341.76 121.555 341.76 118.44C341.76 115.325 339.369 112.8 336.42 112.8C333.471 112.8 331.08 115.325 331.08 118.44C331.08 121.555 333.471 124.08 336.42 124.08Z" fill="#9AAABD"/>
<path d="M311.011 107.676L310.104 108.536L310.104 108.536L311.011 107.676ZM311.011 109.492L310.104 108.632L310.104 108.632L311.011 109.492ZM309.293 107.676L310.2 108.536L310.2 108.536L309.293 107.676ZM302.6 114.745L301.692 115.604C301.928 115.853 302.257 115.995 302.6 115.995C302.943 115.995 303.272 115.853 303.508 115.604L302.6 114.745ZM295.908 107.676L296.815 106.817L296.815 106.817L295.908 107.676ZM294.189 107.676L293.281 106.817L294.189 107.676ZM294.189 109.492L293.281 110.351L294.189 109.492ZM300.881 116.56L301.789 117.419C302.245 116.937 302.245 116.183 301.789 115.701L300.881 116.56ZM294.415 123.39L295.323 124.249L295.323 124.249L294.415 123.39ZM294.415 125.205L295.323 124.346L295.323 124.346L294.415 125.205ZM296.134 125.205L297.041 126.064L297.041 126.064L296.134 125.205ZM302.6 118.375L303.508 117.516C303.272 117.267 302.943 117.125 302.6 117.125C302.257 117.125 301.928 117.267 301.692 117.516L302.6 118.375ZM309.066 125.205L309.974 124.346L309.974 124.346L309.066 125.205ZM310.785 125.205L309.877 124.346L309.877 124.346L310.785 125.205ZM310.785 123.39L309.877 124.249L309.877 124.249L310.785 123.39ZM304.319 116.56L303.411 115.701C302.955 116.183 302.955 116.937 303.411 117.419L304.319 116.56ZM310.104 108.536C310.106 108.538 310.117 108.552 310.117 108.584C310.117 108.615 310.106 108.63 310.104 108.632L311.919 110.351C312.85 109.368 312.85 107.8 311.919 106.817L310.104 108.536ZM310.2 108.536C310.202 108.534 310.198 108.539 310.187 108.543C310.177 108.548 310.165 108.55 310.152 108.55C310.139 108.55 310.127 108.548 310.117 108.543C310.106 108.539 310.102 108.534 310.104 108.536L311.919 106.817C310.951 105.795 309.353 105.795 308.385 106.817L310.2 108.536ZM303.508 115.604L310.2 108.536L308.385 106.817L301.692 113.885L303.508 115.604ZM295 108.536L301.692 115.604L303.508 113.885L296.815 106.817L295 108.536ZM295.096 108.536C295.098 108.534 295.094 108.539 295.083 108.543C295.073 108.548 295.061 108.55 295.048 108.55C295.036 108.55 295.024 108.548 295.013 108.543C295.002 108.539 294.998 108.534 295 108.536L296.815 106.817C295.848 105.795 294.249 105.795 293.281 106.817L295.096 108.536ZM295.096 108.632C295.094 108.63 295.083 108.615 295.083 108.584C295.083 108.552 295.094 108.538 295.096 108.536L293.281 106.817C292.35 107.8 292.35 109.368 293.281 110.351L295.096 108.632ZM301.789 115.701L295.096 108.632L293.281 110.351L299.974 117.419L301.789 115.701ZM295.323 124.249L301.789 117.419L299.974 115.701L293.507 122.53L295.323 124.249ZM295.323 124.346C295.32 124.343 295.309 124.329 295.309 124.297C295.309 124.266 295.32 124.252 295.323 124.249L293.507 122.53C292.576 123.514 292.576 125.081 293.507 126.064L295.323 124.346ZM295.226 124.346C295.224 124.347 295.229 124.343 295.24 124.338C295.25 124.334 295.262 124.331 295.274 124.331C295.287 124.331 295.299 124.334 295.309 124.338C295.32 124.343 295.324 124.347 295.323 124.346L293.507 126.064C294.475 127.086 296.074 127.086 297.041 126.064L295.226 124.346ZM301.692 117.516L295.226 124.346L297.041 126.064L303.508 119.235L301.692 117.516ZM309.974 124.346L303.508 117.516L301.692 119.235L308.159 126.064L309.974 124.346ZM309.877 124.346C309.876 124.347 309.88 124.343 309.891 124.338C309.901 124.334 309.913 124.331 309.926 124.331C309.938 124.331 309.95 124.334 309.961 124.338C309.971 124.343 309.976 124.347 309.974 124.346L308.159 126.064C309.126 127.087 310.725 127.087 311.693 126.064L309.877 124.346ZM309.877 124.249C309.88 124.252 309.891 124.266 309.891 124.297C309.891 124.329 309.88 124.343 309.877 124.346L311.693 126.064C312.624 125.081 312.624 123.514 311.693 122.53L309.877 124.249ZM303.411 117.419L309.877 124.249L311.693 122.53L305.227 115.701L303.411 117.419ZM310.104 108.632L303.411 115.701L305.227 117.419L311.919 110.351L310.104 108.632Z" fill="#9AAABD"/>
<path d="M138.638 141.213L137.779 142.121L137.779 142.121L138.638 141.213ZM138.687 142.98L137.779 142.121L137.779 142.121L138.687 142.98ZM136.871 141.261L137.779 142.121L137.779 142.121L136.871 141.261ZM132.439 145.943L131.531 146.802C131.767 147.052 132.096 147.193 132.439 147.193C132.782 147.193 133.11 147.052 133.347 146.802L132.439 145.943ZM128.007 141.261L127.099 142.121L127.099 142.121L128.007 141.261ZM126.239 141.213L127.099 142.121L127.099 142.121L126.239 141.213ZM126.191 142.98L127.099 142.121L127.099 142.121L126.191 142.98ZM130.717 147.761L131.625 148.62C132.082 148.138 132.082 147.383 131.625 146.901L130.717 147.761ZM126.191 152.541L127.099 153.401L127.099 153.401L126.191 152.541ZM126.239 154.309L127.099 153.401L127.099 153.401L126.239 154.309ZM128.007 154.26L128.914 155.12L128.914 155.12L128.007 154.26ZM132.439 149.579L133.347 148.72C133.11 148.47 132.782 148.329 132.439 148.329C132.096 148.329 131.767 148.47 131.531 148.72L132.439 149.579ZM136.871 154.26L137.779 153.401L137.779 153.401L136.871 154.26ZM138.638 154.309L137.779 153.401L137.779 153.401L138.638 154.309ZM138.687 152.541L137.779 153.401L137.779 153.401L138.687 152.541ZM134.16 147.761L133.253 146.901C132.796 147.383 132.796 148.138 133.253 148.62L134.16 147.761ZM137.779 142.121L137.779 142.121L139.594 143.84C140.544 142.837 140.5 141.255 139.498 140.305L137.779 142.121ZM137.779 142.121L137.779 142.121L139.498 140.305C138.495 139.356 136.913 139.399 135.963 140.402L137.779 142.121ZM133.347 146.802L137.779 142.121L135.963 140.402L131.531 145.083L133.347 146.802ZM127.099 142.121L131.531 146.802L133.347 145.083L128.914 140.402L127.099 142.121ZM127.099 142.121L127.099 142.121L128.914 140.402C127.965 139.399 126.383 139.356 125.38 140.305L127.099 142.121ZM127.099 142.121L127.099 142.121L125.38 140.305C124.377 141.255 124.334 142.837 125.283 143.84L127.099 142.121ZM131.625 146.901L127.099 142.121L125.283 143.84L129.81 148.62L131.625 146.901ZM127.099 153.401L131.625 148.62L129.81 146.901L125.283 151.682L127.099 153.401ZM127.099 153.401L127.099 153.401L125.283 151.682C124.334 152.685 124.377 154.267 125.38 155.216L127.099 153.401ZM127.099 153.401L127.099 153.401L125.38 155.216C126.383 156.166 127.965 156.122 128.914 155.12L127.099 153.401ZM131.531 148.72L127.099 153.401L128.914 155.12L133.347 150.438L131.531 148.72ZM137.779 153.401L133.347 148.72L131.531 150.438L135.963 155.12L137.779 153.401ZM137.779 153.401L137.779 153.401L135.963 155.12C136.913 156.122 138.495 156.166 139.498 155.216L137.779 153.401ZM137.779 153.401L137.779 153.401L139.498 155.216C140.5 154.267 140.544 152.685 139.594 151.682L137.779 153.401ZM133.253 148.62L137.779 153.401L139.594 151.682L135.068 146.901L133.253 148.62ZM137.779 142.121L133.253 146.901L135.068 148.62L139.594 143.84L137.779 142.121Z" fill="#9AAABD"/>
<path fill-rule="evenodd" clip-rule="evenodd" d="M151.3 129.72C154.249 129.72 156.64 127.195 156.64 124.08C156.64 120.965 154.249 118.44 151.3 118.44C148.351 118.44 145.96 120.965 145.96 124.08C145.96 127.195 148.351 129.72 151.3 129.72Z" fill="#9AAABD"/>
</svg>
