<svg width="286" height="245" viewBox="0 0 286 245" fill="none" xmlns="http://www.w3.org/2000/svg">
<rect width="286" height="245" fill="white"/>
<path d="M15.7859 206.805L5 22.8589C5.2534 19.7247 5.69308 18.24 9.10892 18H260.78C264.94 18.5667 267.411 18.6562 266.944 27.0237L256.158 210.969C255.929 220.085 253.142 220.45 247.94 220.687C159.685 228.848 110.204 229.356 21.9493 220.687C18.1375 219.074 16.2905 217.383 15.7859 206.805Z" fill="white" stroke="#797979" stroke-width="3"/>
<path d="M217.74 207.73C201.588 212.936 185.477 203.674 181.767 187.02C178.058 170.366 188.16 152.655 204.312 147.449C220.463 142.243 236.574 151.505 240.284 168.159C243.994 184.813 233.891 202.524 217.74 207.73Z" stroke="#797979" stroke-width="3"/>
<path d="M275.829 242.385L228.642 201.265C232.427 198.464 233.979 196.612 236.279 193.078L282.697 232.474C284.538 235.045 284.886 236.679 282.458 240.374C279.828 242.58 278.358 243.65 275.829 242.385Z" fill="#D0EBFF" stroke="#797979" stroke-width="2"/>
<path d="M15.408 17.2436V6.88335C15.1461 3.78278 15.607 2.56086 18.3205 2H108.608L121 17.2436H30.88C29.4877 17.1912 28.7868 16.9773 28.5095 17.2436H28.5142V19.0917C28.336 17.9645 28.2904 17.4541 28.5095 17.2436H15.408Z" fill="#D0EBFF"/>
<path d="M15.064 6.88335V18H28H121L108.264 2H17.9765C15.263 2.56086 14.8021 3.78278 15.064 6.88335Z" stroke="#797979" stroke-width="3"/>
<path d="M45.0055 133.706V76.9873C45.0084 73.2359 45.7749 71.9027 48.571 70.9867L91.6562 54.4809C96.871 52.3002 99.4495 52.7239 103.839 54.4809L145.439 70.9867C150.187 73.0561 151.833 75.2646 151.975 82.0891V133.706C152.149 139.583 151.46 141.631 148.41 142.407L103.839 158.312C99.0815 160.268 96.4137 160.839 91.6562 158.312L48.571 144.209C45.8327 143.156 44.9196 141.158 45.0055 133.706V133.706Z" stroke="#797979" stroke-width="2"/>
<path d="M47 75L93.4973 95.1839C96.2555 96.2572 97.8019 96.2868 100.56 95.1839L150 75" stroke="#797979" stroke-width="2"/>
<path d="M97 96V160" stroke="#797979" stroke-width="2"/>
<path d="M96.95 91L56 73.4688L99.05 58L140 74.5L96.95 91Z" fill="#FFE8CC" stroke="#FFE8CC" stroke-width="2"/>
<path d="M166 103H219" stroke="#FFE8CC" stroke-width="8"/>
<path d="M166 88H229" stroke="#FFE8CC" stroke-width="8"/>
<path d="M166 118H195" stroke="#FFE8CC" stroke-width="8"/>
<path d="M166 124H195" stroke="#797979" stroke-width="2"/>
<path d="M166 109H219" stroke="#797979" stroke-width="2"/>
<path d="M166 94H229" stroke="#797979" stroke-width="2"/>
</svg>
