<svg width="286" height="245" viewBox="0 0 286 245" fill="none" xmlns="http://www.w3.org/2000/svg">
<path d="M13.7859 206.805L3 22.8589C3.2534 19.7247 3.69308 18.24 7.10892 18H258.78C262.94 18.5667 265.411 18.6562 264.944 27.0237L254.158 210.969C253.929 220.085 251.142 220.45 245.94 220.687C157.685 228.848 108.204 229.356 19.9493 220.687C16.1375 219.074 14.2905 217.383 13.7859 206.805Z" fill="white" stroke="#797979" stroke-width="4"/>
<path d="M218.025 205.277C201.873 210.483 185.762 201.221 182.052 184.567C178.343 167.913 188.445 150.202 204.597 144.996C220.748 139.79 236.859 149.052 240.569 165.706C244.279 182.36 234.176 200.071 218.025 205.277Z" stroke="#797979" stroke-width="4"/>
<path d="M275.829 242.385L228.642 201.265C232.427 198.464 233.979 196.612 236.279 193.078L282.697 232.474C284.538 235.045 284.886 236.679 282.458 240.374C279.828 242.58 278.358 243.65 275.829 242.385Z" fill="#D0EBFF" stroke="#797979" stroke-width="3"/>
<path d="M15.408 17.2436L15.408 6.88335C15.1461 3.78278 15.607 2.56086 18.3205 2H108.608L121 17.2436H30.88C29.4877 17.1912 28.7868 16.9773 28.5095 17.2436H28.5142V19.0917C28.336 17.9645 28.2904 17.4541 28.5095 17.2436H15.408Z" fill="#D0EBFF"/>
<path d="M15.408 17.2436L15.408 6.88335C15.1461 3.78278 15.607 2.56086 18.3205 2H108.608L121 17.2436H30.88C28.3872 17.1498 28.1106 16.5383 28.5142 19.0917V17.2436H15.408Z" stroke="#797979" stroke-width="4"/>
<path d="M105.701 142.299H130.063C131.168 142.299 132.063 143.195 132.063 144.299V153.559C132.063 154.664 131.168 155.559 130.063 155.559H105.701C104.596 155.559 103.701 154.664 103.701 153.559V144.299C103.701 143.195 104.596 142.299 105.701 142.299Z" fill="white" stroke="#797979" stroke-width="4"/>
<path d="M115.724 69.1023V94.9921" stroke="#797979" stroke-width="2"/>
<path d="M116.803 154.323V173.74" stroke="#797979" stroke-width="2"/>
<path d="M123.649 63.7087C123.649 67.8464 120.031 71.4173 115.293 71.4173C110.555 71.4173 106.937 67.8464 106.937 63.7087C106.937 59.5709 110.555 56 115.293 56C120.031 56 123.649 59.5709 123.649 63.7087Z" fill="#D0EBFF" stroke="#797979" stroke-width="4"/>
<path d="M125.806 181.291C125.806 185.429 122.189 189 117.45 189C112.712 189 109.094 185.429 109.094 181.291C109.094 177.154 112.712 173.583 117.45 173.583C122.189 173.583 125.806 177.154 125.806 181.291Z" fill="#D0EBFF" stroke="#797979" stroke-width="4"/>
<rect x="53" y="99.1497" width="28.3622" height="13.2598" rx="2" fill="#FFE8CC" stroke="#797979" stroke-width="4"/>
<rect x="150.087" y="98.0708" width="28.3622" height="13.2598" rx="2" fill="#FFE8CC" stroke="#797979" stroke-width="4"/>
<path d="M83.3622 106.858H104.937" stroke="#797979" stroke-width="2"/>
<path d="M128.669 105.78H150.244" stroke="#797979" stroke-width="2"/>
<path d="M116.436 93.9133L104.937 105.537L116.436 117.646L128.669 105.537L116.436 93.9133Z" fill="white" stroke="#797979" stroke-width="4"/>
<path d="M116.803 117.646V141.378" stroke="#797979" stroke-width="2"/>
<path d="M66.1024 114.409V151.087H103.858" stroke="#797979" stroke-width="2"/>
</svg>
