<?xml version="1.0" encoding="UTF-8" standalone="no"?>
<svg
   xmlns:dc="http://purl.org/dc/elements/1.1/"
   xmlns:cc="http://creativecommons.org/ns#"
   xmlns:rdf="http://www.w3.org/1999/02/22-rdf-syntax-ns#"
   xmlns:svg="http://www.w3.org/2000/svg"
   xmlns="http://www.w3.org/2000/svg"
   xmlns:sodipodi="http://sodipodi.sourceforge.net/DTD/sodipodi-0.dtd"
   xmlns:inkscape="http://www.inkscape.org/namespaces/inkscape"
   width="14.838611mm"
   height="15.745788mm"
   viewBox="0 0 14.838611 15.745788"
   version="1.1"
   id="svg27472"
   inkscape:version="1.0.2 (e86c8708, 2021-01-15)"
   sodipodi:docname="faq.svg">
  <defs
     id="defs27466" />
  <sodipodi:namedview
     id="base"
     pagecolor="#ffffff"
     bordercolor="#666666"
     borderopacity="1.0"
     inkscape:pageopacity="0.0"
     inkscape:pageshadow="2"
     inkscape:zoom="0.35"
     inkscape:cx="-680.53006"
     inkscape:cy="249.75585"
     inkscape:document-units="mm"
     inkscape:current-layer="layer1"
     inkscape:document-rotation="0"
     showgrid="false"
     inkscape:window-width="1252"
     inkscape:window-height="942"
     inkscape:window-x="0"
     inkscape:window-y="25"
     inkscape:window-maximized="0" />
  <metadata
     id="metadata27469">
    <rdf:RDF>
      <cc:Work
         rdf:about="">
        <dc:format>image/svg+xml</dc:format>
        <dc:type
           rdf:resource="http://purl.org/dc/dcmitype/StillImage" />
        <dc:title></dc:title>
      </cc:Work>
    </rdf:RDF>
  </metadata>
  <g
     inkscape:label="Layer 1"
     inkscape:groupmode="layer"
     id="layer1"
     transform="translate(-285.89024,-82.08543)">
    <g
       id="g7684"
       transform="matrix(0.07715039,0,0,-0.07715039,-957.17528,343.27519)">
      <path
         d="m 16208.5,3380.89 c -50.4,0 -91.4,-40.97 -91.4,-91.45 0,-23.28 8.8,-44.45 23.1,-60.59 -1.1,-24.14 -18.5,-42.29 -18.5,-42.29 28.7,-4.12 50,13.85 54.1,17.55 10.2,-3.88 21.2,-6.12 32.7,-6.12 50.6,0 91.5,40.92 91.5,91.45 0,50.48 -40.9,91.45 -91.5,91.45 z"
         style="fill:none;stroke:#fff;stroke-width:9.1452;stroke-linecap:butt;stroke-linejoin:miter;stroke-miterlimit:10;stroke-dasharray:none;stroke-opacity:1"
         id="path7686" />
    </g>
    <g
       id="g7688"
       transform="matrix(0.07656584,0,0,-0.07656584,-957.17528,343.27519)">
      <path
         d="m 16300,3316.25 c 0,-7.65 -6.2,-13.82 -13.8,-13.82 -7.6,0 -13.8,6.17 -13.8,13.82 0,7.6 6.2,13.82 13.8,13.82 7.6,0 13.8,-6.22 13.8,-13.82 z"
         style="fill:none;stroke:#fff;stroke-width:9.215;stroke-linecap:butt;stroke-linejoin:miter;stroke-miterlimit:10;stroke-dasharray:none;stroke-opacity:1"
         id="path7690" />
    </g>
    <g
       id="g7692"
       transform="matrix(0.07678244,0,0,-0.07678244,-957.17528,343.27519)">
      <path
         d="m 16300,3306.9 c 0,-7.63 -6.2,-13.78 -13.8,-13.78 -7.6,0 -13.8,6.15 -13.8,13.78 0,7.58 6.2,13.78 13.8,13.78 7.6,0 13.8,-6.2 13.8,-13.78 z"
         style="fill:none;stroke:#fff;stroke-width:9.18903;stroke-linecap:butt;stroke-linejoin:miter;stroke-miterlimit:10;stroke-dasharray:none;stroke-opacity:1"
         id="path7694" />
    </g>
    <g
       id="g7696"
       transform="matrix(0.07699869,0,0,-0.07699869,-957.17528,343.27519)">
      <path
         d="m 16300,3297.61 c 0,-7.61 -6.1,-13.75 -13.7,-13.75 -7.6,0 -13.8,6.14 -13.8,13.75 0,7.56 6.2,13.74 13.8,13.74 7.6,0 13.7,-6.18 13.7,-13.74 z"
         style="fill:none;stroke:#fff;stroke-width:9.1632;stroke-linecap:butt;stroke-linejoin:miter;stroke-miterlimit:10;stroke-dasharray:none;stroke-opacity:1"
         id="path7698" />
    </g>
  </g>
</svg>
