<svg width="1227" height="345" viewBox="0 0 1227 345" fill="none" xmlns="http://www.w3.org/2000/svg">
<path d="M693.456 340.632C638.274 340.632 593.38 295.739 593.38 240.559C593.38 185.377 638.274 140.48 693.456 140.48C748.636 140.48 793.527 185.377 793.527 240.559C793.527 295.739 748.636 340.632 693.456 340.632ZM693.456 184.315C662.444 184.315 637.214 209.545 637.214 240.559C637.214 271.571 662.444 296.799 693.456 296.799C724.466 296.799 749.694 271.571 749.694 240.559C749.694 209.545 724.466 184.315 693.456 184.315Z" fill="#363636"/>
<path d="M575.518 47.9798L531.509 91.9885L531.509 50.01L575.518 6.00131V47.9798Z" fill="#00AEEF"/>
<path d="M479.86 340.525C426.281 340.525 382.686 296.965 382.628 243.4V243.293C382.686 189.729 426.281 146.166 479.86 146.166H509.541V190.001H479.86C450.432 190.001 426.489 213.927 426.461 243.347C426.489 272.766 450.432 296.692 479.86 296.692C508.342 296.692 531.515 273.519 531.515 245.038V96.857H575.348V245.038C575.348 297.69 532.513 340.525 479.86 340.525" fill="#363636"/>
<path d="M262.905 140.883C231.378 140.883 203.233 155.575 184.91 178.456C166.584 155.575 138.439 140.883 106.913 140.883C51.8204 140.883 7.00024 185.701 7.00024 240.791V335.827H50.8333V240.791C50.8333 209.871 75.9912 184.718 106.913 184.718C137.834 184.718 162.992 209.871 162.992 240.791V335.827H206.827V240.791C206.827 209.871 231.983 184.718 262.905 184.718C293.828 184.718 318.986 209.871 318.986 240.791V335.827H362.819V240.791C362.819 185.701 317.997 140.883 262.905 140.883Z" fill="#363636"/>
<path d="M923.938 245.766H876.203V296H861.203V182.25H931.672V194.594H876.203V233.5H923.938V245.766ZM1029.72 182.25V259.594C1029.67 270.323 1026.28 279.099 1019.56 285.922C1012.9 292.745 1003.83 296.573 992.375 297.406L988.391 297.562C975.943 297.562 966.021 294.203 958.625 287.484C951.229 280.766 947.479 271.521 947.375 259.75V182.25H962.219V259.281C962.219 267.51 964.484 273.917 969.016 278.5C973.547 283.031 980.005 285.297 988.391 285.297C996.88 285.297 1003.36 283.031 1007.84 278.5C1012.38 273.969 1014.64 267.589 1014.64 259.359V182.25H1029.72ZM1086.91 245.297C1074.04 241.599 1064.67 237.068 1058.78 231.703C1052.95 226.286 1050.03 219.62 1050.03 211.703C1050.03 202.745 1053.6 195.349 1060.73 189.516C1067.92 183.63 1077.24 180.688 1088.7 180.688C1096.52 180.688 1103.47 182.198 1109.56 185.219C1115.71 188.24 1120.45 192.406 1123.78 197.719C1127.17 203.031 1128.86 208.839 1128.86 215.141H1113.78C1113.78 208.266 1111.59 202.875 1107.22 198.969C1102.84 195.01 1096.67 193.031 1088.7 193.031C1081.31 193.031 1075.53 194.672 1071.36 197.953C1067.24 201.182 1065.19 205.688 1065.19 211.469C1065.19 216.104 1067.14 220.036 1071.05 223.266C1075.01 226.443 1081.7 229.359 1091.12 232.016C1100.6 234.672 1108 237.615 1113.31 240.844C1118.68 244.021 1122.64 247.745 1125.19 252.016C1127.79 256.286 1129.09 261.312 1129.09 267.094C1129.09 276.312 1125.5 283.708 1118.31 289.281C1111.12 294.802 1101.52 297.562 1089.48 297.562C1081.67 297.562 1074.38 296.078 1067.61 293.109C1060.84 290.089 1055.6 285.974 1051.91 280.766C1048.26 275.557 1046.44 269.646 1046.44 263.031H1061.52C1061.52 269.906 1064.04 275.349 1069.09 279.359C1074.2 283.318 1080.99 285.297 1089.48 285.297C1097.4 285.297 1103.47 283.682 1107.69 280.453C1111.91 277.224 1114.02 272.823 1114.02 267.25C1114.02 261.677 1112.06 257.38 1108.16 254.359C1104.25 251.286 1097.17 248.266 1086.91 245.297ZM1212.69 243.422H1163.39V283.734H1220.66V296H1148.39V182.25H1219.88V194.594H1163.39V231.156H1212.69V243.422Z" fill="#363636"/>
</svg>
