<svg width="121" height="34" viewBox="0 0 121 34" fill="none" xmlns="http://www.w3.org/2000/svg">
<path d="M25.5294 16.3929L8.244 33.5786V17.1857L25.5294 0L25.5294 16.3929Z" fill="#00AEEF"/>
<path d="M36.848 16.6C36.95 16.792 37.043 16.993 37.127 17.203C37.217 17.407 37.304 17.614 37.388 17.824C37.472 17.608 37.559 17.395 37.649 17.185C37.739 16.975 37.835 16.774 37.937 16.582L41.789 9.373C41.837 9.283 41.885 9.211 41.933 9.157C41.987 9.103 42.044 9.064 42.104 9.04C42.17 9.016 42.242 9.001 42.32 8.995C42.398 8.989 42.491 8.986 42.599 8.986H44.426V22H42.293V13.594C42.293 13.438 42.296 13.267 42.302 13.081C42.314 12.895 42.329 12.706 42.347 12.514L38.414 19.894C38.324 20.062 38.207 20.194 38.063 20.29C37.919 20.38 37.751 20.425 37.559 20.425H37.226C37.034 20.425 36.866 20.38 36.722 20.29C36.578 20.194 36.461 20.062 36.371 19.894L32.384 12.487C32.408 12.685 32.423 12.88 32.429 13.072C32.441 13.258 32.447 13.432 32.447 13.594V22H30.314V8.986H32.141C32.249 8.986 32.342 8.989 32.42 8.995C32.498 9.001 32.567 9.016 32.627 9.04C32.693 9.064 32.753 9.103 32.807 9.157C32.861 9.211 32.912 9.283 32.96 9.373L36.848 16.6ZM58.6044 15.493C58.6044 16.447 58.4454 17.323 58.1274 18.121C57.8094 18.919 57.3624 19.606 56.7864 20.182C56.2104 20.758 55.5174 21.205 54.7074 21.523C53.8974 21.841 53.0004 22 52.0164 22H47.0484V8.986H52.0164C53.0004 8.986 53.8974 9.148 54.7074 9.472C55.5174 9.79 56.2104 10.237 56.7864 10.813C57.3624 11.383 57.8094 12.067 58.1274 12.865C58.4454 13.663 58.6044 14.539 58.6044 15.493ZM56.1294 15.493C56.1294 14.779 56.0334 14.14 55.8414 13.576C55.6494 13.006 55.3764 12.526 55.0224 12.136C54.6684 11.74 54.2364 11.437 53.7264 11.227C53.2224 11.017 52.6524 10.912 52.0164 10.912H49.4874V20.074H52.0164C52.6524 20.074 53.2224 19.969 53.7264 19.759C54.2364 19.549 54.6684 19.249 55.0224 18.859C55.3764 18.463 55.6494 17.983 55.8414 17.419C56.0334 16.849 56.1294 16.207 56.1294 15.493ZM72.9786 15.493C72.9786 16.447 72.8196 17.332 72.5016 18.148C72.1836 18.958 71.7366 19.66 71.1606 20.254C70.5846 20.848 69.8916 21.313 69.0816 21.649C68.2716 21.979 67.3746 22.144 66.3906 22.144C65.4066 22.144 64.5066 21.979 63.6906 21.649C62.8806 21.313 62.1846 20.848 61.6026 20.254C61.0266 19.66 60.5796 18.958 60.2616 18.148C59.9436 17.332 59.7846 16.447 59.7846 15.493C59.7846 14.539 59.9436 13.657 60.2616 12.847C60.5796 12.031 61.0266 11.326 61.6026 10.732C62.1846 10.138 62.8806 9.676 63.6906 9.346C64.5066 9.01 65.4066 8.842 66.3906 8.842C67.3746 8.842 68.2716 9.01 69.0816 9.346C69.8916 9.682 70.5846 10.147 71.1606 10.741C71.7366 11.329 72.1836 12.031 72.5016 12.847C72.8196 13.657 72.9786 14.539 72.9786 15.493ZM70.4946 15.493C70.4946 14.779 70.3986 14.14 70.2066 13.576C70.0206 13.006 69.7506 12.523 69.3966 12.127C69.0426 11.731 68.6106 11.428 68.1006 11.218C67.5966 11.008 67.0266 10.903 66.3906 10.903C65.7546 10.903 65.1816 11.008 64.6716 11.218C64.1616 11.428 63.7266 11.731 63.3666 12.127C63.0126 12.523 62.7396 13.006 62.5476 13.576C62.3556 14.14 62.2596 14.779 62.2596 15.493C62.2596 16.207 62.3556 16.849 62.5476 17.419C62.7396 17.983 63.0126 18.463 63.3666 18.859C63.7266 19.249 64.1616 19.549 64.6716 19.759C65.1816 19.969 65.7546 20.074 66.3906 20.074C67.0266 20.074 67.5966 19.969 68.1006 19.759C68.6106 19.549 69.0426 19.249 69.3966 18.859C69.7506 18.463 70.0206 17.983 70.2066 17.419C70.3986 16.849 70.4946 16.207 70.4946 15.493ZM86.5806 8.986V10.912H80.8116V14.764H85.6806V16.699H80.8116V22H78.3726V8.986H86.5806ZM93.718 20.047C94.186 20.047 94.603 19.969 94.969 19.813C95.341 19.657 95.653 19.438 95.905 19.156C96.163 18.874 96.358 18.532 96.49 18.13C96.628 17.728 96.697 17.278 96.697 16.78V8.986H99.118V16.78C99.118 17.554 98.992 18.271 98.74 18.931C98.494 19.585 98.137 20.152 97.669 20.632C97.201 21.106 96.634 21.478 95.968 21.748C95.302 22.012 94.552 22.144 93.718 22.144C92.884 22.144 92.134 22.012 91.468 21.748C90.802 21.478 90.235 21.106 89.767 20.632C89.305 20.152 88.948 19.585 88.696 18.931C88.45 18.271 88.327 17.554 88.327 16.78V8.986H90.748V16.771C90.748 17.269 90.814 17.719 90.946 18.121C91.084 18.523 91.279 18.868 91.531 19.156C91.783 19.438 92.092 19.657 92.458 19.813C92.83 19.969 93.25 20.047 93.718 20.047ZM108.551 11.353C108.485 11.485 108.407 11.578 108.317 11.632C108.233 11.686 108.131 11.713 108.011 11.713C107.891 11.713 107.756 11.668 107.606 11.578C107.456 11.482 107.279 11.377 107.075 11.263C106.871 11.149 106.631 11.047 106.355 10.957C106.085 10.861 105.764 10.813 105.392 10.813C105.056 10.813 104.762 10.855 104.51 10.939C104.264 11.017 104.054 11.128 103.88 11.272C103.712 11.416 103.586 11.59 103.502 11.794C103.418 11.992 103.376 12.211 103.376 12.451C103.376 12.757 103.46 13.012 103.628 13.216C103.802 13.42 104.03 13.594 104.312 13.738C104.594 13.882 104.915 14.011 105.275 14.125C105.635 14.239 106.001 14.362 106.373 14.494C106.751 14.62 107.12 14.77 107.48 14.944C107.84 15.112 108.161 15.328 108.443 15.592C108.725 15.85 108.95 16.168 109.118 16.546C109.292 16.924 109.379 17.383 109.379 17.923C109.379 18.511 109.277 19.063 109.073 19.579C108.875 20.089 108.581 20.536 108.191 20.92C107.807 21.298 107.336 21.598 106.778 21.82C106.22 22.036 105.581 22.144 104.861 22.144C104.447 22.144 104.039 22.102 103.637 22.018C103.235 21.94 102.848 21.826 102.476 21.676C102.11 21.526 101.765 21.346 101.441 21.136C101.123 20.926 100.838 20.692 100.586 20.434L101.288 19.273C101.354 19.189 101.432 19.12 101.522 19.066C101.618 19.006 101.723 18.976 101.837 18.976C101.987 18.976 102.149 19.039 102.323 19.165C102.497 19.285 102.701 19.42 102.935 19.57C103.175 19.72 103.454 19.858 103.772 19.984C104.096 20.104 104.483 20.164 104.933 20.164C105.623 20.164 106.157 20.002 106.535 19.678C106.913 19.348 107.102 18.877 107.102 18.265C107.102 17.923 107.015 17.644 106.841 17.428C106.673 17.212 106.448 17.032 106.166 16.888C105.884 16.738 105.563 16.612 105.203 16.51C104.843 16.408 104.477 16.297 104.105 16.177C103.733 16.057 103.367 15.913 103.007 15.745C102.647 15.577 102.326 15.358 102.044 15.088C101.762 14.818 101.534 14.482 101.36 14.08C101.192 13.672 101.108 13.171 101.108 12.577C101.108 12.103 101.201 11.641 101.387 11.191C101.579 10.741 101.855 10.342 102.215 9.994C102.581 9.646 103.028 9.367 103.556 9.157C104.084 8.947 104.687 8.842 105.365 8.842C106.133 8.842 106.841 8.962 107.489 9.202C108.137 9.442 108.689 9.778 109.145 10.21L108.551 11.353ZM119.434 8.986V10.912H113.665V14.521H118.21V16.384H113.665V20.065H119.434V22H111.226V8.986H119.434Z" fill="white"/>
</svg>
