<svg width="593" height="179" viewBox="0 0 593 179" fill="none" xmlns="http://www.w3.org/2000/svg">
<g clip-path="url(#clip0_4_8)">
<g clip-path="url(#clip1_4_8)">
<path d="M133.879 32.9061V0.00608152H0V177.162H40.9989V112.627H122.997V79.7262H40.9989V32.9061H133.879" fill="#52B5E9"/>
<path d="M522.86 68.8444C531.631 68.8444 539.057 71.4188 545.131 76.5631C551.205 81.712 554.915 88.5844 556.267 97.1892H489.2C490.549 88.4183 494.261 81.4985 500.336 76.4371C506.409 71.3751 513.915 68.8444 522.86 68.8444ZM593.469 109.59C593.469 95.4177 590.389 82.9772 584.232 72.2611C578.071 61.5485 569.593 53.3235 558.797 47.5855C547.997 41.8519 535.933 38.9812 522.607 38.9812C508.94 38.9812 496.579 41.9785 485.531 47.9652C474.479 53.9563 465.791 62.3079 459.464 73.0204C453.136 83.7365 449.973 95.7579 449.973 109.084C449.973 122.584 453.176 134.645 459.591 145.275C466 155.904 475.111 164.216 486.923 170.203C498.731 176.193 512.313 179.187 527.668 179.187C552.3 179.187 571.028 171.848 583.852 157.169L562.847 134.392C558.121 138.948 553.016 142.281 547.534 144.389C542.05 146.5 535.767 147.552 528.681 147.552C518.388 147.552 509.783 145.108 502.867 140.213C495.947 135.321 491.561 128.658 489.707 120.219H592.709C593.216 113.64 593.469 110.096 593.469 109.59ZM371.52 179.187C384.847 179.187 396.361 177.372 406.065 173.746C415.767 170.12 423.149 165.015 428.211 158.434C433.272 151.855 435.803 144.349 435.803 135.911C435.803 125.957 433.185 118.195 427.957 112.627C422.725 107.059 416.569 103.223 409.483 101.112C402.396 99.0043 393.285 97.0229 382.149 95.1647C372.193 93.6459 364.94 92.0448 360.385 90.3563C355.829 88.6715 353.552 85.7177 353.552 81.4985C353.552 77.7892 355.66 74.7521 359.879 72.3876C364.095 70.0267 370.421 68.8444 378.86 68.8444C393.032 68.8444 406.105 72.2215 418.087 78.9672L431.247 50.8756C425.004 47.1663 417.115 44.2559 407.584 42.1439C398.051 40.0359 388.477 38.9812 378.86 38.9812C365.865 38.9812 354.604 40.8399 345.073 44.5492C335.54 48.262 328.283 53.4501 323.309 60.1131C318.331 66.7803 315.843 74.412 315.843 83.0168C315.843 93.31 318.5 101.239 323.815 106.806C329.129 112.374 335.413 116.257 342.669 118.448C349.921 120.643 359.12 122.584 370.255 124.269C379.701 125.451 386.705 126.887 391.261 128.571C395.816 130.26 398.093 133.044 398.093 136.923C398.093 145.192 389.743 149.324 373.039 149.324C364.771 149.324 356.336 148.103 347.731 145.655C339.127 143.211 331.787 140.046 325.713 136.164L312.553 164.509C318.963 168.728 327.568 172.228 338.367 175.012C349.163 177.796 360.215 179.187 371.52 179.187ZM249.537 41.0052V108.325C249.537 120.473 246.667 129.627 240.932 135.784C235.195 141.945 227.601 145.021 218.155 145.021C199.763 145.021 190.569 134.056 190.569 112.121V41.0052H151.088V117.942C151.088 138.188 156.316 153.46 166.78 163.749C177.239 174.042 191.411 179.187 209.297 179.187C217.732 179.187 225.577 177.625 232.833 174.505C240.085 171.385 246.329 166.873 251.561 160.965V177.163H289.017V41.0052H249.537Z" fill="#52B5E9"/>
</g>
</g>
<defs>
<clipPath id="clip0_4_8">
<rect width="593" height="179" fill="white"/>
</clipPath>
<clipPath id="clip1_4_8">
<rect width="593.467" height="179.187" fill="white"/>
</clipPath>
</defs>
</svg>
