<svg width="118" height="90" viewBox="0 0 118 90" fill="none" xmlns="http://www.w3.org/2000/svg">
<g filter="url(#filter0_d_8207_2247)">
<path d="M45 86.1429C67.7226 86.1429 86.1429 67.7226 86.1429 45C86.1429 22.2775 67.7226 3.85718 45 3.85718C22.2775 3.85718 3.85718 22.2775 3.85718 45C3.85718 67.7226 22.2775 86.1429 45 86.1429Z" fill="url(#paint0_linear_8207_2247)"/>
<path d="M44.9999 74.7142C28.5894 74.7142 15.2856 61.4104 15.2856 44.9999C15.2856 28.5892 28.5894 15.2856 44.9999 15.2856C61.4107 15.2856 74.7142 28.5892 74.7142 44.9999C74.7142 50.412 73.2671 55.4863 70.7389 59.8571L73.2285 73.2285L59.8571 70.7391C55.4866 73.2671 50.412 74.7142 44.9999 74.7142Z" fill="#2D4056"/>
<g filter="url(#filter1_d_8207_2247)">
<path d="M31.3127 43.7422H32.0727C32.3477 43.7422 32.5685 43.7097 32.7349 43.6446C32.9086 43.5721 33.0642 43.4528 33.2018 43.2862L38.1634 37.5211C38.3227 37.3257 38.4855 37.1918 38.6521 37.1193C38.8185 37.0398 39.0247 37 39.2709 37H41.2469L35.4709 43.6446C35.3262 43.8327 35.1813 43.9847 35.0366 44.1006C34.899 44.2165 34.7543 44.3141 34.6023 44.3936C35.0005 44.5312 35.3479 44.8098 35.6446 45.2297L41.6487 52.5909H39.64C39.4953 52.5909 39.3687 52.5799 39.2601 52.5582C39.1586 52.5365 39.0681 52.5077 38.9886 52.4713C38.9161 52.4279 38.8475 52.3774 38.7824 52.3193C38.7243 52.2615 38.6702 52.1927 38.6194 52.1131L33.4841 46.0331C33.4117 45.939 33.3392 45.8594 33.267 45.7943C33.1945 45.7291 33.1113 45.6784 33.0171 45.6423C32.923 45.5989 32.8144 45.5698 32.6914 45.5554C32.5685 45.5337 32.4235 45.5227 32.2571 45.5227H31.3127V52.5909H29V37H31.3127V43.7422ZM51.8096 46.7822L49.4971 40.7349C49.3307 40.3223 49.1641 39.8011 48.9977 39.1714C48.9182 39.4827 48.8347 39.7721 48.7479 40.04C48.6683 40.3079 48.5888 40.5467 48.509 40.7566L46.2073 46.7822H51.8096ZM56.3806 52.5909H54.6C54.3973 52.5909 54.2309 52.5401 54.1006 52.4389C53.9703 52.3376 53.8761 52.2073 53.8183 52.048L52.4393 48.4325H45.5669L44.1879 52.048C44.1374 52.1856 44.0432 52.3122 43.9056 52.4279C43.7682 52.5365 43.6016 52.5909 43.4062 52.5909H41.6256L47.8359 37H50.1703L56.3806 52.5909ZM60.6505 52.5909H58.3271V37H60.6505V52.5909Z" fill="white"/>
</g>
</g>
<rect x="67" y="35" width="51" height="20" rx="10" fill="white"/>
<path d="M78.6208 49.2682C79.0634 49.2682 79.4448 49.2176 79.7648 49.1162C80.0848 49.0149 80.3461 48.8736 80.5488 48.6922C80.7568 48.5056 80.9088 48.2869 81.0048 48.0362C81.1008 47.7802 81.1488 47.5002 81.1488 47.1962C81.1488 46.6042 80.9381 46.1376 80.5168 45.7962C80.0954 45.4496 79.4634 45.2762 78.6208 45.2762H76.1408V49.2682H78.6208ZM76.1408 40.2602V44.1722H78.1888C78.6261 44.1722 79.0048 44.1242 79.3248 44.0282C79.6501 43.9322 79.9168 43.7989 80.1248 43.6282C80.3381 43.4576 80.4954 43.2522 80.5968 43.0122C80.6981 42.7669 80.7488 42.5002 80.7488 42.2122C80.7488 41.5349 80.5461 41.0416 80.1408 40.7322C79.7354 40.4176 79.1061 40.2602 78.2528 40.2602H76.1408ZM78.2528 39.0362C78.9568 39.0362 79.5621 39.1056 80.0688 39.2442C80.5808 39.3829 80.9994 39.5802 81.3248 39.8362C81.6554 40.0922 81.8981 40.4069 82.0528 40.7802C82.2074 41.1482 82.2848 41.5642 82.2848 42.0282C82.2848 42.3109 82.2394 42.5829 82.1488 42.8442C82.0634 43.1002 81.9328 43.3402 81.7568 43.5642C81.5808 43.7882 81.3568 43.9909 81.0848 44.1722C80.8181 44.3482 80.5034 44.4922 80.1408 44.6042C80.9834 44.7642 81.6154 45.0656 82.0368 45.5082C82.4634 45.9456 82.6768 46.5216 82.6768 47.2362C82.6768 47.7216 82.5861 48.1642 82.4048 48.5642C82.2288 48.9642 81.9674 49.3082 81.6208 49.5962C81.2794 49.8842 80.8581 50.1082 80.3568 50.2682C79.8554 50.4229 79.2848 50.5002 78.6448 50.5002H74.5968V39.0362H78.2528ZM92.0125 49.2362L92.0045 50.5002H84.9405V39.0362H92.0045V40.3002H86.4925V44.1082H90.9565V45.3242H86.4925V49.2362H92.0125ZM101.927 40.3402H98.2149V50.5002H96.6709V40.3402H92.9509V39.0362H101.927V40.3402ZM108.591 46.2442L106.791 41.5802C106.738 41.4416 106.682 41.2816 106.623 41.1002C106.564 40.9136 106.508 40.7162 106.455 40.5082C106.343 40.9402 106.228 41.3002 106.111 41.5882L104.311 46.2442H108.591ZM111.823 50.5002H110.623C110.484 50.5002 110.372 50.4656 110.287 50.3962C110.202 50.3269 110.138 50.2389 110.095 50.1322L109.023 47.3642H103.879L102.807 50.1322C102.775 50.2282 102.714 50.3136 102.623 50.3882C102.532 50.4629 102.42 50.5002 102.287 50.5002H101.087L105.671 39.0362H107.239L111.823 50.5002Z" fill="black"/>
<defs>
<filter id="filter0_d_8207_2247" x="0.857178" y="0.857178" width="88.2856" height="88.2856" filterUnits="userSpaceOnUse" color-interpolation-filters="sRGB">
<feFlood flood-opacity="0" result="BackgroundImageFix"/>
<feColorMatrix in="SourceAlpha" type="matrix" values="0 0 0 0 0 0 0 0 0 0 0 0 0 0 0 0 0 0 127 0" result="hardAlpha"/>
<feOffset/>
<feGaussianBlur stdDeviation="1.5"/>
<feColorMatrix type="matrix" values="0 0 0 0 0.423529 0 0 0 0 0.486275 0 0 0 0 0.545098 0 0 0 0.5 0"/>
<feBlend mode="normal" in2="BackgroundImageFix" result="effect1_dropShadow_8207_2247"/>
<feBlend mode="normal" in="SourceGraphic" in2="effect1_dropShadow_8207_2247" result="shape"/>
</filter>
<filter id="filter1_d_8207_2247" x="26" y="34" width="37.6506" height="21.5908" filterUnits="userSpaceOnUse" color-interpolation-filters="sRGB">
<feFlood flood-opacity="0" result="BackgroundImageFix"/>
<feColorMatrix in="SourceAlpha" type="matrix" values="0 0 0 0 0 0 0 0 0 0 0 0 0 0 0 0 0 0 127 0" result="hardAlpha"/>
<feOffset/>
<feGaussianBlur stdDeviation="1.5"/>
<feColorMatrix type="matrix" values="0 0 0 0 0.423529 0 0 0 0 0.486275 0 0 0 0 0.545098 0 0 0 0.5 0"/>
<feBlend mode="normal" in2="BackgroundImageFix" result="effect1_dropShadow_8207_2247"/>
<feBlend mode="normal" in="SourceGraphic" in2="effect1_dropShadow_8207_2247" result="shape"/>
</filter>
<linearGradient id="paint0_linear_8207_2247" x1="45" y1="3.85718" x2="45" y2="86.1429" gradientUnits="userSpaceOnUse">
<stop stop-color="#09F890"/>
<stop offset="1" stop-color="#00A3FF"/>
</linearGradient>
</defs>
</svg>
