<?xml version="1.0" encoding="iso-8859-1"?>
<!-- Generator: Adobe Illustrator 19.0.0, SVG Export Plug-In . SVG Version: 6.00 Build 0)  -->
<svg version="1.1" id="Capa_1" xmlns="http://www.w3.org/2000/svg" xmlns:xlink="http://www.w3.org/1999/xlink" x="0px" y="0px"
	 viewBox="0 0 512 512" style="enable-background:new 0 0 512 512;" xml:space="preserve">
<linearGradient id="SVGID_1_" gradientUnits="userSpaceOnUse" x1="0" y1="258" x2="512" y2="258" gradientTransform="matrix(1 0 0 -1 0 514)">
	<stop  offset="0" style="stop-color:#80D8FF"/>
	<stop  offset="1" style="stop-color:#EA80FC"/>
</linearGradient>
<path style="fill:url(#SVGID_1_);" d="M256,0C114.516,0,0,114.497,0,256v236c0,11.046,8.954,20,20,20h236
	c141.483,0,256-114.497,256-256C512,114.516,397.503,0,256,0z M256,472H40V256c0-119.377,96.607-216,216-216
	c119.377,0,216,96.607,216,216C472,375.377,375.393,472,256,472z M274.998,370.06c0,14.292-11.852,26.84-26.84,26.84
	s-26.491-12.549-26.491-26.84c0-14.64,11.852-26.84,26.491-26.84C262.799,343.22,274.998,355.42,274.998,370.06z M326.936,197.517
	c0,32.766-29.629,56.469-39.04,63.789c-19.171,14.988-19.521,25.445-19.521,43.571c0,6.623-3.485,14.291-20.565,14.291
	c-14.292,0-19.171-5.229-19.171-23.354c0-29.977,13.246-44.269,23.354-52.983c11.503-9.76,31.023-20.565,31.023-39.389
	c0-16.034-13.943-23.703-31.372-23.703c-35.554,0-27.886,26.84-46.708,26.84c-9.412,0-20.914-6.274-20.914-19.869
	c0-18.823,21.611-46.708,68.668-46.708C297.307,140.002,326.936,164.751,326.936,197.517z"/>
<g>
</g>
<g>
</g>
<g>
</g>
<g>
</g>
<g>
</g>
<g>
</g>
<g>
</g>
<g>
</g>
<g>
</g>
<g>
</g>
<g>
</g>
<g>
</g>
<g>
</g>
<g>
</g>
<g>
</g>
</svg>
