<svg width="512" height="512" viewBox="0 0 512 512" fill="none" xmlns="http://www.w3.org/2000/svg">
<path d="M263.955 15.0344C259.648 13.5433 254.926 13.5433 250.618 15.0344L71.7619 78.5743C67.7026 79.9826 64.3061 82.7164 61.9865 86.1129L257.328 164.233L452.669 86.1129C450.35 82.7164 446.953 79.9826 442.894 78.5743L263.955 15.0344ZM58.5072 324.946C58.5072 333.396 63.8091 340.852 71.7619 343.669L250.701 407.126V175.831L58.5072 98.9534V324.946ZM263.955 407.209L442.894 343.669C450.847 340.852 456.149 333.314 456.149 324.946V98.9534L263.955 175.831V407.209ZM246.227 2.60814C253.434 0.0400422 261.222 0.0400422 268.429 2.60814L447.368 66.0651C460.622 70.7871 469.404 83.2963 469.404 97.2966V324.946C469.404 338.947 460.539 351.456 447.368 356.178L268.429 419.635C261.222 422.203 253.434 422.203 246.227 419.635L67.2884 356.178C54.1165 351.456 45.2524 338.947 45.2524 324.946V97.2966C45.2524 83.2963 54.1165 70.7871 67.2884 66.0651L246.227 2.60814Z" fill="url(#paint0_linear_53_83)"/>
<defs>
<linearGradient id="paint0_linear_53_83" x1="257.328" y1="0.682068" x2="257.328" y2="421.561" gradientUnits="userSpaceOnUse">
<stop stop-color="#A759EE"/>
<stop offset="1" stop-color="#FDA85E"/>
</linearGradient>
</defs>
</svg>
