<svg width="640" height="512" viewBox="0 0 640 512" fill="none" xmlns="http://www.w3.org/2000/svg">
<path d="M485.985 247.236C485.985 250.796 488.898 253.708 492.457 253.708C496.017 253.708 498.929 250.796 498.929 247.236V176.042H570.124C573.683 176.042 576.596 173.13 576.596 169.57C576.596 166.01 573.683 163.098 570.124 163.098H498.929V91.9036C498.929 88.3439 496.017 85.4314 492.457 85.4314C488.898 85.4314 485.985 88.3439 485.985 91.9036V163.098H414.791C411.231 163.098 408.319 166.01 408.319 169.57C408.319 173.13 411.231 176.042 414.791 176.042H485.985V247.236Z" fill="url(#paint0_linear_53_85)"/>
<path d="M78.2374 391.485C78.2374 318.997 137.053 260.181 209.542 260.181H283.487C355.975 260.181 414.791 318.997 414.791 391.485C414.791 397.634 409.856 402.569 403.708 402.569H89.321C83.1724 402.569 78.2374 397.634 78.2374 391.485ZM209.542 247.236C129.853 247.236 65.293 311.796 65.293 391.485C65.293 404.753 76.053 415.513 89.321 415.513H403.708C416.976 415.513 427.736 404.753 427.736 391.485C427.736 311.796 363.176 247.236 283.487 247.236H209.542Z" fill="url(#paint1_linear_53_85)"/>
<path d="M155.903 104.848C155.902 92.9477 158.244 81.1636 162.797 70.1687C167.35 59.1737 174.024 49.1833 182.438 40.7679C190.852 32.3525 200.842 25.677 211.836 21.1225C222.83 16.568 234.614 14.2239 246.514 14.2239C258.414 14.2239 270.198 16.568 281.192 21.1225C292.187 25.677 302.176 32.3525 310.59 40.7679C319.004 49.1833 325.679 59.1737 330.231 70.1687C334.784 81.1636 337.127 92.9477 337.125 104.848C337.127 116.748 334.784 128.532 330.231 139.527C325.679 150.522 319.004 160.513 310.59 168.928C302.176 177.344 292.187 184.019 281.192 188.574C270.198 193.128 258.414 195.472 246.514 195.472C234.614 195.472 222.83 193.128 211.836 188.574C200.842 184.019 190.852 177.344 182.438 168.928C174.024 160.513 167.35 150.522 162.797 139.527C158.244 128.532 155.902 116.748 155.903 104.848ZM246.514 208.403C260.116 208.407 273.585 205.732 286.152 200.529C298.72 195.327 310.139 187.7 319.759 178.083C329.378 168.467 337.008 157.05 342.214 144.484C347.421 131.918 350.1 118.45 350.1 104.848C350.1 91.2464 347.421 77.778 342.214 65.2121C337.008 52.6462 329.378 41.229 319.759 31.6126C310.139 21.9963 298.72 14.3691 286.152 9.16677C273.585 3.96446 260.116 1.28892 246.514 1.29297C232.913 1.28892 219.443 3.96446 206.876 9.16677C194.308 14.3691 182.889 21.9963 173.27 31.6126C163.65 41.229 156.02 52.6462 150.814 65.2121C145.608 77.778 142.928 91.2464 142.928 104.848C142.928 118.45 145.608 131.918 150.814 144.484C156.02 157.05 163.65 168.467 173.27 178.083C182.889 187.7 194.308 195.327 206.876 200.529C219.443 205.732 232.913 208.407 246.514 208.403Z" fill="url(#paint2_linear_53_85)"/>
<defs>
<linearGradient id="paint0_linear_53_85" x1="492.457" y1="85.4314" x2="492.457" y2="253.708" gradientUnits="userSpaceOnUse">
<stop stop-color="#A759EE"/>
<stop offset="1" stop-color="#FDA85E"/>
</linearGradient>
<linearGradient id="paint1_linear_53_85" x1="246.514" y1="247.236" x2="246.514" y2="415.513" gradientUnits="userSpaceOnUse">
<stop stop-color="#A759EE"/>
<stop offset="1" stop-color="#FDA85E"/>
</linearGradient>
<linearGradient id="paint2_linear_53_85" x1="246.514" y1="1.29297" x2="246.514" y2="208.403" gradientUnits="userSpaceOnUse">
<stop stop-color="#A759EE"/>
<stop offset="1" stop-color="#FDA85E"/>
</linearGradient>
</defs>
</svg>
