<?xml version="1.0" encoding="UTF-8" standalone="no"?>
<svg
   viewBox="0 0 512 512"
   version="1.1"
   id="svg134"
   sodipodi:docname="home-search.svg"
   inkscape:version="1.2 (dc2aeda, 2022-05-15)"
   xmlns:inkscape="http://www.inkscape.org/namespaces/inkscape"
   xmlns:sodipodi="http://sodipodi.sourceforge.net/DTD/sodipodi-0.dtd"
   xmlns="http://www.w3.org/2000/svg"
   xmlns:svg="http://www.w3.org/2000/svg">
  <defs
     id="defs138" />
  <sodipodi:namedview
     id="namedview136"
     pagecolor="#ffffff"
     bordercolor="#666666"
     borderopacity="1.0"
     inkscape:showpageshadow="2"
     inkscape:pageopacity="0.0"
     inkscape:pagecheckerboard="0"
     inkscape:deskcolor="#d1d1d1"
     showgrid="false"
     inkscape:zoom="1.1953125"
     inkscape:cx="179.03268"
     inkscape:cy="247.63399"
     inkscape:window-width="1390"
     inkscape:window-height="898"
     inkscape:window-x="40"
     inkscape:window-y="25"
     inkscape:window-maximized="0"
     inkscape:current-layer="svg134" />
  <!--! Font Awesome Pro 6.7.2 by @fontawesome - https://fontawesome.com License - https://fontawesome.com/license (Commercial License) Copyright 2024 Fonticons, Inc. -->
  <path
     d="m 262.98092,173.28214 a 71.17247,70.930292 0 1 1 0,141.86058 71.17247,70.930292 0 1 1 0,-141.86058 z m 0,177.32573 c 23.01984,0 44.37159,-7.31469 61.83109,-19.61666 l 50.15435,49.98369 c 6.89483,6.87137 18.23794,6.87137 25.13277,0 6.89483,-6.87138 6.89483,-18.17589 0,-25.04726 l -50.15434,-49.98369 c 12.45517,-17.51091 19.79484,-38.79001 19.79484,-61.73153 0,-58.73914 -47.81901,-106.39543 -106.75871,-106.39543 -58.9397,0 -106.7587,47.65629 -106.7587,106.39543 0,58.73916 47.819,106.39545 106.7587,106.39545 z"
     id="path986"
     style="stroke-width:1.11018" />
  <path
     d="m 14.64052,190.11765 c 0,8.8 7.2,16 16.000002,16 h 64 c 8.799998,0 15.999998,-7.2 15.999998,-16 0,-8.8 -7.2,-16 -15.999998,-16 h -64 c -8.800002,0 -16.000002,7.2 -16.000002,16 z"
     id="path1538" />
  <path
     d="m 14.745098,307.86928 c 0,8.8 7.2,16 16.000002,16 h 64.000002 c 8.799998,0 15.999998,-7.2 15.999998,-16 0,-8.8 -7.2,-16 -15.999998,-16 H 30.7451 c -8.800002,0 -16.000002,7.2 -16.000002,16 z"
     id="path1538-5" />
  <path
     d="m 10.457513,31.581698 c 0,8.8 7.2,16 16,16 H 378.45751 c 8.8,0 16,-7.2 16,-16 0,-8.8 -7.2,-16 -16,-16 H 26.457513 c -8.8,0 -16,7.2 -16,16 z"
     id="path1536" />
  <path
     d="m 18.823531,473.51634 c 0,8.8 7.2,16 16,16 H 386.82353 c 8.8,0 16,-7.2 16,-16 0,-8.8 -7.2,-16 -16,-16 H 34.823531 c -8.8,0 -16,7.2 -16,16 z"
     id="path1536-4" />
</svg>
