<?xml version="1.0" encoding="UTF-8" standalone="no"?>
<svg
   viewBox="0 0 512 512"
   version="1.1"
   id="svg7501"
   sodipodi:docname="home-menu-add.svg"
   inkscape:version="1.2 (dc2aeda, 2022-05-15)"
   width="512"
   height="512"
   xmlns:inkscape="http://www.inkscape.org/namespaces/inkscape"
   xmlns:sodipodi="http://sodipodi.sourceforge.net/DTD/sodipodi-0.dtd"
   xmlns="http://www.w3.org/2000/svg"
   xmlns:svg="http://www.w3.org/2000/svg">
  <defs
     id="defs7505" />
  <sodipodi:namedview
     id="namedview7503"
     pagecolor="#ffffff"
     bordercolor="#666666"
     borderopacity="1.0"
     inkscape:showpageshadow="2"
     inkscape:pageopacity="0.0"
     inkscape:pagecheckerboard="0"
     inkscape:deskcolor="#d1d1d1"
     showgrid="false"
     inkscape:zoom="0.7734375"
     inkscape:cx="31.030303"
     inkscape:cy="266.34343"
     inkscape:window-width="1920"
     inkscape:window-height="942"
     inkscape:window-x="1"
     inkscape:window-y="27"
     inkscape:window-maximized="0"
     inkscape:current-layer="svg7501" />
  <!-- Font Awesome Pro 5.15.2 by @fontawesome - https://fontawesome.com License - https://fontawesome.com/license (Commercial License) -->
  <g
     id="g8626"
     transform="matrix(0.99212333,0,0,0.99212333,1.3005671,-12.632686)">
    <path
       d="M 4.1212132,329.21212 H 88.969697 a 2.8282829,8 0 0 1 2.82828,8 v 16 a 2.8282829,8 0 0 1 -2.82828,8 H 4.1212132 a 2.8282829,8 0 0 1 -2.8282826,-8 v -16 a 2.8282829,8 0 0 1 2.8282826,-8 z"
       id="path7630-2"
       style="stroke-width:0.594589" />
    <path
       d="M 8.4386725,37.656566 H 394.30881 a 7.1457432,8 0 0 1 7.14574,8 v 16 a 7.1457432,8 0 0 1 -7.14574,8 H 8.4386725 a 7.1457432,8 0 0 1 -7.1457432,-8 v -16 a 7.1457432,8 0 0 1 7.1457432,-8 z"
       id="path7626"
       style="stroke-width:0.945102" />
    <path
       d="M 4.190481,180.52527 H 178.11256 a 3.2207793,8 0 0 1 3.22078,8 v 16 a 3.2207793,8 0 0 1 -3.22078,8 H 4.190481 a 3.2207793,8 0 0 1 -3.22078199,-8 v -16 a 3.2207793,8 0 0 1 3.22078199,-8 z"
       id="path7626-5"
       style="stroke-width:0.634504" />
    <path
       d="M 510.78824,488.83884 429.44246,407.5022 c 15.42906,-19.83999 24.99216,-44.45695 24.99216,-71.53561 A 117.13646,117.13646 0 1 0 337.29815,453.10306 c 27.04206,0 51.64072,-9.53564 71.47155,-24.92811 l 81.35494,81.34579 a 7.3210289,7.3210289 0 0 0 10.35925,0 l 10.3501,-10.35011 a 7.3210289,7.3210289 0 0 0 -0.0456,-10.33179 z m -173.50838,-65.0199 a 87.852347,87.852347 0 1 1 87.85235,-87.85235 87.962163,87.962163 0 0 1 -87.85235,87.85235 z"
       id="path7634"
       style="stroke-width:0.915128" />
  </g>
</svg>
