<svg width="512" height="512" viewBox="0 0 512 512" fill="none" xmlns="http://www.w3.org/2000/svg">
<path d="M249.649 211.9C248.993 209.602 249.649 207.14 251.29 205.416C252.932 203.693 255.476 203.119 257.774 203.775L441.606 256.299C444.397 257.119 446.284 259.581 446.366 262.536C446.448 265.49 444.561 268.034 441.77 268.855L352.562 297.415L464.175 408.945C466.719 411.489 466.719 415.675 464.175 418.219C461.631 420.763 457.445 420.763 454.901 418.219L343.289 306.688L314.729 395.896C313.826 398.687 311.282 400.492 308.41 400.492C305.537 400.492 302.993 398.523 302.173 395.732L249.649 211.9ZM417.15 262.946L265.488 219.614L308.82 371.276L334.015 292.491C334.672 290.439 336.231 288.88 338.283 288.223L417.068 263.028L417.15 262.946Z" fill="url(#paint0_linear_53_73)"/>
<path d="M237.913 266.393C214.114 258.761 196.879 236.438 196.879 210.094C196.879 177.431 223.305 151.005 255.968 151.005C282.312 151.005 304.635 168.24 312.267 192.039L295.936 187.361C287.975 173.492 273.121 164.136 255.968 164.136C230.609 164.136 210.01 184.735 210.01 210.094C210.01 227.247 219.366 242.101 233.236 250.061L237.913 266.393Z" fill="url(#paint1_linear_53_73)"/>
<path d="M261.22 347.887C259.497 347.969 257.774 347.969 255.968 347.969C179.809 347.969 118.094 286.254 118.094 210.094C118.094 133.935 179.809 72.22 255.968 72.22C332.127 72.22 393.843 133.935 393.843 210.094C393.843 211.818 393.843 213.623 393.761 215.347L380.712 211.654C380.712 211.161 380.712 210.669 380.712 210.176C380.712 141.321 324.823 85.4329 255.968 85.4329C187.113 85.4329 131.225 141.321 131.225 210.176C131.225 279.032 187.113 334.92 255.968 334.92C256.461 334.92 256.953 334.92 257.445 334.92L261.139 347.969L261.22 347.887Z" fill="url(#paint2_linear_53_73)"/>
<path d="M59.0049 210.094C59.0049 318.834 147.228 407.058 255.968 407.058C263.354 407.058 270.741 406.647 277.88 405.827C279.686 410.587 282.558 414.69 286.169 417.973C276.321 419.368 266.227 420.107 255.968 420.107C139.924 420.107 45.874 326.056 45.874 210.012C45.874 93.968 139.924 0 255.968 0C372.013 0 466.063 94.05 466.063 210.094C466.063 220.353 465.324 230.447 463.929 240.295C460.646 236.684 456.461 233.812 451.783 232.006C452.521 224.867 452.932 217.48 452.932 210.094C452.932 101.354 364.709 13.1309 255.968 13.1309C147.228 13.1309 59.0049 101.354 59.0049 210.094Z" fill="url(#paint3_linear_53_73)"/>
<defs>
<linearGradient id="paint0_linear_53_73" x1="357.74" y1="203.511" x2="357.74" y2="420.127" gradientUnits="userSpaceOnUse">
<stop stop-color="#A759EE"/>
<stop offset="1" stop-color="#FDA85E"/>
</linearGradient>
<linearGradient id="paint1_linear_53_73" x1="254.573" y1="151.005" x2="254.573" y2="266.393" gradientUnits="userSpaceOnUse">
<stop stop-color="#A759EE"/>
<stop offset="1" stop-color="#FDA85E"/>
</linearGradient>
<linearGradient id="paint2_linear_53_73" x1="255.968" y1="72.22" x2="255.968" y2="347.969" gradientUnits="userSpaceOnUse">
<stop stop-color="#A759EE"/>
<stop offset="1" stop-color="#FDA85E"/>
</linearGradient>
<linearGradient id="paint3_linear_53_73" x1="255.968" y1="0" x2="255.968" y2="420.107" gradientUnits="userSpaceOnUse">
<stop stop-color="#A759EE"/>
<stop offset="1" stop-color="#FDA85E"/>
</linearGradient>
</defs>
</svg>
