<svg width="538" height="377" viewBox="0 0 538 377" fill="none" xmlns="http://www.w3.org/2000/svg">
<path d="M161.211 164.452L151.19 259.514C151.326 261.139 152.544 264.253 157.622 268.654C162.971 273.258 171.232 278.066 182.336 282.399C204.476 290.998 235.554 297.024 270.356 297.024C305.158 297.024 336.236 290.998 358.309 282.399C369.413 278.066 377.674 273.258 383.023 268.654C388.101 264.253 389.319 261.071 389.455 259.514L379.502 164.452L389.996 160.66L400.356 259.107C400.356 283.008 342.127 307.857 270.356 307.857C198.586 307.857 140.357 283.008 140.357 259.107L150.716 160.66L161.211 164.452Z" fill="url(#paint0_linear_53_89)"/>
<path d="M258.034 17.5252L68.1125 86.1135C65.9459 86.8582 64.524 88.9572 64.524 91.1916C64.524 93.4259 65.9459 95.5249 68.1125 96.2697L131.555 119.223C140.154 112.384 149.836 106.764 160.534 102.77L268.461 62.2802C271.237 61.1969 274.351 62.6188 275.435 65.4625C276.518 68.3062 275.096 71.3531 272.252 72.4364L164.326 112.926C156.945 115.702 150.107 119.29 143.81 123.624L258.034 164.858C261.961 166.28 266.159 167.025 270.356 167.025C274.554 167.025 278.752 166.28 282.679 164.858L472.6 96.2697C474.767 95.5249 476.189 93.4259 476.189 91.1916C476.189 88.9572 474.767 86.8582 472.6 86.1135L282.679 17.5252C278.752 16.1033 274.554 15.3586 270.356 15.3586C266.159 15.3586 261.961 16.1033 258.034 17.5252ZM254.377 175.082L133.789 131.546C115.034 148.54 103.456 172.577 102.508 198.712L107.315 211.509C114.831 231.55 118.69 252.811 118.69 274.274V302.441C118.69 304.133 117.878 305.758 116.524 306.774C115.17 307.79 113.342 308.128 111.717 307.586L57.5501 291.336C55.7897 290.795 54.4355 289.441 53.8938 287.68C53.3522 285.92 53.7584 284.024 54.9095 282.67L60.8678 275.561C74.1385 259.581 83.2791 240.623 87.3416 220.243L91.6749 198.712C92.5551 171.426 103.862 146.103 122.414 127.415L64.3886 106.494C57.9563 104.124 53.6907 98.0301 53.6907 91.1916C53.6907 84.353 57.9563 78.2593 64.3886 75.8895L254.31 7.3013C259.455 5.47318 264.872 4.52527 270.356 4.52527C275.841 4.52527 281.257 5.47318 286.403 7.3013L476.324 75.8895C482.757 78.1916 487.022 84.353 487.022 91.1916C487.022 98.0301 482.757 104.124 476.324 106.494L286.403 175.082C281.257 176.91 275.841 177.858 270.356 177.858C264.872 177.858 259.455 176.91 254.31 175.082H254.377ZM97.9718 222.41C93.5708 244.55 83.6854 265.201 69.1959 282.534L68.5188 283.347L107.857 295.128V274.274C107.857 255.519 104.743 236.967 98.5812 219.295L97.9718 222.41Z" fill="url(#paint1_linear_53_89)"/>
<defs>
<linearGradient id="paint0_linear_53_89" x1="270.356" y1="160.66" x2="270.356" y2="307.857" gradientUnits="userSpaceOnUse">
<stop stop-color="#A759EE"/>
<stop offset="1" stop-color="#FDA85E"/>
</linearGradient>
<linearGradient id="paint1_linear_53_89" x1="270.339" y1="4.52527" x2="270.339" y2="307.843" gradientUnits="userSpaceOnUse">
<stop stop-color="#A759EE"/>
<stop offset="1" stop-color="#FDA85E"/>
</linearGradient>
</defs>
</svg>
