<?xml version="1.0" encoding="UTF-8" standalone="no"?>
<svg
   version="1.1"
   x="0px"
   y="0px"
   viewBox="0 0 100 125"
   enable-background="new 0 0 100 100"
   xml:space="preserve"
   id="svg7985"
   sodipodi:docname="home-image-09.svg"
   inkscape:version="1.2 (dc2aeda, 2022-05-15)"
   xmlns:inkscape="http://www.inkscape.org/namespaces/inkscape"
   xmlns:sodipodi="http://sodipodi.sourceforge.net/DTD/sodipodi-0.dtd"
   xmlns="http://www.w3.org/2000/svg"
   xmlns:svg="http://www.w3.org/2000/svg"><defs
     id="defs7989" /><sodipodi:namedview
     id="namedview7987"
     pagecolor="#ffffff"
     bordercolor="#666666"
     borderopacity="1.0"
     inkscape:showpageshadow="2"
     inkscape:pageopacity="0.0"
     inkscape:pagecheckerboard="0"
     inkscape:deskcolor="#d1d1d1"
     showgrid="false"
     inkscape:zoom="6.336"
     inkscape:cx="46.875"
     inkscape:cy="62.5"
     inkscape:window-width="1390"
     inkscape:window-height="942"
     inkscape:window-x="0"
     inkscape:window-y="25"
     inkscape:window-maximized="0"
     inkscape:current-layer="svg7985" /><g
     id="g7979"><g
       id="g7977"><path
         fill-rule="evenodd"
         clip-rule="evenodd"
         d="M14.496,42.5h16.093c1.267-2.187,2.788-4.207,4.547-6h-17.64    c-1.657,0-3-1.343-3-3v-18c0-1.657,1.343-3,3-3h18c1.657,0,3,1.343,3,3v18c0,0.032-0.018,0.06-0.019,0.092    c1.854-1.402,3.864-2.606,6.019-3.552V12.5c0-3.313-2.687-6-6-6h-24c-3.313,0-6,2.687-6,6v24    C8.496,39.813,11.183,42.5,14.496,42.5z M62.496,28.111V15.5c0-1.657,1.342-3,3-3h18c1.658,0,3,1.343,3,3v18c0,1.657-1.342,3-3,3    h-5.59c1.761,1.793,3.281,3.813,4.55,6h4.04c3.313,0,6-2.687,6-6v-24c0-3.313-2.687-6-6-6h-24c-3.313,0-6,2.687-6,6v15.015    c0.009,0,0.018-0.001,0.026-0.001C58.567,27.513,60.565,27.721,62.496,28.111z M38.496,81.5c0,1.658-1.343,3-3,3h-18    c-1.657,0-3-1.342-3-3v-18c0-1.658,1.343-3,3-3h9.199c-0.098-0.99-0.151-1.992-0.151-3.009c0-1.011,0.053-2.007,0.151-2.991    H14.496c-3.313,0-6,2.687-6,6v24c0,3.313,2.687,6,6,6h24c3.17,0,5.738-2.467,5.958-5.581c-2.131-0.938-4.121-2.13-5.958-3.516    V81.5z M91.611,88.273L75.478,72.14c3.135-4.055,5.021-9.126,5.021-14.648c0-13.244-10.737-23.981-23.982-23.981    S32.534,44.248,32.534,57.491c0,13.245,10.737,23.982,23.982,23.982c5.514,0,10.576-1.878,14.628-5.007l16.137,16.137    c1.195,1.195,3.135,1.195,4.33,0S92.807,89.469,91.611,88.273z M56.517,75.479c-9.933,0-17.987-8.054-17.987-17.988    c0-9.932,8.054-17.985,17.987-17.985c9.935,0,17.988,8.054,17.988,17.985C74.505,67.426,66.451,75.479,56.517,75.479z"
         id="path7975" /></g></g></svg>
