<?xml version="1.0" encoding="UTF-8" standalone="no"?>
<svg
   viewBox="0 0 640 512"
   version="1.1"
   id="svg134"
   sodipodi:docname="home-image-08.svg"
   inkscape:version="1.2 (dc2aeda, 2022-05-15)"
   xmlns:inkscape="http://www.inkscape.org/namespaces/inkscape"
   xmlns:sodipodi="http://sodipodi.sourceforge.net/DTD/sodipodi-0.dtd"
   xmlns="http://www.w3.org/2000/svg"
   xmlns:svg="http://www.w3.org/2000/svg">
  <defs
     id="defs138">
    <marker
       style="overflow:visible"
       id="marker6992"
       refX="0"
       refY="0"
       orient="auto"
       inkscape:stockid="Dot"
       markerWidth="5.6666665"
       markerHeight="5.6666665"
       viewBox="0 0 5.6666667 5.6666667"
       inkscape:isstock="true"
       inkscape:collect="always"
       preserveAspectRatio="xMidYMid">
      <path
         transform="scale(0.5)"
         style="fill:context-stroke;fill-rule:evenodd;stroke:context-stroke;stroke-width:1pt"
         d="M 5,0 C 5,2.76 2.76,5 0,5 -2.76,5 -5,2.76 -5,0 c 0,-2.76 2.3,-5 5,-5 2.76,0 5,2.24 5,5 z"
         id="path6990"
         sodipodi:nodetypes="sssss" />
    </marker>
    <marker
       style="overflow:visible"
       id="Dot"
       refX="0"
       refY="0"
       orient="auto"
       inkscape:stockid="Dot"
       markerWidth="5.6666665"
       markerHeight="5.6666665"
       viewBox="0 0 5.6666667 5.6666667"
       inkscape:isstock="true"
       inkscape:collect="always"
       preserveAspectRatio="xMidYMid">
      <path
         transform="scale(0.5)"
         style="fill:context-stroke;fill-rule:evenodd;stroke:context-stroke;stroke-width:1pt"
         d="M 5,0 C 5,2.76 2.76,5 0,5 -2.76,5 -5,2.76 -5,0 c 0,-2.76 2.3,-5 5,-5 2.76,0 5,2.24 5,5 z"
         id="Dot1"
         sodipodi:nodetypes="sssss" />
    </marker>
  </defs>
  <sodipodi:namedview
     id="namedview136"
     pagecolor="#ffffff"
     bordercolor="#666666"
     borderopacity="1.0"
     inkscape:showpageshadow="2"
     inkscape:pageopacity="0.0"
     inkscape:pagecheckerboard="0"
     inkscape:deskcolor="#d1d1d1"
     showgrid="false"
     inkscape:zoom="0.77428193"
     inkscape:cx="289.94607"
     inkscape:cy="267.34448"
     inkscape:window-width="1920"
     inkscape:window-height="942"
     inkscape:window-x="0"
     inkscape:window-y="25"
     inkscape:window-maximized="1"
     inkscape:current-layer="g4562" />
  <!--! Font Awesome Pro 6.4.2 by @fontawesome - https://fontawesome.com License - https://fontawesome.com/license (Commercial License) Copyright 2023 Fonticons, Inc. -->
  <g
     id="g4562"
     transform="matrix(0.93785323,0,0,0.93785323,15.265009,0.07099574)">
    <path
       d="m 402.28805,361.80364 a 112,112 0 1 0 0,-224.00001 112.00001,112.00001 0 1 0 0,224.00001 z m 0,16 c -70.7,0 -128,-57.3 -128,-128 0,-70.7 57.3,-128.00003 128,-128.00003 70.7,0 128,57.30003 128,128.00003 0,32.5 -12.1,62.1 -32,84.7 l 93.7,93.7 c 3.1,3.1 3.1,8.2 0,11.3 -3.1,3.1 -8.2,3.1 -11.3,0 l -93.7,-93.7 c -22.6,19.9 -52.2,32 -84.7,32 z"
       id="path529"
       style="fill:#707a83;fill-opacity:1" />
    <path
       d="m 54.096941,22.29756 c 0,4.410205 4.517407,8.018554 7.982616,8.018554 H 398.63368 c 3.46521,0 8.28455,-3.608349 8.28455,-8.018554 0,-4.410205 -4.90561,-7.931842 -8.37081,-7.932287 L 62.165825,14.322139 c -3.465208,-4.44e-4 -8.068884,3.565216 -8.068884,7.975421 z"
       id="path734"
       style="fill:#707a83;fill-opacity:1;stroke-width:0;stroke-dasharray:none;marker-start:url(#Dot);marker-end:url(#marker6992)"
       sodipodi:nodetypes="sssssss" />
    <path
       d="m 54.096941,382.3001 c 0,4.39834 3.439821,7.99698 5.375978,7.99698 H 246.13953 c 1.93616,0 5.09359,-3.59864 5.09359,-7.99698 0,-4.39835 -3.39948,-7.99721 -5.33564,-7.99699 l -186.464903,0.0215 c -1.936157,2.2e-4 -5.335636,3.57713 -5.335636,7.97548 z"
       id="path734-0"
       style="fill:#707a83;fill-opacity:1;stroke-width:0;stroke-dasharray:none"
       sodipodi:nodetypes="ssssssss" />
    <path
       d="m 54.096941,144.75379 c 0,4.38166 4.704688,7.96602 6.421721,7.96666 l 162.251268,0.0606 c 1.71705,6.4e-4 6.1522,-3.64561 6.1522,-8.02727 0,-4.38166 -4.73819,-7.90543 -6.45523,-7.90607 l -162.076804,-0.0606 c -1.717033,-6.4e-4 -6.293155,3.58501 -6.293155,7.96667 z"
       id="path734-6"
       style="fill:#707a83;fill-opacity:1;stroke-width:0;stroke-dasharray:none;marker-start:url(#marker6992);marker-end:url(#Dot)"
       sodipodi:nodetypes="sssssss" />
    <path
       d="m 54.096941,267.62189 c 0,4.39834 5.086573,7.99698 6.433159,7.99698 h 125.51833 c 1.34659,0 5.15558,-3.59864 5.15558,-7.99698 0,-4.39835 -3.96109,-7.99699 -5.30767,-7.99699 H 60.165079 c -1.346586,0 -6.068138,3.59864 -6.068138,7.99699 z"
       id="path734-6-2"
       style="fill:#707a83;fill-opacity:1;stroke-width:0;stroke-dasharray:none"
       sodipodi:nodetypes="sssssss" />
  </g>
</svg>
