<svg height="200px" viewBox="0 0 520 520" width="200px" xmlns="http://www.w3.org/2000/svg"><path fill="#455A64" d="m436.773438 96.332031c-39.101563-51.699219-95.996094-85.078125-160.203126-93.984375-64.203124-8.90625-128.039062 7.722656-179.738281 46.824219s-85.078125 95.996094-93.984375 160.203125c-8.5625 61.726562 6.46875 123.066406 42.378906 173.652344l-43.035156 128.972656 128.148438-54.382812c24.789062 13.03125 51.503906 21.59375 79.535156 25.480468 64.207031 8.910156 128.039062-7.71875 179.738281-46.824218 51.699219-39.101563 85.078125-95.996094 93.984375-160.203126 8.910156-64.207031-7.71875-128.039062-46.824218-179.738281zm-194.605469 267.910157c-66.058594 0-119.796875-53.742188-119.796875-119.796876 0-66.058593 53.742187-119.796874 119.796875-119.796874 66.054687 0 119.796875 53.738281 119.796875 119.796874 0 66.054688-53.742188 119.796876-119.796875 119.796876zm0 0"/><path fill="#455A64" d="m242.167969 154.816406c-49.421875 0-89.625 40.207032-89.625 89.625 0 49.421875 40.207031 89.625 89.625 89.625s89.621093-40.203125 89.621093-89.625c0-49.417968-40.203124-89.625-89.621093-89.625zm13.890625 139.53125h-27.789063v-67.257812h27.789063zm-13.894532-72.667968c-10.203124 0-16.722656-6.148438-16.722656-14.140626 0-7.992187 6.519532-14.140624 16.722656-14.140624 10.207032 0 16.722657 5.65625 16.722657 13.648437 0 8.484375-6.519531 14.632813-16.722657 14.632813zm0 0"/></svg>