<svg width="304" height="263" viewBox="0 0 304 263" fill="none" xmlns="http://www.w3.org/2000/svg">
<rect width="304" height="263" fill="white"/>
<path d="M304 0H0V263H304V0Z" fill="white"/>
<path d="M131.244 3L7.5 91.5L251 91L131.244 3Z" fill="white" stroke="#797979" stroke-width="3"/>
<path d="M6.63233 251.27L4 94.2233C100.457 90.891 154.539 90.3894 251 91.5985L248.807 251.27C156.406 263.729 102.543 262.062 6.63233 251.27Z" fill="white" stroke="#797979" stroke-width="3"/>
<path d="M128.386 162.859C82.6217 133.462 55.6758 118.228 4 94.5347C100.13 91.0102 154.024 90.4168 250.145 91.4688C192.812 109.695 166.6 125.774 128.386 162.859Z" fill="white" stroke="#797979" stroke-width="3"/>
<path d="M179.225 28L181 119.924L153.496 139.464L128.211 163L66.5 125.5L3.5 94.5L2.8504 28H179.225Z" fill="white" stroke="#797979" stroke-width="2"/>
<path d="M105 98H158" stroke="#FFE8CC" stroke-width="8"/>
<path d="M95 112H158" stroke="#FFE8CC" stroke-width="8"/>
<path d="M129 84H158" stroke="#FFE8CC" stroke-width="8"/>
<path d="M200.196 167.106C214.911 169.865 214.389 171.724 226.028 177.622C226.028 177.622 231.159 197.505 231.342 197.456C231.526 197.407 238.545 180.961 238.545 180.961C250.45 182.424 256.621 184.655 265.585 194.382C280.512 180.925 287.349 172.597 296.57 156.359C255.933 156.133 241.451 158.686 200.196 167.106Z" fill="#D0EBFF" stroke="#797979" stroke-width="3"/>
<path d="M231.009 195.442L226.359 178.09C253.679 168.032 268.209 162.982 296.047 156.45C273.658 166.235 261.848 172.266 238.164 181.061L231.009 195.442Z" fill="#E5E5E5" stroke="#797979" stroke-width="3"/>
<path d="M252.874 185.181C252.874 185.181 231.655 199.282 231.821 198.455C231.986 197.628 234.919 187.79 238.672 181.355C245.737 182.16 249.076 182.894 252.874 185.181Z" fill="#E5E5E5" stroke="#797979" stroke-width="3"/>
<path d="M175.862 217.067C178.634 208.945 180.661 204.827 187.446 200.407C193.321 195.612 196.677 194.06 202.703 191.988C211.261 189.109 214.835 190.031 221.2 191.695L175.862 217.067ZM145.029 235.672C152.309 224.353 158.382 219.739 175.862 217.067L145.029 235.672ZM175.862 217.067C185.633 215.21 197.689 219.365 197.079 225.686C196.468 232.007 191.34 241.905 184.264 240.009C177.188 238.113 175.549 227.476 175.862 217.067Z" stroke="#797979" stroke-width="3"/>
<path d="M81.0853 73.5C81.0853 86.993 69.9118 98 56.0427 98C42.1736 98 31 86.993 31 73.5C31 60.007 42.1736 49 56.0427 49C69.9118 49 81.0853 60.007 81.0853 73.5Z" fill="white" stroke="#797979" stroke-width="3"/>
<path d="M64.2628 68.7014C64.2628 72.9241 60.8025 76.3789 56.4948 76.3789C52.1872 76.3789 48.7269 72.9241 48.7269 68.7014C48.7269 64.4787 52.1872 61.0239 56.4948 61.0239C60.8025 61.0239 64.2628 64.4787 64.2628 68.7014Z" fill="#D0EBFF" stroke="#797979" stroke-width="3"/>
<path d="M55.1819 98C49.0236 97.5659 45.7037 96.2383 40 91.8731C41.7081 87.8737 43.1422 86.0989 46.6364 83.8477C49.5148 82.0875 51.4625 81.4057 55.8181 81C61.226 81.2126 63.3925 82.2115 66.6364 84.6244C69.6905 87.2352 70.6937 88.8614 72 91.8731C66.3341 96.405 62.7072 97.8776 55.1819 98Z" fill="#D0EBFF" stroke="#797979" stroke-width="3"/>
<path d="M255 89V94" stroke="white" stroke-width="5"/>
</svg>
