<svg width="823" height="512" viewBox="0 0 823 512" fill="none" xmlns="http://www.w3.org/2000/svg">
<g clip-path="url(#clip0)">
<path d="M447.717 97.7947L297.208 10.994C271.791 -3.66498 240.211 -3.66498 214.794 10.994L64.285 97.7947C38.82 112.481 23.001 139.867 23.001 169.267V342.733C23.001 372.132 38.82 399.519 64.285 414.205L214.794 501.006C240.206 515.663 271.787 515.667 297.208 501.006L447.717 414.205C473.182 399.518 489.001 372.132 489.001 342.732V169.267C489.001 139.867 473.182 112.481 447.717 97.7947ZM449.001 342.732C449.001 357.876 440.853 371.982 427.735 379.547L277.226 466.348C264.133 473.898 247.868 473.898 234.775 466.348L84.267 379.548C71.149 371.983 63.001 357.876 63.001 342.732V169.267C63.001 154.123 71.149 140.017 84.267 132.452L234.776 45.6509C247.871 38.0999 264.134 38.1009 277.227 45.6509L427.736 132.452C440.853 140.016 449.001 154.123 449.001 169.267V342.732ZM275 370.075C275 384.369 263.148 396.919 248.16 396.919C233.172 396.919 221.669 384.368 221.669 370.075C221.669 355.433 233.521 343.231 248.16 343.231C262.799 343.231 275 355.433 275 370.075ZM326.937 197.507C326.937 230.277 297.309 253.984 287.897 261.305C268.726 276.295 268.377 286.754 268.377 304.883C268.377 311.507 264.891 319.176 247.812 319.176C233.52 319.176 228.641 313.947 228.641 295.819C228.641 265.838 241.887 251.544 251.995 242.828C263.498 233.067 283.018 222.26 283.018 203.434C283.018 187.398 269.075 179.727 251.646 179.727C216.092 179.727 223.76 206.571 204.938 206.571C195.526 206.571 184.024 200.296 184.024 186.699C184.024 167.875 205.635 139.985 252.692 139.985C297.308 139.986 326.937 164.738 326.937 197.507Z" fill="url(#paint0_linear)"/>
<path d="M563.485 224.75C558.14 224.75 555.463 231.213 559.243 234.993L607.257 283.007C609.601 285.351 613.4 285.351 615.743 283.007L663.757 234.993C667.537 231.213 664.86 224.75 659.515 224.75H563.485Z" fill="url(#paint1_linear)"/>
</g>
<defs>
<linearGradient id="paint0_linear" x1="23.0007" y1="256" x2="489.001" y2="256" gradientUnits="userSpaceOnUse">
<stop stop-color="#80D8FF"/>
<stop offset="1" stop-color="#EA80FC"/>
</linearGradient>
<linearGradient id="paint1_linear" x1="-58.5" y1="484.5" x2="674" y2="14.5" gradientUnits="userSpaceOnUse">
<stop stop-color="#86D3FF"/>
<stop offset="1" stop-color="#E584FC"/>
</linearGradient>
<clipPath id="clip0">
<rect width="823" height="512" fill="white"/>
</clipPath>
</defs>
</svg>
