<svg width="2539" height="520" viewBox="0 0 2539 520" fill="none" xmlns="http://www.w3.org/2000/svg">
<rect width="2539" height="519.943" rx="259.972" fill="url(#paint0_linear)"/>
<path d="M380.004 264.131C364.977 275.877 364.699 284.076 364.699 298.283C364.699 303.479 361.969 309.486 348.578 309.486C337.379 309.486 333.551 305.389 333.551 291.182C333.551 267.682 343.934 256.479 351.859 249.646C360.875 241.998 376.18 233.525 376.18 218.771C376.18 206.201 365.246 200.189 351.586 200.189C323.715 200.189 329.727 221.229 314.973 221.229C307.594 221.229 298.578 216.311 298.578 205.654C298.578 190.9 315.52 169.041 352.406 169.041C387.383 169.041 410.605 188.439 410.605 214.123C410.605 239.811 387.383 258.393 380.004 264.131ZM369.895 349.381C369.895 360.584 360.602 370.42 348.852 370.42C337.105 370.42 328.086 360.584 328.086 349.381C328.086 337.904 337.379 328.342 348.852 328.342C360.328 328.342 369.895 337.904 369.895 349.381Z" fill="white"/>
<path d="M355 459.943C343.945 459.943 332.895 457.1 323.035 451.416L205.055 383.381C185.301 371.99 173.031 350.752 173.031 327.951V191.99C173.031 169.189 185.301 147.951 205.055 136.561L323.035 68.5254C342.754 57.1582 367.246 57.1582 386.965 68.5254L504.945 136.561C524.699 147.951 536.969 169.189 536.969 191.99V327.951C536.969 350.752 524.699 371.99 504.945 383.381L386.965 451.416C377.105 457.1 366.055 459.943 355 459.943ZM355 89.9863C349.129 89.9863 343.258 91.4941 338.023 94.5137L220.039 162.549C209.547 168.6 203.031 179.881 203.031 191.99V327.951C203.031 340.061 209.547 351.342 220.039 357.393L338.023 425.424C348.496 431.463 361.504 431.463 371.977 425.424L489.961 357.393C500.453 351.342 506.969 340.061 506.969 327.951V191.99C506.969 179.881 500.453 168.6 489.961 162.549L371.977 94.5137C366.742 91.4941 360.871 89.9863 355 89.9863Z" fill="white"/>
<path d="M662.469 303.772H720.369V325.972H635.569V181.372H662.469V303.772ZM776.178 221.772C782.645 221.772 788.578 222.805 793.978 224.872C799.445 226.938 804.145 229.972 808.078 233.972C812.011 237.905 815.078 242.772 817.278 248.572C819.478 254.305 820.578 260.872 820.578 268.272C820.578 270.138 820.478 271.705 820.278 272.972C820.145 274.172 819.845 275.138 819.378 275.872C818.978 276.538 818.411 277.038 817.678 277.372C816.945 277.638 816.011 277.772 814.878 277.772H751.478C752.211 288.305 755.045 296.038 759.978 300.972C764.911 305.905 771.445 308.372 779.578 308.372C783.578 308.372 787.011 307.905 789.878 306.972C792.811 306.038 795.345 305.005 797.478 303.872C799.678 302.738 801.578 301.705 803.178 300.772C804.845 299.838 806.445 299.372 807.978 299.372C808.978 299.372 809.845 299.572 810.578 299.972C811.311 300.372 811.945 300.938 812.478 301.672L819.678 310.672C816.945 313.872 813.878 316.572 810.478 318.772C807.078 320.905 803.511 322.638 799.778 323.972C796.111 325.238 792.345 326.138 788.478 326.672C784.678 327.205 780.978 327.472 777.378 327.472C770.245 327.472 763.611 326.305 757.478 323.972C751.345 321.572 746.011 318.072 741.478 313.472C736.945 308.805 733.378 303.072 730.778 296.272C728.178 289.405 726.878 281.472 726.878 272.472C726.878 265.472 728.011 258.905 730.278 252.772C732.545 246.572 735.778 241.205 739.978 236.672C744.245 232.072 749.411 228.438 755.478 225.772C761.611 223.105 768.511 221.772 776.178 221.772ZM776.678 239.472C769.478 239.472 763.845 241.505 759.778 245.572C755.711 249.638 753.111 255.405 751.978 262.872H798.378C798.378 259.672 797.945 256.672 797.078 253.872C796.211 251.005 794.878 248.505 793.078 246.372C791.278 244.238 789.011 242.572 786.278 241.372C783.545 240.105 780.345 239.472 776.678 239.472ZM921.014 325.972H909.914C907.581 325.972 905.747 325.638 904.414 324.972C903.081 324.238 902.081 322.805 901.414 320.672L899.214 313.372C896.614 315.705 894.047 317.772 891.514 319.572C889.047 321.305 886.481 322.772 883.814 323.972C881.147 325.172 878.314 326.072 875.314 326.672C872.314 327.272 868.981 327.572 865.314 327.572C860.981 327.572 856.981 327.005 853.314 325.872C849.647 324.672 846.481 322.905 843.814 320.572C841.214 318.238 839.181 315.338 837.714 311.872C836.247 308.405 835.514 304.372 835.514 299.772C835.514 295.905 836.514 292.105 838.514 288.372C840.581 284.572 843.981 281.172 848.714 278.172C853.447 275.105 859.747 272.572 867.614 270.572C875.481 268.572 885.247 267.438 896.914 267.172V261.172C896.914 254.305 895.447 249.238 892.514 245.972C889.647 242.638 885.447 240.972 879.914 240.972C875.914 240.972 872.581 241.438 869.914 242.372C867.247 243.305 864.914 244.372 862.914 245.572C860.981 246.705 859.181 247.738 857.514 248.672C855.847 249.605 854.014 250.072 852.014 250.072C850.347 250.072 848.914 249.638 847.714 248.772C846.514 247.905 845.547 246.838 844.814 245.572L840.314 237.672C852.114 226.872 866.347 221.472 883.014 221.472C889.014 221.472 894.347 222.472 899.014 224.472C903.747 226.405 907.747 229.138 911.014 232.672C914.281 236.138 916.747 240.305 918.414 245.172C920.147 250.038 921.014 255.372 921.014 261.172V325.972ZM873.014 310.572C875.547 310.572 877.881 310.338 880.014 309.872C882.147 309.405 884.147 308.705 886.014 307.772C887.947 306.838 889.781 305.705 891.514 304.372C893.314 302.972 895.114 301.338 896.914 299.472V282.172C889.714 282.505 883.681 283.138 878.814 284.072C874.014 284.938 870.147 286.072 867.214 287.472C864.281 288.872 862.181 290.505 860.914 292.372C859.714 294.238 859.114 296.272 859.114 298.472C859.114 302.805 860.381 305.905 862.914 307.772C865.514 309.638 868.881 310.572 873.014 310.572ZM945.302 325.972V223.372H959.802C962.335 223.372 964.102 223.838 965.102 224.772C966.102 225.705 966.768 227.305 967.102 229.572L968.602 241.972C972.268 235.638 976.568 230.638 981.502 226.972C986.435 223.305 991.968 221.472 998.102 221.472C1003.17 221.472 1007.37 222.638 1010.7 224.972L1007.5 243.472C1007.3 244.672 1006.87 245.538 1006.2 246.072C1005.53 246.538 1004.63 246.772 1003.5 246.772C1002.5 246.772 1001.13 246.538 999.402 246.072C997.668 245.605 995.368 245.372 992.502 245.372C987.368 245.372 982.968 246.805 979.302 249.672C975.635 252.472 972.535 256.605 970.002 262.072V325.972H945.302ZM1026.94 325.972V223.372H1042.04C1045.24 223.372 1047.34 224.872 1048.34 227.872L1050.04 235.972C1052.11 233.838 1054.28 231.905 1056.54 230.172C1058.88 228.438 1061.31 226.938 1063.84 225.672C1066.44 224.405 1069.21 223.438 1072.14 222.772C1075.08 222.105 1078.28 221.772 1081.74 221.772C1087.34 221.772 1092.31 222.738 1096.64 224.672C1100.98 226.538 1104.58 229.205 1107.44 232.672C1110.38 236.072 1112.58 240.172 1114.04 244.972C1115.58 249.705 1116.34 254.938 1116.34 260.672V325.972H1091.64V260.672C1091.64 254.405 1090.18 249.572 1087.24 246.172C1084.38 242.705 1080.04 240.972 1074.24 240.972C1069.98 240.972 1065.98 241.938 1062.24 243.872C1058.51 245.805 1054.98 248.438 1051.64 251.772V325.972H1026.94ZM1166.91 223.372V325.972H1142.21V223.372H1166.91ZM1170.61 193.472C1170.61 195.605 1170.18 197.605 1169.31 199.472C1168.45 201.338 1167.28 202.972 1165.81 204.372C1164.41 205.772 1162.75 206.905 1160.81 207.772C1158.88 208.572 1156.81 208.972 1154.61 208.972C1152.48 208.972 1150.45 208.572 1148.51 207.772C1146.65 206.905 1145.01 205.772 1143.61 204.372C1142.21 202.972 1141.08 201.338 1140.21 199.472C1139.41 197.605 1139.01 195.605 1139.01 193.472C1139.01 191.272 1139.41 189.205 1140.21 187.272C1141.08 185.338 1142.21 183.672 1143.61 182.272C1145.01 180.872 1146.65 179.772 1148.51 178.972C1150.45 178.105 1152.48 177.672 1154.61 177.672C1156.81 177.672 1158.88 178.105 1160.81 178.972C1162.75 179.772 1164.41 180.872 1165.81 182.272C1167.28 183.672 1168.45 185.338 1169.31 187.272C1170.18 189.205 1170.61 191.272 1170.61 193.472ZM1194.91 325.972V223.372H1210.01C1213.21 223.372 1215.31 224.872 1216.31 227.872L1218.01 235.972C1220.08 233.838 1222.24 231.905 1224.51 230.172C1226.84 228.438 1229.28 226.938 1231.81 225.672C1234.41 224.405 1237.18 223.438 1240.11 222.772C1243.04 222.105 1246.24 221.772 1249.71 221.772C1255.31 221.772 1260.28 222.738 1264.61 224.672C1268.94 226.538 1272.54 229.205 1275.41 232.672C1278.34 236.072 1280.54 240.172 1282.01 244.972C1283.54 249.705 1284.31 254.938 1284.31 260.672V325.972H1259.61V260.672C1259.61 254.405 1258.14 249.572 1255.21 246.172C1252.34 242.705 1248.01 240.972 1242.21 240.972C1237.94 240.972 1233.94 241.938 1230.21 243.872C1226.48 245.805 1222.94 248.438 1219.61 251.772V325.972H1194.91ZM1344.08 221.572C1348.48 221.572 1352.62 222.038 1356.48 222.972C1360.35 223.838 1363.88 225.138 1367.08 226.872H1396.58V236.072C1396.58 237.605 1396.18 238.805 1395.38 239.672C1394.58 240.538 1393.22 241.138 1391.28 241.472L1382.08 243.172C1382.75 244.905 1383.25 246.738 1383.58 248.672C1383.98 250.605 1384.18 252.638 1384.18 254.772C1384.18 259.838 1383.15 264.438 1381.08 268.572C1379.08 272.638 1376.28 276.105 1372.68 278.972C1369.15 281.838 1364.92 284.072 1359.98 285.672C1355.12 287.205 1349.82 287.972 1344.08 287.972C1340.22 287.972 1336.45 287.605 1332.78 286.872C1329.58 288.805 1327.98 290.972 1327.98 293.372C1327.98 295.438 1328.92 296.972 1330.78 297.972C1332.72 298.905 1335.22 299.572 1338.28 299.972C1341.42 300.372 1344.95 300.638 1348.88 300.772C1352.82 300.838 1356.85 301.038 1360.98 301.372C1365.12 301.705 1369.15 302.305 1373.08 303.172C1377.02 303.972 1380.52 305.272 1383.58 307.072C1386.72 308.872 1389.22 311.338 1391.08 314.472C1393.02 317.538 1393.98 321.505 1393.98 326.372C1393.98 330.905 1392.85 335.305 1390.58 339.572C1388.38 343.838 1385.15 347.638 1380.88 350.972C1376.68 354.305 1371.52 356.972 1365.38 358.972C1359.25 361.038 1352.25 362.072 1344.38 362.072C1336.58 362.072 1329.82 361.305 1324.08 359.772C1318.35 358.305 1313.58 356.305 1309.78 353.772C1306.05 351.305 1303.25 348.438 1301.38 345.172C1299.52 341.905 1298.58 338.505 1298.58 334.972C1298.58 330.172 1300.05 326.138 1302.98 322.872C1305.92 319.605 1309.98 317.005 1315.18 315.072C1312.65 313.672 1310.62 311.805 1309.08 309.472C1307.55 307.138 1306.78 304.105 1306.78 300.372C1306.78 298.838 1307.05 297.272 1307.58 295.672C1308.12 294.005 1308.92 292.372 1309.98 290.772C1311.12 289.172 1312.52 287.672 1314.18 286.272C1315.85 284.805 1317.82 283.505 1320.08 282.372C1314.88 279.572 1310.78 275.838 1307.78 271.172C1304.85 266.505 1303.38 261.038 1303.38 254.772C1303.38 249.705 1304.38 245.138 1306.38 241.072C1308.45 236.938 1311.28 233.438 1314.88 230.572C1318.55 227.638 1322.85 225.405 1327.78 223.872C1332.78 222.338 1338.22 221.572 1344.08 221.572ZM1371.18 330.572C1371.18 328.572 1370.58 326.938 1369.38 325.672C1368.18 324.405 1366.55 323.438 1364.48 322.772C1362.42 322.038 1359.98 321.505 1357.18 321.172C1354.45 320.838 1351.52 320.605 1348.38 320.472C1345.32 320.272 1342.12 320.105 1338.78 319.972C1335.52 319.772 1332.35 319.472 1329.28 319.072C1326.48 320.605 1324.22 322.438 1322.48 324.572C1320.82 326.638 1319.98 329.038 1319.98 331.772C1319.98 333.572 1320.42 335.238 1321.28 336.772C1322.22 338.372 1323.65 339.738 1325.58 340.872C1327.58 342.005 1330.15 342.872 1333.28 343.472C1336.42 344.138 1340.25 344.472 1344.78 344.472C1349.38 344.472 1353.35 344.105 1356.68 343.372C1360.02 342.705 1362.75 341.738 1364.88 340.472C1367.08 339.272 1368.68 337.805 1369.68 336.072C1370.68 334.405 1371.18 332.572 1371.18 330.572ZM1344.08 272.172C1347.15 272.172 1349.82 271.772 1352.08 270.972C1354.35 270.105 1356.22 268.938 1357.68 267.472C1359.22 266.005 1360.35 264.238 1361.08 262.172C1361.88 260.105 1362.28 257.838 1362.28 255.372C1362.28 250.305 1360.75 246.305 1357.68 243.372C1354.68 240.372 1350.15 238.872 1344.08 238.872C1338.02 238.872 1333.45 240.372 1330.38 243.372C1327.38 246.305 1325.88 250.305 1325.88 255.372C1325.88 257.772 1326.25 260.005 1326.98 262.072C1327.78 264.138 1328.92 265.938 1330.38 267.472C1331.92 268.938 1333.82 270.105 1336.08 270.972C1338.42 271.772 1341.08 272.172 1344.08 272.172ZM1522.87 245.072C1522.14 246.005 1521.4 246.738 1520.67 247.272C1520 247.805 1519 248.072 1517.67 248.072C1516.4 248.072 1515.17 247.705 1513.97 246.972C1512.77 246.172 1511.34 245.305 1509.67 244.372C1508 243.372 1506 242.505 1503.67 241.772C1501.4 240.972 1498.57 240.572 1495.17 240.572C1490.84 240.572 1487.04 241.372 1483.77 242.972C1480.5 244.505 1477.77 246.738 1475.57 249.672C1473.44 252.605 1471.84 256.172 1470.77 260.372C1469.7 264.505 1469.17 269.205 1469.17 274.472C1469.17 279.938 1469.74 284.805 1470.87 289.072C1472.07 293.338 1473.77 296.938 1475.97 299.872C1478.17 302.738 1480.84 304.938 1483.97 306.472C1487.1 307.938 1490.64 308.672 1494.57 308.672C1498.5 308.672 1501.67 308.205 1504.07 307.272C1506.54 306.272 1508.6 305.205 1510.27 304.072C1511.94 302.872 1513.37 301.805 1514.57 300.872C1515.84 299.872 1517.24 299.372 1518.77 299.372C1520.77 299.372 1522.27 300.138 1523.27 301.672L1530.37 310.672C1527.64 313.872 1524.67 316.572 1521.47 318.772C1518.27 320.905 1514.94 322.638 1511.47 323.972C1508.07 325.238 1504.54 326.138 1500.87 326.672C1497.2 327.205 1493.57 327.472 1489.97 327.472C1483.64 327.472 1477.67 326.305 1472.07 323.972C1466.47 321.572 1461.57 318.105 1457.37 313.572C1453.24 309.038 1449.94 303.505 1447.47 296.972C1445.07 290.372 1443.87 282.872 1443.87 274.472C1443.87 266.938 1444.94 259.972 1447.07 253.572C1449.27 247.105 1452.47 241.538 1456.67 236.872C1460.87 232.138 1466.07 228.438 1472.27 225.772C1478.47 223.105 1485.6 221.772 1493.67 221.772C1501.34 221.772 1508.04 223.005 1513.77 225.472C1519.57 227.938 1524.77 231.472 1529.37 236.072L1522.87 245.072ZM1588.48 221.772C1594.95 221.772 1600.88 222.805 1606.28 224.872C1611.75 226.938 1616.45 229.972 1620.38 233.972C1624.32 237.905 1627.38 242.772 1629.58 248.572C1631.78 254.305 1632.88 260.872 1632.88 268.272C1632.88 270.138 1632.78 271.705 1632.58 272.972C1632.45 274.172 1632.15 275.138 1631.68 275.872C1631.28 276.538 1630.72 277.038 1629.98 277.372C1629.25 277.638 1628.32 277.772 1627.18 277.772H1563.78C1564.52 288.305 1567.35 296.038 1572.28 300.972C1577.22 305.905 1583.75 308.372 1591.88 308.372C1595.88 308.372 1599.32 307.905 1602.18 306.972C1605.12 306.038 1607.65 305.005 1609.78 303.872C1611.98 302.738 1613.88 301.705 1615.48 300.772C1617.15 299.838 1618.75 299.372 1620.28 299.372C1621.28 299.372 1622.15 299.572 1622.88 299.972C1623.62 300.372 1624.25 300.938 1624.78 301.672L1631.98 310.672C1629.25 313.872 1626.18 316.572 1622.78 318.772C1619.38 320.905 1615.82 322.638 1612.08 323.972C1608.42 325.238 1604.65 326.138 1600.78 326.672C1596.98 327.205 1593.28 327.472 1589.68 327.472C1582.55 327.472 1575.92 326.305 1569.78 323.972C1563.65 321.572 1558.32 318.072 1553.78 313.472C1549.25 308.805 1545.68 303.072 1543.08 296.272C1540.48 289.405 1539.18 281.472 1539.18 272.472C1539.18 265.472 1540.32 258.905 1542.58 252.772C1544.85 246.572 1548.08 241.205 1552.28 236.672C1556.55 232.072 1561.72 228.438 1567.78 225.772C1573.92 223.105 1580.82 221.772 1588.48 221.772ZM1588.98 239.472C1581.78 239.472 1576.15 241.505 1572.08 245.572C1568.02 249.638 1565.42 255.405 1564.28 262.872H1610.68C1610.68 259.672 1610.25 256.672 1609.38 253.872C1608.52 251.005 1607.18 248.505 1605.38 246.372C1603.58 244.238 1601.32 242.572 1598.58 241.372C1595.85 240.105 1592.65 239.472 1588.98 239.472ZM1652.92 325.972V223.372H1668.02C1671.22 223.372 1673.32 224.872 1674.32 227.872L1676.02 235.972C1678.09 233.838 1680.25 231.905 1682.52 230.172C1684.85 228.438 1687.29 226.938 1689.82 225.672C1692.42 224.405 1695.19 223.438 1698.12 222.772C1701.05 222.105 1704.25 221.772 1707.72 221.772C1713.32 221.772 1718.29 222.738 1722.62 224.672C1726.95 226.538 1730.55 229.205 1733.42 232.672C1736.35 236.072 1738.55 240.172 1740.02 244.972C1741.55 249.705 1742.32 254.938 1742.32 260.672V325.972H1717.62V260.672C1717.62 254.405 1716.15 249.572 1713.22 246.172C1710.35 242.705 1706.02 240.972 1700.22 240.972C1695.95 240.972 1691.95 241.938 1688.22 243.872C1684.49 245.805 1680.95 248.438 1677.62 251.772V325.972H1652.92ZM1800.29 327.572C1791.42 327.572 1784.59 325.072 1779.79 320.072C1774.99 315.005 1772.59 308.038 1772.59 299.172V241.872H1762.19C1760.86 241.872 1759.69 241.438 1758.69 240.572C1757.76 239.705 1757.29 238.405 1757.29 236.672V226.872L1773.79 224.172L1778.99 196.172C1779.26 194.838 1779.86 193.805 1780.79 193.072C1781.79 192.338 1783.02 191.972 1784.49 191.972H1797.29V224.272H1824.29V241.872H1797.29V297.472C1797.29 300.672 1798.09 303.172 1799.69 304.972C1801.29 306.772 1803.42 307.672 1806.09 307.672C1807.62 307.672 1808.89 307.505 1809.89 307.172C1810.96 306.772 1811.86 306.372 1812.59 305.972C1813.39 305.572 1814.09 305.205 1814.69 304.872C1815.29 304.472 1815.89 304.272 1816.49 304.272C1817.22 304.272 1817.82 304.472 1818.29 304.872C1818.76 305.205 1819.26 305.738 1819.79 306.472L1827.19 318.472C1823.59 321.472 1819.46 323.738 1814.79 325.272C1810.12 326.805 1805.29 327.572 1800.29 327.572ZM1843.93 325.972V223.372H1858.43C1860.97 223.372 1862.73 223.838 1863.73 224.772C1864.73 225.705 1865.4 227.305 1865.73 229.572L1867.23 241.972C1870.9 235.638 1875.2 230.638 1880.13 226.972C1885.07 223.305 1890.6 221.472 1896.73 221.472C1901.8 221.472 1906 222.638 1909.33 224.972L1906.13 243.472C1905.93 244.672 1905.5 245.538 1904.83 246.072C1904.17 246.538 1903.27 246.772 1902.13 246.772C1901.13 246.772 1899.77 246.538 1898.03 246.072C1896.3 245.605 1894 245.372 1891.13 245.372C1886 245.372 1881.6 246.805 1877.93 249.672C1874.27 252.472 1871.17 256.605 1868.63 262.072V325.972H1843.93ZM1967.98 221.772C1974.44 221.772 1980.38 222.805 1985.78 224.872C1991.24 226.938 1995.94 229.972 1999.88 233.972C2003.81 237.905 2006.88 242.772 2009.08 248.572C2011.28 254.305 2012.38 260.872 2012.38 268.272C2012.38 270.138 2012.28 271.705 2012.08 272.972C2011.94 274.172 2011.64 275.138 2011.18 275.872C2010.78 276.538 2010.21 277.038 2009.48 277.372C2008.74 277.638 2007.81 277.772 2006.68 277.772H1943.28C1944.01 288.305 1946.84 296.038 1951.78 300.972C1956.71 305.905 1963.24 308.372 1971.38 308.372C1975.38 308.372 1978.81 307.905 1981.68 306.972C1984.61 306.038 1987.14 305.005 1989.28 303.872C1991.48 302.738 1993.38 301.705 1994.98 300.772C1996.64 299.838 1998.24 299.372 1999.78 299.372C2000.78 299.372 2001.64 299.572 2002.38 299.972C2003.11 300.372 2003.74 300.938 2004.28 301.672L2011.48 310.672C2008.74 313.872 2005.68 316.572 2002.28 318.772C1998.88 320.905 1995.31 322.638 1991.58 323.972C1987.91 325.238 1984.14 326.138 1980.28 326.672C1976.48 327.205 1972.78 327.472 1969.18 327.472C1962.04 327.472 1955.41 326.305 1949.28 323.972C1943.14 321.572 1937.81 318.072 1933.28 313.472C1928.74 308.805 1925.18 303.072 1922.58 296.272C1919.98 289.405 1918.68 281.472 1918.68 272.472C1918.68 265.472 1919.81 258.905 1922.08 252.772C1924.34 246.572 1927.58 241.205 1931.78 236.672C1936.04 232.072 1941.21 228.438 1947.28 225.772C1953.41 223.105 1960.31 221.772 1967.98 221.772ZM1968.48 239.472C1961.28 239.472 1955.64 241.505 1951.58 245.572C1947.51 249.638 1944.91 255.405 1943.78 262.872H1990.18C1990.18 259.672 1989.74 256.672 1988.88 253.872C1988.01 251.005 1986.68 248.505 1984.88 246.372C1983.08 244.238 1980.81 242.572 1978.08 241.372C1975.34 240.105 1972.14 239.472 1968.48 239.472Z" fill="white"/>
<path d="M2201.47 234.972L2263.97 297.472L2326.47 234.972H2201.47Z" fill="white"/>
<defs>
<linearGradient id="paint0_linear" x1="1.55818e-05" y1="247.278" x2="2538.8" y2="220.783" gradientUnits="userSpaceOnUse">
<stop stop-color="#34D7FF"/>
<stop offset="1" stop-color="#FA82FF"/>
</linearGradient>
</defs>
</svg>
