<svg width="586" height="91" viewBox="0 0 586 91" fill="none" xmlns="http://www.w3.org/2000/svg">
<mask id="mask0_152_215" style="mask-type:luminance" maskUnits="userSpaceOnUse" x="314" y="17" width="272" height="72">
<path d="M586 17H314V89H586V17Z" fill="white"/>
</mask>
<g mask="url(#mask0_152_215)">
<mask id="mask1_152_215" style="mask-type:luminance" maskUnits="userSpaceOnUse" x="314" y="17" width="272" height="72">
<path d="M585.949 17H314V89H585.949V17Z" fill="white"/>
</mask>
<g mask="url(#mask1_152_215)">
<path d="M517.372 75.845C512.857 75.841 508.528 74.047 505.334 70.857C502.14 67.667 500.343 63.3416 500.335 58.8286C500.331 55.7627 501.155 52.7525 502.72 50.116C504.285 47.4794 506.534 45.3145 509.228 43.85C511.923 42.3854 514.963 41.6756 518.028 41.7956C521.093 41.9155 524.068 42.8608 526.64 44.5314C529.371 46.2897 531.533 48.8029 532.862 51.7657H523.677C522.317 50.5416 520.632 49.7387 518.824 49.4548C517.017 49.1708 515.166 49.418 513.496 50.1663C511.827 50.9146 510.411 52.1315 509.421 53.6696C508.431 55.2073 507.909 56.9998 507.919 58.8286C507.927 60.7534 508.521 62.6302 509.623 64.208C510.725 65.787 512.283 66.991 514.088 67.662C515.893 68.333 517.859 68.437 519.725 67.961C521.591 67.486 523.267 66.453 524.531 65H533.236C532 68.187 529.827 70.926 527.004 72.855C524.182 74.836 520.81 75.882 517.362 75.845" fill="#363636"/>
<path d="M545.265 33.4058V41.4561H548.695V47.1167H545.265V64.5201C545.254 65.0211 545.346 65.5191 545.534 65.9831C545.723 66.4471 546.005 66.8681 546.363 67.2181C546.705 67.5711 547.116 67.8501 547.57 68.0381C548.024 68.2261 548.512 68.3201 549.004 68.3121H550.928V75.8931H549.004C547.51 75.9151 546.028 75.6291 544.65 75.0531C543.272 74.4761 542.028 73.6221 540.995 72.5431C539.925 71.4991 539.08 70.2471 538.51 68.8661C537.94 67.4841 537.658 66.0001 537.681 64.5061V47.1167H534.251V41.4561H537.681V33.4058H545.265Z" fill="#363636"/>
<path d="M575.418 52.088C574.092 50.7711 572.405 49.8766 570.57 49.5176C568.736 49.1586 566.836 49.3512 565.111 50.0711C563.386 50.7909 561.913 52.0057 560.878 53.5619C559.843 55.1181 559.293 56.9463 559.297 58.8148C559.301 60.3697 559.688 61.8999 560.424 63.2696C561.161 64.639 562.224 65.806 563.52 66.667C564.815 67.527 566.303 68.055 567.851 68.204C569.4 68.352 570.961 68.116 572.397 67.517C573.832 66.918 575.098 65.974 576.081 64.77C577.064 63.5648 577.735 62.1361 578.034 60.61C578.333 59.084 578.251 57.5079 577.794 56.0216C577.338 54.5349 576.522 53.1837 575.418 52.088ZM585.78 58.8285V75.858H578.197V72.978C575.407 74.869 572.111 75.873 568.74 75.858C564.222 75.856 559.89 74.061 556.695 70.868C553.5 67.675 551.703 63.3447 551.7 58.8285C551.763 54.3532 553.586 50.083 556.775 46.9408C559.963 43.7986 564.261 42.037 568.738 42.037C573.216 42.037 577.513 43.7986 580.702 46.9408C583.89 50.083 585.713 54.3532 585.777 58.8285" fill="#363636"/>
<path d="M347.762 58.8079C347.764 56.5742 348.207 54.3631 349.064 52.3004C349.922 50.2381 351.178 48.3649 352.761 46.788C354.344 45.2112 356.222 43.9616 358.288 43.1108C360.354 42.26 362.567 41.8246 364.802 41.8296V49.4102C363.561 49.3906 362.329 49.6236 361.181 50.0952C360.033 50.5667 358.993 51.2669 358.124 52.153C357.229 53.0112 356.521 54.0446 356.044 55.1883C355.567 56.3321 355.33 57.5619 355.349 58.801V75.8859H347.762V58.8079Z" fill="#363636"/>
<path d="M376.286 65.535C377.609 66.849 379.291 67.742 381.121 68.103C382.951 68.464 384.846 68.275 386.57 67.561C388.292 66.848 389.766 65.641 390.805 64.093C391.843 62.5445 392.401 60.7235 392.407 58.8594C392.412 57.3022 392.032 55.7682 391.301 54.393C390.57 53.0182 389.51 51.8449 388.217 50.9777C386.923 50.1105 385.435 49.5763 383.885 49.4224C382.334 49.2686 380.77 49.4999 379.331 50.0958C377.892 50.6917 376.622 51.6337 375.635 52.8385C374.648 54.043 373.973 55.4723 373.672 57.0001C373.371 58.5279 373.452 60.1064 373.908 61.5954C374.364 63.0841 375.181 64.437 376.286 65.535ZM395.007 70.901C393.426 72.483 391.549 73.739 389.482 74.596C387.415 75.452 385.2 75.893 382.962 75.893C380.725 75.893 378.509 75.452 376.443 74.596C374.376 73.739 372.499 72.483 370.918 70.901C369.306 69.341 368.032 67.468 367.173 65.397C366.314 63.3262 365.889 61.101 365.924 58.8594C365.925 54.343 367.721 50.0118 370.917 46.8184C374.112 43.625 378.446 41.8306 382.964 41.8297C387.482 41.8315 391.814 43.6263 395.009 46.8196C398.203 50.0129 399.999 54.3433 400.001 58.8594C400.036 61.101 399.61 63.3262 398.752 65.397C397.893 67.468 396.618 69.341 395.007 70.901Z" fill="#363636"/>
<path d="M402.206 65.055H409.79C409.79 65.919 410.133 66.747 410.744 67.358C411.355 67.969 412.184 68.312 413.048 68.312C413.913 68.312 414.741 67.969 415.353 67.358C415.964 66.747 416.307 65.919 416.307 65.055C416.307 64.024 415.809 63.0982 414.811 62.2777C414.133 61.8351 413.418 61.4507 412.675 61.1291C411.643 60.6491 410.646 60.151 409.684 59.6343C408.675 59.0878 407.71 58.4631 406.799 57.7657C405.83 57.0286 405.029 56.0936 404.449 55.0228C403.837 53.8918 403.524 52.6232 403.54 51.3371C403.54 48.8165 404.542 46.3991 406.325 44.6168C408.109 42.8344 410.527 41.8331 413.048 41.8331C415.57 41.8331 417.989 42.8344 419.772 44.6168C421.555 46.3991 422.556 48.8165 422.556 51.3371H415.028C415.017 50.8161 414.805 50.3194 414.436 49.9512C414.067 49.583 413.57 49.3719 413.048 49.3623C412.791 49.3572 412.535 49.4072 412.299 49.5089C412.062 49.6106 411.85 49.7617 411.676 49.952C411.316 50.3171 411.115 50.8103 411.117 51.3234C411.098 51.6769 411.184 52.0283 411.364 52.3335C411.544 52.6383 411.81 52.8834 412.129 53.0377C412.735 53.3555 413.618 53.791 414.777 54.344C415.936 54.897 416.862 55.3417 417.552 55.6777C418.39 56.1046 419.193 56.5962 419.953 57.1486C420.752 57.6862 421.463 58.3427 422.062 59.096C422.62 59.8698 423.052 60.7259 423.345 61.6331C423.967 63.5442 424.049 65.589 423.582 67.544C423.116 69.498 422.118 71.286 420.701 72.711C419.185 74.229 417.252 75.264 415.148 75.684C413.043 76.104 410.861 75.89 408.878 75.07C406.895 74.25 405.2 72.86 404.008 71.077C402.815 69.294 402.179 67.197 402.179 65.051" fill="#363636"/>
<path d="M471.263 55.4961H488.931C488.269 53.703 487.071 52.1563 485.501 51.0664C483.931 49.9346 482.04 49.3339 480.105 49.3521C478.179 49.355 476.298 49.944 474.714 51.0409C473.131 52.1378 471.918 53.6906 471.239 55.4927M468.083 46.8287C470.465 44.4491 473.5 42.8286 476.803 42.172C480.106 41.5154 483.529 41.852 486.641 43.1394C489.753 44.4268 492.413 46.6073 494.286 49.4052C496.159 52.2033 497.16 55.493 497.163 58.8595C497.164 59.6279 497.112 60.3955 497.005 61.1567H470.937C471.326 62.7139 472.107 64.1461 473.204 65.3181C474.302 66.4901 475.68 67.3631 477.209 67.8541C478.738 68.3461 480.367 68.4391 481.942 68.1271C483.517 67.8141 484.986 67.1041 486.211 66.0661H495.506C494.15 68.9841 491.992 71.4561 489.284 73.1941C486.711 74.8401 483.743 75.7631 480.69 75.8671C477.638 75.9711 474.613 75.2531 471.934 73.7871C469.255 72.3211 467.019 70.1621 465.462 67.5351C463.904 64.9091 463.082 61.9127 463.082 58.8595C463.049 56.619 463.476 54.3956 464.336 52.3264C465.196 50.2572 466.471 48.3861 468.083 46.8287Z" fill="#363636"/>
<path d="M344.733 42.9029C343.096 39.0537 340.029 35.9888 336.179 34.352C334.227 33.5206 332.126 33.096 330.005 33.104C327.868 33.0888 325.751 33.5148 323.786 34.3555C319.946 35.9994 316.889 39.0612 315.252 42.9029C314.418 44.858 313.992 46.9626 314 49.088V76.39H322.013V49.088C322.006 48.0212 322.217 46.9642 322.633 45.9817C323.444 44.0667 324.968 42.542 326.883 41.7303C327.867 41.3207 328.923 41.1099 329.989 41.1099C331.055 41.1099 332.111 41.3207 333.095 41.7303C334.045 42.1333 334.91 42.7153 335.64 43.4446C336.367 44.1754 336.949 45.0375 337.355 45.9852C338.178 47.9731 338.178 50.2064 337.355 52.1943C336.543 54.1068 335.015 55.626 333.098 56.4286C332.04 56.8705 330.899 57.0797 329.753 57.0423C328.607 57.0053 327.482 56.7221 326.454 56.2126L322.98 63.4709C324.056 63.9869 325.186 64.385 326.348 64.657C329.635 65.423 333.081 65.132 336.192 63.824C338.094 63.0125 339.826 61.8492 341.296 60.3955C342.795 58.9181 343.983 57.1561 344.79 55.2132C345.597 53.2699 346.007 51.185 345.995 49.0812C345.999 46.9574 345.57 44.8551 344.733 42.9029Z" fill="#363636"/>
<path d="M458.712 51.44C457.08 47.5932 454.018 44.5293 450.172 42.8926C448.208 42.0666 446.099 41.6412 443.969 41.6412C441.838 41.6412 439.729 42.0666 437.765 42.8926C433.931 44.5404 430.878 47.6015 429.242 51.44C428.412 53.3915 427.988 55.4912 427.993 57.6114V89H436.006V57.6286C435.999 56.5619 436.209 55.5053 436.623 54.5223C437.427 52.6023 438.95 51.0717 440.866 50.2571C441.851 49.8461 442.908 49.6344 443.975 49.6344C445.043 49.6344 446.1 49.8461 447.085 50.2571C449.004 51.0655 450.531 52.591 451.341 54.5086C451.751 55.4922 451.962 56.5475 451.962 57.6131C451.962 58.6787 451.751 59.7341 451.341 60.7177C450.537 62.6463 449.009 64.183 447.085 65C446.027 65.442 444.885 65.651 443.739 65.614C442.593 65.577 441.468 65.293 440.441 64.784L436.966 72.025C438.038 72.54 439.163 72.938 440.321 73.211C441.519 73.493 442.746 73.633 443.977 73.63C446.099 73.637 448.2 73.211 450.151 72.378C452.051 71.571 453.782 70.413 455.255 68.967C456.754 67.489 457.941 65.728 458.748 63.7846C459.556 61.8413 459.965 59.7563 459.954 57.6526C459.969 55.5186 459.547 53.4042 458.712 51.44Z" fill="#363636"/>
<path d="M545.001 23.7954L537.87 30.92V24.1246L545.001 17V23.7954Z" fill="#363636"/>
</g>
</g>
<path d="M256.565 90.4853C235.941 90.4853 219.162 73.8213 219.162 53.3395C219.162 32.8566 235.941 16.1915 256.565 16.1915C277.188 16.1915 293.966 32.8566 293.966 53.3395C293.966 73.8213 277.188 90.4853 256.565 90.4853ZM256.565 32.4624C244.975 32.4624 235.544 41.8275 235.544 53.3395C235.544 64.8503 244.975 74.2153 256.565 74.2153C268.154 74.2153 277.585 64.8503 277.585 53.3395C277.585 41.8275 268.154 32.4624 256.565 32.4624Z" fill="#363636"/>
<path d="M176.733 90.4453C156.707 90.4453 140.414 74.2763 140.392 54.3943V54.3545C140.414 34.4723 156.707 18.3025 176.733 18.3025H187.826V34.5735H176.733C165.734 34.5735 156.785 43.4543 156.775 54.3744C156.785 65.2943 165.734 74.1753 176.733 74.1753C187.378 74.1753 196.039 65.5743 196.039 55.002V0H212.421V55.002C212.421 74.5453 196.412 90.4453 176.733 90.4453Z" fill="#363636"/>
<path d="M95.6446 16.3412C83.8613 16.3412 73.3422 21.7949 66.494 30.288C59.6447 21.7949 49.1256 16.3412 37.3424 16.3412C16.7515 16.3412 0 32.9769 0 53.4254V88.7014H16.3826V53.4254C16.3826 41.9485 25.7853 32.6121 37.3424 32.6121C48.8992 32.6121 58.3021 41.9485 58.3021 53.4254V88.7014H74.6856V53.4254C74.6856 41.9485 84.0875 32.6121 95.6446 32.6121C107.203 32.6121 116.606 41.9485 116.606 53.4254V88.7014H132.988V53.4254C132.988 32.9769 116.236 16.3412 95.6446 16.3412Z" fill="#363636"/>
</svg>
