<svg width="758" height="179" viewBox="0 0 758 179" fill="none" xmlns="http://www.w3.org/2000/svg">
<g clip-path="url(#clip0_4_8)">
<path d="M298.879 32.9061V0.00608152H165V177.162H205.999V112.627H287.997V79.7262H205.999V32.9061H298.879" fill="white"/>
<path d="M687.452 38.1263C696.215 38.1263 703.635 41.413 709.703 47.9807C715.772 54.5544 719.479 63.3284 720.829 74.3141H653.821C655.169 63.1163 658.878 54.2818 664.947 47.8199C671.015 41.3572 678.514 38.1263 687.452 38.1263ZM758 90.1464C758 72.0525 754.923 56.1697 748.771 42.4884C742.615 28.8117 734.145 18.3108 723.358 10.9851C712.567 3.66499 700.514 -6.77458e-06 687.198 -6.77458e-06C673.544 -6.77458e-06 661.193 3.8267 650.154 11.4699C639.112 19.1187 630.431 29.7811 624.11 43.4578C617.788 57.1391 614.628 72.4867 614.628 89.5C614.628 106.736 617.828 122.134 624.237 135.705C630.641 149.275 639.743 159.887 651.545 167.53C663.343 175.179 676.914 179 692.255 179C716.866 179 735.578 169.631 748.391 150.891L727.404 121.811C722.682 127.628 717.582 131.883 712.105 134.574C706.626 137.269 700.347 138.612 693.268 138.612C682.983 138.612 674.385 135.492 667.475 129.243C660.561 122.998 656.18 114.491 654.327 103.717H757.241C757.747 95.3163 758 90.7927 758 90.1464ZM536.242 179C549.557 179 561.062 176.683 570.758 172.055C580.451 167.425 587.827 160.907 592.884 152.506C597.941 144.106 600.469 134.523 600.469 123.75C600.469 111.042 597.854 101.132 592.631 94.0238C587.403 86.9155 581.253 82.018 574.172 79.3223C567.091 76.6314 557.989 74.1018 546.862 71.7294C536.915 69.7903 529.668 67.7462 525.117 65.5905C520.565 63.4395 518.289 59.6685 518.289 54.2818C518.289 49.5461 520.396 45.6687 524.611 42.6499C528.823 39.6357 535.144 38.1263 543.576 38.1263C557.735 38.1263 570.797 42.4378 582.769 51.0501L595.917 15.1856C589.68 10.4499 581.797 6.73418 572.275 4.0378C562.75 1.34651 553.185 -6.77458e-06 543.576 -6.77458e-06C530.592 -6.77458e-06 519.341 2.37296 509.818 7.10866C500.293 11.8488 493.042 18.4725 488.073 26.979C483.099 35.491 480.613 45.2345 480.613 56.2202C480.613 69.3615 483.268 79.484 488.578 86.5922C493.888 93.7005 500.166 98.6584 507.416 101.455C514.662 104.257 523.853 106.736 534.978 108.887C544.416 110.396 551.414 112.229 555.966 114.38C560.517 116.536 562.792 120.09 562.792 125.042C562.792 135.599 554.449 140.875 537.759 140.875C529.498 140.875 521.071 139.315 512.473 136.19C503.877 133.069 496.543 129.03 490.475 124.073L477.326 160.262C483.73 165.647 492.328 170.116 503.117 173.67C513.904 177.225 524.946 179 536.242 179ZM414.364 2.58405V88.5312C414.364 104.04 411.496 115.728 405.767 123.588C400.034 131.454 392.447 135.381 383.009 135.381C364.633 135.381 355.447 121.382 355.447 93.3774V2.58405H316V100.809C316 126.657 321.223 146.155 331.678 159.291C342.128 172.432 356.288 179 374.159 179C382.587 179 390.425 177.006 397.675 173.023C404.921 169.04 411.159 163.279 416.387 155.737V176.416H453.81V2.58405H414.364Z" fill="white"/>
<path d="M134.351 87.7692L43.3848 178.735L43.3848 91.9655L134.351 1V87.7692Z" fill="#00AEEF"/>
</g>
<defs>
<clipPath id="clip0_4_8">
<rect width="758" height="179" fill="white"/>
</clipPath>
</defs>
</svg>
