<svg width="503" height="209" viewBox="0 0 503 209" fill="none" xmlns="http://www.w3.org/2000/svg">
<path d="M186.728 63.56H245.224V81.096H208.488V102.344H242.664V118.728H208.488V157H186.728V63.56ZM283.464 63.56V120.264C283.464 133.917 288.669 140.744 299.08 140.744C309.405 140.744 314.568 133.917 314.568 120.264V63.56H336.072V118.856C336.072 131.827 332.872 141.64 326.472 148.296C320.072 154.952 310.856 158.28 298.824 158.28C286.792 158.28 277.533 154.952 271.048 148.296C264.648 141.64 261.448 131.827 261.448 118.856V63.56H283.464ZM411.474 85.32C403.367 81.3093 394.834 79.304 385.874 79.304C381.437 79.304 378.066 80.1573 375.762 81.864C373.458 83.5707 372.306 85.8747 372.306 88.776C372.306 93.5547 375.89 96.968 383.058 99.016C395.773 102.515 404.69 106.696 409.81 111.56C415.015 116.424 417.618 122.696 417.618 130.376C417.618 139.421 414.546 146.333 408.402 151.112C402.258 155.891 393.17 158.28 381.138 158.28C375.762 158.28 370.173 157.469 364.37 155.848C358.567 154.141 353.703 151.965 349.778 149.32L354.898 132.296C363.602 138.269 372.647 141.256 382.034 141.256C386.471 141.256 389.799 140.36 392.018 138.568C394.322 136.691 395.474 134.088 395.474 130.76C395.474 128.029 394.535 125.811 392.658 124.104C390.866 122.397 387.666 120.861 383.058 119.496C371.367 116.083 362.962 111.944 357.842 107.08C352.722 102.131 350.162 96.0293 350.162 88.776C350.162 80.6693 353.191 74.2267 359.25 69.448C365.394 64.6693 373.97 62.28 384.978 62.28C396.669 62.28 406.823 64.328 415.442 68.424L411.474 85.32ZM455.613 81.096V100.168H491.069V116.68H455.613V139.464H493.629V157H433.853V63.56H493.629V81.096H455.613Z" fill="white"/>
<path d="M157.66 101.823L50.9118 208.571L50.9118 106.748L157.66 0V101.823Z" fill="#00AEEF"/>
</svg>
