<svg width="594" height="128" viewBox="0 0 594 128" fill="none" xmlns="http://www.w3.org/2000/svg">
<g clip-path="url(#clip0_302_74)">
<mask id="mask0_302_74" style="mask-type:luminance" maskUnits="userSpaceOnUse" x="322" y="53" width="272" height="72">
<path d="M593.949 53H322V125H593.949V53Z" fill="white"/>
</mask>
<g mask="url(#mask0_302_74)">
<path d="M525.372 111.845C520.857 111.841 516.528 110.047 513.334 106.857C510.14 103.667 508.343 99.3416 508.335 94.8286C508.331 91.7627 509.155 88.7525 510.72 86.116C512.285 83.4794 514.534 81.3145 517.228 79.85C519.923 78.3854 522.963 77.6756 526.028 77.7956C529.093 77.9155 532.068 78.8608 534.64 80.5314C537.371 82.2897 539.533 84.8029 540.862 87.7657H531.677C530.317 86.5416 528.632 85.7387 526.824 85.4548C525.017 85.1708 523.166 85.418 521.496 86.1663C519.827 86.9146 518.411 88.1315 517.421 89.6696C516.431 91.2073 515.909 92.9998 515.919 94.8286C515.927 96.7534 516.521 98.6302 517.623 100.208C518.725 101.787 520.283 102.991 522.088 103.662C523.893 104.333 525.859 104.437 527.725 103.961C529.591 103.486 531.267 102.453 532.531 101H541.236C540 104.187 537.827 106.926 535.004 108.855C532.182 110.836 528.81 111.882 525.362 111.845" fill="white" fill-opacity="0.3"/>
<path d="M553.265 69.4057V77.456H556.695V83.1166H553.265V100.52C553.254 101.021 553.346 101.519 553.534 101.983C553.723 102.447 554.005 102.868 554.363 103.218C554.705 103.571 555.116 103.85 555.57 104.038C556.024 104.226 556.512 104.32 557.004 104.312H558.928V111.893H557.004C555.51 111.915 554.028 111.629 552.65 111.053C551.272 110.476 550.028 109.622 548.995 108.543C547.925 107.499 547.08 106.247 546.51 104.866C545.94 103.484 545.658 102 545.681 100.506V83.1166H542.251V77.456H545.681V69.4057H553.265Z" fill="white" fill-opacity="0.3"/>
<path d="M583.418 88.088C582.092 86.7711 580.405 85.8766 578.57 85.5176C576.736 85.1586 574.836 85.3512 573.111 86.0711C571.386 86.7909 569.913 88.0057 568.878 89.5619C567.843 91.1181 567.293 92.9463 567.297 94.8148C567.301 96.3697 567.688 97.8999 568.424 99.2696C569.161 100.639 570.224 101.806 571.52 102.667C572.815 103.527 574.303 104.055 575.851 104.204C577.4 104.352 578.961 104.116 580.397 103.517C581.832 102.918 583.098 101.974 584.081 100.77C585.064 99.5648 585.735 98.1361 586.034 96.61C586.333 95.084 586.251 93.5079 585.794 92.0216C585.338 90.5349 584.522 89.1837 583.418 88.088ZM593.78 94.8285V111.858H586.197V108.978C583.407 110.869 580.111 111.873 576.74 111.858C572.222 111.856 567.89 110.061 564.695 106.868C561.5 103.675 559.703 99.3447 559.7 94.8285C559.763 90.3532 561.586 86.083 564.775 82.9408C567.963 79.7986 572.261 78.037 576.738 78.037C581.216 78.037 585.513 79.7986 588.702 82.9408C591.89 86.083 593.713 90.3532 593.777 94.8285" fill="white" fill-opacity="0.3"/>
<path d="M355.762 94.808C355.764 92.5743 356.207 90.3632 357.064 88.3005C357.922 86.2382 359.178 84.365 360.761 82.7881C362.344 81.2113 364.222 79.9617 366.288 79.1109C368.354 78.2601 370.567 77.8247 372.802 77.8297V85.4103C371.561 85.3907 370.329 85.6237 369.181 86.0953C368.033 86.5668 366.993 87.267 366.124 88.1531C365.229 89.0113 364.521 90.0447 364.044 91.1884C363.567 92.3322 363.33 93.562 363.349 94.8011V111.886H355.762V94.808Z" fill="white" fill-opacity="0.3"/>
<path d="M384.286 101.535C385.609 102.849 387.291 103.742 389.121 104.103C390.951 104.464 392.846 104.275 394.57 103.561C396.292 102.848 397.766 101.641 398.805 100.093C399.843 98.5445 400.401 96.7235 400.407 94.8594C400.412 93.3022 400.032 91.7682 399.301 90.393C398.57 89.0182 397.51 87.8449 396.217 86.9777C394.923 86.1105 393.435 85.5763 391.885 85.4224C390.334 85.2686 388.77 85.4999 387.331 86.0958C385.892 86.6917 384.622 87.6337 383.635 88.8385C382.648 90.043 381.973 91.4723 381.672 93.0001C381.371 94.5279 381.452 96.1064 381.908 97.5954C382.364 99.0841 383.181 100.437 384.286 101.535ZM403.007 106.901C401.426 108.483 399.549 109.739 397.482 110.596C395.415 111.452 393.2 111.893 390.962 111.893C388.725 111.893 386.509 111.452 384.443 110.596C382.376 109.739 380.499 108.483 378.918 106.901C377.306 105.341 376.032 103.468 375.173 101.397C374.314 99.3262 373.889 97.101 373.924 94.8594C373.925 90.343 375.721 86.0118 378.917 82.8184C382.112 79.625 386.446 77.8306 390.964 77.8297C395.482 77.8315 399.814 79.6263 403.009 82.8196C406.203 86.0129 407.999 90.3433 408.001 94.8594C408.036 97.101 407.61 99.3262 406.752 101.397C405.893 103.468 404.618 105.341 403.007 106.901Z" fill="white" fill-opacity="0.3"/>
<path d="M410.206 101.055H417.79C417.79 101.919 418.133 102.747 418.744 103.358C419.355 103.969 420.184 104.312 421.048 104.312C421.913 104.312 422.741 103.969 423.353 103.358C423.964 102.747 424.307 101.919 424.307 101.055C424.307 100.024 423.809 99.0982 422.811 98.2777C422.133 97.8351 421.418 97.4507 420.675 97.1291C419.643 96.6491 418.646 96.151 417.684 95.6343C416.675 95.0878 415.71 94.4631 414.799 93.7657C413.83 93.0286 413.029 92.0936 412.449 91.0228C411.837 89.8918 411.524 88.6232 411.54 87.3371C411.54 84.8165 412.542 82.3991 414.325 80.6168C416.109 78.8344 418.527 77.8331 421.048 77.8331C423.57 77.8331 425.989 78.8344 427.772 80.6168C429.555 82.3991 430.556 84.8165 430.556 87.3371H423.028C423.017 86.8161 422.805 86.3194 422.436 85.9512C422.067 85.583 421.57 85.3719 421.048 85.3623C420.791 85.3572 420.535 85.4072 420.299 85.5089C420.062 85.6106 419.85 85.7617 419.676 85.952C419.316 86.3171 419.115 86.8103 419.117 87.3234C419.098 87.6769 419.184 88.0283 419.364 88.3335C419.544 88.6383 419.81 88.8834 420.129 89.0377C420.735 89.3555 421.618 89.791 422.777 90.344C423.936 90.897 424.862 91.3417 425.552 91.6777C426.39 92.1046 427.193 92.5962 427.953 93.1486C428.752 93.6862 429.463 94.3427 430.062 95.096C430.62 95.8698 431.052 96.7259 431.345 97.6331C431.967 99.5442 432.049 101.589 431.582 103.544C431.116 105.498 430.118 107.286 428.701 108.711C427.185 110.229 425.252 111.264 423.148 111.684C421.043 112.104 418.861 111.89 416.878 111.07C414.895 110.25 413.2 108.86 412.008 107.077C410.815 105.294 410.179 103.197 410.179 101.051" fill="white" fill-opacity="0.3"/>
<path d="M479.263 91.496H496.931C496.269 89.7029 495.071 88.1562 493.501 87.0663C491.931 85.9345 490.04 85.3338 488.105 85.352C486.179 85.3549 484.298 85.9439 482.714 87.0408C481.131 88.1377 479.918 89.6905 479.239 91.4926M476.083 82.8286C478.465 80.449 481.5 78.8285 484.803 78.1719C488.106 77.5153 491.529 77.8519 494.641 79.1393C497.753 80.4267 500.413 82.6072 502.286 85.4051C504.159 88.2032 505.16 91.4929 505.163 94.8594C505.164 95.6278 505.112 96.3954 505.005 97.1566H478.937C479.326 98.7138 480.107 100.146 481.204 101.318C482.302 102.49 483.68 103.363 485.209 103.854C486.738 104.346 488.367 104.439 489.942 104.127C491.517 103.814 492.986 103.104 494.211 102.066H503.506C502.15 104.984 499.992 107.456 497.284 109.194C494.711 110.84 491.743 111.763 488.69 111.867C485.638 111.971 482.613 111.253 479.934 109.787C477.255 108.321 475.019 106.162 473.462 103.535C471.904 100.909 471.082 97.9126 471.082 94.8594C471.049 92.6189 471.476 90.3955 472.336 88.3263C473.196 86.2571 474.471 84.386 476.083 82.8286Z" fill="white" fill-opacity="0.3"/>
<path d="M352.733 78.9029C351.096 75.0537 348.029 71.9888 344.179 70.352C342.227 69.5206 340.126 69.096 338.005 69.104C335.868 69.0888 333.751 69.5148 331.786 70.3555C327.946 71.9994 324.889 75.0612 323.252 78.9029C322.418 80.858 321.992 82.9626 322 85.088V112.39H330.013V85.088C330.006 84.0212 330.217 82.9642 330.633 81.9817C331.444 80.0667 332.968 78.542 334.883 77.7303C335.867 77.3207 336.923 77.1099 337.989 77.1099C339.055 77.1099 340.111 77.3207 341.095 77.7303C342.045 78.1333 342.91 78.7153 343.64 79.4446C344.367 80.1754 344.949 81.0375 345.355 81.9852C346.178 83.9731 346.178 86.2064 345.355 88.1943C344.543 90.1068 343.015 91.626 341.098 92.4286C340.04 92.8705 338.899 93.0797 337.753 93.0423C336.607 93.0053 335.482 92.7221 334.454 92.2126L330.98 99.4709C332.056 99.9869 333.186 100.385 334.348 100.657C337.635 101.423 341.081 101.132 344.192 99.824C346.094 99.0125 347.826 97.8492 349.296 96.3955C350.795 94.9181 351.983 93.1561 352.79 91.2132C353.597 89.2699 354.007 87.185 353.995 85.0812C353.999 82.9574 353.57 80.8551 352.733 78.9029Z" fill="white" fill-opacity="0.3"/>
<path d="M466.712 87.44C465.08 83.5932 462.018 80.5293 458.172 78.8926C456.208 78.0666 454.099 77.6412 451.969 77.6412C449.838 77.6412 447.729 78.0666 445.765 78.8926C441.931 80.5404 438.878 83.6015 437.242 87.44C436.412 89.3915 435.988 91.4912 435.993 93.6114V125H444.006V93.6286C443.999 92.5619 444.209 91.5053 444.623 90.5223C445.427 88.6023 446.95 87.0717 448.866 86.2571C449.851 85.8461 450.908 85.6344 451.975 85.6344C453.043 85.6344 454.1 85.8461 455.085 86.2571C457.004 87.0655 458.531 88.591 459.341 90.5086C459.751 91.4922 459.962 92.5475 459.962 93.6131C459.962 94.6787 459.751 95.7341 459.341 96.7177C458.537 98.6463 457.009 100.183 455.085 101C454.027 101.442 452.885 101.651 451.739 101.614C450.593 101.577 449.468 101.293 448.441 100.784L444.966 108.025C446.038 108.54 447.163 108.938 448.321 109.211C449.519 109.493 450.746 109.633 451.977 109.63C454.099 109.637 456.2 109.211 458.151 108.378C460.051 107.571 461.782 106.413 463.255 104.967C464.754 103.489 465.941 101.728 466.748 99.7846C467.556 97.8413 467.965 95.7563 467.954 93.6526C467.969 91.5186 467.547 89.4042 466.712 87.44Z" fill="white" fill-opacity="0.3"/>
<path d="M553.001 59.7954L545.87 66.92V60.1246L553.001 53V59.7954Z" fill="white" fill-opacity="0.3"/>
</g>
</g>
<g clip-path="url(#clip1_302_74)">
<mask id="mask1_302_74" style="mask-type:luminance" maskUnits="userSpaceOnUse" x="0" y="0" width="299" height="128">
<path d="M299 0H0V128H299V0Z" fill="white"/>
</mask>
<g mask="url(#mask1_302_74)">
<path d="M259.181 126.437C238.557 126.437 221.778 109.773 221.778 89.2912C221.778 68.8083 238.557 52.1432 259.181 52.1432C279.804 52.1432 296.582 68.8083 296.582 89.2912C296.582 109.773 279.804 126.437 259.181 126.437ZM259.181 68.4141C247.591 68.4141 238.16 77.7792 238.16 89.2912C238.16 100.802 247.591 110.167 259.181 110.167C270.77 110.167 280.201 100.802 280.201 89.2912C280.201 77.7792 270.77 68.4141 259.181 68.4141Z" fill="white"/>
<path d="M215.101 17.8088L198.652 34.144V18.5623L215.101 2.22705V17.8088Z" fill="#00AEEF"/>
<path d="M179.349 126.397C159.323 126.397 143.03 110.228 143.008 90.346V90.3062C143.03 70.424 159.323 54.2542 179.349 54.2542H190.442V70.5252H179.349C168.35 70.5252 159.401 79.406 159.391 90.3261C159.401 101.246 168.35 110.127 179.349 110.127C189.994 110.127 198.655 101.526 198.655 90.9537V35.9517H215.037V90.9537C215.037 110.497 199.028 126.397 179.349 126.397Z" fill="white"/>
<path d="M98.2611 52.2928C86.4778 52.2928 75.9587 57.7465 69.1105 66.2396C62.2612 57.7465 51.7421 52.2928 39.9589 52.2928C19.368 52.2928 2.61646 68.9285 2.61646 89.377V124.653H18.9991V89.377C18.9991 77.9001 28.4018 68.5637 39.9589 68.5637C51.5157 68.5637 60.9186 77.9001 60.9186 89.377V124.653H77.3021V89.377C77.3021 77.9001 86.704 68.5637 98.2611 68.5637C109.819 68.5637 119.222 77.9001 119.222 89.377V124.653H135.604V89.377C135.604 68.9285 118.852 52.2928 98.2611 52.2928Z" fill="white"/>
</g>
</g>
<defs>
<clipPath id="clip0_302_74">
<rect width="272" height="72" fill="white" transform="translate(322 53)"/>
</clipPath>
<clipPath id="clip1_302_74">
<rect width="299" height="128" fill="white"/>
</clipPath>
</defs>
</svg>
