<svg height="512pt" viewBox="0 -30 512 512" width="512pt" xmlns="http://www.w3.org/2000/svg"><path d="m512 113.550781c0-54.136719-38.5-100.992187-91.542969-111.410156-7.210937-1.421875-14.617187-2.140625-22.007812-2.140625-46.484375 0-86.527344 28.078125-104.078125 68.160156h-237.675782c-31.261718 0-56.695312 25.433594-56.695312 56.695313v270.976562c0 30.492188 24.804688 55.296875 55.296875 55.296875h86.117187c4.203126 0 7.605469-3.40625 7.605469-7.605468 0-4.199219-3.402343-7.605469-7.605469-7.605469h-86.117187c-22.105469 0-40.089844-17.980469-40.089844-40.085938v-253.148437l178.480469 148.613281c18.058594 15.035156 40.183594 22.550781 62.3125 22.550781 22.125 0 44.253906-7.519531 62.300781-22.550781l52.09375-43.375c3.230469-2.683594 3.667969-7.480469.980469-10.707031-2.6875-3.230469-7.484375-3.667969-10.710938-.980469l-52.097656 43.375c-30.457031 25.375-74.675781 25.375-105.148437 0l-188.160157-156.671875c1.007813-21.988281 19.207032-39.566406 41.4375-39.566406h232.28125c-2.65625 9.613281-4.082031 19.734375-4.082031 30.179687 0 62.621094 50.941407 113.5625 113.554688 113.5625 7.390625 0 14.796875-.71875 22.003906-2.136719 12.851563-2.523437 25.074219-7.226562 36.332031-13.976562 3.601563-2.160156 4.769532-6.832031 2.609375-10.433594-2.164062-3.601562-6.835937-4.769531-10.433593-2.609375-9.738282 5.839844-20.316407 9.910157-31.441407 12.097657-6.246093 1.226562-12.664062 1.851562-19.074219 1.851562-54.226562 0-98.34375-44.121094-98.34375-98.355469 0-54.226562 44.117188-98.34375 98.34375-98.34375 6.410157 0 12.828126.625 19.074219 1.855469 45.933594 9.019531 79.273438 49.601562 79.273438 96.488281 0 25.300781-9.582031 49.335938-26.984375 67.679688-2.890625 3.046875-2.761719 7.859375.285156 10.75s7.859375 2.761719 10.75-.285157c6.195312-6.53125 11.53125-13.6875 15.949219-21.320312v225.457031c0 22.105469-17.984375 40.085938-40.089844 40.085938h-284.871094c-4.199219 0-7.601562 3.40625-7.601562 7.605469 0 4.199218 3.402343 7.605468 7.601562 7.605468h284.871094c30.492187 0 55.296875-24.808594 55.296875-55.296875 0 0 0-280.054687 0-282.28125zm0 0"/><path d="m453.230469 410.816406c1.421875 1.179688 3.148437 1.757813 4.863281 1.757813 2.179688 0 4.34375-.933594 5.847656-2.738281 2.683594-3.230469 2.246094-8.023438-.980468-10.710938l-121.246094-100.949219c-3.226563-2.683593-8.023438-2.25-10.710938.980469-2.6875 3.226562-2.25 8.019531.980469 10.707031zm0 0"/><path d="m181 299.152344c-2.6875-3.226563-7.480469-3.664063-10.707031-.976563l-121.25 100.949219c-3.226563 2.683594-3.664063 7.480469-.980469 10.710938 1.503906 1.804687 3.667969 2.738281 5.851562 2.738281 1.714844 0 3.4375-.578125 4.859376-1.757813l121.25-100.953125c3.226562-2.6875 3.664062-7.480469.976562-10.710937zm0 0"/><path d="m398.449219 169.824219c4.199219 0 7.605469-3.40625 7.605469-7.605469v-78.96875l20.683593 20.6875c1.484375 1.484375 3.433594 2.226562 5.378907 2.226562 1.945312 0 3.890624-.742187 5.375-2.226562 2.972656-2.972656 2.972656-7.785156 0-10.753906l-33.664063-33.667969c-2.972656-2.96875-7.785156-2.96875-10.753906 0l-33.667969 33.667969c-2.96875 2.96875-2.96875 7.78125 0 10.753906 2.972656 2.96875 7.785156 2.96875 10.753906 0l20.683594-20.6875v78.96875c0 4.199219 3.40625 7.605469 7.605469 7.605469zm0 0"/></svg>