<svg height="511pt" viewBox="0 1 511 511.99987" width="511pt" xmlns="http://www.w3.org/2000/svg"><path d="m453.679688 471.6875c1.421874 1.183594 3.144531 1.757812 4.859374 1.757812 2.179688 0 4.34375-.933593 5.847657-2.738281 2.6875-3.226562 2.25-8.023437-.976563-10.707031l-121.234375-100.9375c-3.226562-2.6875-8.019531-2.25-10.707031.976562-2.6875 3.226563-2.25 8.019532.976562 10.707032zm0 0"/><path d="m181.480469 360.039062c-2.6875-3.226562-7.480469-3.664062-10.707031-.976562l-121.234376 100.9375c-3.226562 2.6875-3.664062 7.480469-.976562 10.707031 1.5 1.808594 3.664062 2.738281 5.847656 2.738281 1.714844 0 3.4375-.574218 4.859375-1.757812l121.234375-100.9375c3.226563-2.691406 3.664063-7.484375.976563-10.710938zm0 0"/><path d="m509.707031 181.523438-93.347656-77.722657c-3.230469-2.683593-8.019531-2.246093-10.710937.980469-2.683594 3.226562-2.246094 8.019531.980468 10.707031l86.332032 71.878907-183.925782 153.132812c-30.453125 25.371094-74.667968 25.371094-105.132812 0l-183.914063-153.132812 178.378907-148.523438 5.535156-4.609375c30.460937-25.371094 74.679687-25.371094 105.132812 0l72.757813 60.578125c3.226562 2.683594 8.019531 2.25 10.707031-.980469 2.6875-3.226562 2.25-8.019531-.976562-10.707031l-72.753907-60.574219c-36.09375-30.066406-88.496093-30.070312-124.601562 0l-190.777344 158.851563c-1.761719 1.390625-2.890625 3.546875-2.890625 5.964844v269.339843c0 30.488281 24.804688 55.292969 55.292969 55.292969h35.441406c4.199219 0 7.601563-3.402344 7.601563-7.601562 0-4.199219-3.402344-7.605469-7.601563-7.605469h-35.441406c-22.105469 0-40.085938-17.980469-40.085938-40.085938v-253.117187l178.460938 148.597656c18.054687 15.035156 40.175781 22.546875 62.304687 22.546875 22.121094 0 44.25-7.515625 62.292969-22.546875l178.46875-148.59375v253.113281c0 22.105469-17.980469 40.085938-40.085937 40.085938h-335.5c-4.199219 0-7.605469 3.40625-7.605469 7.605469 0 4.199218 3.40625 7.601562 7.605469 7.601562h335.5c30.488281 0 55.292968-24.804688 55.292968-55.292969v-269.109375c.070313-2.296875-.90625-4.550781-2.734375-6.074218zm0 0"/></svg>