<svg width="845" height="252" viewBox="0 0 845 252" fill="none" xmlns="http://www.w3.org/2000/svg">
<g clip-path="url(#clip0_1_15)">
<path d="M385.879 69.9061V37.0061H252V214.162H292.999V149.627H374.997V116.726H292.999V69.9061H385.879Z" fill="white"/>
<path d="M774.86 105.844C783.631 105.844 791.057 108.419 797.131 113.563C803.205 118.712 806.915 125.584 808.267 134.189H741.2C742.549 125.418 746.261 118.499 752.336 113.437C758.409 108.375 765.915 105.844 774.86 105.844ZM845.469 146.59C845.469 132.418 842.389 119.977 836.232 109.261C830.071 98.5485 821.593 90.3235 810.797 84.5855C799.997 78.8519 787.933 75.9812 774.607 75.9812C760.94 75.9812 748.579 78.9785 737.531 84.9652C726.479 90.9563 717.791 99.3079 711.464 110.02C705.136 120.737 701.973 132.758 701.973 146.084C701.973 159.584 705.176 171.645 711.591 182.275C718 192.904 727.111 201.216 738.923 207.203C750.731 213.193 764.313 216.187 779.668 216.187C804.3 216.187 823.028 208.848 835.852 194.169L814.847 171.392C810.121 175.948 805.016 179.281 799.534 181.389C794.05 183.5 787.767 184.552 780.681 184.552C770.388 184.552 761.783 182.108 754.867 177.213C747.947 172.321 743.561 165.658 741.707 157.219H844.709C845.216 150.64 845.469 147.096 845.469 146.59ZM623.52 216.187C636.847 216.187 648.361 214.372 658.065 210.746C667.767 207.12 675.149 202.015 680.211 195.434C685.272 188.855 687.803 181.349 687.803 172.911C687.803 162.957 685.185 155.195 679.957 149.627C674.725 144.059 668.569 140.223 661.483 138.112C654.396 136.004 645.285 134.023 634.149 132.165C624.193 130.646 616.94 129.045 612.385 127.356C607.829 125.672 605.552 122.718 605.552 118.499C605.552 114.789 607.66 111.752 611.879 109.388C616.095 107.027 622.421 105.844 630.86 105.844C645.032 105.844 658.105 109.222 670.087 115.967L683.247 87.8756C677.004 84.1663 669.115 81.2559 659.584 79.1439C650.051 77.0359 640.477 75.9812 630.86 75.9812C617.865 75.9812 606.604 77.8399 597.073 81.5492C587.54 85.262 580.283 90.4501 575.309 97.1131C570.331 103.78 567.843 111.412 567.843 120.017C567.843 130.31 570.5 138.239 575.815 143.806C581.129 149.374 587.413 153.257 594.669 155.448C601.921 157.643 611.12 159.584 622.255 161.269C631.701 162.451 638.705 163.887 643.261 165.571C647.816 167.26 650.093 170.044 650.093 173.923C650.093 182.192 641.743 186.324 625.039 186.324C616.771 186.324 608.336 185.103 599.731 182.655C591.127 180.211 583.787 177.046 577.713 173.164L564.553 201.509C570.963 205.728 579.568 209.228 590.367 212.012C601.163 214.796 612.215 216.187 623.52 216.187ZM501.537 78.0052V145.325C501.537 157.473 498.667 166.627 492.932 172.784C487.195 178.945 479.601 182.021 470.155 182.021C451.763 182.021 442.569 171.056 442.569 149.121V78.0052H403.088V154.942C403.088 175.188 408.316 190.46 418.78 200.749C429.239 211.042 443.411 216.187 461.297 216.187C469.732 216.187 477.577 214.625 484.833 211.505C492.085 208.385 498.329 203.873 503.561 197.965V214.163H541.017V78.0052H501.537Z" fill="white"/>
</g>
<path d="M190.161 122.339L60.5 252L61.8397 129.661L191.501 0L190.161 122.339Z" fill="#00AEEF"/>
<defs>
<clipPath id="clip0_1_15">
<rect width="593" height="179" fill="white" transform="translate(252 37)"/>
</clipPath>
</defs>
</svg>
