<svg width="126" height="54" viewBox="0 0 126 54" fill="none" xmlns="http://www.w3.org/2000/svg">
<g clip-path="url(#clip0_1_15)">
<path d="M109.22 53.3404C100.529 53.3404 93.4582 46.3105 93.4582 37.6697C93.4582 29.0285 100.529 21.9979 109.22 21.9979C117.911 21.9979 124.981 29.0285 124.981 37.6697C124.981 46.3105 117.911 53.3404 109.22 53.3404ZM109.22 28.8622C104.336 28.8622 100.362 32.8131 100.362 37.6697C100.362 42.5258 104.336 46.4765 109.22 46.4765C114.104 46.4765 118.078 42.5258 118.078 37.6697C118.078 32.8131 114.104 28.8622 109.22 28.8622Z" fill="white"/>
<path d="M90.6445 7.51306L83.7131 14.4045L83.7131 7.83097L90.6445 0.939529V7.51306Z" fill="#00AEEF"/>
<path d="M75.5785 53.3237C67.1397 53.3237 60.2734 46.5025 60.2643 38.1147V38.0979C60.2734 29.7101 67.1397 22.8885 75.5785 22.8885H80.2533V29.7528H75.5785C70.9435 29.7528 67.1724 33.4994 67.1681 38.1063C67.1724 42.7132 70.9435 46.4598 75.5785 46.4598C80.0644 46.4598 83.7141 42.8311 83.7141 38.3711V15.1671H90.6178V38.3711C90.6178 46.6161 83.8713 53.3237 75.5785 53.3237Z" fill="white"/>
<path d="M41.4077 22.061C36.4422 22.061 32.0094 24.3618 29.1235 27.9448C26.2372 24.3618 21.8044 22.061 16.8389 22.061C8.16181 22.061 1.10262 29.0792 1.10262 37.7059V52.588H8.00635V37.7059C8.00635 32.8641 11.9687 28.9253 16.8389 28.9253C21.709 28.9253 25.6714 32.8641 25.6714 37.7059V52.588H32.5755V37.7059C32.5755 32.8641 36.5375 28.9253 41.4077 28.9253C46.2782 28.9253 50.2406 32.8641 50.2406 37.7059V52.588H57.1443V37.7059C57.1443 29.0792 50.0848 22.061 41.4077 22.061Z" fill="white"/>
</g>
<defs>
<clipPath id="clip0_1_15">
<rect width="126" height="54" fill="white"/>
</clipPath>
</defs>
</svg>
