<?xml version="1.0" encoding="UTF-8" standalone="no"?>
<!DOCTYPE svg PUBLIC "-//W3C//DTD SVG 1.1//EN" "http://www.w3.org/Graphics/SVG/1.1/DTD/svg11.dtd">
<svg width="100%" height="100%" viewBox="0 0 800 345" version="1.1" xmlns="http://www.w3.org/2000/svg" xmlns:xlink="http://www.w3.org/1999/xlink" xml:space="preserve" xmlns:serif="http://www.serif.com/" style="fill-rule:evenodd;clip-rule:evenodd;stroke-linejoin:round;stroke-miterlimit:2;">
    <g transform="matrix(1,0,0,1,-1235.39,0)">
        <g id="MDO-logo-800" transform="matrix(0.703542,0,0,0.440326,1271.85,18.0661)">
            <rect x="-51.82" y="-41.029" width="1137.1" height="783.155" style="fill:none;"/>
            <g id="MDO-logo" serif:id="MDO logo" transform="matrix(0.772502,0,0,1.07527,-350.672,-263.62)">
                <g transform="matrix(3.94828,0,0,4.53215,1662.8,503.712)">
                    <path d="M0,93.275C-25.716,93.275 -46.637,72.354 -46.637,46.639C-46.637,20.923 -25.716,0 0,0C25.715,0 46.635,20.923 46.635,46.639C46.635,72.354 25.715,93.275 0,93.275M0,20.428C-14.452,20.428 -26.21,32.186 -26.21,46.639C-26.21,61.091 -14.452,72.848 0,72.848C14.451,72.848 26.208,61.091 26.208,46.639C26.208,32.186 14.451,20.428 0,20.428" style="fill:rgb(35,31,32);fill-rule:nonzero;"/>
                </g>
                <g transform="matrix(-2.79185,3.20471,2.79185,3.20471,1378,344.867)">
                    <path d="M-17.84,6.444L11.164,6.444L-2.669,-7.389L-31.673,-7.389L-17.84,6.444Z" style="fill:rgb(0,174,239);fill-rule:nonzero;"/>
                </g>
                <g transform="matrix(3.94828,0,0,4.53215,1269.79,411.578)">
                    <path d="M0,113.554C-24.969,113.554 -45.285,93.254 -45.312,68.292L-45.312,68.242C-45.285,43.28 -24.969,22.979 0,22.979L13.832,22.979L13.832,43.407L0,43.407C-13.714,43.407 -24.872,54.557 -24.885,68.267C-24.872,81.977 -13.714,93.127 0,93.127C13.273,93.127 24.072,82.328 24.072,69.055L24.072,0L44.499,0L44.499,69.055C44.499,93.592 24.537,113.554 0,113.554" style="fill:rgb(35,31,32);fill-rule:nonzero;"/>
                </g>
                <g transform="matrix(3.94828,0,0,4.53215,870.599,916.3)">
                    <path d="M0,-90.848C-14.692,-90.848 -27.808,-84.001 -36.347,-73.338C-44.887,-84.001 -58.003,-90.848 -72.695,-90.848C-98.369,-90.848 -119.256,-69.962 -119.256,-44.289L-119.256,0L-98.829,0L-98.829,-44.289C-98.829,-58.698 -87.105,-70.42 -72.695,-70.42C-58.285,-70.42 -46.561,-58.698 -46.561,-44.289L-46.561,0L-26.133,0L-26.133,-44.289C-26.133,-58.698 -14.41,-70.42 0,-70.42C14.411,-70.42 26.135,-58.698 26.135,-44.289L26.135,0L46.562,0L46.562,-44.289C46.562,-69.962 25.674,-90.848 0,-90.848" style="fill:rgb(35,31,32);fill-rule:nonzero;"/>
                </g>
            </g>
        </g>
    </g>
</svg>
