<?xml version="1.0" encoding="utf-8"?>
<!-- created with diagram-js -->
<!DOCTYPE svg PUBLIC "-//W3C//DTD SVG 1.1//EN" "http://www.w3.org/Graphics/SVG/1.1/DTD/svg11.dtd">
<svg xmlns="http://www.w3.org/2000/svg" xmlns:xlink="http://www.w3.org/1999/xlink" width="589" height="391" viewBox="234 -16 589 391" version="1.1"><defs><marker id="-white-black-bcftzmylok2wi29f0mfoptnag" viewBox="0 0 20 20" refX="11" refY="10" markerWidth="10" markerHeight="10" orient="auto"><path d="M 1 5 L 11 10 L 1 15 Z" style="stroke-width: 1px; stroke-linecap: round; stroke-dasharray: 10000, 1;"/></marker></defs><g class="djs-group"><g class="djs-element djs-connection" data-element-id="Link_Object_2669_to_Object_2840_type_components" style="display: block;"><g class="djs-visual"><path d="m  522,180L522,244 L339,244 L339,290 " style="fill: none; stroke-width: 2px; stroke: black; stroke-linejoin: round; marker-end: url('#-white-black-bcftzmylok2wi29f0mfoptnag');"/></g><polyline points="522,180 522,244 339,244 339,290 " class="djs-hit djs-hit-stroke" style="fill: none; stroke-opacity: 0; stroke: white; stroke-width: 15px;"/><rect x="333" y="174" rx="3" width="195" height="122" class="djs-outline" style="fill: none;"/></g></g><g class="djs-group"><g class="djs-element djs-connection" data-element-id="Link_Object_2669_to_Object_2839_type_components" style="display: block;"><g class="djs-visual"><path d="m  478,120L478,90 L339,90 L339,49 " style="fill: none; stroke-width: 2px; stroke: black; stroke-linejoin: round; marker-end: url('#-white-black-bcftzmylok2wi29f0mfoptnag');"/></g><polyline points="478,120 478,90 339,90 339,49 " class="djs-hit djs-hit-stroke" style="fill: none; stroke-opacity: 0; stroke: white; stroke-width: 15px;"/><rect x="333" y="43" rx="3" width="151" height="83" class="djs-outline" style="fill: none;"/></g></g><g class="djs-group"><g class="djs-element djs-connection" data-element-id="Link_Object_2669_to_Object_2838_type_components" style="display: block;"><g class="djs-visual"><path d="m  610,120L610,100 L719,100 L719,69 " style="fill: none; stroke-width: 2px; stroke: black; stroke-linejoin: round; marker-end: url('#-white-black-bcftzmylok2wi29f0mfoptnag');"/></g><polyline points="610,120 610,100 719,100 719,69 " class="djs-hit djs-hit-stroke" style="fill: none; stroke-opacity: 0; stroke: white; stroke-width: 15px;"/><rect x="604" y="63" rx="3" width="121" height="63" class="djs-outline" style="fill: none;"/></g></g><g class="djs-group"><g class="djs-element djs-connection" data-element-id="Link_Object_2669_to_Object_2837_type_components" style="display: block;"><g class="djs-visual"><path d="m  566,180L566,233.60000000000002 L699,233.60000000000002 L699,310 " style="fill: none; stroke-width: 2px; stroke: black; stroke-linejoin: round; marker-end: url('#-white-black-bcftzmylok2wi29f0mfoptnag');"/></g><polyline points="566,180 566,233.60000000000002 699,233.60000000000002 699,310 " class="djs-hit djs-hit-stroke" style="fill: none; stroke-opacity: 0; stroke: white; stroke-width: 15px;"/><rect x="560" y="174" rx="3" width="145" height="142" class="djs-outline" style="fill: none;"/></g></g><g class="djs-group"><g class="djs-element djs-shape" data-element-id="Object_2669" transform="matrix(1 0 0 1 434 120)" style="display: block;"><g class="djs-visual"><rect x="0" y="0" width="221" height="60" rx="0" ry="0" style="stroke: black; stroke-width: 2px; fill: white; fill-opacity: 0.35;"/><polyline points="0,30 221,30 " style="fill: none; stroke: black; stroke-width: 2px;"/><text lineHeight="1.2" class="djs-label" style="font-family: 'IBM Plex', sans-serif; font-size: 16px; font-weight: normal;"><tspan x="54.08984375" y="19.8">Material master</tspan></text></g><rect class="djs-hit djs-hit-all" x="0" y="0" width="221" height="60" style="fill: none; stroke-opacity: 0; stroke: white; stroke-width: 15px;"/><rect x="-6" y="-6" rx="3" width="233" height="72" class="djs-outline" style="fill: none;"/></g></g><g class="djs-group"><g class="djs-element djs-shape" data-element-id="Object_2839" transform="matrix(1 0 0 1 240 -10)" style="display: block;"><g class="djs-visual"><rect x="0" y="0" width="197" height="59" rx="0" ry="0" style="stroke: black; stroke-width: 2px; fill: white; fill-opacity: 0.35;"/><polyline points="0,30 197,30 " style="fill: none; stroke: black; stroke-width: 2px;"/><text lineHeight="1.2" class="djs-label" style="font-family: 'IBM Plex', sans-serif; font-size: 16px; font-weight: normal;"><tspan x="70.8828125" y="19.8">PO Text</tspan></text></g><rect class="djs-hit djs-hit-all" x="0" y="0" width="197" height="59" style="fill: none; stroke-opacity: 0; stroke: white; stroke-width: 15px;"/><rect x="-6" y="-6" rx="3" width="209" height="71" class="djs-outline" style="fill: none;"/></g></g><g class="djs-group"><g class="djs-element djs-shape" data-element-id="Object_2840" transform="matrix(1 0 0 1 240 290)" style="display: block;"><g class="djs-visual"><rect x="0" y="0" width="197" height="59" rx="0" ry="0" style="stroke: black; stroke-width: 2px; fill: white; fill-opacity: 0.35;"/><polyline points="0,30 197,30 " style="fill: none; stroke: black; stroke-width: 2px;"/><text lineHeight="1.2" class="djs-label" style="font-family: 'IBM Plex', sans-serif; font-size: 16px; font-weight: normal;"><tspan x="63.578125" y="19.8">Customer</tspan></text></g><rect class="djs-hit djs-hit-all" x="0" y="0" width="197" height="59" style="fill: none; stroke-opacity: 0; stroke: white; stroke-width: 15px;"/><rect x="-6" y="-6" rx="3" width="209" height="71" class="djs-outline" style="fill: none;"/></g></g><g class="djs-group"><g class="djs-element djs-shape" data-element-id="Object_2838" transform="matrix(1 0 0 1 620 10)" style="display: block;"><g class="djs-visual"><rect x="0" y="0" width="197" height="59" rx="0" ry="0" style="stroke: black; stroke-width: 2px; fill: white; fill-opacity: 0.35;"/><polyline points="0,30 197,30 " style="fill: none; stroke: black; stroke-width: 2px;"/><text lineHeight="1.2" class="djs-label" style="font-family: 'IBM Plex', sans-serif; font-size: 16px; font-weight: normal;"><tspan x="72.875" y="19.8">Vendor</tspan></text></g><rect class="djs-hit djs-hit-all" x="0" y="0" width="197" height="59" style="fill: none; stroke-opacity: 0; stroke: white; stroke-width: 15px;"/><rect x="-6" y="-6" rx="3" width="209" height="71" class="djs-outline" style="fill: none;"/></g></g><g class="djs-group"><g class="djs-element djs-shape" data-element-id="Object_2837" transform="matrix(1 0 0 1 600 310)" style="display: block;"><g class="djs-visual"><rect x="0" y="0" width="197" height="59" rx="0" ry="0" style="stroke: black; stroke-width: 2px; fill: white; fill-opacity: 0.35;"/><polyline points="0,30 197,30 " style="fill: none; stroke: black; stroke-width: 2px;"/><text lineHeight="1.2" class="djs-label" style="font-family: 'IBM Plex', sans-serif; font-size: 16px; font-weight: normal;"><tspan x="30.16015625" y="19.8">Functional location</tspan></text></g><rect class="djs-hit djs-hit-all" x="0" y="0" width="197" height="59" style="fill: none; stroke-opacity: 0; stroke: white; stroke-width: 15px;"/><rect x="-6" y="-6" rx="3" width="209" height="71" class="djs-outline" style="fill: none;"/></g></g></svg>