<svg width="512" height="512" viewBox="0 0 512 512" fill="none" xmlns="http://www.w3.org/2000/svg">
<path d="M363.714 216.56C367.667 216.56 370.901 219.794 370.901 223.746V309.983H457.137C461.089 309.983 464.323 313.216 464.323 317.169C464.323 321.121 461.089 324.355 457.137 324.355H370.901V410.591C370.901 414.544 367.667 417.778 363.714 417.778C359.762 417.778 356.528 414.544 356.528 410.591V324.355H270.292C266.339 324.355 263.105 321.121 263.105 317.169C263.105 313.216 266.339 309.983 270.292 309.983H356.528V223.746C356.528 219.794 359.762 216.56 363.714 216.56Z" fill="url(#paint0_linear_53_78)"/>
<path d="M320.596 15.3424C304.696 15.3424 291.851 28.188 291.851 44.0878V130.324C291.851 146.224 304.696 159.069 320.596 159.069H406.832C422.732 159.069 435.578 146.224 435.578 130.324V44.0878C435.578 28.188 422.732 15.3424 406.832 15.3424H320.596ZM277.478 44.0878C277.478 20.283 296.791 0.969696 320.596 0.969696H406.832C430.637 0.969696 449.95 20.283 449.95 44.0878V130.324C449.95 154.129 430.637 173.442 406.832 173.442H320.596C296.791 173.442 277.478 154.129 277.478 130.324V44.0878Z" fill="url(#paint1_linear_53_78)"/>
<path d="M176.869 245.305H90.6332C74.7334 245.305 61.8878 258.151 61.8878 274.051V360.287C61.8878 376.187 74.7334 389.032 90.6332 389.032H176.869C192.769 389.032 205.615 376.187 205.615 360.287V274.051C205.615 258.151 192.769 245.305 176.869 245.305ZM90.6332 230.933H176.869C200.674 230.933 219.987 250.246 219.987 274.051V360.287C219.987 384.092 200.674 403.405 176.869 403.405H90.6332C66.8284 403.405 47.5151 384.092 47.5151 360.287V274.051C47.5151 250.246 66.8284 230.933 90.6332 230.933Z" fill="url(#paint2_linear_53_78)"/>
<path d="M176.869 15.3424H90.6332C74.7334 15.3424 61.8878 28.188 61.8878 44.0878V130.324C61.8878 146.224 74.7334 159.069 90.6332 159.069H176.869C192.769 159.069 205.615 146.224 205.615 130.324V44.0878C205.615 28.188 192.769 15.3424 176.869 15.3424ZM90.6332 0.969696H176.869C200.674 0.969696 219.987 20.283 219.987 44.0878V130.324C219.987 154.129 200.674 173.442 176.869 173.442H90.6332C66.8284 173.442 47.5151 154.129 47.5151 130.324V44.0878C47.5151 20.283 66.8284 0.969696 90.6332 0.969696Z" fill="url(#paint3_linear_53_78)"/>
<defs>
<linearGradient id="paint0_linear_53_78" x1="363.714" y1="216.56" x2="363.714" y2="417.778" gradientUnits="userSpaceOnUse">
<stop stop-color="#A759EE"/>
<stop offset="1" stop-color="#FDA85E"/>
</linearGradient>
<linearGradient id="paint1_linear_53_78" x1="363.714" y1="0.969696" x2="363.714" y2="173.442" gradientUnits="userSpaceOnUse">
<stop stop-color="#A759EE"/>
<stop offset="1" stop-color="#FDA85E"/>
</linearGradient>
<linearGradient id="paint2_linear_53_78" x1="133.751" y1="230.933" x2="133.751" y2="403.405" gradientUnits="userSpaceOnUse">
<stop stop-color="#A759EE"/>
<stop offset="1" stop-color="#FDA85E"/>
</linearGradient>
<linearGradient id="paint3_linear_53_78" x1="133.751" y1="0.969696" x2="133.751" y2="173.442" gradientUnits="userSpaceOnUse">
<stop stop-color="#A759EE"/>
<stop offset="1" stop-color="#FDA85E"/>
</linearGradient>
</defs>
</svg>
