<?xml version="1.0" encoding="UTF-8" standalone="no"?>
<!-- Created with Inkscape (http://www.inkscape.org/) -->

<svg
   width="13.003038mm"
   height="9.5900335mm"
   viewBox="0 0 13.003038 9.5900331"
   version="1.1"
   id="svg23997"
   inkscape:version="1.2 (dc2aeda, 2022-05-15)"
   sodipodi:docname="page_check.svg"
   xml:space="preserve"
   xmlns:inkscape="http://www.inkscape.org/namespaces/inkscape"
   xmlns:sodipodi="http://sodipodi.sourceforge.net/DTD/sodipodi-0.dtd"
   xmlns="http://www.w3.org/2000/svg"
   xmlns:svg="http://www.w3.org/2000/svg"><sodipodi:namedview
     id="namedview23999"
     pagecolor="#ffffff"
     bordercolor="#666666"
     borderopacity="1.0"
     inkscape:showpageshadow="2"
     inkscape:pageopacity="0.0"
     inkscape:pagecheckerboard="0"
     inkscape:deskcolor="#d1d1d1"
     inkscape:document-units="mm"
     showgrid="false"
     inkscape:zoom="11.420324"
     inkscape:cx="23.248027"
     inkscape:cy="19.876844"
     inkscape:window-width="1920"
     inkscape:window-height="942"
     inkscape:window-x="0"
     inkscape:window-y="25"
     inkscape:window-maximized="0"
     inkscape:current-layer="layer1" /><defs
     id="defs23994" /><g
     inkscape:label="Layer 1"
     inkscape:groupmode="layer"
     id="layer1"
     transform="translate(-23.013312,19.576051)"><g
       id="g36552"
       transform="matrix(0.00813867,0,0,0.00813867,30.167863,-13.696896)"
       style="fill:#34b5cf;fill-opacity:1">
	
</g><g
       id="g10867"
       transform="matrix(1.4744174,0,0,1.4744174,-14.331997,4.8853703)"><path
         d="m 28.483727,-13.440512 -1.13237,-2.667201 c -0.05991,-0.140265 -0.290177,-0.140265 -0.350189,0 l -1.132368,2.667201 c -0.04148,0.09655 0.0033,0.208612 0.100087,0.25005 0.09618,0.04167 0.208613,-0.003 0.239334,-0.100088 l 0.266529,-0.646486 h 1.381228 l 0.27708,0.646558 c 0.03156,0.07263 0.101812,0.115502 0.17563,0.115502 0.02511,0 0.05061,-0.0048 0.07498,-0.01544 0.09649,-0.04171 0.14173,-0.153638 0.100049,-0.250086 z m -1.845726,-0.877557 0.527605,-1.231198 0.527487,1.231198 z m 2.432748,1.143085 h 1.227626 c 0.472714,0 0.846597,-0.384601 0.846597,-0.857314 0,-0.369479 -0.234928,-0.685255 -0.563564,-0.805399 0.136098,-0.145981 0.203969,-0.329112 0.203969,-0.5282 0,-0.472713 -0.384601,-0.857314 -0.846598,-0.857314 h -0.86803 c -0.104788,0 -0.190514,0.08521 -0.190514,0.190514 v 2.667199 c 0,0.104788 0.08573,0.190514 0.190514,0.190514 z m 0.190515,-2.667198 h 0.656082 c 0.262672,0 0.46557,0.213613 0.46557,0.476285 0,0.262671 -0.191704,0.476286 -0.454853,0.476286 H 29.27198 v -0.952571 z m 0,1.333599 h 1.037111 c 0.262672,0 0.46557,0.213614 0.46557,0.476285 0,0.262672 -0.191705,0.476287 -0.454853,0.476287 H 29.27198 v -0.952572 z"
         id="path22883"
         style="fill:#707a83;fill-opacity:1;stroke:#707a83;stroke-width:0.0119072;stroke-opacity:1"
         sodipodi:nodetypes="cccccccccscccccccssscsssssscsssccccsssccc" /><path
         d="m 33.319416,-13.151937 -2.002742,2.002744 -1.036627,-1.036627 -0.341195,0.341196 1.377822,1.378062 2.344178,-2.343937 z"
         fill-rule="evenodd"
         id="path31644"
         style="fill:#34b5cf;fill-opacity:1;stroke-width:0.00193856" /></g></g></svg>
