<svg width="262" height="251" viewBox="0 0 262 251" fill="none" xmlns="http://www.w3.org/2000/svg">
<rect width="262" height="251" fill="white"/>
<path d="M3 2C3.15571 88.9713 3.13882 137.733 3 224.704V245.367C91.8243 249.636 141.584 249.264 230.335 248.582C231.651 153.441 231.192 99.5478 227.331 2H3Z" fill="white"/>
<path d="M74.5 118H196M3 224.704C3.13882 137.733 3.15571 88.9713 3 2H227.331C231.192 99.5478 231.651 153.441 230.335 248.582C141.584 249.264 91.8243 249.636 3 245.367V224.704Z" stroke="#797979" stroke-width="3"/>
<path d="M39 150H116" stroke="#797979" stroke-width="3"/>
<path d="M37.5 185H191" stroke="#797979" stroke-width="3"/>
<path d="M134 109H196" stroke="#FFE8CC" stroke-width="10"/>
<path d="M69 141H116" stroke="#FFE8CC" stroke-width="10"/>
<path d="M127 176H191" stroke="#FFE8CC" stroke-width="10"/>
<path d="M87 73.5995C91.3845 65.3943 95 61.0996 105.5 60.0995C116 59.0994 118.099 65.7811 121 73.5995C128.117 66.0768 134.068 63.1374 138.5 63.5995C138.624 63.1539 148.774 67.3015 153 73.5995C167.279 66.4218 176.305 65.4677 194 68.5995" stroke="#797979" stroke-width="3"/>
<path d="M75.0853 69.5C75.0853 82.993 63.9118 94 50.0427 94C36.1736 94 25 82.993 25 69.5C25 56.007 36.1736 45 50.0427 45C63.9118 45 75.0853 56.007 75.0853 69.5Z" fill="white" stroke="#797979" stroke-width="3"/>
<path d="M58.2628 64.7014C58.2628 68.9241 54.8025 72.3789 50.4948 72.3789C46.1872 72.3789 42.7269 68.9241 42.7269 64.7014C42.7269 60.4787 46.1872 57.0239 50.4948 57.0239C54.8025 57.0239 58.2628 60.4787 58.2628 64.7014Z" fill="#D0EBFF" stroke="#797979" stroke-width="3"/>
<path d="M49.233 95C43.4596 94.5404 40.3472 93.1347 35 88.5127C36.6013 84.278 37.9458 82.3988 41.2216 80.0152C43.9201 78.1515 45.7461 77.4296 49.8295 77C54.8994 77.2251 56.9305 78.2828 59.9716 80.8376C62.8348 83.602 63.7753 85.3238 65 88.5127C59.6882 93.3112 56.288 94.8704 49.233 95Z" fill="#D0EBFF" stroke="#797979" stroke-width="3"/>
<path d="M178 236.556L180 217.556C204.691 192.471 239.736 157.149 243.5 156.056C247.264 154.963 259.732 170.223 259 172.056C258.268 173.889 197 235.056 197 235.056L178 236.556Z" fill="white" stroke="#797979" stroke-width="3"/>
<path d="M245 186.555L229 168.555L236.5 161.555L243.5 156.055C250.412 158.974 254.102 163.952 259 172.055C253.822 177.65 250.748 180.814 245 186.555Z" fill="#D0EBFF" stroke="#797979" stroke-width="3"/>
<path d="M178 236.555L179 227.055C182.533 230.004 184.393 232.076 187 235.555L178 236.555Z" fill="#797979"/>
</svg>
