<?xml version="1.0" encoding="iso-8859-1"?>
<!-- Generator: Adobe Illustrator 19.0.0, SVG Export Plug-In . SVG Version: 6.00 Build 0)  -->
<svg version="1.1" id="Capa_1" xmlns="http://www.w3.org/2000/svg" xmlns:xlink="http://www.w3.org/1999/xlink" x="0px" y="0px"
	 viewBox="0 0 50.773 50.773" style="enable-background:new 0 0 50.773 50.773;" xml:space="preserve">
<g>
	<path d="M50.427,25.935L39.62,16.601c-0.297-0.256-0.715-0.315-1.07-0.152c-0.356,0.163-0.584,0.518-0.584,0.909v8.39H2v-11
		c0-0.552-0.448-1-1-1s-1,0.448-1,1v13h37.966v8.277c0,0.391,0.228,0.747,0.584,0.909c0.133,0.061,0.275,0.091,0.416,0.091
		c0.235,0,0.468-0.083,0.654-0.243l10.807-9.334c0.22-0.19,0.346-0.466,0.346-0.757S50.647,26.125,50.427,25.935z M39.966,33.84
		v-6.925C39.976,26.859,40,26.807,40,26.748s-0.024-0.111-0.034-0.167v-7.038l8.277,7.148L39.966,33.84z"/>
</g>
<g>
</g>
<g>
</g>
<g>
</g>
<g>
</g>
<g>
</g>
<g>
</g>
<g>
</g>
<g>
</g>
<g>
</g>
<g>
</g>
<g>
</g>
<g>
</g>
<g>
</g>
<g>
</g>
<g>
</g>
</svg>
