<svg version="1.1" viewBox="0.0 0.0 1280.0 720.0" fill="none" stroke="none" stroke-linecap="square" stroke-miterlimit="10" xmlns:xlink="http://www.w3.org/1999/xlink" xmlns="http://www.w3.org/2000/svg"><clipPath id="p2.0"><path d="m0 0l1280.0 0l0 720.0l-1280.0 0l0 -720.0z" clip-rule="nonzero"/></clipPath><g clip-path="url(#p2.0)"><path fill="#ffffff" d="m0 0l1280.0 0l0 720.0l-1280.0 0z" fill-rule="evenodd"/><path fill="#282f39" d="m1282.6548 288.53754c8.027344 22.166138 15.731567 43.439667 23.489624 64.86197c-1.8966064 0.85513306 -3.5893555 1.804718 -5.3898926 2.4567566c-35.10913 12.714722 -70.31445 25.632568 -105.62756 38.25287c-61.720093 22.183533 -133.36658 -3.194275 -166.68518 -59.111816c-4.8829956 -8.328247 -8.97345 -17.28006 -12.409851 -26.300446c-19.760681 -54.09648 -39.221252 -108.301636 -58.981934 -162.39812c-8.189026 -22.612427 -23.82965 -38.151085 -47.283325 -44.8023c-27.616516 -7.836067 -52.22699 -1.2792969 -71.773254 19.261482c-19.696228 20.595108 -25.326477 45.351456 -15.778931 72.18367c19.160522 54.313828 39.071228 108.35597 58.5318 162.56111c4.794922 13.240173 10.447754 26.506195 13.688416 40.14096c13.147339 55.986664 -1.7719727 104.30023 -45.33142 141.95123c-67.34155 58.211243 -168.89618 39.28943 -213.18512 -35.204315c-5.356262 -9.166504 -9.673828 -19.21402 -13.487366 -29.275787c-19.437439 -53.203857 -38.478577 -106.71951 -57.96991 -160.07217c-11.259949 -31.092102 -41.951416 -49.762238 -75.19931 -45.967102c-41.90036 4.740967 -70.95523 45.889526 -61.19104 86.441956c0.8428955 3.7333984 1.8358154 7.412445 3.1288147 10.982849c19.018005 52.514374 38.089874 105.17755 57.10788 157.69193c20.52649 56.67981 -0.11975098 123.39026 -49.323364 159.04663c-67.003815 48.83374 -159.03241 31.846985 -203.60175 -37.328674c-6.1180267 -9.395508 -10.489456 -19.591736 -14.164566 -30.208496c-7.0692444 -19.988953 -14.534744 -39.666138 -21.700165 -59.452026c-12.445206 -34.36493 -24.890411 -68.72989 -37.28174 -102.946075c-11.679367 -31.781586 -42.62863 -50.694916 -76.31507 -46.236145c-7.14048 0.9031372 -14.15004 3.105072 -20.90181 5.550232c-32.51624 11.439148 -64.87086 23.324585 -97.27934 35.06125c-2.1005516 0.76071167 -4.201103 1.5214233 -6.75177 2.44516c-3.501896 -9.6698 -6.788292 -18.744507 -10.128563 -27.968018c2.893036 -1.3842468 5.4859924 -2.659851 8.379028 -4.044098c-0.8081322 -2.2315063 -1.5623856 -4.314209 -2.4782677 -6.843231c-2.9046211 0.88360596 -5.6053276 1.8616638 -8.863907 2.7052002c-3.448021 -9.521027 -6.842167 -18.89328 -10.397938 -28.711823c1.7465935 -0.80081177 3.1392365 -1.6416931 4.6396294 -2.1850586c35.709354 -12.932098 71.2148 -25.958588 106.82799 -38.68756c63.47821 -22.483704 136.73685 5.002655 168.80539 63.560547c4.475128 8.139404 8.403976 16.644897 11.528748 25.273315c19.59903 53.650208 39.401978 107.394775 58.40085 161.26233c9.936249 28.374207 41.097534 52.09076 78.631134 46.070496c40.14972 -6.2945557 67.800354 -47.102844 58.124786 -86.00464c-1.2854614 -5.4241333 -3.0210571 -10.685303 -4.852844 -15.743347c-18.155975 -50.134125 -36.365845 -100.41702 -54.52182 -150.55115c-12.164246 -33.120483 -12.124908 -66.28528 0.98757935 -98.967896c16.389557 -41.44185 46.1958 -69.73692 88.69168 -83.61224c64.07086 -20.84726 134.875 7.359726 166.84735 66.1207c3.6901855 6.9091797 6.630127 14.090057 9.323914 21.52835c19.221924 52.608795 38.19763 105.47507 57.323364 158.28699c3.1247559 8.628418 6.9035645 17.188263 12.771301 24.486786c20.731567 26.315735 55.97345 34.587555 87.11212 20.281769c28.941895 -13.34198 45.582336 -46.1243 39.14685 -77.95389c-0.9854126 -5.532837 -2.624878 -10.99707 -4.564392 -16.352661c-22.034973 -60.845276 -44.72406 -121.62198 -66.158875 -182.6846c-18.017578 -50.689102 -9.069153 -97.68174 25.529663 -138.98697c61.342224 -73.371155 179.02008 -63.822147 227.76093 17.809753c5.086914 8.422691 9.231262 17.523262 12.571533 26.746758c19.491272 53.35264 38.83246 106.759636 57.969788 160.07217c5.8186035 16.066742 15.149414 29.17871 29.781494 38.18329c18.625732 11.596863 38.75879 14.234039 59.895264 7.9257507c3.0546875 -0.93795776 6.05542 -2.0246887 9.056152 -3.1114197c32.258545 -11.682343 64.36694 -23.310364 96.62537 -34.992706c2.100586 -0.76071167 4.3511963 -1.5757446 6.9018555 -2.4994812zm-34.436035 54.87671c6.45166 -2.3364563 12.003174 -4.346924 18.00476 -6.5203857c-0.38879395 -1.5419922 -0.6158447 -2.6376953 -1.046875 -3.8278198c-0.3232422 -0.8925781 -1.0004883 -1.8252869 -1.5814209 -2.9610596c-6.001587 2.173462 -11.703125 4.23822 -17.854736 6.466034c0.91589355 2.5290222 1.6162109 4.462982 2.4782715 6.843231zm-20.68689 -0.41729736c-6.1516113 2.2278137 -12.153198 4.4012756 -18.154785 6.574707c0.86206055 2.3802795 1.5623779 4.3142395 2.4244385 6.6944885c6.1516113 -2.2278137 12.003174 -4.346924 18.154785 -6.574707c-0.75427246 -2.0827332 -1.5085449 -4.1654663 -2.4244385 -6.6944885zm-1197.7145 39.309326c-6.1516113 2.2277832 -11.703066 4.23822 -17.5546 6.357361c0.91588116 2.5290222 1.6701355 4.6117554 2.5321407 6.9920044c6.0015726 -2.173462 11.703065 -4.2382507 17.5546 -6.357361c-0.9158802 -2.5290222 -1.6701355 -4.6117554 -2.5321407 -6.9920044zm775.1644 146.867c-1.2159424 -2.4203491 -2.3241577 -4.543213 -3.3900757 -7.0178833c-3.3008423 1.1954346 -6.001587 2.173462 -8.852295 3.2058716c-2.850769 1.0323486 -5.701538 2.0647583 -8.7022705 3.1514893c1.0774536 2.9753418 1.8317261 5.0580444 2.8015137 7.73584c3.600891 -1.3040771 6.805603 -2.2963867 9.902588 -3.5861816c2.5506592 -0.9237671 4.9935913 -2.1450195 8.24054 -3.4891357zm0.10449219 -294.0175c-2.0165405 -6.505615 -3.817627 -12.416153 -5.7264404 -18.624237c-2.850769 1.0323944 -4.8012695 1.7387695 -7.501953 2.7168274c2.1011353 5.8018646 4.1483765 11.454971 6.3573 17.554382c1.9082031 -0.35450745 4.062622 -0.9664459 6.8710938 -1.6469727zm237.81653 46.982117c2.8391113 -1.53302 4.831909 -2.5912476 7.124878 -3.7581787c-2.4552002 -5.8419495 -4.748657 -11.23764 -7.1497803 -16.930817c-2.5506592 0.92370605 -4.651245 1.6844177 -7.501953 2.7168274c2.5089111 5.9907227 4.856201 11.535156 7.5268555 17.972168zm-674.0627 399.43015c6.7210693 -1.5926514 12.84198 -2.9678955 19.413025 -4.5062256c-0.7235718 -2.9352417 -1.3277893 -5.0722656 -2.093628 -7.6556396c-6.270935 1.4296265 -12.187927 2.899353 -18.404999 4.477722c0.41189575 2.543274 0.6621399 4.640259 1.0856018 7.684143zm557.08673 -605.2758c6.0635376 2.6841202 11.515381 5.0849457 17.27887 7.877739c1.1116943 -2.0853577 2.1271973 -3.9676208 3.335022 -6.2560806c-5.979004 -3.3878555 -11.400085 -6.6411896 -17.890625 -8.161034c-1.0039062 2.3828964 -1.7193604 4.156479 -2.7232666 6.5393753zm-455.62027 498.35846c-0.16220093 -7.00885 1.3491821 -13.614197 -1.9331665 -20.334473c-2.4544983 0.72058105 -4.458893 1.2781982 -6.3132324 1.7814941c0.24679565 6.3051147 0.4281311 11.960876 0.7171936 17.914185c2.3276367 0.33496094 4.5475464 0.37243652 7.5292053 0.63879395zm259.55704 -44.356445c-6.3636475 -2.5754395 -11.911621 -4.7731934 -17.813538 -7.0109863c-1.1000977 2.5859985 -2.0617676 4.6170044 -3.0117798 7.1486816c6.3636475 2.5754395 12.11554 4.8676147 18.425293 7.2942505c0.84228516 -2.8291626 1.6000366 -4.95459 2.4000244 -7.431946zm-291.19846 115.385376c4.366211 -5.283325 8.486206 -10.309204 12.702362 -15.538147c-2.6624756 -1.7282104 -4.4554443 -2.9299316 -6.5061646 -4.374878c-4.119995 5.025879 -7.84375 9.739929 -11.867584 14.562683c1.8045349 1.7023926 3.5552063 3.2559814 5.6713867 5.350342zm-315.16705 -270.88022c6.10585 2.3322449 11.59996 4.381195 17.351852 6.6733704c1.1539764 -2.4372253 2.3195343 -4.3738403 3.719696 -7.0684814c-6.513687 -2.5211182 -12.415619 -4.7589417 -18.875427 -7.1312866c-0.88459015 3.1810608 -1.4922714 5.2521667 -2.1961212 7.5263977zm127.21109 220.98605c2.9706726 6.328369 4.525528 12.496338 8.427139 17.64618c2.389038 -1.3699951 4.2318115 -2.3739014 6.5246887 -3.5408325c-2.8090515 -5.88208 -5.360321 -11.520935 -8.019318 -17.457336c-2.5929565 1.2755737 -4.4895935 2.1307373 -6.9325104 3.3519897zm156.07176 73.38861c5.9129333 -3.8241577 11.183411 -7.0790405 17.000183 -10.700073c-1.9238586 -2.5005493 -3.3744507 -4.162781 -4.93277 -6.1226196c-5.516693 3.512329 -10.487091 6.6586304 -15.907623 9.967834c1.2159424 2.4203491 2.366455 4.191284 3.84021 6.8548584zm747.9968 -303.53146c-6.605713 0.03640747 -12.353638 0.09863281 -18.551514 0.32391357c-0.1459961 2.408722 -0.34594727 4.668701 -0.6419678 7.131775c6.929077 0.8562012 13.396484 1.3747864 20.105957 -0.71850586c-0.35803223 -2.3945007 -0.55444336 -4.342682 -0.9124756 -6.7371826zm-904.59753 209.46811c-2.7667542 -6.2339478 -5.0602264 -11.629639 -7.6653595 -17.417236c-2.7006989 0.97802734 -4.7473755 1.8875122 -7.244171 2.960022c3.4207916 6.165344 4.17157 12.456238 8.12706 17.754822c2.4429169 -1.2212524 4.339554 -2.076355 6.7824707 -3.2976074zm446.32593 -61.006653c-5.390381 -4.105835 -10.115173 -7.779602 -14.89386 -11.602142c-1.9696655 2.0595093 -3.3930054 3.7528992 -5.2125854 5.758087c5.2942505 4.308899 10.222961 8.077148 15.313293 12.291626c1.8618774 -2.3569946 3.0813599 -4.1448364 4.793152 -6.447571zm368.95984 -200.59235c-2.862915 -6.0308228 -5.3602295 -11.520935 -8.1154785 -17.254211c-2.496704 1.0724792 -4.543457 1.9819641 -7.040161 3.0544434c2.7667236 6.233917 5.317993 11.872803 8.180908 17.903625c2.5390625 -1.4243774 4.381836 -2.4282837 6.9747314 -3.7038574zm-605.5956 278.7171c-2.123108 6.3220215 -3.9577637 12.03479 -5.8885803 17.950562c2.5431519 0.9300537 4.528412 1.7255859 7.0176697 2.506897c2.4771118 -6.2819214 5.3197327 -12.023132 5.7692566 -18.748718c-2.2853394 -0.68688965 -4.3128967 -1.1305542 -6.898346 -1.7087402zm195.92407 -117.90277c2.6705933 6.437042 5.0717773 12.130249 7.838562 18.364166c2.635254 -1.6274719 4.4241333 -2.7801208 6.0629883 -3.878479c-2.1550293 -5.9506226 -4.1484375 -11.454956 -6.2495728 -17.256836c-2.5506592 0.92370605 -4.651184 1.6844177 -7.6519775 2.7711487zm-341.29126 188.88947c-5.6250305 -3.3477783 -10.6922 -6.561035 -16.113312 -9.814331c-1.4117737 2.1940308 -2.727356 4.1849365 -4.4391785 6.487671c6.032837 3.536621 11.507843 6.9387207 17.44455 10.678406c1.346283 -2.8433838 2.007843 -4.765747 3.1079407 -7.3517456zm858.1101 -302.68582c1.0775146 2.9753113 1.8317871 5.0580444 2.6937256 7.4382935c6.163208 -1.7271423 11.82251 -3.4400635 18.081787 -5.370331c-0.76586914 -2.5833435 -1.3699951 -4.7204285 -2.1896973 -7.452545c-6.2593994 1.9302673 -11.972534 3.4944153 -18.585815 5.3845825zm-759.27814 -94.56467c-4.2045593 5.7296143 -7.9706116 10.795563 -12.07901 16.322052c2.908661 1.4707947 4.851654 2.618164 6.794647 3.765564c3.9160767 -5.12027 7.435913 -9.9288025 11.105774 -14.7916565c-1.8045349 -1.7023621 -3.3512573 -3.1615295 -5.821411 -5.2959595zm-15.392517 91.05902c-1.3625488 -6.574188 -2.401825 -12.255798 -3.6027222 -18.383698c-2.466095 0.22000122 -4.782135 0.38565063 -7.4521484 0.51119995c0.5161743 7.0489807 1.5670471 13.231201 3.8298035 19.47937c2.5083618 -0.5718384 4.5666504 -0.9806824 7.225067 -1.6068726zm-241.38725 34.07422c4.6402283 4.3775024 8.818741 8.417389 13.458954 12.794922c2.0234985 -1.9107361 3.6507568 -3.5097046 5.824295 -5.4747925c-5.155792 -4.863922 -9.742142 -9.092682 -14.586273 -13.564606c-1.9580383 2.5601196 -3.3274994 4.4022827 -4.6969757 6.2444763zm419.11542 -131.92526c-2.2697144 2.1681824 -3.8969727 3.7671509 -5.6203613 5.569214c3.9439087 4.7979736 7.576111 9.2039795 11.627747 14.299469c2.0350952 -1.4100952 4.0701904 -2.820221 6.501526 -4.5420837c-4.3094482 -5.3387146 -8.30719 -10.285431 -12.508911 -15.326599zm257.13654 -179.44757c-5.6012573 4.2160873 -11.483459 7.1877136 -15.645752 12.565445c1.8583984 1.8511353 3.4589844 3.4590683 5.0596313 5.067009c5.0549927 -3.8499756 9.713745 -7.388176 14.768738 -11.238159c-1.4621582 -2.1629028 -2.666565 -4.0826187 -4.182617 -6.3942947zm-29.702515 26.23819c-3.6890259 6.215996 -6.993347 11.6195755 -10.693909 17.33493c2.9086914 1.4707794 4.8516846 2.6181717 6.944702 3.711235c3.6466675 -5.8641205 6.704834 -11.010262 10.063049 -16.265076c-2.0507812 -1.444931 -3.6936646 -2.7009964 -6.313843 -4.78109zm-20.803223 75.18115c1.4702759 6.8717194 2.821167 12.945267 4.226013 19.167587c2.958496 -0.734848 5.166809 -1.1980286 7.4712524 -1.8643188c-1.3086548 -6.425415 -2.5518188 -12.201447 -3.7527466 -18.32933c-2.7661743 0.3286438 -4.7282715 0.5343933 -7.944519 1.026062zm-279.45032 56.440796c6.5751038 0.8161011 12.442261 1.5520172 18.813416 2.273697c0.3922119 -2.6661835 0.74212646 -4.9804993 1.2420654 -7.3491516c-6.7905884 -1.4111633 -13.023346 -2.6878052 -19.917603 -2.042099c0.057922363 2.5031738 -0.045776367 4.5600433 -0.13787842 7.1175537zm-36.956604 4.801651c6.324829 -1.2808685 12.14566 -2.5474854 18.47049 -3.828354c-0.26184082 -2.5975952 -0.565979 -4.8433228 -0.9355774 -7.7384644c-6.7749634 1.4438782 -12.799713 2.6160583 -19.424591 4.0056c0.66967773 2.7864532 1.2738953 4.923523 1.889679 7.5612183zm615.7716 106.48543c2.1619873 -2.4656982 3.6813965 -4.362213 5.1047363 -6.055603c-4.447876 -4.783722 -8.476318 -8.87796 -12.762573 -13.215393c-2.1312256 1.6132202 -3.812378 3.0634155 -6.1898193 4.934082c4.855713 4.9725647 9.141968 9.309998 13.847656 14.336914zm19.837036 5.1002502c-1.0155029 1.8822632 -2.1810303 3.8188477 -3.8273926 6.7709656c6.267456 2.778534 12.073242 5.2194824 18.340698 7.9980164c0.9923096 -2.8835144 1.8461914 -5.2120667 2.604004 -7.3375244c-6.0097656 -2.5353699 -11.107666 -4.8960876 -17.11731 -7.4314575zm-297.26172 -98.65457c2.3166504 6.396942 4.3638916 12.050049 6.572815 18.149445c2.4967651 -1.0724792 4.543457 -1.9819641 6.8901978 -3.000122c-2.5628662 -6.139496 -3.7099 -12.118622 -7.0113525 -17.485794c-2.2505493 0.8150482 -4.20105 1.5214233 -6.45166 2.3364716zm-530.873 371.63785c-2.0889587 1.2613525 -4.124054 2.6714478 -6.759308 4.298889c4.363312 5.487488 8.361084 10.434204 12.466614 15.678467c2.2697144 -2.168213 3.8969727 -3.7671509 5.470337 -5.5148926c-3.7938538 -4.852295 -7.3299255 -9.461426 -11.177643 -14.462463zm584.91113 -209.30042c3.0123901 -0.5860901 5.0706177 -0.9949341 7.5789795 -1.5667725c-1.1585693 -6.479767 -2.359497 -12.607666 -3.722046 -19.181854c-2.7545776 0.82928467 -4.9089966 1.4412231 -7.567383 2.0674133c1.2547607 6.2766724 2.3479004 12.107025 3.7104492 18.681213zm-425.43948 -158.75449c5.570587 -3.3635712 10.594879 -6.3610535 16.015411 -9.670303c-1.1621094 -2.271576 -2.0125122 -4.1511993 -3.228485 -6.5715485c-6.440094 2.8370972 -12.118408 5.9031525 -17.054077 10.5513c1.5583496 1.9598083 2.6549683 3.5820007 4.267151 5.6905518zm385.3478 254.71957c1.5698853 2.4604492 2.8704224 4.177063 4.536499 6.4344482c5.3974 -4.310547 10.302307 -8.106201 15.549683 -12.362366c-2.170105 -2.243103 -3.716858 -3.7022705 -5.425232 -5.6077576c-5.0010986 3.9987488 -9.509827 7.4826355 -14.66095 11.535675zm-408.6234 -120.75583c-2.2088928 -6.0993958 -4.2561646 -11.752502 -6.4650574 -17.851898c-2.3044434 0.6662903 -4.308838 1.223877 -7.1173096 1.904419c2.2204895 6.6000366 3.9253845 12.713684 6.9383545 18.690155c2.4967957 -1.0724792 4.2433777 -1.873291 6.6440125 -2.7426758zm41.652588 106.57974c-2.6705933 -6.4370117 -3.967682 -12.361816 -7.473053 -17.823425c-2.742981 1.3299255 -4.639618 2.185089 -6.986389 3.2032166c2.5628662 6.139496 4.910187 11.683929 7.257538 17.228363c2.5506592 -0.92370605 4.50119 -1.6300964 7.2019043 -2.6081543zm-50.95572 -196.9408c-2.4892883 -0.78131104 -4.6246033 -1.5224915 -7.5216675 -2.4926453c-1.661438 6.659668 -3.1844177 12.764343 -4.99588 19.478333c3.1855774 0.36083984 5.363159 0.7501526 7.840851 1.0307922c1.5768433 -5.955902 3.1114197 -11.559937 4.676697 -18.01648zm459.34714 133.34924c-0.557251 6.42807 -0.9760742 12.301147 -1.5333862 18.729218c2.777771 0.17196655 5.1054077 0.506958 7.8831787 0.6789551c0.44952393 -6.7256165 0.9645386 -12.801788 1.3601685 -19.676147c-3.0239868 0.08544922 -5.1900024 0.19677734 -7.709961 0.26797485zm-242.28705 -89.78821c-2.2627563 -6.248169 -4.2561646 -11.752533 -6.3573 -17.554382c-2.4006348 0.86938477 -4.651184 1.6844177 -7.3519287 2.6624756c1.1853027 3.2728577 2.1550293 5.950653 3.17865 8.777191c1.0236206 2.8265686 2.0473022 5.6531067 3.17865 8.777191c2.850769 -1.0323792 4.8012695 -1.7387695 7.3519287 -2.6624756zm-20.38977 -33.338898c2.850769 -1.0323792 4.951294 -1.7930908 7.6520386 -2.7711487c-2.5089722 -5.9907227 -4.814026 -11.887024 -7.430725 -18.175293c-2.689148 1.4786987 -4.5319214 2.482605 -6.524719 3.5408325c2.1550293 5.950653 4.1484375 11.454987 6.303406 17.40561zm420.33197 -122.94231c-2.4006348 0.86938477 -4.3511353 1.5757599 -6.9017944 2.4994812c2.1550293 5.950638 4.2022705 11.6037445 6.303406 17.40561c2.2506104 -0.8150482 4.3511353 -1.5757599 6.9017944 -2.499466c-2.1011353 -5.80188 -4.1483765 -11.454987 -6.303406 -17.405624zm-34.112305 -68.41917c3.0129395 5.976494 5.756531 11.209145 8.607849 16.739342c2.4968262 -1.0724945 4.543457 -1.9819641 7.1903076 -3.10878c-3.270752 -6.219696 -6.1220703 -11.749878 -9.081177 -17.577606c-2.5390625 1.4243546 -4.1779175 2.5226898 -6.71698 3.9470444zm-634.4173 560.92194c0.28442383 -2.963684 0.6343384 -5.278015 0.9303589 -7.741089c-6.286621 -1.425415 -11.961456 -2.567566 -18.098022 -4.0473022c-0.85388184 2.3285522 -1.5577393 4.602783 -2.5500793 7.486328c6.8444824 1.5599365 12.927155 2.8909302 19.717743 4.302063zm-300.00037 -306.32605c0.80812836 2.2314758 1.6162567 4.462982 2.4782639 6.843231c6.1516113 -2.2278137 11.553028 -4.183899 17.554596 -6.357361c-0.6580887 -2.2858276 -1.2623062 -4.422882 -2.0281448 -7.006256c-6.301651 2.282135 -12.003143 4.346924 -18.004715 6.5203857zm489.95947 -130.32047c6.267456 2.7785492 11.719299 5.179367 17.428894 7.823395c1.1116943 -2.0853577 2.2233887 -4.1707153 3.869751 -7.122818c-6.3636475 -2.5754547 -12.11554 -4.8676147 -18.275269 -7.348633c-0.8654785 1.8279266 -1.7732544 4.007721 -3.0233765 6.648056zm-432.42432 119.07599c-6.7367096 -1.2624207 -13.384781 -0.8741455 -20.267479 0.27218628c0.31572723 2.7463684 0.56598663 4.8433533 0.923996 7.237854c6.4018784 -0.13082886 12.299759 -0.24743652 18.497711 -0.47268677c0.19985962 -2.2599792 0.4535904 -4.3711853 0.8457718 -7.0373535zm747.4251 -286.83328c3.0546265 -0.9379654 5.863098 -1.6184921 8.767761 -2.5021133c2.904602 -0.88362885 5.809204 -1.7672577 9.314026 -2.8682327c-0.8197632 -2.7321243 -1.4239502 -4.869179 -2.1359253 -7.303772c-4.6089478 1.3325577 -8.521545 2.2446747 -12.380249 3.3055573c-2.0043945 0.5576019 -3.901062 1.4127426 -6.1516113 2.2277908c0.96972656 2.6777878 1.723999 4.7605133 2.5859985 7.14077zm118.78369 29.005165c1.9696655 -2.0595093 3.5969238 -3.6584778 5.6204224 -5.569229c-5.19812 -4.512039 -9.784424 -8.740791 -14.7786255 -13.1584015c-1.8618774 2.3570404 -3.2313232 4.199211 -4.7508545 6.0957108c4.5863647 4.228752 8.914917 8.21431 13.909058 12.63192zm-190.53198 54.529022c2.9277954 0.117630005 5.4055176 0.3982849 7.8292847 0.5301666c1.2113647 -6.496628 2.1880493 -12.235199 3.2070312 -18.325638c-2.5854492 -0.57818604 -4.66687 -1.1706085 -7.606262 -1.7888794c-1.1574097 6.645401 -2.326477 12.790176 -3.4300537 19.58435zm-601.69635 257.6166c2.701294 5.5845337 5.2948456 10.871521 7.9961395 16.456055c1.4042206 -0.34024048 2.508377 -0.5718384 3.3547363 -1.0466309c1.2003174 -0.43469238 2.1428375 -1.1125793 3.1392365 -1.6416931c-2.105194 -8.1562805 -4.741028 -13.0914 -8.973419 -17.28006c-1.6388397 1.0983276 -3.3315582 2.047882 -5.516693 3.512329zm566.5662 122.45401c7.229126 0.7475586 13.792603 1.0630493 20.298218 -1.1246948c-0.41192627 -2.543274 -0.60827637 -4.491455 -1.0625 -6.6828613c-6.197937 0.22528076 -12.095825 0.3418579 -18.443787 0.62145996c-0.19989014 2.2599487 -0.54974365 4.57428 -0.79193115 7.186096zm104.472534 -48.940796c3.2388916 -6.0529785 6.2854004 -11.699738 9.470398 -17.90149c-2.9509277 -1.118927 -5.236267 -1.8057556 -7.425476 -2.6957397c-2.9926758 5.7955627 -5.6968384 10.981781 -8.497192 16.371124c1.9968262 1.2961731 3.9937134 2.5923157 6.4522705 4.2261047zm58.41339 -428.7208c-7.121338 -0.44999313 -13.330872 -0.7253685 -20.15216 -1.2840347c0.12335205 3.1525688 0.33135986 5.601406 0.48547363 7.901478c6.413452 0.36980438 12.322876 0.75385284 18.382385 1.0835648c0.2960205 -2.4630737 0.7536621 -4.4798584 1.2843018 -7.701008zm102.231995 107.021835c-1.8549194 -6.059326 -3.6560059 -11.969864 -6.2072144 -17.608734c-2.7007446 0.97805786 -4.5012207 1.6300964 -7.05188 2.5538177c2.1550293 5.950638 4.2022705 11.6037445 6.3573 17.554382c2.2506104 -0.8150482 4.3511353 -1.5757599 6.9017944 -2.499466zm-582.1987 295.99036c2.796875 -1.1811829 4.8974304 -1.9418945 6.794037 -2.7970276c-2.2088623 -6.0993958 -4.256134 -11.752502 -6.465027 -17.851898c-2.64682 1.1268005 -4.693512 2.0362854 -6.7940674 2.796997c2.2088928 6.0993958 4.148407 11.454987 6.4650574 17.851929zm20.895508 53.01239c2.2627563 6.248169 4.310028 11.901245 6.4650574 17.851929c2.2505798 -0.8150635 4.3511353 -1.5758057 6.7517395 -2.4451904c-2.1549988 -5.9506226 -4.2022705 -11.603699 -6.3572693 -17.554382c-2.3044739 0.6663208 -4.10495 1.3183594 -6.8595276 2.147644zm191.75888 -101.7543c-2.2627563 -6.248169 -4.3100586 -11.901276 -6.3573 -17.554382c-2.5506592 0.92370605 -4.651184 1.6844177 -6.75177 2.4451294c2.2089233 6.0993958 4.2561646 11.752502 6.3573 17.554382c2.4006348 -0.86938477 4.3511353 -1.5757446 6.75177 -2.4451294zm-420.40265 106.813324c2.2627716 6.248169 4.310028 11.901306 6.518921 18.000671c2.4967957 -1.0724487 4.5434723 -1.9819336 6.7401886 -2.9457397c-1.185257 -3.2728882 -2.0049744 -6.005005 -3.17865 -8.777222c-1.0236359 -2.826538 -2.251175 -5.7474976 -3.4787292 -8.668518c-2.5506592 0.92370605 -4.501175 1.630127 -6.6017303 2.390808zm-20.06073 -53.987793c2.7006989 -0.97805786 4.6512146 -1.6844177 6.75177 -2.4451294c-2.155014 -5.950653 -4.2561646 -11.752533 -6.465042 -17.851929c-2.4967957 1.0724792 -4.5434723 1.9819641 -6.590149 2.891449c2.2088928 6.0993958 4.2022705 11.603729 6.303421 17.40561zm19.735718 33.40747c-2.2088928 -6.0994263 -4.2561493 -11.752533 -6.303406 -17.40564c-2.4006348 0.86938477 -4.50119 1.6300964 -6.75177 2.44516c2.155014 5.9506226 4.2022705 11.603729 6.303406 17.40561c2.250595 -0.81503296 4.201111 -1.5214233 6.75177 -2.4451294zm-242.97238 -95.42975c6.0015717 -2.1734314 11.703065 -4.23822 17.704638 -6.411682c-0.8620057 -2.3802795 -1.61626 -4.462982 -2.3705149 -6.5457153c-6.151612 2.2278137 -12.003143 4.346924 -18.154755 6.574707c1.0120449 2.3259277 1.862463 4.205536 2.820633 6.3826904zm670.77686 27.33194c-2.7006836 0.97805786 -4.8012695 1.7387695 -6.9017944 2.4994812c2.2088623 6.0993958 4.2022705 11.60376 6.303406 17.40561c2.5506592 -0.92370605 4.651184 -1.6844177 6.9017944 -2.4994812c-2.1550293 -5.9506226 -4.0945435 -11.306213 -6.303406 -17.40561zm-26.770203 -51.89453c2.5506592 -0.92370605 4.651184 -1.6844177 6.9017944 -2.4994812c-2.1550293 -5.9506226 -4.2022705 -11.603729 -6.2495728 -17.256836c-2.5506592 0.92370605 -4.651184 1.6844177 -6.9017944 2.4994812c2.1550293 5.9506226 4.0945435 11.306213 6.2495728 17.256836zm399.99603 -156.13243c2.2088623 6.099411 4.2562256 11.752518 6.303467 17.405624c2.5506592 -0.9237213 4.5010986 -1.6300964 6.751709 -2.4451447c-2.1550293 -5.950638 -4.2022705 -11.6037445 -6.3033447 -17.405624c-2.4006348 0.86938477 -4.3511963 1.5757599 -6.751831 2.4451447zm-166.13159 150.02412c-2.2627563 -6.2481995 -4.2561646 -11.752533 -6.303406 -17.40564c-2.5506592 0.9237366 -4.5012207 1.6300964 -6.9017944 2.4994812c2.1549683 5.950653 4.2022705 11.60376 6.303406 17.40561c2.4006348 -0.86938477 4.3511353 -1.5757446 6.9017944 -2.4994507zm-434.06558 50.3403c-2.2088928 -6.0994263 -4.2561646 -11.752533 -6.3573 -17.554382c-2.5506592 0.92370605 -4.50119 1.6300964 -6.601715 2.3907776c2.2088623 6.0994263 4.256134 11.752533 6.3572693 17.554413c2.4006348 -0.86938477 4.201111 -1.5214233 6.6017456 -2.390808zm421.08163 -86.1929c-2.2089233 -6.0994263 -4.2561646 -11.752533 -6.3573 -17.554413c-2.4006348 0.86938477 -4.5011597 1.6300964 -6.6017456 2.390808c2.2089233 6.0994263 4.2022705 11.60376 6.3573 17.554382c2.2506104 -0.81503296 4.201111 -1.5214233 6.6017456 -2.3907776zm-13.284058 -35.743927c-2.3166504 -6.396942 -4.3099976 -11.901306 -6.518921 -18.000702c-2.4967651 1.0724792 -4.543457 1.9819641 -6.290039 2.7827759c2.2627563 6.248169 4.3099976 11.901276 6.3573 17.554382c2.2505493 -0.8150635 4.20105 -1.5214233 6.45166 -2.3364563zm463.03424 20.278137c-1.173584 -2.7722168 -1.9278564 -4.8549194 -2.9937744 -7.3296204c-3.2470703 1.3441772 -5.7437744 2.4166565 -8.636841 3.8009338c1.119751 2.6234436 2.0240479 4.651825 2.7783203 6.734558c3.150879 -1.1410828 5.5515137 -2.0104675 8.852295 -3.2058716z" fill-rule="evenodd"/><path fill="#c2c923" d="m296.63632 566.55914l0 0c0 -30.974426 25.109741 -56.084198 56.084198 -56.084198l0 0c14.874451 0 29.139679 5.908844 39.6575 16.426666c10.517853 10.517822 16.426697 24.783081 16.426697 39.65753l0 0c0 30.974426 -25.109741 56.084167 -56.084198 56.084167l0 0c-30.974457 0 -56.084198 -25.109741 -56.084198 -56.084167z" fill-rule="evenodd"/><path fill="#ffffff" d="m328.71002 566.8904q0 -5.921875 1.21875 -9.53125q1.21875 -3.609375 3.625 -5.5625q2.40625 -1.96875 6.046875 -1.96875q2.6875 0 4.703125 1.078125q2.03125 1.078125 3.359375 3.125q1.328125 2.03125 2.078125 4.96875q0.75 2.921875 0.75 7.890625q0 5.875 -1.21875 9.484375q-1.203125 3.609375 -3.609375 5.578125q-2.390625 1.96875 -6.0625 1.96875q-4.828125 0 -7.59375 -3.453125q-3.296875 -4.171875 -3.296875 -13.578125zm4.21875 0q0 8.21875 1.921875 10.953125q1.921875 2.71875 4.75 2.71875q2.828125 0 4.75 -2.734375q1.921875 -2.734375 1.921875 -10.9375q0 -8.25 -1.921875 -10.953125q-1.921875 -2.71875 -4.796875 -2.71875q-2.828125 0 -4.515625 2.390625q-2.109375 3.0625 -2.109375 11.28125zm37.166748 16.46875l-4.09375 0l0 -26.125q-1.484375 1.40625 -3.890625 2.828125q-2.390625 1.40625 -4.3125 2.109375l0 -3.96875q3.4375 -1.609375 6.015625 -3.90625q2.578125 -2.3125 3.640625 -4.46875l2.640625 0l0 33.53125z" fill-rule="nonzero"/><path fill="#000000" fill-opacity="0.0" d="m58.076748 36.478214l766.5127 0l0 74.31874l-766.5127 0z" fill-rule="evenodd"/><path fill="#282f39" d="m70.982994 91.678215l0 -38.17188l16.21875 0q6.125 0 8.890625 1.03125q2.78125 1.03125 4.4375 3.65625q1.671875 2.625 1.671875 6.015629q0 4.296875 -2.53125 7.09375q-2.515625 2.796875 -7.546875 3.53125q2.5 1.453125 4.125 3.203125q1.625 1.734375 4.390625 6.1875l4.65625 7.453125l-9.21875 0l-5.5625 -8.3125q-2.96875 -4.453125 -4.0625 -5.609375q-1.09375 -1.15625 -2.328125 -1.578125q-1.21875 -0.4375 -3.875 -0.4375l-1.5625 0l0 15.9375l-7.703125 0zm7.703125 -22.03125l5.703125 0q5.546875 0 6.921875 -0.46875q1.390625 -0.46875 2.171875 -1.609375q0.78125 -1.15625 0.78125 -2.859375q0 -1.9375038 -1.03125 -3.1093788q-1.03125 -1.1875 -2.90625 -1.5q-0.9375 -0.140625 -5.625 -0.140625l-6.015625 0l0 9.687504zm29.043121 7.8125q0 -3.640625 1.796875 -7.046875q1.796875 -3.421875 5.078125 -5.21875q3.296875 -1.7968788 7.359375 -1.7968788q6.2812576 0 10.281258 4.078129q4.015625 4.078125 4.015625 10.296875q0 6.28125 -4.046875 10.40625q-4.046875 4.125 -10.187508 4.125q-3.8125 0 -7.265625 -1.71875q-3.4375 -1.71875 -5.234375 -5.03125q-1.796875 -3.328125 -1.796875 -8.09375zm7.5 0.390625q0 4.109375 1.953125 6.296875q1.953125 2.1875 4.8125 2.1875q2.859375 0 4.796875 -2.1875q1.9531326 -2.1875 1.9531326 -6.34375q0 -4.0625 -1.9531326 -6.25q-1.9375 -2.1875 -4.796875 -2.1875q-2.859375 0 -4.8125 2.1875q-1.953125 2.1875 -1.953125 6.296875zm32.23121 -5.390625l-6.640625 -1.203125q1.125 -4.0 3.859375 -5.921875q2.734375 -1.9375038 8.125 -1.9375038q4.890625 0 7.28125 1.1562538q2.40625 1.15625 3.375 2.953125q0.984375 1.78125 0.984375 6.546875l-0.078125 8.53125q0 3.65625 0.34375 5.390625q0.34375 1.71875 1.3125 3.703125l-7.234375 0q-0.28125 -0.734375 -0.703125 -2.15625q-0.1875 -0.65625 -0.265625 -0.859375q-1.875 1.8125 -4.015625 2.734375q-2.125 0.90625 -4.546875 0.90625q-4.265625 0 -6.734375 -2.3125q-2.453125 -2.328125 -2.453125 -5.859375q0 -2.34375 1.109375 -4.171875q1.125 -1.84375 3.140625 -2.8125q2.015625 -0.984375 5.828125 -1.71875q5.125 -0.96875 7.109375 -1.796875l0 -0.734375q0 -2.109375 -1.046875 -3.0q-1.046875 -0.90625 -3.9375 -0.90625q-1.953125 0 -3.046875 0.78125q-1.09375 0.765625 -1.765625 2.6875zm9.796875 5.9375q-1.40625 0.46875 -4.453125 1.125q-3.046875 0.640625 -3.984375 1.265625q-1.4375 1.015625 -1.4375 2.578125q0 1.546875 1.140625 2.671875q1.15625 1.109375 2.921875 1.109375q1.984375 0 3.78125 -1.296875q1.328125 -1.0 1.734375 -2.421875q0.296875 -0.9375 0.296875 -3.578125l0 -1.453125zm39.75232 13.28125l-6.796875 0l0 -4.0625q-1.6875 2.375 -4.0 3.53125q-2.296875 1.15625 -4.640625 1.15625q-4.765625 0 -8.171875 -3.84375q-3.390625 -3.84375 -3.390625 -10.71875q0 -7.03125 3.296875 -10.6875q3.3125 -3.6562538 8.375 -3.6562538q4.625 0 8.015625 3.8593788l0 -13.750004l7.3125 0l0 38.17188zm-19.53125 -14.421875q0 4.421875 1.234375 6.40625q1.765625 2.859375 4.9375 2.859375q2.53125 0 4.296875 -2.140625q1.78125 -2.15625 1.78125 -6.421875q0 -4.765625 -1.71875 -6.859375q-1.71875 -2.109375 -4.40625 -2.109375q-2.609375 0 -4.375 2.078125q-1.75 2.0625 -1.75 6.1875zm26.199951 -13.234375l6.75 0l0 3.78125q3.609375 -4.406254 8.609375 -4.406254q2.65625 0 4.609375 1.0937538q1.953125 1.09375 3.203125 3.3125q1.828125 -2.21875 3.9375 -3.3125q2.109375 -1.0937538 4.5 -1.0937538q3.046875 0 5.15625 1.2343788q2.109375 1.234375 3.15625 3.640625q0.75 1.765625 0.75 5.71875l0 17.6875l-7.3125 0l0 -15.8125q0 -4.109375 -0.765625 -5.3125q-1.015625 -1.5625 -3.125 -1.5625q-1.53125 0 -2.890625 0.9375q-1.34375 0.9375 -1.953125 2.75q-0.59375 1.8125 -0.59375 5.71875l0 13.28125l-7.3125 0l0 -15.15625q0 -4.03125 -0.390625 -5.203125q-0.390625 -1.171875 -1.21875 -1.75q-0.8125 -0.578125 -2.21875 -0.578125q-1.6875 0 -3.046875 0.921875q-1.359375 0.90625 -1.953125 2.625q-0.578125 1.71875 -0.578125 5.703125l0 13.4375l-7.3125 0l0 -27.65625zm53.43286 8.4375l-6.6406097 -1.203125q1.125 -4.0 3.859375 -5.921875q2.7343597 -1.9375038 8.124985 -1.9375038q4.890625 0 7.28125 1.1562538q2.40625 1.15625 3.375 2.953125q0.984375 1.78125 0.984375 6.546875l-0.078125 8.53125q0 3.65625 0.34375 5.390625q0.34375 1.71875 1.3125 3.703125l-7.234375 0q-0.28125 -0.734375 -0.703125 -2.15625q-0.1875 -0.65625 -0.265625 -0.859375q-1.875 1.8125 -4.015625 2.734375q-2.125 0.90625 -4.546875 0.90625q-4.2656097 0 -6.7343597 -2.3125q-2.453125 -2.328125 -2.453125 -5.859375q0 -2.34375 1.109375 -4.171875q1.125 -1.84375 3.140625 -2.8125q2.015625 -0.984375 5.8281097 -1.71875q5.125 -0.96875 7.109375 -1.796875l0 -0.734375q0 -2.109375 -1.046875 -3.0q-1.046875 -0.90625 -3.9375 -0.90625q-1.953125 0 -3.046875 0.78125q-1.09375 0.765625 -1.765625 2.6875zm9.796875 5.9375q-1.40625 0.46875 -4.453125 1.125q-3.046875 0.640625 -3.984375 1.265625q-1.4375 1.015625 -1.4375 2.578125q0 1.546875 1.140625 2.671875q1.15625 1.109375 2.921875 1.109375q1.984375 0 3.78125 -1.296875q1.328125 -1.0 1.734375 -2.421875q0.296875 -0.9375 0.296875 -3.578125l0 -1.453125zm14.189819 -14.375l6.8125 0l0 4.0625q1.328125 -2.078125 3.59375 -3.375q2.265625 -1.3125038 5.03125 -1.3125038q4.8125 0 8.171875 3.7812538q3.359375 3.765625 3.359375 10.515625q0 6.921875 -3.390625 10.765625q-3.375 3.84375 -8.1875 3.84375q-2.296875 0 -4.15625 -0.90625q-1.859375 -0.921875 -3.921875 -3.125l0 13.921875l-7.3125 0l0 -38.171875zm7.234375 13.359375q0 4.65625 1.84375 6.890625q1.859375 2.21875 4.515625 2.21875q2.546875 0 4.234375 -2.03125q1.703125 -2.046875 1.703125 -6.71875q0 -4.34375 -1.75 -6.453125q-1.75 -2.109375 -4.328125 -2.109375q-2.671875 0 -4.453125 2.078125q-1.765625 2.0625 -1.765625 6.125zm45.516235 14.296875l-8.75 -27.65625l7.109375 0l5.1875 18.125l4.765625 -18.125l7.046875 0l4.609375 18.125l5.28125 -18.125l7.21875 0l-8.875 27.65625l-7.03125 0l-4.765625 -17.78125l-4.6875 17.78125l-7.109375 0zm36.324066 -31.406254l0 -6.765625l7.3125 0l0 6.765625l-7.3125 0zm0 31.406254l0 -27.65625l7.3125 0l0 27.65625l-7.3125 0zm27.503784 -27.65625l0 5.828125l-5.0 0l0 11.15625q0 3.375 0.140625 3.9375q0.140625 0.5625 0.640625 0.9375q0.515625 0.359375 1.25 0.359375q1.015625 0 2.9375 -0.703125l0.625 5.671875q-2.546875 1.09375 -5.78125 1.09375q-1.984375 0 -3.578125 -0.65625q-1.578125 -0.671875 -2.328125 -1.71875q-0.734375 -1.0625 -1.015625 -2.859375q-0.234375 -1.28125 -0.234375 -5.15625l0 -12.0625l-3.359375 0l0 -5.828125l3.359375 0l0 -5.484379l7.34375 -4.28125l0 9.765629l5.0 0zm12.368042 -10.515629l0 14.031254q3.53125 -4.140629 8.453125 -4.140629q2.53125 0 4.5625 0.9375038q2.03125 0.9375 3.046875 2.40625q1.03125 1.453125 1.40625 3.21875q0.390625 1.765625 0.390625 5.5l0 16.21875l-7.3125 0l0 -14.609375q0 -4.34375 -0.421875 -5.515625q-0.421875 -1.171875 -1.484375 -1.859375q-1.046875 -0.703125 -2.625 -0.703125q-1.828125 0 -3.265625 0.890625q-1.421875 0.890625 -2.09375 2.671875q-0.65625 1.78125 -0.65625 5.265625l0 13.859375l-7.328125 0l0 -38.17188l7.328125 0zm40.047485 38.17188l0 -38.17188l11.53125 0l6.921875 26.031254l6.84375 -26.031254l11.5625 0l0 38.17188l-7.15625 0l0 -30.046879l-7.578125 30.046879l-7.421875 0l-7.546875 -30.046879l0 30.046879l-7.15625 0zm44.469604 -31.406254l0 -6.765625l7.3125 0l0 6.765625l-7.3125 0zm0 31.406254l0 -27.65625l7.3125 0l0 27.65625l-7.3125 0zm14.816284 0l0 -38.17188l7.3124695 0l0 38.17188l-7.3124695 0zm30.831879 -8.796875l7.28125 1.21875q-1.390625 4.015625 -4.4375 6.109375q-3.03125 2.09375 -7.578125 2.09375q-7.21875 0 -10.6875 -4.71875q-2.734375 -3.765625 -2.734375 -9.53125q0 -6.875 3.59375 -10.765625q3.59375 -3.8906288 9.09375 -3.8906288q6.171875 0 9.734375 4.078129q3.5625 4.078125 3.40625 12.484375l-18.328125 0q0.078125 3.25 1.765625 5.0625q1.703125 1.8125 4.234375 1.8125q1.71875 0 2.890625 -0.9375q1.171875 -0.9375 1.765625 -3.015625zm0.421875 -7.40625q-0.078125 -3.171875 -1.640625 -4.828125q-1.5625 -1.65625 -3.8125 -1.65625q-2.390625 0 -3.953125 1.75q-1.5625 1.75 -1.53125 4.734375l10.9375 0zm10.642944 8.3125l7.34375 -1.125q0.46875 2.140625 1.890625 3.25q1.4375 1.109375 4.015625 1.109375q2.84375 0 4.28125 -1.046875q0.953125 -0.734375 0.953125 -1.953125q0 -0.828125 -0.515625 -1.375q-0.546875 -0.53125 -2.453125 -0.96875q-8.84375 -1.953125 -11.21875 -3.5625q-3.28125 -2.25 -3.28125 -6.234375q0 -3.59375 2.828125 -6.03125q2.84375 -2.4531288 8.8125 -2.4531288q5.671875 0 8.4375 1.8593788q2.765625 1.84375 3.796875 5.453125l-6.890625 1.28125q-0.453125 -1.609375 -1.6875 -2.46875q-1.234375 -0.859375 -3.53125 -0.859375q-2.890625 0 -4.140625 0.796875q-0.828125 0.578125 -0.828125 1.484375q0 0.78125 0.734375 1.328125q0.984375 0.734375 6.828125 2.0625q5.84375 1.328125 8.171875 3.25q2.28125 1.953125 2.28125 5.453125q0 3.796875 -3.171875 6.53125q-3.171875 2.734375 -9.40625 2.734375q-5.640625 0 -8.9375 -2.28125q-3.296875 -2.296875 -4.3125 -6.234375zm44.924194 -19.765625l0 5.828125l-5.0 0l0 11.15625q0 3.375 0.140625 3.9375q0.140625 0.5625 0.640625 0.9375q0.515625 0.359375 1.25 0.359375q1.015625 0 2.9375 -0.703125l0.625 5.671875q-2.546875 1.09375 -5.78125 1.09375q-1.984375 0 -3.578125 -0.65625q-1.578125 -0.671875 -2.328125 -1.71875q-0.734375 -1.0625 -1.015625 -2.859375q-0.234375 -1.28125 -0.234375 -5.15625l0 -12.0625l-3.359375 0l0 -5.828125l3.359375 0l0 -5.484379l7.34375 -4.28125l0 9.765629l5.0 0zm3.383667 13.4375q0 -3.640625 1.796875 -7.046875q1.796875 -3.421875 5.078125 -5.21875q3.296875 -1.7968788 7.359375 -1.7968788q6.28125 0 10.28125 4.078129q4.015625 4.078125 4.015625 10.296875q0 6.28125 -4.046875 10.40625q-4.046875 4.125 -10.1875 4.125q-3.8125 0 -7.265625 -1.71875q-3.4375 -1.71875 -5.234375 -5.03125q-1.796875 -3.328125 -1.796875 -8.09375zm7.5 0.390625q0 4.109375 1.953125 6.296875q1.953125 2.1875 4.8125 2.1875q2.859375 0 4.796875 -2.1875q1.953125 -2.1875 1.953125 -6.34375q0 -4.0625 -1.953125 -6.25q-1.9375 -2.1875 -4.796875 -2.1875q-2.859375 0 -4.8125 2.1875q-1.953125 2.1875 -1.953125 6.296875zm51.9187 13.828125l-7.3125 0l0 -14.109375q0 -4.484375 -0.46875 -5.796875q-0.46875 -1.3125 -1.53125 -2.046875q-1.046875 -0.734375 -2.53125 -0.734375q-1.90625 0 -3.421875 1.046875q-1.5 1.046875 -2.0625 2.765625q-0.5625 1.71875 -0.5625 6.34375l0 12.53125l-7.3125 0l0 -27.65625l6.796875 0l0 4.0625q3.609375 -4.687504 9.109375 -4.687504q2.421875 0 4.421875 0.8750038q2.015625 0.875 3.03125 2.234375q1.03125 1.34375 1.4375 3.0625q0.40625 1.71875 0.40625 4.921875l0 17.1875zm23.434326 -8.796875l7.28125 1.21875q-1.390625 4.015625 -4.4375 6.109375q-3.03125 2.09375 -7.578125 2.09375q-7.21875 0 -10.6875 -4.71875q-2.734375 -3.765625 -2.734375 -9.53125q0 -6.875 3.59375 -10.765625q3.59375 -3.8906288 9.09375 -3.8906288q6.171875 0 9.734375 4.078129q3.5625 4.078125 3.40625 12.484375l-18.328125 0q0.078125 3.25 1.765625 5.0625q1.703125 1.8125 4.234375 1.8125q1.71875 0 2.890625 -0.9375q1.171875 -0.9375 1.765625 -3.015625zm0.421875 -7.40625q-0.078125 -3.171875 -1.640625 -4.828125q-1.5625 -1.65625 -3.8125 -1.65625q-2.390625 0 -3.953125 1.75q-1.5625 1.75 -1.53125 4.734375l10.9375 0zm10.642944 8.3125l7.34375 -1.125q0.46875 2.140625 1.890625 3.25q1.4375 1.109375 4.015625 1.109375q2.84375 0 4.28125 -1.046875q0.953125 -0.734375 0.953125 -1.953125q0 -0.828125 -0.515625 -1.375q-0.546875 -0.53125 -2.453125 -0.96875q-8.84375 -1.953125 -11.21875 -3.5625q-3.28125 -2.25 -3.28125 -6.234375q0 -3.59375 2.828125 -6.03125q2.84375 -2.4531288 8.8125 -2.4531288q5.671875 0 8.4375 1.8593788q2.765625 1.84375 3.796875 5.453125l-6.890625 1.28125q-0.453125 -1.609375 -1.6875 -2.46875q-1.234375 -0.859375 -3.53125 -0.859375q-2.890625 0 -4.140625 0.796875q-0.828125 0.578125 -0.828125 1.484375q0 0.78125 0.734375 1.328125q0.984375 0.734375 6.828125 2.0625q5.84375 1.328125 8.171875 3.25q2.28125 1.953125 2.28125 5.453125q0 3.796875 -3.171875 6.53125q-3.171875 2.734375 -9.40625 2.734375q-5.640625 0 -8.9375 -2.28125q-3.296875 -2.296875 -4.3125 -6.234375z" fill-rule="nonzero"/><path fill="#42afb6" d="m440.63632 339.8925l0 0c0 -30.974426 25.109741 -56.084198 56.084198 -56.084198l0 0c14.874451 0 29.13971 5.9088745 39.65753 16.426697c10.517822 10.517822 16.426636 24.78305 16.426636 39.6575l0 0c0 30.974457 -25.109741 56.084198 -56.084167 56.084198l0 0c-30.974457 0 -56.084198 -25.109741 -56.084198 -56.084198z" fill-rule="evenodd"/><path fill="#ffffff" d="m472.71002 340.22375q0 -5.921875 1.21875 -9.53125q1.21875 -3.609375 3.625 -5.5625q2.40625 -1.96875 6.046875 -1.96875q2.6875 0 4.703125 1.078125q2.03125 1.078125 3.359375 3.125q1.328125 2.03125 2.078125 4.96875q0.75 2.921875 0.75 7.890625q0 5.875 -1.21875 9.484375q-1.203125 3.609375 -3.609375 5.578125q-2.390625 1.96875 -6.0625 1.96875q-4.828125 0 -7.59375 -3.453125q-3.296875 -4.171875 -3.296875 -13.578125zm4.21875 0q0 8.21875 1.921875 10.953125q1.921875 2.71875 4.75 2.71875q2.828125 0 4.75 -2.734375q1.921875 -2.734375 1.921875 -10.9375q0 -8.25 -1.921875 -10.953125q-1.921875 -2.71875 -4.796875 -2.71875q-2.828125 0 -4.515625 2.390625q-2.109375 3.0625 -2.109375 11.28125zm43.276123 12.53125l0 3.9375l-22.078125 0q-0.046875 -1.484375 0.484375 -2.84375q0.84375 -2.265625 2.703125 -4.453125q1.859375 -2.1875 5.359375 -5.046875q5.453125 -4.46875 7.359375 -7.078125q1.921875 -2.609375 1.921875 -4.9375q0 -2.4375 -1.75 -4.109375q-1.75 -1.671875 -4.546875 -1.671875q-2.953125 0 -4.734375 1.78125q-1.78125 1.78125 -1.796875 4.921875l-4.21875 -0.4375q0.4375 -4.71875 3.25 -7.1875q2.828125 -2.46875 7.59375 -2.46875q4.8125 0 7.609375 2.671875q2.796875 2.65625 2.796875 6.59375q0 2.015625 -0.828125 3.953125q-0.8125 1.921875 -2.71875 4.0625q-1.890625 2.140625 -6.3125 5.890625q-3.6875 3.09375 -4.734375 4.203125q-1.046875 1.09375 -1.734375 2.21875l16.375 0z" fill-rule="nonzero"/><path fill="#cb1b4a" d="m701.0809 427.00357l0 0c0 -30.974457 25.109741 -56.084198 56.08423 -56.084198l0 0c14.874451 0 29.139648 5.908844 39.65747 16.426697c10.517822 10.517822 16.426697 24.78305 16.426697 39.6575l0 0c0 30.974457 -25.109741 56.084198 -56.084167 56.084198l0 0c-30.974487 0 -56.08423 -25.109741 -56.08423 -56.084198z" fill-rule="evenodd"/><path fill="#ffffff" d="m733.1546 427.3348q0 -5.921875 1.21875 -9.53125q1.21875 -3.609375 3.625 -5.5625q2.40625 -1.96875 6.046875 -1.96875q2.6875 0 4.703125 1.078125q2.03125 1.078125 3.359375 3.125q1.328125 2.03125 2.078125 4.96875q0.75 2.921875 0.75 7.890625q0 5.875 -1.21875 9.484375q-1.203125 3.609375 -3.609375 5.578125q-2.390625 1.96875 -6.0625 1.96875q-4.828125 0 -7.59375 -3.453125q-3.296875 -4.171875 -3.296875 -13.578125zm4.21875 0q0 8.21875 1.921875 10.953125q1.921875 2.71875 4.75 2.71875q2.828125 0 4.75 -2.734375q1.921875 -2.734375 1.921875 -10.9375q0 -8.25 -1.921875 -10.953125q-1.921875 -2.71875 -4.796875 -2.71875q-2.828125 0 -4.515625 2.390625q-2.109375 3.0625 -2.109375 11.28125zm21.744873 7.65625l4.109375 -0.546875q0.703125 3.484375 2.390625 5.03125q1.703125 1.53125 4.140625 1.53125q2.890625 0 4.890625 -2.0q2.0 -2.015625 2.0 -4.96875q0 -2.828125 -1.859375 -4.65625q-1.84375 -1.84375 -4.6875 -1.84375q-1.15625 0 -2.890625 0.453125l0.453125 -3.59375q0.40625 0.046875 0.65625 0.046875q2.625 0 4.71875 -1.359375q2.09375 -1.375 2.09375 -4.234375q0 -2.25 -1.53125 -3.71875q-1.515625 -1.484375 -3.9375 -1.484375q-2.390625 0 -3.984375 1.5q-1.59375 1.5 -2.046875 4.515625l-4.09375 -0.734375q0.75 -4.125 3.40625 -6.390625q2.671875 -2.265625 6.640625 -2.265625q2.734375 0 5.03125 1.171875q2.296875 1.171875 3.515625 3.203125q1.21875 2.03125 1.21875 4.296875q0 2.171875 -1.171875 3.953125q-1.15625 1.765625 -3.421875 2.8125q2.953125 0.6875 4.59375 2.84375q1.640625 2.15625 1.640625 5.390625q0 4.375 -3.1875 7.421875q-3.1875 3.03125 -8.0625 3.03125q-4.40625 0 -7.3125 -2.609375q-2.890625 -2.625 -3.3125 -6.796875z" fill-rule="nonzero"/><path fill="#fcb414" d="m834.4142 173.67024l0 0c0 -30.974457 25.109802 -56.084206 56.08423 -56.084206l0 0c14.874451 0 29.13971 5.9088593 39.65753 16.42669c10.517822 10.517822 16.426636 24.78305 16.426636 39.657516l0 0c0 30.974442 -25.109741 56.084198 -56.084167 56.084198l0 0c-30.974426 0 -56.08423 -25.109756 -56.08423 -56.084198z" fill-rule="evenodd"/><path fill="#ffffff" d="m866.4879 174.00148q0 -5.921875 1.21875 -9.53125q1.21875 -3.609375 3.625 -5.5625q2.40625 -1.96875 6.046875 -1.96875q2.6875 0 4.703125 1.078125q2.03125 1.078125 3.359375 3.125q1.328125 2.03125 2.078125 4.96875q0.75 2.921875 0.75 7.890625q0 5.875 -1.21875 9.484375q-1.203125 3.609375 -3.609375 5.578125q-2.390625 1.96875 -6.0625 1.96875q-4.828125 0 -7.59375 -3.453125q-3.296875 -4.171875 -3.296875 -13.578125zm4.21875 0q0 8.21875 1.921875 10.953125q1.921875 2.71875 4.75 2.71875q2.828125 0 4.75 -2.734375q1.921875 -2.734375 1.921875 -10.9375q0 -8.25 -1.921875 -10.953125q-1.921875 -2.71875 -4.796875 -2.71875q-2.828125 0 -4.515625 2.390625q-2.109375 3.0625 -2.109375 11.28125zm34.869873 16.46875l0 -8.0l-14.484375 0l0 -3.75l15.234375 -21.640625l3.359375 0l0 21.640625l4.5 0l0 3.75l-4.5 0l0 8.0l-4.109375 0zm0 -11.75l0 -15.0625l-10.453125 15.0625l10.453125 0z" fill-rule="nonzero"/><path fill="#42afb6" d="m95.32399 244.22792l0 0c0 -9.43338 7.6472626 -17.080627 17.080635 -17.080627l0 0c4.53006 0 8.874588 1.7995605 12.077827 5.0027924c3.2032394 3.203247 5.0028076 7.5477753 5.0028076 12.077835l0 0c0 9.433365 -7.6472626 17.080643 -17.080635 17.080643l0 0c-9.4333725 0 -17.080635 -7.647278 -17.080635 -17.080643z" fill-rule="evenodd"/><path fill="#000000" fill-opacity="0.0" d="m139.27737 225.76472l173.7034 0l0 35.543716l-173.7034 0z" fill-rule="evenodd"/><path fill="#282f39" d="m154.24612 242.63535l4.0625 -7.609375l1.90625 0l-5.078125 9.3125l0 5.90625l-1.78125 0l0 -5.828125l-5.078125 -9.390625l1.9375 0l4.03125 7.609375zm17.663757 1.890625q0 2.796875 -1.40625 4.359375q-1.40625 1.5625 -3.890625 1.5625q-1.53125 0 -2.71875 -0.71875q-1.1875 -0.71875 -1.828125 -2.0625q-0.640625 -1.34375 -0.640625 -3.140625q0 -2.796875 1.390625 -4.34375q1.390625 -1.5625 3.875 -1.5625q2.390625 0 3.796875 1.59375q1.421875 1.59375 1.421875 4.3125zm-8.703125 0q0 2.1875 0.875 3.34375q0.875 1.140625 2.578125 1.140625q1.703125 0 2.578125 -1.140625q0.875 -1.140625 0.875 -3.34375q0 -2.171875 -0.875 -3.296875q-0.875 -1.140625 -2.59375 -1.140625q-1.703125 0 -2.578125 1.125q-0.859375 1.109375 -0.859375 3.3125zm13.351028 -5.6875l0 7.390625q0 1.40625 0.640625 2.09375q0.640625 0.6875 1.984375 0.6875q1.796875 0 2.625 -0.984375q0.828125 -0.984375 0.828125 -3.203125l0 -5.984375l1.71875 0l0 11.40625l-1.421875 0l-0.25 -1.53125l-0.09375 0q-0.53125 0.84375 -1.46875 1.296875q-0.9375 0.4375 -2.15625 0.4375q-2.078125 0 -3.125 -0.984375q-1.03125 -0.984375 -1.03125 -3.171875l0 -7.453125l1.75 0zm16.68431 -0.21875q0.75 0 1.359375 0.125l-0.234375 1.609375q-0.71875 -0.15625 -1.25 -0.15625q-1.390625 0 -2.375 1.125q-0.984375 1.125 -0.984375 2.796875l0 6.125l-1.734375 0l0 -11.40625l1.4375 0l0.1875 2.109375l0.09375 0q0.625 -1.125 1.515625 -1.71875q0.90625 -0.609375 1.984375 -0.609375zm12.715271 10.40625q0.46875 0 0.890625 -0.0625q0.421875 -0.078125 0.671875 -0.140625l0 1.3125q-0.28125 0.140625 -0.828125 0.21875q-0.546875 0.09375 -0.984375 0.09375q-3.3125 0 -3.3125 -3.484375l0 -6.796875l-1.625 0l0 -0.828125l1.625 -0.71875l0.734375 -2.4375l1.0 0l0 2.65625l3.3125 0l0 1.328125l-3.3125 0l0 6.71875q0 1.03125 0.484375 1.59375q0.5 0.546875 1.34375 0.546875zm8.670044 1.421875q-2.53125 0 -4.0 -1.53125q-1.453125 -1.546875 -1.453125 -4.28125q0 -2.765625 1.359375 -4.390625q1.359375 -1.625 3.640625 -1.625q2.15625 0 3.390625 1.421875q1.25 1.40625 1.25 3.71875l0 1.09375l-7.859375 0q0.0625 2.0 1.015625 3.046875q0.96875 1.046875 2.71875 1.046875q1.84375 0 3.640625 -0.78125l0 1.546875q-0.90625 0.390625 -1.734375 0.5625q-0.8125 0.171875 -1.96875 0.171875zm-0.46875 -10.375q-1.375 0 -2.203125 0.890625q-0.8125 0.890625 -0.953125 2.484375l5.96875 0q0 -1.640625 -0.734375 -2.5q-0.71875 -0.875 -2.078125 -0.875zm10.356461 4.328125l-3.96875 -5.5625l1.96875 0l3.015625 4.359375l3.0 -4.359375l1.953125 0l-3.96875 5.5625l4.171875 5.84375l-1.953125 0l-3.203125 -4.625l-3.234375 4.625l-1.953125 0l4.171875 -5.84375zm12.111862 4.625q0.46875 0 0.890625 -0.0625q0.421875 -0.078125 0.671875 -0.140625l0 1.3125q-0.28125 0.140625 -0.828125 0.21875q-0.546875 0.09375 -0.984375 0.09375q-3.3125 0 -3.3125 -3.484375l0 -6.796875l-1.625 0l0 -0.828125l1.625 -0.71875l0.734375 -2.4375l1.0 0l0 2.65625l3.3125 0l0 1.328125l-3.3125 0l0 6.71875q0 1.03125 0.484375 1.59375q0.5 0.546875 1.34375 0.546875zm17.194733 1.21875l0 -7.390625q0 -1.390625 -0.640625 -2.078125q-0.625 -0.6875 -1.984375 -0.6875q-1.796875 0 -2.625 0.984375q-0.828125 0.96875 -0.828125 3.203125l0 5.96875l-1.734375 0l0 -16.203125l1.734375 0l0 4.90625q0 0.875 -0.078125 1.46875l0.09375 0q0.515625 -0.828125 1.453125 -1.296875q0.953125 -0.46875 2.15625 -0.46875q2.09375 0 3.140625 1.0q1.046875 0.984375 1.046875 3.140625l0 7.453125l-1.734375 0zm10.106201 0.203125q-2.53125 0 -4.0 -1.53125q-1.453125 -1.546875 -1.453125 -4.28125q0 -2.765625 1.359375 -4.390625q1.359375 -1.625 3.640625 -1.625q2.15625 0 3.390625 1.421875q1.25 1.40625 1.25 3.71875l0 1.09375l-7.859375 0q0.0625 2.0 1.015625 3.046875q0.96875 1.046875 2.71875 1.046875q1.84375 0 3.640625 -0.78125l0 1.546875q-0.90625 0.390625 -1.734375 0.5625q-0.8125 0.171875 -1.96875 0.171875zm-0.46875 -10.375q-1.375 0 -2.203125 0.890625q-0.8125 0.890625 -0.953125 2.484375l5.96875 0q0 -1.640625 -0.734375 -2.5q-0.71875 -0.875 -2.078125 -0.875zm12.825195 -1.453125q0.75 0 1.359375 0.125l-0.234375 1.609375q-0.71875 -0.15625 -1.25 -0.15625q-1.390625 0 -2.375 1.125q-0.984375 1.125 -0.984375 2.796875l0 6.125l-1.734375 0l0 -11.40625l1.4375 0l0.1875 2.109375l0.09375 0q0.625 -1.125 1.515625 -1.71875q0.90625 -0.609375 1.984375 -0.609375zm8.315582 11.828125q-2.53125 0 -4.0 -1.53125q-1.453125 -1.546875 -1.453125 -4.28125q0 -2.765625 1.359375 -4.390625q1.359375 -1.625 3.640625 -1.625q2.15625 0 3.390625 1.421875q1.25 1.40625 1.25 3.71875l0 1.09375l-7.859375 0q0.0625 2.0 1.015625 3.046875q0.96875 1.046875 2.71875 1.046875q1.84375 0 3.640625 -0.78125l0 1.546875q-0.90625 0.390625 -1.734375 0.5625q-0.8125 0.171875 -1.96875 0.171875zm-0.46875 -10.375q-1.375 0 -2.203125 0.890625q-0.8125 0.890625 -0.953125 2.484375l5.96875 0q0 -1.640625 -0.734375 -2.5q-0.71875 -0.875 -2.078125 -0.875z" fill-rule="nonzero"/><path fill="#c2c923" d="m95.32399 181.11685l0 0c0 -9.433365 7.6472626 -17.080627 17.080635 -17.080627l0 0c4.53006 0 8.874588 1.7995605 12.077827 5.0027924c3.2032394 3.203247 5.0028076 7.5477753 5.0028076 12.077835l0 0c0 9.433365 -7.6472626 17.080627 -17.080635 17.080627l0 0c-9.4333725 0 -17.080635 -7.6472626 -17.080635 -17.080627z" fill-rule="evenodd"/><path fill="#000000" fill-opacity="0.0" d="m139.27737 162.65364l173.7034 0l0 35.54373l-173.7034 0z" fill-rule="evenodd"/><path fill="#282f39" d="m154.24612 179.52428l4.0625 -7.609375l1.90625 0l-5.078125 9.3125l0 5.90625l-1.78125 0l0 -5.828125l-5.078125 -9.390625l1.9375 0l4.03125 7.609375zm17.663757 1.890625q0 2.796875 -1.40625 4.359375q-1.40625 1.5625 -3.890625 1.5625q-1.53125 0 -2.71875 -0.71875q-1.1875 -0.71875 -1.828125 -2.0625q-0.640625 -1.34375 -0.640625 -3.140625q0 -2.796875 1.390625 -4.34375q1.390625 -1.5625 3.875 -1.5625q2.390625 0 3.796875 1.59375q1.421875 1.59375 1.421875 4.3125zm-8.703125 0q0 2.1875 0.875 3.34375q0.875 1.140625 2.578125 1.140625q1.703125 0 2.578125 -1.140625q0.875 -1.140625 0.875 -3.34375q0 -2.171875 -0.875 -3.296875q-0.875 -1.140625 -2.59375 -1.140625q-1.703125 0 -2.578125 1.125q-0.859375 1.109375 -0.859375 3.3125zm13.351028 -5.6875l0 7.390625q0 1.40625 0.640625 2.09375q0.640625 0.6875 1.984375 0.6875q1.796875 0 2.625 -0.984375q0.828125 -0.984375 0.828125 -3.203125l0 -5.984375l1.71875 0l0 11.40625l-1.421875 0l-0.25 -1.53125l-0.09375 0q-0.53125 0.84375 -1.46875 1.296875q-0.9375 0.4375 -2.15625 0.4375q-2.078125 0 -3.125 -0.984375q-1.03125 -0.984375 -1.03125 -3.171875l0 -7.453125l1.75 0zm16.68431 -0.21875q0.75 0 1.359375 0.125l-0.234375 1.609375q-0.71875 -0.15625 -1.25 -0.15625q-1.390625 0 -2.375 1.125q-0.984375 1.125 -0.984375 2.796875l0 6.125l-1.734375 0l0 -11.40625l1.4375 0l0.1875 2.109375l0.09375 0q0.625 -1.125 1.515625 -1.71875q0.90625 -0.609375 1.984375 -0.609375zm12.715271 10.40625q0.46875 0 0.890625 -0.0625q0.421875 -0.078125 0.671875 -0.140625l0 1.3125q-0.28125 0.140625 -0.828125 0.21875q-0.546875 0.09375 -0.984375 0.09375q-3.3125 0 -3.3125 -3.484375l0 -6.796875l-1.625 0l0 -0.828125l1.625 -0.71875l0.734375 -2.4375l1.0 0l0 2.65625l3.3125 0l0 1.328125l-3.3125 0l0 6.71875q0 1.03125 0.484375 1.59375q0.5 0.546875 1.34375 0.546875zm8.670044 1.421875q-2.53125 0 -4.0 -1.53125q-1.453125 -1.546875 -1.453125 -4.28125q0 -2.765625 1.359375 -4.390625q1.359375 -1.625 3.640625 -1.625q2.15625 0 3.390625 1.421875q1.25 1.40625 1.25 3.71875l0 1.09375l-7.859375 0q0.0625 2.0 1.015625 3.046875q0.96875 1.046875 2.71875 1.046875q1.84375 0 3.640625 -0.78125l0 1.546875q-0.90625 0.390625 -1.734375 0.5625q-0.8125 0.171875 -1.96875 0.171875zm-0.46875 -10.375q-1.375 0 -2.203125 0.890625q-0.8125 0.890625 -0.953125 2.484375l5.96875 0q0 -1.640625 -0.734375 -2.5q-0.71875 -0.875 -2.078125 -0.875zm10.356461 4.328125l-3.96875 -5.5625l1.96875 0l3.015625 4.359375l3.0 -4.359375l1.953125 0l-3.96875 5.5625l4.171875 5.84375l-1.953125 0l-3.203125 -4.625l-3.234375 4.625l-1.953125 0l4.171875 -5.84375zm12.111862 4.625q0.46875 0 0.890625 -0.0625q0.421875 -0.078125 0.671875 -0.140625l0 1.3125q-0.28125 0.140625 -0.828125 0.21875q-0.546875 0.09375 -0.984375 0.09375q-3.3125 0 -3.3125 -3.484375l0 -6.796875l-1.625 0l0 -0.828125l1.625 -0.71875l0.734375 -2.4375l1.0 0l0 2.65625l3.3125 0l0 1.328125l-3.3125 0l0 6.71875q0 1.03125 0.484375 1.59375q0.5 0.546875 1.34375 0.546875zm17.194733 1.21875l0 -7.390625q0 -1.390625 -0.640625 -2.078125q-0.625 -0.6875 -1.984375 -0.6875q-1.796875 0 -2.625 0.984375q-0.828125 0.96875 -0.828125 3.203125l0 5.96875l-1.734375 0l0 -16.203125l1.734375 0l0 4.90625q0 0.875 -0.078125 1.46875l0.09375 0q0.515625 -0.828125 1.453125 -1.296875q0.953125 -0.46875 2.15625 -0.46875q2.09375 0 3.140625 1.0q1.046875 0.984375 1.046875 3.140625l0 7.453125l-1.734375 0zm10.106201 0.203125q-2.53125 0 -4.0 -1.53125q-1.453125 -1.546875 -1.453125 -4.28125q0 -2.765625 1.359375 -4.390625q1.359375 -1.625 3.640625 -1.625q2.15625 0 3.390625 1.421875q1.25 1.40625 1.25 3.71875l0 1.09375l-7.859375 0q0.0625 2.0 1.015625 3.046875q0.96875 1.046875 2.71875 1.046875q1.84375 0 3.640625 -0.78125l0 1.546875q-0.90625 0.390625 -1.734375 0.5625q-0.8125 0.171875 -1.96875 0.171875zm-0.46875 -10.375q-1.375 0 -2.203125 0.890625q-0.8125 0.890625 -0.953125 2.484375l5.96875 0q0 -1.640625 -0.734375 -2.5q-0.71875 -0.875 -2.078125 -0.875zm12.825195 -1.453125q0.75 0 1.359375 0.125l-0.234375 1.609375q-0.71875 -0.15625 -1.25 -0.15625q-1.390625 0 -2.375 1.125q-0.984375 1.125 -0.984375 2.796875l0 6.125l-1.734375 0l0 -11.40625l1.4375 0l0.1875 2.109375l0.09375 0q0.625 -1.125 1.515625 -1.71875q0.90625 -0.609375 1.984375 -0.609375zm8.315582 11.828125q-2.53125 0 -4.0 -1.53125q-1.453125 -1.546875 -1.453125 -4.28125q0 -2.765625 1.359375 -4.390625q1.359375 -1.625 3.640625 -1.625q2.15625 0 3.390625 1.421875q1.25 1.40625 1.25 3.71875l0 1.09375l-7.859375 0q0.0625 2.0 1.015625 3.046875q0.96875 1.046875 2.71875 1.046875q1.84375 0 3.640625 -0.78125l0 1.546875q-0.90625 0.390625 -1.734375 0.5625q-0.8125 0.171875 -1.96875 0.171875zm-0.46875 -10.375q-1.375 0 -2.203125 0.890625q-0.8125 0.890625 -0.953125 2.484375l5.96875 0q0 -1.640625 -0.734375 -2.5q-0.71875 -0.875 -2.078125 -0.875z" fill-rule="nonzero"/><path fill="#fcb414" d="m978.78766 588.65796l0 0c0 -9.433411 7.647278 -17.080627 17.080627 -17.080627l0 0c4.5300293 0 8.874573 1.7995605 12.07782 5.0027466c3.203247 3.203247 5.0028076 7.5477905 5.0028076 12.077881l0 0c0 9.43335 -7.647278 17.080627 -17.080627 17.080627l0 0c-9.43335 0 -17.080627 -7.647278 -17.080627 -17.080627z" fill-rule="evenodd"/><path fill="#000000" fill-opacity="0.0" d="m1022.74097 570.19476l173.70337 0l0 35.5437l-173.70337 0z" fill-rule="evenodd"/><path fill="#282f39" d="m1037.7097 587.06537l4.0625 -7.609375l1.90625 0l-5.078125 9.3125l0 5.90625l-1.78125 0l0 -5.828125l-5.078125 -9.390625l1.9375 0l4.03125 7.609375zm17.663818 1.890625q0 2.796875 -1.40625 4.359375q-1.40625 1.5625 -3.890625 1.5625q-1.53125 0 -2.71875 -0.71875q-1.1875 -0.71875 -1.828125 -2.0625q-0.640625 -1.34375 -0.640625 -3.140625q0 -2.796875 1.390625 -4.34375q1.390625 -1.5625 3.875 -1.5625q2.390625 0 3.796875 1.59375q1.421875 1.59375 1.421875 4.3125zm-8.703125 0q0 2.1875 0.875 3.34375q0.875 1.140625 2.578125 1.140625q1.703125 0 2.578125 -1.140625q0.875 -1.140625 0.875 -3.34375q0 -2.171875 -0.875 -3.296875q-0.875 -1.140625 -2.59375 -1.140625q-1.703125 0 -2.578125 1.125q-0.859375 1.109375 -0.859375 3.3125zm13.350952 -5.6875l0 7.390625q0 1.40625 0.640625 2.09375q0.640625 0.6875 1.984375 0.6875q1.796875 0 2.625 -0.984375q0.828125 -0.984375 0.828125 -3.203125l0 -5.984375l1.71875 0l0 11.40625l-1.421875 0l-0.25 -1.53125l-0.09375 0q-0.53125 0.84375 -1.46875 1.296875q-0.9375 0.4375 -2.15625 0.4375q-2.078125 0 -3.125 -0.984375q-1.03125 -0.984375 -1.03125 -3.171875l0 -7.453125l1.75 0zm16.684326 -0.21875q0.75 0 1.359375 0.125l-0.234375 1.609375q-0.71875 -0.15625 -1.25 -0.15625q-1.390625 0 -2.375 1.125q-0.984375 1.125 -0.984375 2.796875l0 6.125l-1.734375 0l0 -11.40625l1.4375 0l0.1875 2.109375l0.09375 0q0.625 -1.125 1.515625 -1.71875q0.90625 -0.609375 1.984375 -0.609375zm12.715332 10.40625q0.46875 0 0.890625 -0.0625q0.421875 -0.078125 0.671875 -0.140625l0 1.3125q-0.28125 0.140625 -0.828125 0.21875q-0.546875 0.09375 -0.984375 0.09375q-3.3125 0 -3.3125 -3.484375l0 -6.796875l-1.625 0l0 -0.828125l1.625 -0.71875l0.734375 -2.4375l1.0 0l0 2.65625l3.3125 0l0 1.328125l-3.3125 0l0 6.71875q0 1.03125 0.484375 1.59375q0.5 0.546875 1.34375 0.546875zm8.670044 1.421875q-2.53125 0 -4.0 -1.53125q-1.453125 -1.546875 -1.453125 -4.28125q0 -2.765625 1.359375 -4.390625q1.359375 -1.625 3.640625 -1.625q2.15625 0 3.390625 1.421875q1.25 1.40625 1.25 3.71875l0 1.09375l-7.859375 0q0.0625 2.0 1.015625 3.046875q0.96875 1.046875 2.71875 1.046875q1.84375 0 3.640625 -0.78125l0 1.546875q-0.90625 0.390625 -1.734375 0.5625q-0.8125 0.171875 -1.96875 0.171875zm-0.46875 -10.375q-1.375 0 -2.203125 0.890625q-0.8125 0.890625 -0.953125 2.484375l5.96875 0q0 -1.640625 -0.734375 -2.5q-0.71875 -0.875 -2.078125 -0.875zm10.356445 4.328125l-3.96875 -5.5625l1.96875 0l3.015625 4.359375l3.0 -4.359375l1.953125 0l-3.96875 5.5625l4.171875 5.84375l-1.953125 0l-3.203125 -4.625l-3.234375 4.625l-1.953125 0l4.171875 -5.84375zm12.111816 4.625q0.46875 0 0.890625 -0.0625q0.421875 -0.078125 0.671875 -0.140625l0 1.3125q-0.28125 0.140625 -0.828125 0.21875q-0.546875 0.09375 -0.984375 0.09375q-3.3125 0 -3.3125 -3.484375l0 -6.796875l-1.625 0l0 -0.828125l1.625 -0.71875l0.734375 -2.4375l1.0 0l0 2.65625l3.3125 0l0 1.328125l-3.3125 0l0 6.71875q0 1.03125 0.484375 1.59375q0.5 0.546875 1.34375 0.546875zm17.194702 1.21875l0 -7.390625q0 -1.390625 -0.640625 -2.078125q-0.625 -0.6875 -1.984375 -0.6875q-1.796875 0 -2.625 0.984375q-0.828125 0.96875 -0.828125 3.203125l0 5.96875l-1.734375 0l0 -16.203125l1.734375 0l0 4.90625q0 0.875 -0.078125 1.46875l0.09375 0q0.515625 -0.828125 1.453125 -1.296875q0.953125 -0.46875 2.15625 -0.46875q2.09375 0 3.140625 1.0q1.046875 0.984375 1.046875 3.140625l0 7.453125l-1.734375 0zm10.106201 0.203125q-2.53125 0 -4.0 -1.53125q-1.453125 -1.546875 -1.453125 -4.28125q0 -2.765625 1.359375 -4.390625q1.359375 -1.625 3.640625 -1.625q2.15625 0 3.390625 1.421875q1.25 1.40625 1.25 3.71875l0 1.09375l-7.859375 0q0.0625 2.0 1.015625 3.046875q0.96875 1.046875 2.71875 1.046875q1.84375 0 3.640625 -0.78125l0 1.546875q-0.90625 0.390625 -1.734375 0.5625q-0.8125 0.171875 -1.96875 0.171875zm-0.46875 -10.375q-1.375 0 -2.203125 0.890625q-0.8125 0.890625 -0.953125 2.484375l5.96875 0q0 -1.640625 -0.734375 -2.5q-0.71875 -0.875 -2.078125 -0.875zm12.825195 -1.453125q0.75 0 1.359375 0.125l-0.234375 1.609375q-0.71875 -0.15625 -1.25 -0.15625q-1.390625 0 -2.375 1.125q-0.984375 1.125 -0.984375 2.796875l0 6.125l-1.734375 0l0 -11.40625l1.4375 0l0.1875 2.109375l0.09375 0q0.625 -1.125 1.515625 -1.71875q0.90625 -0.609375 1.984375 -0.609375zm8.315674 11.828125q-2.53125 0 -4.0 -1.53125q-1.453125 -1.546875 -1.453125 -4.28125q0 -2.765625 1.359375 -4.390625q1.359375 -1.625 3.640625 -1.625q2.15625 0 3.390625 1.421875q1.25 1.40625 1.25 3.71875l0 1.09375l-7.859375 0q0.0625 2.0 1.015625 3.046875q0.96875 1.046875 2.71875 1.046875q1.84375 0 3.640625 -0.78125l0 1.546875q-0.90625 0.390625 -1.734375 0.5625q-0.8125 0.171875 -1.96875 0.171875zm-0.46875 -10.375q-1.375 0 -2.203125 0.890625q-0.8125 0.890625 -0.953125 2.484375l5.96875 0q0 -1.640625 -0.734375 -2.5q-0.71875 -0.875 -2.078125 -0.875z" fill-rule="nonzero"/><path fill="#cb1b4a" d="m978.78766 525.5469l0 0c0 -9.43335 7.647278 -17.080627 17.080627 -17.080627l0 0c4.5300293 0 8.874573 1.7995605 12.07782 5.0028076c3.203247 3.203247 5.0028076 7.5477295 5.0028076 12.07782l0 0c0 9.43335 -7.647278 17.080627 -17.080627 17.080627l0 0c-9.43335 0 -17.080627 -7.647278 -17.080627 -17.080627z" fill-rule="evenodd"/><path fill="#000000" fill-opacity="0.0" d="m1022.74097 507.08365l173.70337 0l0 35.54373l-173.70337 0z" fill-rule="evenodd"/><path fill="#282f39" d="m1037.7097 523.9543l4.0625 -7.609375l1.90625 0l-5.078125 9.3125l0 5.90625l-1.78125 0l0 -5.828125l-5.078125 -9.390625l1.9375 0l4.03125 7.609375zm17.663818 1.890625q0 2.796875 -1.40625 4.359375q-1.40625 1.5625 -3.890625 1.5625q-1.53125 0 -2.71875 -0.71875q-1.1875 -0.71875 -1.828125 -2.0625q-0.640625 -1.34375 -0.640625 -3.140625q0 -2.796875 1.390625 -4.34375q1.390625 -1.5625 3.875 -1.5625q2.390625 0 3.796875 1.59375q1.421875 1.59375 1.421875 4.3125zm-8.703125 0q0 2.1875 0.875 3.34375q0.875 1.140625 2.578125 1.140625q1.703125 0 2.578125 -1.140625q0.875 -1.140625 0.875 -3.34375q0 -2.171875 -0.875 -3.296875q-0.875 -1.140625 -2.59375 -1.140625q-1.703125 0 -2.578125 1.125q-0.859375 1.109375 -0.859375 3.3125zm13.350952 -5.6875l0 7.390625q0 1.40625 0.640625 2.09375q0.640625 0.6875 1.984375 0.6875q1.796875 0 2.625 -0.984375q0.828125 -0.984375 0.828125 -3.203125l0 -5.984375l1.71875 0l0 11.40625l-1.421875 0l-0.25 -1.53125l-0.09375 0q-0.53125 0.84375 -1.46875 1.296875q-0.9375 0.4375 -2.15625 0.4375q-2.078125 0 -3.125 -0.984375q-1.03125 -0.984375 -1.03125 -3.171875l0 -7.453125l1.75 0zm16.684326 -0.21875q0.75 0 1.359375 0.125l-0.234375 1.609375q-0.71875 -0.15625 -1.25 -0.15625q-1.390625 0 -2.375 1.125q-0.984375 1.125 -0.984375 2.796875l0 6.125l-1.734375 0l0 -11.40625l1.4375 0l0.1875 2.109375l0.09375 0q0.625 -1.125 1.515625 -1.71875q0.90625 -0.609375 1.984375 -0.609375zm12.715332 10.40625q0.46875 0 0.890625 -0.0625q0.421875 -0.078125 0.671875 -0.140625l0 1.3125q-0.28125 0.140625 -0.828125 0.21875q-0.546875 0.09375 -0.984375 0.09375q-3.3125 0 -3.3125 -3.484375l0 -6.796875l-1.625 0l0 -0.828125l1.625 -0.71875l0.734375 -2.4375l1.0 0l0 2.65625l3.3125 0l0 1.328125l-3.3125 0l0 6.71875q0 1.03125 0.484375 1.59375q0.5 0.546875 1.34375 0.546875zm8.670044 1.421875q-2.53125 0 -4.0 -1.53125q-1.453125 -1.546875 -1.453125 -4.28125q0 -2.765625 1.359375 -4.390625q1.359375 -1.625 3.640625 -1.625q2.15625 0 3.390625 1.421875q1.25 1.40625 1.25 3.71875l0 1.09375l-7.859375 0q0.0625 2.0 1.015625 3.046875q0.96875 1.046875 2.71875 1.046875q1.84375 0 3.640625 -0.78125l0 1.546875q-0.90625 0.390625 -1.734375 0.5625q-0.8125 0.171875 -1.96875 0.171875zm-0.46875 -10.375q-1.375 0 -2.203125 0.890625q-0.8125 0.890625 -0.953125 2.484375l5.96875 0q0 -1.640625 -0.734375 -2.5q-0.71875 -0.875 -2.078125 -0.875zm10.356445 4.328125l-3.96875 -5.5625l1.96875 0l3.015625 4.359375l3.0 -4.359375l1.953125 0l-3.96875 5.5625l4.171875 5.84375l-1.953125 0l-3.203125 -4.625l-3.234375 4.625l-1.953125 0l4.171875 -5.84375zm12.111816 4.625q0.46875 0 0.890625 -0.0625q0.421875 -0.078125 0.671875 -0.140625l0 1.3125q-0.28125 0.140625 -0.828125 0.21875q-0.546875 0.09375 -0.984375 0.09375q-3.3125 0 -3.3125 -3.484375l0 -6.796875l-1.625 0l0 -0.828125l1.625 -0.71875l0.734375 -2.4375l1.0 0l0 2.65625l3.3125 0l0 1.328125l-3.3125 0l0 6.71875q0 1.03125 0.484375 1.59375q0.5 0.546875 1.34375 0.546875zm17.194702 1.21875l0 -7.390625q0 -1.390625 -0.640625 -2.078125q-0.625 -0.6875 -1.984375 -0.6875q-1.796875 0 -2.625 0.984375q-0.828125 0.96875 -0.828125 3.203125l0 5.96875l-1.734375 0l0 -16.203125l1.734375 0l0 4.90625q0 0.875 -0.078125 1.46875l0.09375 0q0.515625 -0.828125 1.453125 -1.296875q0.953125 -0.46875 2.15625 -0.46875q2.09375 0 3.140625 1.0q1.046875 0.984375 1.046875 3.140625l0 7.453125l-1.734375 0zm10.106201 0.203125q-2.53125 0 -4.0 -1.53125q-1.453125 -1.546875 -1.453125 -4.28125q0 -2.765625 1.359375 -4.390625q1.359375 -1.625 3.640625 -1.625q2.15625 0 3.390625 1.421875q1.25 1.40625 1.25 3.71875l0 1.09375l-7.859375 0q0.0625 2.0 1.015625 3.046875q0.96875 1.046875 2.71875 1.046875q1.84375 0 3.640625 -0.78125l0 1.546875q-0.90625 0.390625 -1.734375 0.5625q-0.8125 0.171875 -1.96875 0.171875zm-0.46875 -10.375q-1.375 0 -2.203125 0.890625q-0.8125 0.890625 -0.953125 2.484375l5.96875 0q0 -1.640625 -0.734375 -2.5q-0.71875 -0.875 -2.078125 -0.875zm12.825195 -1.453125q0.75 0 1.359375 0.125l-0.234375 1.609375q-0.71875 -0.15625 -1.25 -0.15625q-1.390625 0 -2.375 1.125q-0.984375 1.125 -0.984375 2.796875l0 6.125l-1.734375 0l0 -11.40625l1.4375 0l0.1875 2.109375l0.09375 0q0.625 -1.125 1.515625 -1.71875q0.90625 -0.609375 1.984375 -0.609375zm8.315674 11.828125q-2.53125 0 -4.0 -1.53125q-1.453125 -1.546875 -1.453125 -4.28125q0 -2.765625 1.359375 -4.390625q1.359375 -1.625 3.640625 -1.625q2.15625 0 3.390625 1.421875q1.25 1.40625 1.25 3.71875l0 1.09375l-7.859375 0q0.0625 2.0 1.015625 3.046875q0.96875 1.046875 2.71875 1.046875q1.84375 0 3.640625 -0.78125l0 1.546875q-0.90625 0.390625 -1.734375 0.5625q-0.8125 0.171875 -1.96875 0.171875zm-0.46875 -10.375q-1.375 0 -2.203125 0.890625q-0.8125 0.890625 -0.953125 2.484375l5.96875 0q0 -1.640625 -0.734375 -2.5q-0.71875 -0.875 -2.078125 -0.875z" fill-rule="nonzero"/><path fill="#074d67" d="m1208.6387 49.196587l0 0c0 -13.07848 10.602173 -23.680683 23.680664 -23.680683l0 0c6.2805176 0 12.303711 2.4949226 16.744751 6.935913c4.440918 4.4409866 6.935913 10.46426 6.935913 16.74477l0 0c0 13.07848 -10.602173 23.68068 -23.680664 23.68068l0 0c-13.078491 0 -23.680664 -10.6022 -23.680664 -23.68068z" fill-rule="evenodd"/><path fill="#ffffff" d="m1237.7236 55.705334l0 2.03125l-11.34375 0q-0.03125 -0.765625 0.234375 -1.46875q0.4375 -1.15625 1.390625 -2.28125q0.953125 -1.125 2.765625 -2.609375q2.796875 -2.296875 3.78125 -3.625q0.984375 -1.34375 0.984375 -2.546875q0 -1.25 -0.90625 -2.109375q-0.890625 -0.859375 -2.328125 -0.859375q-1.515625 0 -2.4375 0.921875q-0.90625 0.90625 -0.921875 2.515625l-2.171875 -0.21875q0.21875 -2.421875 1.671875 -3.6875q1.453125 -1.28125 3.90625 -1.28125q2.46875 0 3.90625 1.375q1.453125 1.359375 1.453125 3.390625q0 1.03125 -0.421875 2.03125q-0.421875 1.0 -1.40625 2.109375q-0.96875 1.09375 -3.25 3.015625q-1.890625 1.59375 -2.4375 2.15625q-0.53125 0.5625 -0.890625 1.140625l8.421875 0z" fill-rule="nonzero"/><path fill="#000000" fill-opacity="0.0" d="m0 672.1245l1280.0 0l0 38.775024l-1280.0 0z" fill-rule="evenodd"/><path fill="#a5a5a5" d="m525.1699 699.1645l-3.796875 -12.453125l2.171875 0l1.984375 7.1875l0.734375 2.671875q0.046875 -0.203125 0.640625 -2.5625l1.984375 -7.296875l2.171875 0l1.859375 7.21875l0.625 2.390625l0.71875 -2.40625l2.125 -7.203125l2.046875 0l-3.890625 12.453125l-2.1875 0l-1.984375 -7.453125l-0.46875 -2.125l-2.53125 9.578125l-2.203125 0zm17.332031 0l-3.796875 -12.453125l2.171875 0l1.984375 7.1875l0.734375 2.671875q0.046875 -0.203125 0.640625 -2.5625l1.984375 -7.296875l2.171875 0l1.859375 7.21875l0.625 2.390625l0.71875 -2.40625l2.125 -7.203125l2.046875 0l-3.890625 12.453125l-2.1875 0l-1.984375 -7.453125l-0.46875 -2.125l-2.53125 9.578125l-2.203125 0zm17.332031 0l-3.796875 -12.453125l2.171875 0l1.984375 7.1875l0.734375 2.671875q0.046875 -0.203125 0.640625 -2.5625l1.984375 -7.296875l2.171875 0l1.859375 7.21875l0.625 2.390625l0.71875 -2.40625l2.125 -7.203125l2.046875 0l-3.890625 12.453125l-2.1875 0l-1.984375 -7.453125l-0.46875 -2.125l-2.53125 9.578125l-2.203125 0zm14.3203125 0l0 -2.40625l2.390625 0l0 2.40625l-2.390625 0zm5.9648438 4.796875l-0.234375 -1.984375q0.703125 0.1875 1.21875 0.1875q0.703125 0 1.125 -0.234375q0.421875 -0.234375 0.6875 -0.65625q0.203125 -0.3125 0.640625 -1.5625q0.0625 -0.1875 0.1875 -0.515625l-4.71875 -12.484375l2.265625 0l2.59375 7.21875q0.5 1.359375 0.90625 2.875q0.359375 -1.453125 0.859375 -2.828125l2.671875 -7.265625l2.109375 0l-4.734375 12.671875q-0.765625 2.046875 -1.1875 2.8125q-0.5625 1.046875 -1.296875 1.53125q-0.71875 0.484375 -1.734375 0.484375q-0.609375 0 -1.359375 -0.25zm11.3125 -11.015625q0 -3.46875 1.921875 -5.125q1.609375 -1.390625 3.921875 -1.390625q2.5625 0 4.1875 1.6875q1.625 1.6875 1.625 4.640625q0 2.40625 -0.71875 3.78125q-0.71875 1.375 -2.09375 2.140625q-1.375 0.765625 -3.0 0.765625q-2.625 0 -4.234375 -1.671875q-1.609375 -1.6875 -1.609375 -4.828125zm2.171875 0q0 2.390625 1.03125 3.578125q1.046875 1.1875 2.640625 1.1875q1.5625 0 2.609375 -1.1875q1.046875 -1.203125 1.046875 -3.65625q0 -2.3125 -1.0625 -3.5q-1.046875 -1.1875 -2.59375 -1.1875q-1.59375 0 -2.640625 1.1875q-1.03125 1.1875 -1.03125 3.578125zm20.113281 6.21875l0 -1.828125q-1.453125 2.109375 -3.9375 2.109375q-1.109375 0 -2.0625 -0.421875q-0.953125 -0.421875 -1.421875 -1.0625q-0.453125 -0.640625 -0.640625 -1.5625q-0.140625 -0.625 -0.140625 -1.96875l0 -7.71875l2.109375 0l0 6.90625q0 1.65625 0.140625 2.234375q0.1875 0.828125 0.828125 1.3125q0.65625 0.46875 1.609375 0.46875q0.9375 0 1.765625 -0.484375q0.84375 -0.5 1.1875 -1.328125q0.34375 -0.84375 0.34375 -2.4375l0 -6.671875l2.109375 0l0 12.453125l-1.890625 0zm5.1757812 0l0 -12.453125l1.890625 0l0 1.890625q0.734375 -1.328125 1.34375 -1.75q0.625 -0.421875 1.359375 -0.421875q1.0625 0 2.171875 0.6875l-0.734375 1.953125q-0.765625 -0.453125 -1.546875 -0.453125q-0.6875 0 -1.25 0.421875q-0.546875 0.40625 -0.78125 1.140625q-0.34375 1.125 -0.34375 2.46875l0 6.515625l-2.109375 0zm10.3046875 0l-3.796875 -12.453125l2.171875 0l1.984375 7.1875l0.734375 2.671875q0.046875 -0.203125 0.640625 -2.5625l1.984375 -7.296875l2.171875 0l1.859375 7.21875l0.625 2.390625l0.71875 -2.40625l2.125 -7.203125l2.046875 0l-3.890625 12.453125l-2.1875 0l-1.984375 -7.453125l-0.46875 -2.125l-2.53125 9.578125l-2.203125 0zm23.566406 -4.015625l2.171875 0.28125q-0.515625 1.90625 -1.90625 2.96875q-1.390625 1.046875 -3.5625 1.046875q-2.734375 0 -4.34375 -1.671875q-1.59375 -1.6875 -1.59375 -4.734375q0 -3.140625 1.609375 -4.875q1.625 -1.734375 4.203125 -1.734375q2.5 0 4.078125 1.703125q1.59375 1.703125 1.59375 4.78125q0 0.1875 -0.015625 0.5625l-9.28125 0q0.109375 2.046875 1.15625 3.140625q1.046875 1.09375 2.609375 1.09375q1.15625 0 1.96875 -0.609375q0.828125 -0.609375 1.3125 -1.953125zm-6.9375 -3.40625l6.953125 0q-0.140625 -1.5625 -0.796875 -2.359375q-1.0 -1.21875 -2.609375 -1.21875q-1.453125 0 -2.453125 0.984375q-0.984375 0.96875 -1.09375 2.59375zm13.707031 7.421875l-1.953125 0l0 -17.1875l2.109375 0l0 6.140625q1.328125 -1.6875 3.40625 -1.6875q1.140625 0 2.171875 0.46875q1.03125 0.46875 1.6875 1.3125q0.65625 0.828125 1.03125 2.015625q0.375 1.171875 0.375 2.53125q0 3.1875 -1.578125 4.9375q-1.578125 1.75 -3.796875 1.75q-2.203125 0 -3.453125 -1.84375l0 1.5625zm-0.03125 -6.3125q0 2.234375 0.609375 3.234375q1.0 1.625 2.703125 1.625q1.375 0 2.375 -1.203125q1.015625 -1.203125 1.015625 -3.578125q0 -2.4375 -0.96875 -3.59375q-0.953125 -1.171875 -2.328125 -1.171875q-1.390625 0 -2.40625 1.203125q-1.0 1.203125 -1.0 3.484375zm10.582031 2.59375l2.09375 -0.328125q0.171875 1.25 0.96875 1.921875q0.8125 0.671875 2.25 0.671875q1.453125 0 2.15625 -0.59375q0.703125 -0.59375 0.703125 -1.390625q0 -0.71875 -0.625 -1.125q-0.421875 -0.28125 -2.15625 -0.71875q-2.3125 -0.578125 -3.21875 -1.0q-0.890625 -0.4375 -1.359375 -1.1875q-0.453125 -0.765625 -0.453125 -1.671875q0 -0.828125 0.375 -1.53125q0.390625 -0.71875 1.046875 -1.1875q0.484375 -0.359375 1.328125 -0.609375q0.859375 -0.265625 1.828125 -0.265625q1.46875 0 2.578125 0.421875q1.109375 0.421875 1.625 1.15625q0.53125 0.71875 0.734375 1.921875l-2.0625 0.28125q-0.140625 -0.96875 -0.8125 -1.5q-0.671875 -0.546875 -1.90625 -0.546875q-1.453125 0 -2.078125 0.484375q-0.625 0.484375 -0.625 1.125q0 0.40625 0.265625 0.734375q0.25 0.34375 0.8125 0.5625q0.3125 0.125 1.859375 0.546875q2.234375 0.59375 3.109375 0.984375q0.890625 0.375 1.390625 1.109375q0.515625 0.71875 0.515625 1.796875q0 1.046875 -0.625 1.984375q-0.609375 0.9375 -1.765625 1.453125q-1.15625 0.5 -2.625 0.5q-2.421875 0 -3.703125 -1.0q-1.265625 -1.015625 -1.625 -3.0zm12.859375 -11.03125l0 -2.4375l2.109375 0l0 2.4375l-2.109375 0zm0 14.75l0 -12.453125l2.109375 0l0 12.453125l-2.109375 0zm9.925781 -1.890625l0.3125 1.859375q-0.890625 0.203125 -1.59375 0.203125q-1.15625 0 -1.796875 -0.359375q-0.625 -0.375 -0.890625 -0.96875q-0.25 -0.59375 -0.25 -2.484375l0 -7.171875l-1.546875 0l0 -1.640625l1.546875 0l0 -3.078125l2.09375 -1.265625l0 4.34375l2.125 0l0 1.640625l-2.125 0l0 7.28125q0 0.90625 0.109375 1.171875q0.125 0.25 0.375 0.40625q0.25 0.140625 0.71875 0.140625q0.34375 0 0.921875 -0.078125zm10.589844 -2.125l2.171875 0.28125q-0.515625 1.90625 -1.90625 2.96875q-1.390625 1.046875 -3.5625 1.046875q-2.734375 0 -4.34375 -1.671875q-1.59375 -1.6875 -1.59375 -4.734375q0 -3.140625 1.609375 -4.875q1.625 -1.734375 4.203125 -1.734375q2.5 0 4.078125 1.703125q1.59375 1.703125 1.59375 4.78125q0 0.1875 -0.015625 0.5625l-9.28125 0q0.109375 2.046875 1.15625 3.140625q1.046875 1.09375 2.609375 1.09375q1.15625 0 1.96875 -0.609375q0.828125 -0.609375 1.3125 -1.953125zm-6.9375 -3.40625l6.953125 0q-0.140625 -1.5625 -0.796875 -2.359375q-1.0 -1.21875 -2.609375 -1.21875q-1.453125 0 -2.453125 0.984375q-0.984375 0.96875 -1.09375 2.59375zm12.363281 7.421875l0 -2.40625l2.390625 0l0 2.40625l-2.390625 0zm14.183594 -4.5625l2.078125 0.265625q-0.34375 2.15625 -1.75 3.375q-1.390625 1.203125 -3.4375 1.203125q-2.546875 0 -4.109375 -1.671875q-1.546875 -1.671875 -1.546875 -4.78125q0 -2.015625 0.671875 -3.53125q0.671875 -1.515625 2.03125 -2.265625q1.359375 -0.765625 2.96875 -0.765625q2.03125 0 3.3125 1.03125q1.296875 1.03125 1.65625 2.90625l-2.046875 0.328125q-0.296875 -1.265625 -1.046875 -1.890625q-0.734375 -0.640625 -1.796875 -0.640625q-1.59375 0 -2.59375 1.15625q-0.984375 1.140625 -0.984375 3.609375q0 2.5 0.953125 3.640625q0.96875 1.140625 2.515625 1.140625q1.234375 0 2.0625 -0.765625q0.84375 -0.765625 1.0625 -2.34375zm3.09375 -1.65625q0 -3.46875 1.921875 -5.125q1.609375 -1.390625 3.921875 -1.390625q2.5625 0 4.1875 1.6875q1.625 1.6875 1.625 4.640625q0 2.40625 -0.71875 3.78125q-0.71875 1.375 -2.09375 2.140625q-1.375 0.765625 -3.0 0.765625q-2.625 0 -4.234375 -1.671875q-1.609375 -1.6875 -1.609375 -4.828125zm2.171875 0q0 2.390625 1.03125 3.578125q1.046875 1.1875 2.640625 1.1875q1.5625 0 2.609375 -1.1875q1.046875 -1.203125 1.046875 -3.65625q0 -2.3125 -1.0625 -3.5q-1.046875 -1.1875 -2.59375 -1.1875q-1.59375 0 -2.640625 1.1875q-1.03125 1.1875 -1.03125 3.578125zm11.957031 6.21875l0 -12.453125l1.890625 0l0 1.75q0.59375 -0.90625 1.5625 -1.46875q0.96875 -0.5625 2.21875 -0.5625q1.375 0 2.25 0.578125q0.890625 0.578125 1.265625 1.609375q1.46875 -2.1875 3.84375 -2.1875q1.84375 0 2.84375 1.03125q1.0 1.03125 1.0 3.15625l0 8.546875l-2.109375 0l0 -7.84375q0 -1.265625 -0.203125 -1.8125q-0.203125 -0.5625 -0.75 -0.90625q-0.53125 -0.34375 -1.25 -0.34375q-1.3125 0 -2.1875 0.875q-0.859375 0.875 -0.859375 2.796875l0 7.234375l-2.109375 0l0 -8.09375q0 -1.40625 -0.515625 -2.109375q-0.515625 -0.703125 -1.6875 -0.703125q-0.890625 0 -1.65625 0.46875q-0.75 0.46875 -1.09375 1.375q-0.34375 0.90625 -0.34375 2.609375l0 6.453125l-2.109375 0z" fill-rule="nonzero"/></g></svg>