<svg id="Icons" height="512" viewBox="0 0 74 74" width="512" xmlns="http://www.w3.org/2000/svg" style="fill:#272D37;"><path d="m37 72a1 1 0 0 1 -.492-.129c-16.944-9.583-26.662-23.738-26.662-38.835v-25.584a1 1 0 0 1 .678-.947 80.389 80.389 0 0 1 52.952 0 1 1 0 0 1 .678.947v25.584c0 15.1-9.718 29.252-26.662 38.835a1 1 0 0 1 -.492.129zm-25.154-63.829v24.865c0 14.211 9.16 27.6 25.154 36.813 15.994-9.21 25.154-22.6 25.154-36.813v-24.865a78.325 78.325 0 0 0 -50.308 0z"/><path d="m40.75 47h-7.5a1 1 0 0 1 -1-1v-7.25h-7.25a1 1 0 0 1 -1-1v-7.5a1 1 0 0 1 1-1h7.25v-7.25a1 1 0 0 1 1-1h7.5a1 1 0 0 1 1 1v7.25h7.25a1 1 0 0 1 1 1v7.5a1 1 0 0 1 -1 1h-7.25v7.25a1 1 0 0 1 -1 1zm-6.5-2h5.5v-7.25a1 1 0 0 1 1-1h7.25v-5.5h-7.25a1 1 0 0 1 -1-1v-7.25h-5.5v7.25a1 1 0 0 1 -1 1h-7.25v5.5h7.25a1 1 0 0 1 1 1z"/></svg>