<?xml version="1.0" encoding="UTF-8" standalone="no"?>
<svg
   width="152.51166"
   height="156.92159"
   viewBox="0 0 152.51166 156.92159"
   fill="none"
   version="1.1"
   id="svg41"
   sodipodi:docname="solution-custom.svg"
   inkscape:version="1.1.2 (b8e25be8, 2022-02-05)"
   xmlns:inkscape="http://www.inkscape.org/namespaces/inkscape"
   xmlns:sodipodi="http://sodipodi.sourceforge.net/DTD/sodipodi-0.dtd"
   xmlns="http://www.w3.org/2000/svg"
   xmlns:svg="http://www.w3.org/2000/svg">
  <defs
     id="defs45" />
  <sodipodi:namedview
     id="namedview43"
     pagecolor="#ffffff"
     bordercolor="#666666"
     borderopacity="1.0"
     inkscape:pageshadow="2"
     inkscape:pageopacity="0.0"
     inkscape:pagecheckerboard="0"
     showgrid="false"
     inkscape:zoom="3.3448276"
     inkscape:cx="25.561856"
     inkscape:cy="70.556701"
     inkscape:window-width="1440"
     inkscape:window-height="762"
     inkscape:window-x="0"
     inkscape:window-y="25"
     inkscape:window-maximized="1"
     inkscape:current-layer="svg41" />
  <path
     d="m 93.022155,7.4726627 -17.7253,1.9625 c -15.9404,26.7278003 -24.649,41.8233003 -39.8296,68.9869003 l 34.9192,21.879897 37.208005,19.763 c 18.27,-30.077997 27.789,-47.363797 43.601,-78.844497 z"
     fill="#ffffff"
     stroke="#797979"
     stroke-width="2"
     id="path9" />
  <path
     d="m 89.681255,17.621863 c 0,0 -13.3932,-7.3182 -13.3751,-7.7221003 0.0182,-0.4039 17.8201,-1.9939 18.0529,-1.6522 0.2329,0.3417 -4.6778,9.3743003 -4.6778,9.3743003 z"
     fill="#d0ebff"
     stroke="#797979"
     stroke-width="2"
     id="path11" />
  <path
     d="m 118.04946,32.789363 c -0.534,-0.322 -0.818,-0.3185 -1.266,0.4946 l -11.144,19.303 c -0.567,0.9269 -0.442,1.2055 0.098,1.5276 l 22.061,12.7367 c 0.419,0.2254 0.687,0.0076 1.188,-0.7846 l 11.145,-19.303 c 0.405,-0.7252 0.308,-1.067 -0.573,-1.5561 z"
     fill="#f3f3f3"
     stroke="#f3f3f3"
     stroke-width="2"
     id="path13" />
  <path
     d="m 113.87946,50.143863 6.695,-4.6734 c 1.817,-0.8677 2.015,-0.1978 2.18,1.2587 l -0.122,5.5613 c 0.129,0.7531 0.334,0.9384 0.775,1.1743 0.377,0.2684 0.678,0.2184 1.269,0.0058 l 6.375,-2.8599"
     stroke="#797979"
     id="path15" />
  <path
     d="m 20.142855,23.280063 -14.2435996,17.7904 c 9.7476996,38.5558 15.5189996,60.065497 26.3470996,98.328497 l 51.3249,-11.782 51.479205,-15.764 c -10.669,-43.687697 -17.687,-67.909597 -31.845,-110.6446973 z"
     fill="#ffffff"
     stroke="#797979"
     stroke-width="2"
     id="path17" />
  <path
     d="m 25.472255,35.992463 c 0,0 -18.7153196,5.4895 -19.0638896,5.1082 -0.34858,-0.3813 14.3007896,-17.9043 14.8199896,-17.806 0.5193,0.0984 4.2439,12.6978 4.2439,12.6978 z"
     fill="#f5f3f3"
     stroke="#797979"
     stroke-width="2"
     id="path19" />
  <path
     d="m 55.052255,63.770063 0.6247,0.9038 -26.6691,-3.1226 c -1.2611,9.3958 2.8607,18.9279 11.4229,24.1837 11.9144,7.314 28.0589,3.545 35.9282,-8.4168 7.8848,-11.9852 4.5776,-27.6333 -7.3618,-34.9624 -8.8111,-5.4087 -19.8746,-4.7858 -28.2437,0.7273 z m -14.3366,-20.7417 1e-4,1e-4 z"
     fill="#ffffff"
     stroke="#797979"
     id="path21" />
  <path
     d="m 35.865755,41.033863 14.0198,20.0487 -24.8513,-2.614 c 0.0979,-8.8289 4.2267,-13.7522 10.8315,-17.4347 z"
     fill="#f3f3f3"
     stroke="#f3f3f3"
     stroke-width="2"
     id="path23"
     style="fill:#ffe7cc;fill-opacity:1;stroke:#ffe7cc;stroke-opacity:1" />
  <path
     d="m 71.058455,57.780963 c -0.1569,11.3059 -0.0299,17.5031 0.6884,28.308 h 14.2854 v -27.4022 c -5.7328,-1.1596 -9.0054,-1.2514 -14.9738,-0.9058 z"
     fill="#ffffff"
     stroke="#797979"
     id="path25" />
  <path
     d="m 101.33846,55.460563 v 39.8564 h 12.359 c 0.406,-15.336 0.397,-24.2384 0,-39.8564 z"
     fill="#ffffff"
     stroke="#797979"
     id="path27" />
  <path
     d="m 87.614755,43.829863 1e-4,42.7341 13.450605,1.107 v -43.8411 c -4.914405,-0.6631 -7.901805,-0.5827 -13.450705,0 z"
     fill="#f3f3f3"
     stroke="#f3f3f3"
     stroke-width="2"
     id="path29"
     style="stroke:#ffe7cc;stroke-opacity:1;fill:#ffe7cc;fill-opacity:1" />
  <path
     d="m 4.0028154,154.76996 c -2.46377,-0.138 -2.98958,-1.022 -3,-3.5 V 74.769463 c -0.04597,-2.3163 0.56658,-3.1075 3,-3 H 147.00246 c 2.007,-0.043 2.596,0.5923 2.5,3 1.381,29.290497 1.123,45.706497 0,75.000497 -0.023,3.635 -0.542,5.04 -3.5,5 -55.062905,1.392 -86.075205,1.673 -141.9996446,0 z"
     fill="#ffffff"
     stroke="#797979"
     stroke-width="2"
     id="path31" />
  <path
     d="M 50.003055,126.47296 V 99.968963 c 0.0014,-1.753 0.3631,-2.376 1.6827,-2.804 l 20.3333,-7.713 c 2.461,-1.019 3.6779,-0.821 5.7494,0 l 19.6322,7.713 c 2.2408,0.967 3.017805,1.999 3.084805,5.187997 v 24.12 c 0.082,2.746 -0.243,3.703 -1.682505,4.066 l -21.0345,7.432 c -2.2452,0.914 -3.5042,1.181 -5.7494,0 l -20.3333,-6.59 c -1.2923,-0.492 -1.7232,-1.426 -1.6827,-4.908 z"
     stroke="#797979"
     stroke-width="2"
     id="path33" />
  <path
     d="m 50.704155,99.127963 22.1563,9.534997 c 1.3143,0.507 2.0512,0.521 3.3655,0 l 23.5585,-9.534997"
     stroke="#797979"
     stroke-width="2"
     id="path35" />
  <path
     d="m 74.683455,109.08396 v 29.588"
     stroke="#797979"
     stroke-width="2"
     id="path37" />
  <path
     d="m 74.000455,106.75996 -19.5,-8.499997 20.5,-7.5 19.5,8 z"
     fill="#d0ebff"
     stroke="#d0ebff"
     stroke-width="2"
     id="path39" />
</svg>
