<svg width="171" height="174" viewBox="0 0 171 174" fill="none" xmlns="http://www.w3.org/2000/svg">
<path d="M93.9099 23.7127L76.1846 25.6752C60.2441 52.403 51.5356 67.4985 36.3549 94.6621L71.2742 116.542L108.482 136.305C126.752 106.227 136.271 88.9412 152.084 57.4605L93.9099 23.7127Z" fill="white" stroke="#797979" stroke-width="2"/>
<path d="M90.569 33.8619C90.569 33.8619 77.1758 26.5437 77.1939 26.1398C77.212 25.7359 95.0139 24.1459 95.2468 24.4876C95.4797 24.8293 90.569 33.8619 90.569 33.8619Z" fill="#D0EBFF" stroke="#797979" stroke-width="2"/>
<path d="M118.938 49.0294C118.403 48.7074 118.119 48.7109 117.672 49.524L106.527 68.827C105.96 69.7539 106.085 70.0325 106.625 70.3546L128.686 83.0913C129.106 83.3167 129.373 83.0989 129.874 82.3067L141.019 63.0037C141.424 62.2785 141.327 61.9367 140.447 61.4476L118.938 49.0294Z" fill="#F3F3F3" stroke="#F3F3F3" stroke-width="2"/>
<path d="M114.767 66.3839L121.462 61.7105C123.279 60.8428 123.477 61.5127 123.643 62.9692L123.52 68.5305C123.649 69.2836 123.854 69.4689 124.296 69.7048C124.672 69.9732 124.973 69.9232 125.564 69.7106L131.939 66.8507" stroke="#797979"/>
<path d="M21.0306 39.5201L6.78699 57.3105C16.5347 95.8663 22.306 117.376 33.1341 155.639L84.459 143.857L135.939 128.093C125.269 84.4053 118.251 60.1834 104.093 17.4483L21.0306 39.5201Z" fill="white" stroke="#797979" stroke-width="2"/>
<path d="M26.3599 52.2325C26.3599 52.2325 7.64466 57.722 7.29609 57.3407C6.94752 56.9594 21.5969 39.4364 22.1161 39.5347C22.6354 39.6331 26.3599 52.2325 26.3599 52.2325Z" fill="#F5F3F3" stroke="#797979" stroke-width="2"/>
<path d="M55.94 80.0101L56.5647 80.9139L29.8956 77.7913C28.6345 87.1871 32.7563 96.7192 41.3185 101.975C53.2329 109.289 69.3774 105.52 77.2466 93.5582C85.1314 81.573 81.8242 65.9249 69.8849 58.5958C61.0738 53.1871 50.0103 53.81 41.6412 59.3231L55.94 80.0101ZM41.6034 59.2684L41.6034 59.2685L41.6034 59.2684Z" fill="white" stroke="#797979"/>
<path d="M36.7535 57.2739L50.7732 77.3226L25.922 74.7086C26.0198 65.8797 30.1486 60.9564 36.7535 57.2739Z" fill="#F3F3F3" stroke="#F3F3F3" stroke-width="2"/>
<path d="M71.9462 74.021C71.7893 85.3269 71.9163 91.5241 72.6346 102.329L86.92 102.329L86.92 74.9268C81.1872 73.7672 77.9146 73.6754 71.9462 74.021Z" fill="white" stroke="#797979"/>
<path d="M102.227 71.7006L102.227 111.557L114.585 111.557C114.991 96.221 114.982 87.3186 114.585 71.7006L102.227 71.7006Z" fill="white" stroke="#797979"/>
<path d="M88.5025 60.0699L88.5025 102.804L101.954 103.911L101.954 60.0699C97.0388 59.4068 94.0514 59.4872 88.5025 60.0699Z" fill="#F3F3F3" stroke="#F3F3F3" stroke-width="2"/>
<path d="M5.00236 171.01C2.53859 170.872 2.01278 169.988 2.00236 167.51V91.0095C1.95639 88.6932 2.56894 87.902 5.00236 88.0095H148.002C150.009 87.9665 150.598 88.6018 150.502 91.0095C151.883 120.3 151.625 136.716 150.502 166.01C150.479 169.645 149.96 171.05 147.002 171.01C91.9391 172.402 60.9268 172.683 5.00236 171.01Z" fill="white" stroke="#797979" stroke-width="2"/>
<path d="M56.3185 118.059L53.7111 123.734L57.3852 126.926C59.0979 128.864 58.9362 129.953 57.3852 131.892L53 134.02L55.3704 140.522H60.3481C62.1859 140.731 62.9198 141.294 63.5481 143.36L61.7704 148.798L67.6963 152.108L71.8444 148.325C73.2406 147.767 73.9886 147.841 75.163 149.744L77.2963 154L84.1704 153.054L85.1185 148.325C86.0097 146.579 86.8361 146.328 88.5556 146.433L92.8222 148.325L97.0889 143.36L94.2444 138.158C93.866 135.842 94.0042 134.738 96.5464 134.02H101V126.926L97.0889 125.626C95.1595 124.02 95.1675 122.966 95.6667 121.015L98.3926 118.059L94.2444 112.502L90.3608 114.412C88.7732 114.499 87.0599 113.781 85.4741 111.32L85.1185 107.064L78.4815 106L76.3481 109.901C74.877 111.234 73.8275 111.156 71.8444 110.611L69 107.064L62.4815 110.611L63.5481 114.867C63.1073 117.047 62.3952 117.7 60.3481 118.059H56.3185Z" fill="#D0EBFF" stroke="#797979" stroke-width="2"/>
<circle cx="77.2475" cy="130.247" r="8.89691" fill="white" stroke="#797979" stroke-width="2"/>
</svg>
