<?xml version="1.0" encoding="UTF-8" standalone="no"?>
<svg
   id="Слой_1"
   enable-background="new 0 0 64 64"
   viewBox="0 0 64 64"
   version="1.1"
   sodipodi:docname="wheel-bearing.svg"
   inkscape:version="1.2 (dc2aeda, 2022-05-15)"
   xmlns:inkscape="http://www.inkscape.org/namespaces/inkscape"
   xmlns:sodipodi="http://sodipodi.sourceforge.net/DTD/sodipodi-0.dtd"
   xmlns="http://www.w3.org/2000/svg"
   xmlns:svg="http://www.w3.org/2000/svg">
  <defs
     id="defs18" />
  <sodipodi:namedview
     id="namedview16"
     pagecolor="#ffffff"
     bordercolor="#666666"
     borderopacity="1.0"
     inkscape:showpageshadow="2"
     inkscape:pageopacity="0.0"
     inkscape:pagecheckerboard="0"
     inkscape:deskcolor="#d1d1d1"
     showgrid="false"
     inkscape:zoom="12.375"
     inkscape:cx="19.111111"
     inkscape:cy="32"
     inkscape:window-width="1390"
     inkscape:window-height="942"
     inkscape:window-x="232"
     inkscape:window-y="25"
     inkscape:window-maximized="0"
     inkscape:current-layer="Слой_1" />
  <path
     fill="#57585b"
     d="M32,4C16.5599976,4,4,16.5599976,4,32s12.5599976,28,28,28s28-12.5599976,28-28S47.4400024,4,32,4z M32,58   C17.6599731,58,6,46.3399658,6,32C6,17.6599731,17.6599731,6,32,6s26,11.6599731,26,26C58,46.3399658,46.3400269,58,32,58z"
     id="path9"
     style="fill:#646f79;fill-opacity:1" />
  <path
     fill="#57585b"
     d="M32 15.7399902c-8.9699707 0-16.2600098 7.289978-16.2600098 16.2600098 0 8.9699707 7.2900391 16.2600098 16.2600098 16.2600098S48.2600098 40.9699707 48.2600098 32C48.2600098 23.0299683 40.9699707 15.7399902 32 15.7399902zM32 46.2600098c-7.8699951 0-14.2600098-6.3900146-14.2600098-14.2600098S24.1300049 17.7399902 32 17.7399902 46.2600098 24.1300049 46.2600098 32 39.8699951 46.2600098 32 46.2600098zM31.960022 6.6799927c-2.2900391 0-4.1600342 1.8599854-4.1600342 4.1599731 0 2.2900391 1.8699951 4.1500244 4.1600342 4.1500244 2.289978 0 4.1599731-1.8599854 4.1599731-4.1500244C36.1199951 8.539978 34.25 6.6799927 31.960022 6.6799927zM31.960022 12.9899902c-1.1900024 0-2.1600342-.960022-2.1600342-2.1500244s.9700317-2.1599731 2.1600342-2.1599731 2.1599731.9699707 2.1599731 2.1599731S33.1500244 12.9899902 31.960022 12.9899902zM45.210022 16.1400146c-.1900024.1499634-.4100342.2299805-.6300049.2299805-.2900391 0-.5800171-.1300049-.7800293-.3800049-1.0499878-1.289978-3.6799927-2.1699829-4.6099854-2.4000244-.539978-.1300049-.8699951-.6699829-.7299805-1.2099609.1300049-.5300293.6699829-.8600464 1.1999512-.7300415.1700439.0400391 4 1 5.6900024 3.0900269C45.7000122 15.1699829 45.6400146 15.789978 45.210022 16.1400146zM53.9099731 19.2999878c-.5599976-.960022-1.4499512-1.6500244-2.5299683-1.9299927-1.0700073-.2900391-2.1900024-.1500244-3.1500244.4099731-.9599609.5599976-1.6499634 1.4500122-1.9400024 2.5300293C46 21.3800049 46.1500244 22.5 46.710022 23.4599609c.5499878.960022 1.4499512 1.6500244 2.5199585 1.9400024.3600464.0900269.7200317.1400146 1.0800171.1400146.7299805 0 1.4400024-.1900024 2.0800171-.5599976C54.3699951 23.8399658 55.0499878 21.289978 53.9099731 19.2999878zM52.3900146 21.9400024c-.1500244.5599976-.5 1.0199585-1 1.3099976-1.0300293.5999756-2.3599854.2399902-2.9500122-.7900391-.289978-.5-.3599854-1.0799561-.2200317-1.6399536.1500244-.5500488.5100098-1.0200195 1.0100098-1.3099976.3300171-.1900024.7000122-.2900391 1.0700073-.2900391.1900024 0 .3800049.0300293.5700073.0800171.5499878.1500244 1.0200195.5 1.3099976 1C52.460022 20.7999878 52.539978 21.3800049 52.3900146 21.9400024zM53.4400024 34.7399902c-.1500244.4000244-.5300293.6400146-.9299927.6400146-.1199951 0-.2399902-.0200195-.3599854-.0599976-.5200195-.2000122-.7700195-.7800293-.5700073-1.3000488.5899658-1.5499878.039978-4.2699585-.2300415-5.1900024C51.2000122 28.2999878 51.5 27.7399902 52.0300293 27.5899658c.5299683-.1499634 1.0899658.1500244 1.2399902.6799927C53.3200073 28.4299927 54.4000244 32.2299805 53.4400024 34.7399902zM54.3699951 41.4699707c-.289978-1.0700073-.9799805-1.9699707-1.9400024-2.5199585-1.9899902-1.1500244-4.5299683-.4700317-5.6799927 1.5199585C45.5999756 42.4500122 46.289978 45 48.2700195 46.1499634c.6499634.3699951 1.3699951.5500488 2.0700073.5500488 1.4400024 0 2.8399658-.7400513 3.6099854-2.0800171C54.5100098 43.6599731 54.6500244 42.539978 54.3699951 41.4699707zM52.2199707 43.6199951c-.5999756 1.0299683-1.9199829 1.3900146-2.9499512.789978C48.2399902 43.8200073 47.8900146 42.5 48.4799805 41.4699707c.2900391-.5.75-.8599854 1.3099976-1.0100098.5599976-.1499634 1.1400146-.0699463 1.6400146.2200317s.8500366.75 1 1.3099976C52.5800171 42.539978 52.5100098 43.1300049 52.2199707 43.6199951zM45.8800049 49.1499634c-.1199951.1300049-2.8699951 2.9700317-5.5200195 3.3900146-.0499878.0100098-.0999756.0100098-.1599731.0100098-.4800415 0-.9000244-.3499756-.9800415-.8400269C39.1300049 51.1599731 39.5 50.6499634 40.0499878 50.5599976c1.6500244-.2600098 3.7200317-2.1000366 4.3900146-2.7900391.3800049-.3999634 1.0100098-.4099731 1.4099731-.0299683C46.25 48.1199951 46.2600098 48.7600098 45.8800049 49.1499634zM32.039978 49.0100098c-2.289978 0-4.1599731 1.8599854-4.1599731 4.1499634 0 2.2999878 1.8699951 4.1600342 4.1599731 4.1600342 2.2900391 0 4.1600342-1.8600464 4.1600342-4.1600342C36.2000122 50.8699951 34.3300171 49.0100098 32.039978 49.0100098zM32.039978 55.3200073c-1.1900024 0-2.1599731-.9700317-2.1599731-2.1600342s.9699707-2.1499634 2.1599731-2.1499634 2.1600342.9599609 2.1600342 2.1499634S33.2299805 55.3200073 32.039978 55.3200073zM25.2299805 51.4400024c-.1099854.4599609-.5199585.7699585-.9699707.7699585-.0800171 0-.1600342-.0099487-.2399902-.0299683-.1600342-.039978-4-1-5.6900024-3.0900269-.3500366-.4299927-.2800293-1.0599976.1499634-1.3999634.4299927-.3500366 1.0599976-.2900391 1.4000244.1399536 1.0599976 1.3100586 3.6900024 2.1800537 4.6099854 2.4100342C25.0300293 50.3699951 25.3599854 50.9099731 25.2299805 51.4400024zM17.289978 40.539978c-.5499878-.960022-1.4499512-1.6499634-2.5199585-1.9400024-1.0800171-.289978-2.2000122-.1400146-3.1600342.4199829-1.9799805 1.1400146-2.6599731 3.6900024-1.5199585 5.6800537.5599976.9599609 1.4499512 1.6499634 2.5299683 1.9299927.3499756.0999756.7200317.1499634 1.0800171.1499634.7199707 0 1.4299927-.1900024 2.0700073-.5599976.9599609-.5599976 1.6499634-1.4500122 1.9400024-2.5299683C18 42.6199951 17.8499756 41.5 17.289978 40.539978zM15.7800293 43.1799927c-.1500244.5499878-.5100098 1.0200195-1.0100098 1.3099976s-1.0800171.3599854-1.6400146.210022c-.5499878-.1500244-1.0200195-.5-1.3099976-1-.2800293-.5-.3599854-1.0800171-.210022-1.6400146.1500244-.5599976.5-1.0200195 1-1.3099976 1.0300293-.6000366 2.3500366-.2399902 2.9500122.789978C15.8499756 42.039978 15.9199829 42.6199951 15.7800293 43.1799927zM11.7000122 35.3399658c-.0900269.0300293-.1799927.0400391-.2800293.0400391-.4299927 0-.8299561-.2800293-.9599609-.7200317C10.4199829 34.5 9.3300171 30.7000122 10.289978 28.1900024c.2000122-.5100098.7800293-.7700195 1.2900391-.5700073.5199585.1900024.7799683.7700195.5799561 1.289978-.5999756 1.5599976-.039978 4.2800293.2200317 5.1900024C12.539978 34.6300049 12.2299805 35.1900024 11.7000122 35.3399658zM15.7299805 17.8499756c-1.9899902-1.1400146-4.5299683-.4599609-5.6799927 1.5300293-.5599976.9599609-.7000122 2.0799561-.4199829 3.1499634.289978 1.0700073.9799805 1.9700317 1.9400024 2.5200195.6499634.3800049 1.3699951.5599976 2.0700073.5599976 1.4400024 0 2.8399658-.75 3.6099854-2.0800171C18.4000244 21.5499878 17.710022 19 15.7299805 17.8499756zM15.5200195 22.5299683c-.2900391.5-.75.8600464-1.3099976 1.0100098-.5599976.1500244-1.1400146.0700073-1.6400146-.2199707-.5-.2900391-.8500366-.75-1-1.3099976-.1500244-.5500488-.0800171-1.1400146.210022-1.6300049.3999634-.7000122 1.1299438-1.0800171 1.8699951-1.0800171.3699951 0 .7399902.0900269 1.0799561.289978C15.7600098 20.1799927 16.1099854 21.5 15.5200195 22.5299683zM25.1500244 12.289978c.0799561.5499878-.2900391 1.0599976-.8400269 1.1500244-1.6400146.2600098-3.7199707 2.0999756-4.3800049 2.789978-.2000122.2000122-.460022.3099976-.7199707.3099976-.25 0-.5-.0999756-.7000122-.2799683-.3900146-.3800049-.4100342-1.0200195-.0300293-1.4100342C18.5999756 14.7199707 21.3499756 11.8800049 24 11.4599609 24.539978 11.3800049 25.0599976 11.75 25.1500244 12.289978z"
     id="path11"
     style="fill:#646f79;fill-opacity:1" />
  <path
     fill="#57585b"
     d="M32,20.6799927c-6.2399902,0-11.3200073,5.0800171-11.3200073,11.3200073S25.7600098,43.3200073,32,43.3200073   S43.3200073,38.2399902,43.3200073,32S38.2399902,20.6799927,32,20.6799927z M32,41.3200073   c-5.1400146,0-9.3200073-4.1799927-9.3200073-9.3200073S26.8599854,22.6799927,32,22.6799927S41.3200073,26.8599854,41.3200073,32   S37.1400146,41.3200073,32,41.3200073z"
     id="path13"
     style="fill:#646f79;fill-opacity:1" />
</svg>
